<svg xmlns="http://www.w3.org/2000/svg" width="62" height="60" fill="none"><mask id="a" width="62" height="60" x="0" y="0" maskUnits="userSpaceOnUse" style="mask-type:luminance"><path fill="#fff" d="M61.038 0H.602v59.449h60.436V0Z"/></mask><g mask="url(#a)"><path fill="#EEF6FE" d="M38.372 17.273a7.39 7.39 0 0 1-2.212 5.264 7.61 7.61 0 0 1-5.34 2.181 7.602 7.602 0 0 1-5.341-2.181 7.39 7.39 0 0 1-2.212-5.264 7.39 7.39 0 0 1 2.212-5.264 7.61 7.61 0 0 1 5.34-2.182 7.61 7.61 0 0 1 5.34 2.182 7.39 7.39 0 0 1 2.213 5.264Zm-19.428 3.03a79.146 79.146 0 0 1-1.53-11.288c9.284-1.113 17.367-1.113 26.816.024-.063 2.201-.35 6.937-1.207 11.332-.505 2.582-1.157 4.8-1.943 6.289-.534 1.013-.9 1.3-1.022 1.365H21.82c-.193-.2-.496-.604-.849-1.313-.778-1.541-1.463-3.81-2.027-6.405M7.46 1.517A1.65 1.65 0 0 0 6.871.392 1.7 1.7 0 0 0 5.643.008l-3.347.28c-.219.02-.433.08-.626.176a1.646 1.646 0 0 0-.829.969 1.578 1.578 0 0 0-.071.64l.55 6.401a1.601 1.601 0 0 0-.559.657c-.126.26-.176.552-.151.84a1.65 1.65 0 0 0 .954 1.357l.59 6.817c.02.217.079.429.18.621a1.665 1.665 0 0 0 .98.817c.21.068.433.092.652.072l3.343-.28a1.667 1.667 0 0 0 1.14-.581c.285-.336.428-.768.39-1.205l-.622-7.19c.858-.151 1.699-.291 2.527-.432.177 2.73.69 7.358 1.632 11.721.601 2.778 1.43 5.68 2.578 7.962.571 1.137 1.311 2.302 2.296 3.223.866.812 2.043 1.533 3.494 1.72v7.166l-.547-.192-.374-.132c-1.686-.593-3.402-1.2-4.71-1.525-.635-.16-1.593-.364-2.54-.28-.807.06-1.572.36-2.207.852a3.707 3.707 0 0 0-1.018 1.281 3.593 3.593 0 0 0-.357 1.59c0 1.36.47 4.863.874 7.657.244 1.725.505 3.45.774 5.176l.055.344.016.092v.024l.005.008c.13.801.55 1.53 1.19 2.042.635.516 1.442.78 2.266.748a3.387 3.387 0 0 0 2.195-.924 3.298 3.298 0 0 0 1.014-2.134l.622-8.562c1.863.66 4.041 1.417 6.194 2.013 2.137.593 4.483 1.093 6.628 1.093 2.144 0 4.486-.5 6.623-1.093 2.132-.588 4.289-1.345 6.143-1.997l.669 8.562a3.278 3.278 0 0 0 1.022 2.13 3.392 3.392 0 0 0 4.457.172 3.315 3.315 0 0 0 1.186-2.046v-.036l.021-.092.055-.348.193-1.245c.156-1.037.37-2.446.58-3.927.404-2.798.875-6.3.875-7.658 0-.976-.387-2.081-1.375-2.87a4.055 4.055 0 0 0-2.208-.852c-.941-.084-1.904.124-2.54.28-1.307.328-3.019.933-4.705 1.525l-.374.132-.547.192v-7.157c3.175-.352 5.097-2.882 6.156-4.9 1.228-2.338 2.032-5.288 2.574-8.082.854-4.363 1.19-8.947 1.295-11.633.82.133 1.648.273 2.494.42l-.618 7.178c-.038.436.105.873.39 1.205.287.336.699.544 1.145.58l3.343.28a1.673 1.673 0 0 0 1.632-.889c.1-.191.163-.403.18-.62l.589-6.817c.265-.124.496-.312.664-.552.168-.236.27-.516.294-.805.026-.288-.029-.58-.155-.84a1.695 1.695 0 0 0-.56-.657l.551-6.4a1.66 1.66 0 0 0-1.53-1.786L56 .004a1.69 1.69 0 0 0-1.224.384c-.34.28-.55.689-.589 1.125l-.483 5.584c-1.073-.184-2.12-.36-3.15-.52A3.363 3.363 0 0 0 48.086 4.9a3.388 3.388 0 0 0-2.839.929c-10.201-1.27-18.839-1.266-28.864-.017a3.407 3.407 0 0 0-1.303-.78 3.433 3.433 0 0 0-1.523-.128c-.508.072-.996.26-1.42.548a3.34 3.34 0 0 0-1.031 1.113c-1.035.16-2.086.336-3.162.524l-.48-5.576-.004.004Z"/></g></svg>