<svg xmlns="http://www.w3.org/2000/svg" width="75" height="69" fill="none"><mask id="a" width="75" height="69" x="0" y="0" maskUnits="userSpaceOnUse" style="mask-type:luminance"><path fill="#fff" d="M74.72 0H.346v68.733H74.72V0Z"/></mask><g mask="url(#a)"><path fill="#EEF6FE" d="M.346 49.984h50.709v6.252H.345v-6.252Zm50.811-6.246c0-24.995-50.811-24.995-50.811 0h50.811ZM.346 65.61V62.48h50.811v3.129c0 1.684-1.522 3.123-3.481 3.123H3.73c-1.862 0-3.384-1.439-3.384-3.123Zm57.671 3.123h5.611c2.84 0 5.174-2.028 5.51-4.595l5.576-51.483H57.813V0h-6.662v12.655H34.352l1.011 7.31c5.782 1.465 11.188 4.12 14.437 7.057 4.867 4.437 8.217 9.026 8.217 16.525v25.186Z"/></g></svg>