<svg width="408" height="90" viewBox="0 0 408 90" fill="none" xmlns="http://www.w3.org/2000/svg">
<g filter="url(#filter0_d_1490_1125)">
<rect x="8" width="392.4" height="75.6" rx="18" fill="url(#paint0_linear_1490_1125)"/>
</g>
<circle cx="49.4855" cy="37.8847" r="25.2844" fill="white"/>
<mask id="mask0_1490_1125" style="mask-type:alpha" maskUnits="userSpaceOnUse" x="36" y="25" width="28" height="28">
<rect x="36.8418" y="25.2427" width="26.8646" height="26.8646" fill="#D9D9D9"/>
</mask>
<g mask="url(#mask0_1490_1125)">
<path d="M59.1724 48.7496C56.8404 48.7496 54.5364 48.2412 52.2603 47.2244C49.9843 46.2077 47.9135 44.7665 46.0479 42.9009C44.1823 41.0353 42.7411 38.9645 41.7243 36.6885C40.7076 34.4124 40.1992 32.1084 40.1992 29.7764C40.1992 29.4406 40.3112 29.1608 40.535 28.9369C40.7589 28.713 41.0387 28.6011 41.3745 28.6011H45.908C46.1691 28.6011 46.4023 28.6897 46.6076 28.8669C46.8128 29.0442 46.934 29.254 46.9713 29.4966L47.6989 33.4143C47.7362 33.7128 47.7269 33.9647 47.6709 34.1699C47.615 34.3751 47.5124 34.5523 47.3631 34.7016L44.6487 37.444C45.0218 38.1343 45.4649 38.8012 45.9779 39.4449C46.491 40.0885 47.0553 40.7088 47.6709 41.3058C48.2493 41.8842 48.8556 42.4205 49.4899 42.9149C50.1242 43.4093 50.7958 43.8617 51.5048 44.2721L54.1353 41.6416C54.3032 41.4737 54.5224 41.3478 54.7929 41.2638C55.0634 41.1799 55.3292 41.1566 55.5904 41.1939L59.4522 41.9774C59.7134 42.0521 59.9279 42.1873 60.0958 42.3832C60.2638 42.5791 60.3477 42.7983 60.3477 43.0408V47.5742C60.3477 47.91 60.2358 48.1899 60.0119 48.4138C59.788 48.6376 59.5082 48.7496 59.1724 48.7496Z" fill="#EA6F54"/>
</g>
<path d="M111.452 42.1097C111.452 42.8993 111.305 43.7015 111.011 44.5163C110.717 45.3311 110.268 46.0871 109.663 46.7843C109.066 47.4731 108.31 48.0275 107.395 48.4475C106.479 48.8675 105.404 49.0775 104.169 49.0775C102.498 49.0775 101.07 48.6701 99.8852 47.8553C98.7092 47.0321 97.8104 45.9023 97.1888 44.4659C96.5756 43.0295 96.269 41.3789 96.269 39.5141C96.269 37.6409 96.5756 35.9861 97.1888 34.5497C97.8104 33.1133 98.7092 31.9877 99.8852 31.1729C101.07 30.3581 102.498 29.9507 104.169 29.9507C105.555 29.9507 106.74 30.2153 107.722 30.7445C108.705 31.2737 109.491 31.9541 110.079 32.7857C110.667 33.6173 111.061 34.4867 111.263 35.3939C111.389 35.9231 111.452 36.4271 111.452 36.9059H108.113C108.113 36.6623 108.096 36.4103 108.063 36.1499C107.97 35.5115 107.756 34.9319 107.42 34.4111C107.092 33.8819 106.656 33.4661 106.11 33.1637C105.564 32.8529 104.917 32.6975 104.169 32.6975C103.279 32.6975 102.493 32.9453 101.813 33.4409C101.141 33.9365 100.612 34.6883 100.225 35.6963C99.839 36.7043 99.6458 37.9769 99.6458 39.5141C99.6458 41.0345 99.839 42.3029 100.225 43.3193C100.612 44.3357 101.141 45.0959 101.813 45.5999C102.493 46.1039 103.279 46.3559 104.169 46.3559C104.808 46.3559 105.37 46.2383 105.858 46.0031C106.345 45.7679 106.756 45.4529 107.092 45.0581C107.428 44.6549 107.68 44.2013 107.848 43.6973C108.025 43.1933 108.113 42.6641 108.113 42.1097H111.452ZM119.325 49.0775C118.325 49.0775 117.447 48.9221 116.691 48.6113C115.935 48.2921 115.343 47.8343 114.915 47.2379C114.486 46.6415 114.272 45.9233 114.272 45.0833C114.272 44.1677 114.52 43.4159 115.015 42.8279C115.519 42.2315 116.196 41.7737 117.044 41.4545C117.892 41.1269 118.833 40.9169 119.866 40.8245C121.395 40.6733 122.462 40.5305 123.067 40.3961C123.68 40.2533 123.987 40.0265 123.987 39.7157C123.987 39.7073 123.987 39.7031 123.987 39.7031C123.987 39.6947 123.987 39.6905 123.987 39.6905C123.987 39.1025 123.722 38.6489 123.193 38.3297C122.664 38.0105 121.916 37.8509 120.95 37.8509C119.934 37.8509 119.152 38.0315 118.606 38.3927C118.069 38.7455 117.8 39.3083 117.8 40.0811H114.524C114.524 39.0311 114.801 38.1449 115.356 37.4225C115.918 36.6917 116.687 36.1373 117.661 35.7593C118.636 35.3813 119.74 35.1923 120.975 35.1923C122.126 35.1923 123.18 35.3645 124.138 35.7089C125.095 36.0533 125.864 36.5741 126.444 37.2713C127.023 37.9685 127.313 38.8379 127.313 39.8795C127.313 40.0559 127.313 40.2323 127.313 40.4087C127.313 40.5851 127.313 40.7615 127.313 40.9379V45.9779C127.313 46.2971 127.321 46.6121 127.338 46.9229C127.363 47.2253 127.41 47.4983 127.477 47.7419C127.561 48.0107 127.662 48.2375 127.779 48.4223C127.897 48.6071 127.989 48.7331 128.056 48.8003H124.78C124.722 48.7415 124.638 48.6281 124.528 48.4601C124.428 48.2837 124.335 48.0821 124.251 47.8553C124.167 47.6033 124.104 47.3345 124.062 47.0489C124.02 46.7549 123.999 46.4315 123.999 46.0787L124.654 46.5323C124.402 47.0447 124.016 47.4941 123.495 47.8805C122.983 48.2585 122.37 48.5525 121.656 48.7625C120.942 48.9725 120.165 49.0775 119.325 49.0775ZM120.131 46.4693C120.82 46.4693 121.458 46.3517 122.046 46.1165C122.634 45.8813 123.109 45.5201 123.47 45.0329C123.831 44.5373 124.012 43.9031 124.012 43.1303V41.3411L124.818 42.2483C124.281 42.4499 123.634 42.6179 122.878 42.7523C122.122 42.8783 121.357 42.9791 120.585 43.0547C119.593 43.1471 118.846 43.3193 118.342 43.5713C117.846 43.8233 117.598 44.2349 117.598 44.8061C117.598 45.3605 117.808 45.7763 118.228 46.0535C118.648 46.3307 119.283 46.4693 120.131 46.4693ZM134.346 29.1065V48.8003H131.083V29.1065H134.346ZM141.692 29.1065V48.8003H138.428V29.1065H141.692ZM151.519 48.8003L156.32 30.1901H161.561L166.324 48.8003H162.91L158.928 32.2439H158.953L154.934 48.8003H151.519ZM154.619 44.2769V41.6183H163.262V44.2769H154.619ZM178.745 48.8003V42.8657C178.745 42.5297 178.745 42.2357 178.745 41.9837C178.745 41.7233 178.745 41.4881 178.745 41.2781C178.745 40.6733 178.657 40.1315 178.48 39.6527C178.312 39.1655 178.018 38.7833 177.598 38.5061C177.187 38.2289 176.616 38.0903 175.885 38.0903C175.246 38.0903 174.679 38.2457 174.184 38.5565C173.688 38.8589 173.298 39.2789 173.012 39.8165C172.735 40.3457 172.596 40.9589 172.596 41.6561L171.475 40.9631C171.475 39.8459 171.727 38.8547 172.231 37.9895C172.743 37.1159 173.428 36.4313 174.285 35.9357C175.141 35.4401 176.091 35.1923 177.132 35.1923C178.207 35.1923 179.11 35.4023 179.841 35.8223C180.58 36.2423 181.135 36.8387 181.504 37.6115C181.882 38.3843 182.071 39.2915 182.071 40.3331C182.071 40.7363 182.071 41.1899 182.071 41.6939C182.071 42.1979 182.071 42.6935 182.071 43.1807V48.8003H178.745ZM169.282 48.8003V35.4191H172.596V48.8003H169.282ZM194.364 32.8613L195.863 31.2107V39.1487L195.082 38.1533H202.037V40.7993H195.082L195.863 39.8165V47.8049L194.364 46.1543H203.436V48.8003H192.524V30.2153H203.436V32.8613H194.364ZM211.036 41.5049L211.011 43.0169L205.555 35.4191H209.184L213.291 41.3789L211.3 41.3663L215.332 35.4191H218.886L213.657 42.5885L213.568 41.2025L218.961 48.8003H215.332L211.162 42.8531L213.405 42.6515L208.906 48.8003H205.353L211.036 41.5049ZM221.6 54.3065V35.4191H224.914V54.3065H221.6ZM229.135 49.0775C228.093 49.0775 227.127 48.8087 226.237 48.2711C225.355 47.7251 224.641 46.9817 224.095 46.0409C223.557 45.1001 223.288 44.0417 223.288 42.8657C223.288 42.8321 223.288 42.8027 223.288 42.7775C223.288 42.7439 223.288 42.7145 223.288 42.6893L224.926 42.6515C224.926 42.6683 224.926 42.6893 224.926 42.7145C224.926 42.7397 224.926 42.7607 224.926 42.7775C224.926 43.4327 225.09 44.0165 225.418 44.5289C225.745 45.0329 226.17 45.4319 226.69 45.7259C227.22 46.0115 227.782 46.1543 228.379 46.1543C229.345 46.1543 230.168 45.8225 230.848 45.1589C231.529 44.4953 231.869 43.4663 231.869 42.0719C231.869 40.6691 231.529 39.6443 230.848 38.9975C230.176 38.3423 229.353 38.0147 228.379 38.0147C227.791 38.0147 227.232 38.1575 226.703 38.4431C226.182 38.7203 225.754 39.1067 225.418 39.6023C225.09 40.0979 224.926 40.6775 224.926 41.3411L223.288 41.2655C223.288 40.0811 223.557 39.0311 224.095 38.1155C224.641 37.1999 225.355 36.4859 226.237 35.9735C227.127 35.4527 228.093 35.1923 229.135 35.1923C230.218 35.1923 231.226 35.4569 232.159 35.9861C233.1 36.5153 233.856 37.2923 234.427 38.3171C235.006 39.3419 235.296 40.5935 235.296 42.0719C235.296 43.5923 235.015 44.8733 234.452 45.9149C233.889 46.9565 233.142 47.7461 232.209 48.2837C231.277 48.8129 230.252 49.0775 229.135 49.0775ZM239.778 43.1807V40.8245H249.14L248.762 41.4545C248.762 41.4041 248.762 41.3495 248.762 41.2907C248.762 41.2235 248.762 41.1689 248.762 41.1269C248.762 40.5473 248.631 40.0055 248.371 39.5015C248.111 38.9891 247.716 38.5775 247.187 38.2667C246.657 37.9475 245.985 37.7879 245.171 37.7879C244.364 37.7879 243.663 37.9601 243.066 38.3045C242.478 38.6405 242.021 39.1277 241.693 39.7661C241.374 40.4045 241.214 41.1689 241.214 42.0593C241.214 42.9749 241.37 43.7645 241.68 44.4281C241.991 45.0833 242.445 45.5873 243.041 45.9401C243.646 46.2845 244.381 46.4567 245.246 46.4567C245.834 46.4567 246.342 46.4021 246.771 46.2929C247.199 46.1837 247.548 46.0367 247.817 45.8519C248.094 45.6587 248.3 45.4529 248.434 45.2345C248.577 45.0161 248.661 44.7977 248.686 44.5793H251.987C251.937 45.1421 251.748 45.6923 251.42 46.2299C251.101 46.7591 250.652 47.2421 250.072 47.6789C249.492 48.1073 248.787 48.4517 247.955 48.7121C247.132 48.9641 246.191 49.0901 245.133 49.0901C243.696 49.0901 242.441 48.7961 241.365 48.2081C240.29 47.6201 239.45 46.8011 238.845 45.7511C238.249 44.7011 237.951 43.4999 237.951 42.1475C237.951 40.7615 238.253 39.5477 238.858 38.5061C239.471 37.4645 240.32 36.6539 241.403 36.0743C242.487 35.4863 243.73 35.1923 245.133 35.1923C246.578 35.1923 247.825 35.4863 248.875 36.0743C249.933 36.6623 250.748 37.4813 251.319 38.5313C251.891 39.5729 252.176 40.7867 252.176 42.1727C252.176 42.3491 252.172 42.5381 252.164 42.7397C252.155 42.9413 252.143 43.0883 252.126 43.1807H239.778ZM255.412 48.8003V35.4191H258.726V39.8669L257.958 39.4385C258.042 38.8589 258.197 38.3129 258.424 37.8005C258.651 37.2797 258.953 36.8261 259.331 36.4397C259.709 36.0449 260.167 35.7383 260.704 35.5199C261.242 35.3015 261.855 35.1923 262.544 35.1923C263.09 35.1923 263.518 35.2343 263.829 35.3183C264.148 35.3939 264.346 35.4569 264.421 35.5073L263.817 38.5439C263.733 38.4851 263.56 38.4137 263.3 38.3297C263.048 38.2373 262.708 38.1911 262.279 38.1911C261.599 38.1911 261.028 38.3087 260.566 38.5439C260.112 38.7707 259.751 39.0815 259.482 39.4763C259.213 39.8627 259.02 40.2911 258.903 40.7615C258.785 41.2235 258.726 41.6855 258.726 42.1475V48.8003H255.412ZM273.164 49.0523C272.685 49.0523 272.198 49.0061 271.702 48.9137C271.207 48.8213 270.753 48.6491 270.342 48.3971C269.93 48.1451 269.598 47.7755 269.346 47.2883C269.094 46.8011 268.968 46.1585 268.968 45.3605C268.968 45.1757 268.968 44.9909 268.968 44.8061C268.968 44.6129 268.968 44.4155 268.968 44.2139V38.0651H265.806V35.4191H267.091C267.528 35.4191 267.872 35.4023 268.124 35.3687C268.376 35.3267 268.561 35.2343 268.678 35.0915C268.796 34.9487 268.872 34.7261 268.905 34.4237C268.947 34.1129 268.968 33.6845 268.968 33.1385V31.0091H272.295V35.4191H276.276V38.0651H272.295V43.4327C272.295 43.5923 272.295 43.7519 272.295 43.9115C272.295 44.0627 272.295 44.2097 272.295 44.3525C272.295 44.9741 272.37 45.4739 272.521 45.8519C272.673 46.2299 273.03 46.4189 273.592 46.4189C273.861 46.4189 274.113 46.3937 274.348 46.3433C274.592 46.2929 274.773 46.2425 274.89 46.1921V48.7877C274.731 48.8465 274.5 48.9053 274.197 48.9641C273.895 49.0229 273.55 49.0523 273.164 49.0523ZM289.274 48.8003H286.049V30.2153H291.252L298.044 47.4521L297.552 47.5907V30.2153H300.791V48.8003H295.511L288.745 31.6013L289.274 31.4753V48.8003ZM311.157 49.0649C309.746 49.0649 308.503 48.7709 307.427 48.1829C306.352 47.5865 305.508 46.7633 304.895 45.7133C304.29 44.6633 303.988 43.4621 303.988 42.1097C303.988 40.7489 304.29 39.5519 304.895 38.5187C305.508 37.4771 306.352 36.6623 307.427 36.0743C308.503 35.4863 309.746 35.1923 311.157 35.1923C312.568 35.1923 313.811 35.4863 314.887 36.0743C315.962 36.6623 316.802 37.4771 317.407 38.5187C318.02 39.5519 318.326 40.7489 318.326 42.1097C318.326 43.4621 318.02 44.6633 317.407 45.7133C316.802 46.7633 315.962 47.5865 314.887 48.1829C313.811 48.7709 312.568 49.0649 311.157 49.0649ZM311.157 46.3559C311.921 46.3559 312.589 46.1795 313.16 45.8267C313.732 45.4739 314.177 44.9825 314.496 44.3525C314.815 43.7141 314.975 42.9665 314.975 42.1097C314.975 41.2529 314.815 40.5137 314.496 39.8921C314.177 39.2621 313.732 38.7749 313.16 38.4305C312.589 38.0861 311.921 37.9139 311.157 37.9139C310.401 37.9139 309.733 38.0861 309.154 38.4305C308.582 38.7749 308.137 39.2621 307.818 39.8921C307.499 40.5137 307.339 41.2529 307.339 42.1097C307.339 42.9665 307.499 43.7141 307.818 44.3525C308.137 44.9825 308.582 45.4739 309.154 45.8267C309.733 46.1795 310.401 46.3559 311.157 46.3559ZM332.062 48.8003L328.95 35.4191H331.483L334.519 47.7545H333.978L335.918 35.4191H339.358L336.611 48.8003H332.062ZM322.839 48.8003L320.08 35.4191H323.52L325.473 47.7545H324.931L327.942 35.4191H330.475L327.413 48.8003H322.839ZM345.286 30.2405L344.656 43.8737H342.627L341.972 30.2405H345.286ZM343.648 49.1531C343.127 49.1531 342.686 48.9725 342.325 48.6113C341.964 48.2501 341.783 47.8091 341.783 47.2883C341.783 46.7759 341.964 46.3391 342.325 45.9779C342.686 45.6083 343.127 45.4235 343.648 45.4235C344.16 45.4235 344.597 45.6083 344.958 45.9779C345.328 46.3391 345.513 46.7759 345.513 47.2883C345.513 47.8091 345.328 48.2501 344.958 48.6113C344.597 48.9725 344.16 49.1531 343.648 49.1531Z" fill="#163949"/>
<defs>
<filter id="filter0_d_1490_1125" x="0.8" y="0" width="406.8" height="90.0001" filterUnits="userSpaceOnUse" color-interpolation-filters="sRGB">
<feFlood flood-opacity="0" result="BackgroundImageFix"/>
<feColorMatrix in="SourceAlpha" type="matrix" values="0 0 0 0 0 0 0 0 0 0 0 0 0 0 0 0 0 0 127 0" result="hardAlpha"/>
<feOffset dy="7.2"/>
<feGaussianBlur stdDeviation="3.6"/>
<feComposite in2="hardAlpha" operator="out"/>
<feColorMatrix type="matrix" values="0 0 0 0 0 0 0 0 0 0 0 0 0 0 0 0 0 0 0.08 0"/>
<feBlend mode="normal" in2="BackgroundImageFix" result="effect1_dropShadow_1490_1125"/>
<feBlend mode="normal" in="SourceGraphic" in2="effect1_dropShadow_1490_1125" result="shape"/>
</filter>
<linearGradient id="paint0_linear_1490_1125" x1="182.142" y1="75.6" x2="182.142" y2="-1.15713e-06" gradientUnits="userSpaceOnUse">
<stop stop-color="#F2C94C"/>
<stop offset="1" stop-color="#FFDE78"/>
</linearGradient>
</defs>
</svg>
