<svg width="100" height="100" viewBox="0 0 100 100" fill="none" xmlns="http://www.w3.org/2000/svg">
<path d="M35.8332 93.75L27.9165 80.4167L12.9165 77.0833L14.3748 61.6667L4.1665 50L14.3748 38.3333L12.9165 22.9167L27.9165 19.5833L35.8332 6.25L49.9998 12.2917L64.1665 6.25L72.0832 19.5833L87.0832 22.9167L85.6248 38.3333L95.8332 50L85.6248 61.6667L87.0832 77.0833L72.0832 80.4167L64.1665 93.75L49.9998 87.7083L35.8332 93.75ZM39.3748 83.125L49.9998 78.5417L60.8332 83.125L66.6665 73.125L78.1248 70.4167L77.0832 58.75L84.7915 50L77.0832 41.0417L78.1248 29.375L66.6665 26.875L60.6248 16.875L49.9998 21.4583L39.1665 16.875L33.3332 26.875L21.8748 29.375L22.9165 41.0417L15.2082 50L22.9165 58.75L21.8748 70.625L33.3332 73.125L39.3748 83.125ZM45.6248 64.7917L69.1665 41.25L63.3332 35.2083L45.6248 52.9167L36.6665 44.1667L30.8332 50L45.6248 64.7917Z" fill="#EA6F54"/>
</svg>
