<svg width="124" height="113" viewBox="0 0 124 113" fill="none" xmlns="http://www.w3.org/2000/svg">
<mask id="mask0_0_7609" style="mask-type:alpha" maskUnits="userSpaceOnUse" x="0" y="0" width="113" height="113">
<rect width="112.011" height="112.011" fill="#D9D9D9"/>
</mask>
<g mask="url(#mask0_0_7609)">
<path d="M19.0034 94.291C16.0645 94.291 13.5601 93.2561 11.4903 91.1863C9.4206 89.1165 8.38574 86.6121 8.38574 83.6732V28.3375C8.38574 25.3986 9.42067 22.8942 11.4905 20.8244C13.5602 18.7546 16.0646 17.7197 19.0035 17.7197H93.0076C95.9466 17.7197 98.451 18.7546 100.521 20.8244C102.591 22.8942 103.625 25.3986 103.625 28.3375V83.6732C103.625 86.6121 102.591 89.1165 100.521 91.1863C98.451 93.2561 95.9466 94.291 93.0076 94.291H19.0034ZM19.0034 55.9217H93.0075V37.2532H19.0034V55.9217Z" fill="#757575"/>
</g>
<mask id="mask1_0_7609" style="mask-type:alpha" maskUnits="userSpaceOnUse" x="70" y="50" width="54" height="54">
<rect x="70" y="50" width="54" height="54" fill="#D9D9D9"/>
</mask>
<g mask="url(#mask1_0_7609)">
<path d="M96.9972 88.7077C97.7444 88.7077 98.3717 88.455 98.8792 87.9495C99.3867 87.4441 99.6404 86.8178 99.6404 86.0706C99.6404 85.3235 99.3877 84.694 98.8823 84.182C98.3769 83.6701 97.7506 83.4141 97.0034 83.4141C96.2562 83.4141 95.6289 83.6701 95.1215 84.182C94.614 84.694 94.3602 85.3235 94.3602 86.0706C94.3602 86.8178 94.613 87.4441 95.1184 87.9495C95.6238 88.455 96.2501 88.7077 96.9972 88.7077ZM94.441 79.2772H99.5597V65.4679H94.441V79.2772ZM97.0003 99.9577C93.8161 99.9577 90.8284 99.3555 88.0372 98.1511C85.246 96.9466 82.818 95.3121 80.7533 93.2474C78.6886 91.1827 77.054 88.7547 75.8496 85.9635C74.6452 83.1723 74.043 80.1846 74.043 77.0003C74.043 73.8161 74.6452 70.8284 75.8496 68.0372C77.054 65.246 78.6886 62.818 80.7533 60.7533C82.818 58.6886 85.246 57.054 88.0372 55.8496C90.8284 54.6452 93.8161 54.043 97.0003 54.043C100.185 54.043 103.172 54.6452 105.963 55.8496C108.755 57.054 111.183 58.6886 113.247 60.7533C115.312 62.818 116.947 65.246 118.151 68.0372C119.355 70.8284 119.958 73.8161 119.958 77.0003C119.958 80.1846 119.355 83.1723 118.151 85.9635C116.947 88.7547 115.312 91.1827 113.247 93.2474C111.183 95.3121 108.755 96.9466 105.963 98.1511C103.172 99.3555 100.185 99.9577 97.0003 99.9577Z" fill="#EA6F54"/>
</g>
<mask id="mask2_0_7609" style="mask-type:alpha" maskUnits="userSpaceOnUse" x="80" y="59" width="34" height="34">
<rect x="80" y="59" width="34" height="34" fill="#D9D9D9"/>
</mask>
<g mask="url(#mask2_0_7609)">
<path d="M97.0003 88.75C96.2212 88.75 95.5541 88.4726 94.9993 87.9177C94.4444 87.3628 94.167 86.6958 94.167 85.9167C94.167 85.1375 94.4444 84.4705 94.9993 83.9156C95.5541 83.3608 96.2212 83.0833 97.0003 83.0833C97.7795 83.0833 98.4465 83.3608 99.0014 83.9156C99.5562 84.4705 99.8337 85.1375 99.8337 85.9167C99.8337 86.6958 99.5562 87.3628 99.0014 87.9177C98.4465 88.4726 97.7795 88.75 97.0003 88.75ZM94.167 80.25V63.25H99.8337V80.25H94.167Z" fill="white"/>
</g>
</svg>
