<svg width="24" height="24" viewBox="0 0 24 24" fill="none" xmlns="http://www.w3.org/2000/svg">
<g clip-path="url(#clip0_0_3154)">
<path d="M11.9038 19.5961C11.6545 19.8455 11.3532 19.9702 11 19.9702C10.6468 19.9702 10.3455 19.8455 10.0961 19.5961L8.72596 18.226C8.64391 18.1439 8.59471 18.0476 8.57836 17.937C8.56202 17.8264 8.58173 17.7202 8.6375 17.6183C8.75481 17.2971 8.78173 16.9676 8.71828 16.6298C8.6548 16.292 8.4987 15.9987 8.24999 15.75C8.00127 15.5013 7.708 15.3452 7.37018 15.2817C7.03235 15.2182 6.70286 15.2452 6.3817 15.3625C6.27978 15.4182 6.17354 15.438 6.06296 15.4216C5.95238 15.4053 5.85606 15.3561 5.77401 15.274L4.40385 13.9039C4.15449 13.6545 4.02982 13.3532 4.02982 13C4.02982 12.6468 4.15449 12.3455 4.40385 12.0961L12.0961 4.40387C12.3455 4.15452 12.6468 4.02984 13 4.02985C13.3532 4.02984 13.6545 4.15452 13.9038 4.40387L15.274 5.77404C15.356 5.85609 15.4052 5.9524 15.4216 6.06299C15.4379 6.17356 15.4182 6.27981 15.3625 6.38172C15.2451 6.70288 15.2182 7.03237 15.2817 7.3702C15.3452 7.70802 15.5012 8.00129 15.75 8.25001C15.9987 8.49873 16.292 8.65482 16.6298 8.7183C16.9676 8.78176 17.2971 8.75483 17.6183 8.63752C17.7202 8.58176 17.8264 8.56205 17.937 8.57839C18.0476 8.59474 18.1439 8.64394 18.2259 8.72599L19.5961 10.0961C19.8455 10.3455 19.9701 10.6468 19.9701 11C19.9701 11.3532 19.8455 11.6545 19.5961 11.9038L11.9038 19.5961ZM11.1538 18.8461L18.8461 11.1539C18.891 11.109 18.9134 11.0577 18.9134 11C18.9134 10.9423 18.891 10.891 18.8461 10.8461L17.725 9.725C17.2333 9.85 16.7458 9.85 16.2625 9.725C15.7791 9.6 15.3583 9.35833 15 9C14.6416 8.64167 14.4 8.22083 14.275 7.7375C14.15 7.25417 14.15 6.76667 14.275 6.275L13.1538 5.15386C13.109 5.10899 13.0577 5.08655 13 5.08655C12.9423 5.08655 12.891 5.10899 12.8461 5.15386L5.15384 12.8461C5.10896 12.891 5.08653 12.9423 5.08653 13C5.08653 13.0577 5.10896 13.109 5.15384 13.1539L6.27498 14.275C6.76664 14.15 7.25414 14.15 7.73748 14.275C8.22081 14.4 8.64164 14.6417 8.99998 15C9.35831 15.3583 9.59998 15.7792 9.72498 16.2625C9.84998 16.7458 9.84998 17.2333 9.72498 17.725L10.8461 18.8461C10.891 18.891 10.9423 18.9134 11 18.9134C11.0577 18.9134 11.109 18.891 11.1538 18.8461Z" fill="#EA6F54"/>
<path d="M13.5353 13.0005L13.3436 12.8088C13.2027 12.6679 13.1027 12.5087 13.0435 12.3311C12.9855 12.1524 12.9778 11.9695 13.0204 11.7825C13.063 11.5955 13.166 11.4203 13.3294 11.2569C13.4975 11.0888 13.6744 10.9841 13.8603 10.9426C14.0449 10.9 14.2254 10.9089 14.4018 10.9693C14.5794 11.0285 14.7392 11.1291 14.8812 11.2711L15.073 11.4629C15.2138 11.6037 15.3139 11.763 15.373 11.9405C15.4322 12.1181 15.4405 12.3004 15.3979 12.4874C15.3565 12.6732 15.2529 12.849 15.0872 13.0147C14.9215 13.1805 14.7451 13.2846 14.5581 13.3272C14.371 13.3698 14.1887 13.3616 14.0112 13.3024C13.8348 13.242 13.6762 13.1414 13.5353 13.0005ZM13.807 12.3453L13.9988 12.5371C14.0923 12.6306 14.2006 12.6939 14.3237 12.7271C14.4468 12.7602 14.5652 12.72 14.6788 12.6064C14.7936 12.4915 14.8339 12.3743 14.7995 12.2548C14.7652 12.1329 14.7007 12.0246 14.606 11.9299L14.4142 11.7381C14.3195 11.6434 14.2124 11.5777 14.0929 11.541C13.9721 11.5031 13.8526 11.5434 13.7342 11.6618C13.6229 11.773 13.5839 11.8914 13.617 12.0169C13.649 12.1412 13.7123 12.2506 13.807 12.3453ZM9.606 12.7679L9.41424 12.5762C9.27219 12.4341 9.17217 12.2737 9.11416 12.095C9.05616 11.9162 9.04906 11.734 9.09286 11.5481C9.13547 11.3611 9.23845 11.1859 9.40181 11.0225C9.56871 10.8556 9.74508 10.7515 9.93093 10.71C10.1168 10.6662 10.2979 10.6745 10.4743 10.7349C10.6506 10.7953 10.8098 10.8965 10.9519 11.0385L11.1436 11.2303C11.2857 11.3723 11.3863 11.5321 11.4455 11.7097C11.5047 11.8849 11.5124 12.0654 11.4686 12.2512C11.4248 12.4371 11.3206 12.6123 11.1561 12.7768C10.9892 12.9437 10.8128 13.0491 10.6269 13.0929C10.4423 13.1355 10.2612 13.1272 10.0836 13.068C9.90607 13.0088 9.74686 12.9088 9.606 12.7679ZM9.88121 12.1092L10.073 12.301C10.1677 12.3957 10.276 12.4602 10.3979 12.4945C10.5198 12.5265 10.6376 12.4856 10.7512 12.372C10.8649 12.2583 10.9045 12.1417 10.8702 12.0222C10.8359 11.9003 10.7714 11.792 10.6767 11.6973L10.4849 11.5055C10.3902 11.4108 10.2831 11.3451 10.1635 11.3084C10.0428 11.2705 9.92382 11.3102 9.80664 11.4274C9.69418 11.5398 9.65512 11.6582 9.68945 11.7825C9.72378 11.9068 9.7877 12.0157 9.88121 12.1092ZM12.5712 15.3283L11.4348 9.19193L11.8787 8.74804L13.0151 14.8844L12.5712 15.3283Z" fill="#EA6F54"/>
</g>
<defs>
<clipPath id="clip0_0_3154">
<rect width="16.9706" height="16.9706" fill="white" transform="translate(0 12) rotate(-45)"/>
</clipPath>
</defs>
</svg>
