<svg xmlns="http://www.w3.org/2000/svg" width="13" height="23" fill="none"><path fill="#fff" fill-opacity=".7" d="M7.823 22.6H4.25a1.09 1.09 0 0 1-1.083-1.096V13.34H1.082A1.09 1.09 0 0 1 0 12.245V8.746A1.09 1.09 0 0 1 1.082 7.65h2.085V5.898c0-1.737.539-3.214 1.557-4.273C5.747.562 7.177 0 8.86 0l2.725.004c.596.002 1.08.493 1.08 1.097v3.248a1.09 1.09 0 0 1-1.081 1.096H9.748c-.56 0-.702.114-.733.149-.05.058-.11.221-.11.672V7.65h2.54a1.087 1.087 0 0 1 1.092 1.096l-.001 3.498a1.09 1.09 0 0 1-1.082 1.096H8.905v8.164A1.09 1.09 0 0 1 7.823 22.6Zm-3.348-1.325h3.122v-8.528c0-.403.324-.732.723-.732h2.908l.001-3.04h-2.91a.728.728 0 0 1-.722-.732V6.266c0-.518.052-1.106.438-1.549.466-.535 1.2-.596 1.713-.596l1.609-.001V1.329l-2.499-.004c-2.703 0-4.383 1.752-4.383 4.573v2.345a.728.728 0 0 1-.722.732H1.308v3.04h2.445c.398 0 .722.329.722.732v8.528ZM11.582 1.33Z"/></svg>