<svg width="360" height="83" viewBox="0 0 360 83" fill="none" xmlns="http://www.w3.org/2000/svg">
<rect y="35" width="360" height="47" fill="url(#paint0_linear_2_1443)"/>
<path d="M70.6363 19.9821L50.8118 16.9514C50.0311 16.8321 49.2342 16.8779 48.4723 17.0858C47.7105 17.2936 47.0007 17.659 46.3888 18.1581L12.379 45.9155C11.8011 46.387 11.3223 46.9684 10.9704 47.6261C10.6185 48.2838 10.4005 49.0047 10.3289 49.7472C10.2573 50.4897 10.3336 51.239 10.5534 51.9517C10.7732 52.6645 11.1321 53.3267 11.6093 53.9L31.4946 77.7913C31.9693 78.3619 32.5518 78.8332 33.2089 79.1784C33.8659 79.5235 34.5846 79.7357 35.3237 79.8028C36.0629 79.8698 36.808 79.7904 37.5165 79.5691C38.2249 79.3478 38.8827 78.9889 39.4523 78.5131L73.0248 50.466C73.6458 49.9491 74.1485 49.3049 74.4989 48.5769C74.8493 47.8489 75.0393 47.0541 75.056 46.2463L75.4353 25.6757C75.4619 24.3061 74.9898 22.9735 74.1069 21.9261C73.2241 20.8786 71.9906 20.1878 70.6363 19.9821ZM68.3666 28.874C68.6438 29.7522 68.6544 30.6928 68.397 31.577C68.1396 32.4612 67.6258 33.2492 66.9205 33.8414C66.2152 34.4336 65.3502 34.8033 64.4348 34.9038C63.5194 35.0044 62.5948 34.8312 61.7778 34.4062C60.9608 33.9812 60.2882 33.3235 59.8451 32.5162C59.4019 31.7089 59.2081 30.7884 59.2882 29.871C59.3682 28.9535 59.7185 28.0805 60.2948 27.3621C60.871 26.6438 61.6474 26.1125 62.5256 25.8354C63.7016 25.4652 64.9765 25.5765 66.0705 26.145C67.1645 26.7135 67.9884 27.6927 68.3615 28.8678L68.3666 28.874Z" fill="#FF725E"/>
<g opacity="0.4">
<path d="M70.6363 19.9821L50.8118 16.9514C50.0311 16.8321 49.2342 16.8779 48.4723 17.0858C47.7105 17.2936 47.0007 17.659 46.3888 18.1581L12.379 45.9155C11.8011 46.387 11.3223 46.9684 10.9704 47.6261C10.6185 48.2838 10.4005 49.0047 10.3289 49.7472C10.2573 50.4897 10.3336 51.239 10.5534 51.9517C10.7732 52.6645 11.1321 53.3267 11.6093 53.9L31.4946 77.7913C31.9693 78.3619 32.5518 78.8332 33.2089 79.1784C33.8659 79.5235 34.5846 79.7357 35.3237 79.8028C36.0629 79.8698 36.808 79.7904 37.5165 79.5691C38.2249 79.3478 38.8827 78.9889 39.4523 78.5131L73.0248 50.466C73.6458 49.9491 74.1485 49.3049 74.4989 48.5769C74.8493 47.8489 75.0393 47.0541 75.056 46.2463L75.4353 25.6757C75.4619 24.3061 74.9898 22.9735 74.1069 21.9261C73.2241 20.8786 71.9906 20.1878 70.6363 19.9821ZM68.3666 28.874C68.6438 29.7522 68.6544 30.6928 68.397 31.577C68.1396 32.4612 67.6258 33.2492 66.9205 33.8414C66.2152 34.4336 65.3502 34.8033 64.4348 34.9038C63.5194 35.0044 62.5948 34.8312 61.7778 34.4062C60.9608 33.9812 60.2882 33.3235 59.8451 32.5162C59.4019 31.7089 59.2081 30.7884 59.2882 29.871C59.3682 28.9535 59.7185 28.0805 60.2948 27.3621C60.871 26.6438 61.6474 26.1125 62.5256 25.8354C63.7016 25.4652 64.9765 25.5765 66.0705 26.145C67.1645 26.7135 67.9884 27.6927 68.3615 28.8678L68.3666 28.874Z" fill="black"/>
</g>
<path d="M72.4153 18.5086L52.5862 15.4816C51.8056 15.3627 51.0087 15.4086 50.2469 15.6164C49.4851 15.8243 48.7753 16.1895 48.1633 16.6884L14.1535 44.4458C13.5753 44.9172 13.0963 45.4985 12.7442 46.1562C12.3922 46.8139 12.1741 47.5349 12.1025 48.2774C12.0309 49.0199 12.1073 49.7693 12.3272 50.4821C12.5471 51.195 12.9062 51.8571 13.3837 52.4302L33.2675 76.3229C33.7434 76.8945 34.3275 77.3665 34.9864 77.7117C35.6452 78.057 36.3658 78.2686 37.1067 78.3345C37.8476 78.4003 38.5942 78.3192 39.3036 78.0956C40.013 77.8721 40.6713 77.5106 41.2406 77.0319L74.8115 48.9861C75.4323 48.469 75.9349 47.8247 76.2853 47.0968C76.6357 46.3688 76.8258 45.5741 76.8428 44.7664L77.2205 24.197C77.2461 22.8273 76.7727 21.4949 75.8886 20.4484C75.0045 19.4018 73.7701 18.7124 72.4153 18.5086ZM70.1472 27.3992C70.4244 28.2773 70.435 29.218 70.1776 30.1022C69.9202 30.9864 69.4063 31.7744 68.7011 32.3666C67.9958 32.9588 67.1308 33.3285 66.2154 33.429C65.3 33.5295 64.3754 33.3563 63.5584 32.9314C62.7414 32.5064 62.0688 31.8486 61.6257 31.0414C61.1825 30.2341 60.9887 29.3136 61.0688 28.3961C61.1488 27.4787 61.4991 26.6056 62.0754 25.8873C62.6516 25.169 63.4279 24.6377 64.3062 24.3606C65.4822 23.9904 66.757 24.1017 67.8511 24.6702C68.9451 25.2387 69.769 26.2179 70.1421 27.393L70.1472 27.3992Z" fill="#FF725E"/>
<path d="M31.3253 51.1905C28.9479 48.267 29.2218 44.9576 31.7497 42.9052C34.2777 40.8529 37.5268 41.2546 39.9234 44.2012C42.3199 47.1478 42.0485 50.4163 39.5233 52.469C36.9982 54.5216 33.7012 54.1153 31.3253 51.1905ZM37.4457 46.2171C35.9317 44.3548 34.4917 44.0491 33.4012 44.9367C32.3357 45.8011 32.3363 47.3225 33.8273 49.1571C35.3184 50.9917 36.8063 51.3019 37.8718 50.4375C38.9623 49.5498 38.9559 48.0748 37.4457 46.2171ZM42.2466 34.7093L45.196 32.313L47.4434 59.278L44.494 61.6743L42.2466 34.7093ZM49.772 49.7894C47.3961 46.8646 47.6685 43.5564 50.172 41.5217C52.7 39.4694 55.9939 39.8781 58.3701 42.8001C60.7462 45.7221 60.4672 49.0254 57.9365 51.0775C55.4447 53.1076 52.143 52.7052 49.772 49.7894ZM55.8665 44.8348C54.3767 43.0018 52.9137 42.6684 51.8233 43.556C50.7577 44.4204 50.7395 45.9158 52.2509 47.7751C53.7624 49.6343 55.2283 49.9212 56.2939 49.0568C57.3792 48.163 57.3512 46.6618 55.8586 44.8284L55.8665 44.8348Z" fill="white"/>
<path d="M77.1892 26.5605C77.3659 26.5242 77.5467 26.5116 77.7268 26.5229C78.0769 26.516 78.5941 26.5135 79.2607 26.5249C79.9272 26.5364 80.7435 26.5562 81.6885 26.6123C82.6335 26.6684 83.7121 26.754 84.9 26.9309C86.1971 27.1147 87.4763 27.4078 88.7239 27.8071L89.2323 27.9756L89.741 28.1697C90.0918 28.2997 90.4354 28.4486 90.7701 28.6157C91.4921 28.96 92.1414 29.4395 92.6829 30.0283C92.9651 30.3488 93.1888 30.7165 93.3437 31.1145C93.5028 31.5268 93.576 31.9672 93.5588 32.4088C93.5183 33.3085 93.1935 34.1722 92.6311 34.8756C92.055 35.5824 91.3307 36.154 90.5094 36.5499C89.6876 36.9515 88.8219 37.2563 87.9298 37.4582C86.1734 37.8513 84.3633 37.9459 82.5754 37.7381C81.73 37.6473 80.891 37.5044 80.0631 37.3104C79.2577 37.1239 78.4729 36.9248 77.7087 36.7128C74.664 35.8587 71.9911 34.8265 69.887 33.6658C69.3616 33.3764 68.8734 33.0848 68.418 32.7921C68.1918 32.6444 67.9725 32.4988 67.7653 32.3458C67.5585 32.2032 67.3635 32.0443 67.1821 31.8706C66.8265 31.5506 66.6105 31.104 66.5802 30.6266C66.5685 30.2329 66.6763 29.8449 66.8892 29.5136C66.9759 29.3753 67.0751 29.2453 67.1856 29.1252C67.2855 29.0229 67.3936 28.9291 67.5089 28.8445C67.688 28.7101 67.8883 28.6065 68.1016 28.538C68.2326 28.4981 68.3691 28.4788 68.5061 28.4808C68.598 28.4852 68.6428 28.4922 68.6433 28.5022C68.6438 28.5122 68.5974 28.522 68.5095 28.5351C68.3817 28.5537 68.2568 28.5882 68.1376 28.638C67.9441 28.7194 67.7642 28.8299 67.604 28.9657C67.5017 29.0521 67.4056 29.1456 67.3164 29.2455C67.2207 29.362 67.1353 29.4865 67.0613 29.6178C66.8862 29.9189 66.8042 30.2651 66.8258 30.6127C66.8667 31.0208 67.066 31.3965 67.3809 31.6592C67.5564 31.8192 67.7446 31.9647 67.9437 32.0941C68.1477 32.2369 68.3665 32.3725 68.5919 32.513C69.0479 32.7897 69.537 33.0667 70.0593 33.3439C72.1476 34.4449 74.8086 35.4377 77.8327 36.2543C78.5901 36.458 79.3695 36.6496 80.1708 36.829C80.981 37.014 81.8017 37.1495 82.6284 37.2345C84.36 37.4307 86.1121 37.338 87.8132 36.9601C88.6684 36.7658 89.4984 36.4739 90.2869 36.0901C91.0418 35.729 91.7088 35.2075 92.2415 34.5621C92.7391 33.944 93.03 33.1853 93.073 32.393C93.0975 31.6399 92.8318 30.9061 92.3309 30.3432C91.8289 29.7967 91.2271 29.3511 90.5579 29.0304C90.2374 28.8661 89.9084 28.7191 89.5723 28.5899L89.085 28.3936L88.5872 28.219C87.3658 27.8104 86.113 27.5027 84.8413 27.299C83.6752 27.1014 82.6077 26.9884 81.662 26.9095C80.7163 26.8306 79.9103 26.7763 79.2465 26.7366L77.7277 26.6338C77.5459 26.6317 77.365 26.6071 77.1892 26.5605Z" fill="#263238"/>
<path d="M50.1491 23.8294L50.6731 22.4241L50.3548 20.9581L51.7617 21.4809L53.2289 21.1641L52.7049 22.5694L53.0216 24.0367L51.6163 23.5126L50.1491 23.8294Z" fill="white"/>
<path d="M43.4195 26.723L43.6035 26.2303L43.4926 25.7171L43.984 25.8996L44.4972 25.7887L44.3132 26.2814L44.4241 26.7946L43.9327 26.6121L43.4195 26.723Z" fill="white"/>
<path d="M52.736 30.9344L53.091 29.9834L52.876 28.9902L53.8271 29.3451L54.8202 29.1302L54.4653 30.0812L54.6803 31.0744L53.7292 30.7195L52.736 30.9344Z" fill="white"/>
<path d="M37.194 66.1993L37.718 64.794L37.3997 63.328L38.8066 63.8507L40.2738 63.534L39.7498 64.9393L40.0666 66.4065L38.6612 65.8825L37.194 66.1993Z" fill="white"/>
<path d="M30.4644 69.0929L30.6484 68.6002L30.5376 68.087L31.0289 68.2695L31.5422 68.1586L31.3581 68.6512L31.469 69.1645L30.9776 68.982L30.4644 69.0929Z" fill="white"/>
<path d="M39.781 73.3043L40.1359 72.3533L39.9209 71.3601L40.872 71.715L41.8652 71.5001L41.5102 72.4511L41.7252 73.4443L40.7742 73.0893L39.781 73.3043Z" fill="white"/>
<path d="M102.504 64H100.488V52.576H106.968V54.288H102.504V57.648H106.664V59.36H102.504V64ZM109.097 64V52.576H111.145V62.272H115.913V64H109.097ZM124.95 64L123.91 60.976H119.606L118.582 64H116.406L120.598 52.528H122.934L127.126 64H124.95ZM122.39 56.272C122.348 56.1227 122.284 55.92 122.198 55.664C122.113 55.408 122.028 55.1467 121.942 54.88C121.868 54.6027 121.809 54.3733 121.766 54.192C121.713 54.4053 121.644 54.6507 121.558 54.928C121.484 55.2053 121.409 55.4667 121.334 55.712C121.27 55.9573 121.217 56.144 121.174 56.272L120.166 59.216H123.382L122.39 56.272ZM131.6 64H129.552V54.304H126.272V52.576H134.88V54.304H131.6V64ZM145.553 64H143.537V56.88C143.537 56.6453 143.537 56.4053 143.537 56.16C143.548 55.9147 143.558 55.6693 143.569 55.424C143.58 55.168 143.59 54.9333 143.601 54.72C143.494 54.8267 143.361 54.9547 143.201 55.104C143.041 55.2427 142.876 55.3867 142.705 55.536L141.425 56.56L140.417 55.312L143.873 52.576H145.553V64ZM153.109 56.816C153.834 56.816 154.474 56.9493 155.029 57.216C155.584 57.4827 156.016 57.872 156.325 58.384C156.645 58.8853 156.805 59.504 156.805 60.24C156.805 61.0507 156.634 61.7493 156.293 62.336C155.952 62.9227 155.45 63.376 154.789 63.696C154.128 64.0053 153.317 64.16 152.357 64.16C151.76 64.16 151.2 64.1067 150.677 64C150.154 63.8933 149.701 63.7387 149.317 63.536V61.744C149.712 61.9573 150.186 62.1333 150.741 62.272C151.296 62.4107 151.818 62.48 152.309 62.48C152.821 62.48 153.258 62.4107 153.621 62.272C153.984 62.1227 154.261 61.8987 154.453 61.6C154.645 61.2907 154.741 60.9013 154.741 60.432C154.741 59.792 154.538 59.3067 154.133 58.976C153.728 58.6453 153.098 58.48 152.245 58.48C151.946 58.48 151.621 58.5067 151.269 58.56C150.928 58.6133 150.645 58.6667 150.421 58.72L149.557 58.24L149.989 52.576H156.005V54.336H151.765L151.525 56.976C151.706 56.944 151.92 56.912 152.165 56.88C152.421 56.8373 152.736 56.816 153.109 56.816ZM160.761 52.416C161.625 52.416 162.276 52.7307 162.713 53.36C163.161 53.9787 163.385 54.8533 163.385 55.984C163.385 57.1147 163.172 58 162.745 58.64C162.329 59.2693 161.668 59.584 160.761 59.584C160.217 59.584 159.753 59.44 159.369 59.152C158.985 58.864 158.697 58.4533 158.505 57.92C158.313 57.376 158.217 56.7307 158.217 55.984C158.217 54.8533 158.42 53.9787 158.825 53.36C159.231 52.7307 159.876 52.416 160.761 52.416ZM160.777 53.808C160.468 53.808 160.239 53.9893 160.089 54.352C159.951 54.7147 159.881 55.2587 159.881 55.984C159.881 56.72 159.951 57.2747 160.089 57.648C160.239 58.0107 160.468 58.192 160.777 58.192C161.097 58.192 161.332 58.0107 161.481 57.648C161.631 57.2747 161.705 56.7253 161.705 56C161.705 55.264 161.631 54.7147 161.481 54.352C161.332 53.9893 161.097 53.808 160.777 53.808ZM168.585 52.576L162.249 64H160.617L166.953 52.576H168.585ZM168.393 56.976C168.959 56.976 169.433 57.12 169.817 57.408C170.201 57.6853 170.495 58.0907 170.697 58.624C170.9 59.1467 171.001 59.7867 171.001 60.544C171.001 61.6747 170.788 62.56 170.361 63.2C169.945 63.8293 169.284 64.144 168.377 64.144C167.833 64.144 167.369 64 166.985 63.712C166.601 63.424 166.313 63.0133 166.121 62.48C165.929 61.936 165.833 61.2907 165.833 60.544C165.833 59.4133 166.036 58.5387 166.441 57.92C166.857 57.2907 167.508 56.976 168.393 56.976ZM168.393 58.384C168.084 58.384 167.855 58.5653 167.705 58.928C167.567 59.28 167.497 59.824 167.497 60.56C167.497 61.296 167.567 61.8507 167.705 62.224C167.855 62.5867 168.084 62.768 168.393 62.768C168.713 62.768 168.948 62.5867 169.097 62.224C169.257 61.8613 169.337 61.3067 169.337 60.56C169.337 59.824 169.257 59.28 169.097 58.928C168.948 58.5653 168.713 58.384 168.393 58.384ZM184.806 59.648C184.806 60.3733 184.71 61.0133 184.518 61.568C184.326 62.1227 184.048 62.5973 183.686 62.992C183.334 63.376 182.896 63.6693 182.374 63.872C181.862 64.064 181.291 64.16 180.662 64.16C180.064 64.16 179.515 64.064 179.014 63.872C178.512 63.6693 178.075 63.376 177.702 62.992C177.339 62.5973 177.056 62.1227 176.854 61.568C176.651 61.0133 176.55 60.3733 176.55 59.648C176.55 58.688 176.715 57.8773 177.046 57.216C177.376 56.544 177.851 56.0373 178.47 55.696C179.099 55.344 179.84 55.168 180.694 55.168C181.504 55.168 182.214 55.344 182.822 55.696C183.44 56.0373 183.926 56.544 184.278 57.216C184.63 57.8773 184.806 58.688 184.806 59.648ZM178.614 59.648C178.614 60.256 178.683 60.7787 178.822 61.216C178.971 61.6427 179.195 61.968 179.494 62.192C179.803 62.416 180.198 62.528 180.678 62.528C181.168 62.528 181.563 62.416 181.862 62.192C182.171 61.968 182.395 61.6427 182.534 61.216C182.672 60.7787 182.742 60.256 182.742 59.648C182.742 59.0293 182.667 58.512 182.518 58.096C182.379 57.6693 182.155 57.3493 181.846 57.136C181.547 56.912 181.158 56.8 180.678 56.8C179.952 56.8 179.424 57.0453 179.094 57.536C178.774 58.0267 178.614 58.7307 178.614 59.648ZM191.386 56.848H189.29V64H187.274V56.848H185.882V55.888L187.274 55.312V54.72C187.274 53.9733 187.391 53.3867 187.626 52.96C187.86 52.5333 188.202 52.2293 188.65 52.048C189.098 51.856 189.626 51.76 190.234 51.76C190.66 51.76 191.044 51.7973 191.386 51.872C191.727 51.936 192.01 52.0107 192.234 52.096L191.722 53.6C191.54 53.5467 191.338 53.4987 191.114 53.456C190.9 53.4027 190.666 53.376 190.41 53.376C190.026 53.376 189.743 53.4987 189.562 53.744C189.38 53.9893 189.29 54.3307 189.29 54.768V55.328H191.386V56.848ZM197.322 56.848H195.226V64H193.21V56.848H191.818V55.888L193.21 55.312V54.72C193.21 53.9733 193.327 53.3867 193.562 52.96C193.796 52.5333 194.138 52.2293 194.586 52.048C195.034 51.856 195.562 51.76 196.17 51.76C196.596 51.76 196.98 51.7973 197.322 51.872C197.663 51.936 197.946 52.0107 198.17 52.096L197.658 53.6C197.476 53.5467 197.274 53.4987 197.05 53.456C196.836 53.4027 196.602 53.376 196.346 53.376C195.962 53.376 195.679 53.4987 195.498 53.744C195.316 53.9893 195.226 54.3307 195.226 54.768V55.328H197.322V56.848ZM210.665 59.648C210.665 60.3733 210.569 61.0133 210.377 61.568C210.185 62.1227 209.908 62.5973 209.545 62.992C209.193 63.376 208.756 63.6693 208.233 63.872C207.721 64.064 207.15 64.16 206.521 64.16C205.924 64.16 205.374 64.064 204.873 63.872C204.372 63.6693 203.934 63.376 203.561 62.992C203.198 62.5973 202.916 62.1227 202.713 61.568C202.51 61.0133 202.409 60.3733 202.409 59.648C202.409 58.688 202.574 57.8773 202.905 57.216C203.236 56.544 203.71 56.0373 204.329 55.696C204.958 55.344 205.7 55.168 206.553 55.168C207.364 55.168 208.073 55.344 208.681 55.696C209.3 56.0373 209.785 56.544 210.137 57.216C210.489 57.8773 210.665 58.688 210.665 59.648ZM204.473 59.648C204.473 60.256 204.542 60.7787 204.681 61.216C204.83 61.6427 205.054 61.968 205.353 62.192C205.662 62.416 206.057 62.528 206.537 62.528C207.028 62.528 207.422 62.416 207.721 62.192C208.03 61.968 208.254 61.6427 208.393 61.216C208.532 60.7787 208.601 60.256 208.601 59.648C208.601 59.0293 208.526 58.512 208.377 58.096C208.238 57.6693 208.014 57.3493 207.705 57.136C207.406 56.912 207.017 56.8 206.537 56.8C205.812 56.8 205.284 57.0453 204.953 57.536C204.633 58.0267 204.473 58.7307 204.473 59.648ZM217.389 55.168C218.36 55.168 219.117 55.4187 219.661 55.92C220.216 56.4213 220.493 57.232 220.493 58.352V64H218.477V58.752C218.477 58.1013 218.349 57.616 218.093 57.296C217.837 56.9653 217.432 56.8 216.877 56.8C216.066 56.8 215.512 57.056 215.213 57.568C214.914 58.0693 214.765 58.8 214.765 59.76V64H212.749V55.328H214.301L214.589 56.464H214.701C214.893 56.1653 215.128 55.92 215.405 55.728C215.682 55.536 215.992 55.3973 216.333 55.312C216.674 55.216 217.026 55.168 217.389 55.168ZM230.627 55.168C231.747 55.168 232.595 55.4133 233.171 55.904C233.758 56.384 234.051 57.1413 234.051 58.176V64H232.627L232.227 62.8H232.163C231.918 63.1093 231.662 63.3707 231.395 63.584C231.139 63.7867 230.84 63.9307 230.499 64.016C230.168 64.112 229.763 64.16 229.283 64.16C228.771 64.16 228.307 64.064 227.891 63.872C227.486 63.68 227.166 63.3867 226.931 62.992C226.696 62.5867 226.579 62.08 226.579 61.472C226.579 60.576 226.904 59.904 227.555 59.456C228.216 58.9973 229.214 58.7467 230.547 58.704L232.051 58.656V58.224C232.051 57.6693 231.918 57.2747 231.651 57.04C231.384 56.8053 231.011 56.688 230.531 56.688C230.094 56.688 229.672 56.752 229.267 56.88C228.862 57.008 228.467 57.1573 228.083 57.328L227.443 55.92C227.87 55.696 228.355 55.5147 228.899 55.376C229.454 55.2373 230.03 55.168 230.627 55.168ZM230.995 59.936C230.11 59.968 229.496 60.1227 229.155 60.4C228.814 60.6667 228.643 61.0293 228.643 61.488C228.643 61.8933 228.766 62.1867 229.011 62.368C229.256 62.5493 229.571 62.64 229.955 62.64C230.542 62.64 231.038 62.4747 231.443 62.144C231.848 61.8027 232.051 61.3013 232.051 60.64V59.904L230.995 59.936ZM238.593 64H236.577V51.84H238.593V64ZM243.187 64H241.171V51.84H243.187V64ZM257.665 59.648C257.665 60.3733 257.569 61.0133 257.377 61.568C257.185 62.1227 256.908 62.5973 256.545 62.992C256.193 63.376 255.756 63.6693 255.233 63.872C254.721 64.064 254.15 64.16 253.521 64.16C252.924 64.16 252.374 64.064 251.873 63.872C251.372 63.6693 250.934 63.376 250.561 62.992C250.198 62.5973 249.916 62.1227 249.713 61.568C249.51 61.0133 249.409 60.3733 249.409 59.648C249.409 58.688 249.574 57.8773 249.905 57.216C250.236 56.544 250.71 56.0373 251.329 55.696C251.958 55.344 252.7 55.168 253.553 55.168C254.364 55.168 255.073 55.344 255.681 55.696C256.3 56.0373 256.785 56.544 257.137 57.216C257.489 57.8773 257.665 58.688 257.665 59.648ZM251.473 59.648C251.473 60.256 251.542 60.7787 251.681 61.216C251.83 61.6427 252.054 61.968 252.353 62.192C252.662 62.416 253.057 62.528 253.537 62.528C254.028 62.528 254.422 62.416 254.721 62.192C255.03 61.968 255.254 61.6427 255.393 61.216C255.532 60.7787 255.601 60.256 255.601 59.648C255.601 59.0293 255.526 58.512 255.377 58.096C255.238 57.6693 255.014 57.3493 254.705 57.136C254.406 56.912 254.017 56.8 253.537 56.8C252.812 56.8 252.284 57.0453 251.953 57.536C251.633 58.0267 251.473 58.7307 251.473 59.648ZM264.293 55.168C264.421 55.168 264.57 55.1733 264.741 55.184C264.912 55.1947 265.056 55.216 265.173 55.248L264.997 57.12C264.901 57.0987 264.773 57.0827 264.613 57.072C264.464 57.0507 264.33 57.04 264.213 57.04C263.893 57.04 263.584 57.0933 263.285 57.2C262.997 57.296 262.736 57.4453 262.501 57.648C262.277 57.84 262.096 58.0907 261.957 58.4C261.829 58.7093 261.765 59.0773 261.765 59.504V64H259.749V55.328H261.301L261.589 56.832H261.685C261.856 56.5227 262.069 56.2453 262.325 56C262.581 55.744 262.874 55.5413 263.205 55.392C263.546 55.2427 263.909 55.168 264.293 55.168ZM269.332 64.16C268.329 64.16 267.513 63.7867 266.884 63.04C266.265 62.2827 265.956 61.1627 265.956 59.68C265.956 58.1973 266.271 57.0773 266.9 56.32C267.529 55.552 268.356 55.168 269.38 55.168C269.807 55.168 270.18 55.2267 270.5 55.344C270.831 55.4507 271.113 55.6 271.348 55.792C271.583 55.984 271.78 56.1973 271.94 56.432H272.036C272.004 56.2827 271.972 56.0533 271.94 55.744C271.908 55.4347 271.892 55.1467 271.892 54.88V51.84H273.908V64H272.34L271.972 62.864H271.892C271.732 63.0987 271.535 63.3173 271.3 63.52C271.065 63.712 270.788 63.8667 270.468 63.984C270.148 64.1013 269.769 64.16 269.332 64.16ZM269.94 62.528C270.687 62.528 271.215 62.3147 271.524 61.888C271.833 61.4613 271.988 60.816 271.988 59.952V59.696C271.988 58.7573 271.839 58.0427 271.54 57.552C271.252 57.0613 270.708 56.816 269.908 56.816C269.3 56.816 268.831 57.072 268.5 57.584C268.169 58.0853 268.004 58.7947 268.004 59.712C268.004 60.6293 268.169 61.328 268.5 61.808C268.831 62.288 269.311 62.528 269.94 62.528ZM279.972 55.168C280.75 55.168 281.417 55.328 281.972 55.648C282.537 55.9573 282.974 56.4053 283.284 56.992C283.593 57.568 283.748 58.272 283.748 59.104V60.128H278.02C278.041 60.9173 278.26 61.5307 278.676 61.968C279.092 62.3947 279.668 62.608 280.404 62.608C280.969 62.608 281.47 62.5547 281.908 62.448C282.356 62.3307 282.814 62.1653 283.284 61.952V63.568C282.857 63.7707 282.414 63.92 281.956 64.016C281.497 64.112 280.948 64.16 280.308 64.16C279.465 64.16 278.713 64 278.052 63.68C277.401 63.3493 276.889 62.8533 276.516 62.192C276.153 61.5307 275.972 60.7093 275.972 59.728C275.972 58.736 276.137 57.904 276.468 57.232C276.809 56.5493 277.278 56.0373 277.876 55.696C278.473 55.344 279.172 55.168 279.972 55.168ZM279.972 56.656C279.438 56.656 279.001 56.832 278.66 57.184C278.329 57.5253 278.132 58.0373 278.068 58.72H281.796C281.796 58.3147 281.726 57.9573 281.588 57.648C281.46 57.3387 281.262 57.0987 280.996 56.928C280.729 56.7467 280.388 56.656 279.972 56.656ZM290.324 55.168C290.452 55.168 290.602 55.1733 290.772 55.184C290.943 55.1947 291.087 55.216 291.204 55.248L291.028 57.12C290.932 57.0987 290.804 57.0827 290.644 57.072C290.495 57.0507 290.362 57.04 290.244 57.04C289.924 57.04 289.615 57.0933 289.316 57.2C289.028 57.296 288.767 57.4453 288.532 57.648C288.308 57.84 288.127 58.0907 287.988 58.4C287.86 58.7093 287.796 59.0773 287.796 59.504V64H285.78V55.328H287.332L287.62 56.832H287.716C287.887 56.5227 288.1 56.2453 288.356 56C288.612 55.744 288.906 55.5413 289.236 55.392C289.578 55.2427 289.94 55.168 290.324 55.168ZM298.716 61.488C298.716 62.064 298.577 62.5547 298.3 62.96C298.022 63.3547 297.612 63.6533 297.068 63.856C296.534 64.0587 295.878 64.16 295.1 64.16C294.492 64.16 293.969 64.1173 293.532 64.032C293.094 63.9467 292.678 63.8133 292.284 63.632V61.92C292.71 62.1227 293.185 62.2933 293.708 62.432C294.23 62.5707 294.716 62.64 295.164 62.64C295.718 62.64 296.118 62.5547 296.364 62.384C296.609 62.2133 296.732 61.984 296.732 61.696C296.732 61.5253 296.684 61.3707 296.588 61.232C296.492 61.0933 296.305 60.9493 296.028 60.8C295.75 60.64 295.329 60.4427 294.764 60.208C294.209 59.984 293.745 59.76 293.372 59.536C293.009 59.312 292.732 59.0453 292.54 58.736C292.358 58.416 292.268 58.016 292.268 57.536C292.268 56.7573 292.577 56.1707 293.196 55.776C293.814 55.3707 294.63 55.168 295.644 55.168C296.177 55.168 296.678 55.2213 297.148 55.328C297.628 55.424 298.108 55.584 298.588 55.808L297.948 57.296C297.681 57.1787 297.414 57.0773 297.148 56.992C296.892 56.896 296.63 56.8213 296.364 56.768C296.108 56.7147 295.846 56.688 295.58 56.688C295.142 56.688 294.812 56.7573 294.588 56.896C294.364 57.024 294.252 57.2053 294.252 57.44C294.252 57.6213 294.305 57.7813 294.412 57.92C294.529 58.048 294.726 58.1813 295.004 58.32C295.292 58.448 295.697 58.6187 296.22 58.832C296.742 59.0347 297.185 59.248 297.548 59.472C297.921 59.6853 298.209 59.952 298.412 60.272C298.614 60.592 298.716 60.9973 298.716 61.488Z" fill="white"/>
<defs>
<linearGradient id="paint0_linear_2_1443" x1="0" y1="58.5" x2="360" y2="58.5" gradientUnits="userSpaceOnUse">
<stop stop-color="#16394A"/>
<stop offset="1" stop-color="#3488B0"/>
</linearGradient>
</defs>
</svg>
