<svg xmlns="http://www.w3.org/2000/svg" width="126" height="121" fill="none"><mask id="a" width="126" height="121" x="0" y="0" maskUnits="userSpaceOnUse" style="mask-type:alpha"><path fill="#D9D9D9" d="M.79 27.67 97.17.6l28.207 92.497-96.382 27.07z"/></mask><g mask="url(#a)"><path fill="#EEF6FE" d="m47.899 110.672-1.175-3.854C44 97.89 43.733 90.102 45.92 83.456c2.188-6.647 5.833-13.755 10.937-21.325-8.551-3.735-15.615-7.836-21.191-12.302-5.577-4.466-9.726-11.163-12.449-20.091l-1.175-3.854 8.032-2.256 1.175 3.854a38.043 38.043 0 0 0 1.376 3.797l39.758-11.166a40.35 40.35 0 0 0-.423-1.92 38.001 38.001 0 0 0-.552-1.99l-1.175-3.854 8.032-2.256 1.175 3.854c2.723 8.929 2.99 16.716.802 23.363-2.187 6.646-5.833 13.755-10.936 21.325 8.55 3.735 15.614 7.835 21.19 12.301 5.577 4.466 9.727 11.163 12.449 20.092l1.176 3.854-8.032 2.256-1.176-3.854a38.205 38.205 0 0 0-1.376-3.798l-39.757 11.166c.129.661.27 1.302.422 1.921.153.62.337 1.283.552 1.99l1.175 3.854-8.031 2.255Zm-4.95-65.555 28.513-8.008a31.466 31.466 0 0 0 1.143-4.296 34.16 34.16 0 0 0 .523-4.54L36.583 38.536a43.706 43.706 0 0 0 2.976 3.505 31.308 31.308 0 0 0 3.39 3.076Zm18.605 10.256a203.736 203.736 0 0 0 2.917-4.376c.939-1.45 1.81-2.88 2.615-4.291l-15.06 4.23a94.916 94.916 0 0 0 4.614 2.26c1.605.735 3.243 1.46 4.914 2.177ZM59.078 74.06l15.06-4.23a94.96 94.96 0 0 0-4.613-2.26 217.474 217.474 0 0 0-4.915-2.177 203.374 203.374 0 0 0-2.916 4.376 88.77 88.77 0 0 0-2.616 4.29Zm-6.041 18.433 36.545-10.264a43.69 43.69 0 0 0-2.977-3.505 31.3 31.3 0 0 0-3.39-3.075l-28.513 8.008a31.458 31.458 0 0 0-1.142 4.296 34.16 34.16 0 0 0-.523 4.54Z"/></g></svg>