<svg width="118" height="76" viewBox="0 0 118 76" fill="none" xmlns="http://www.w3.org/2000/svg">
<path opacity="0.2" d="M55.865 63.0751C55.865 63.0751 55.841 72.3056 45.4886 76.4086C45.4886 76.4086 43.1177 79.1918 42.4413 80.6977C41.765 82.2037 37.2293 85.4217 33.528 93.431C29.8267 101.44 17.9488 80.5981 17.9488 80.5981L30.4126 55.7069L55.865 63.0751Z" fill="black" fill-opacity="0.7"/>
<path d="M57.3015 19.4775C57.3015 19.4775 62.5444 15.5185 63.9138 15.7593C65.2833 16.0001 67.0774 18.6929 62.7494 22.4458C58.4214 26.1986 60.8913 31.1438 60.8913 31.1438L64.3674 30.4683C64.3674 30.4683 66.6181 30.9127 67.6416 31.8478C68.665 32.783 69.9684 36.3964 70.6774 37.5695C71.3863 38.7427 71.396 40.054 70.2059 40.7121C70.2059 40.7121 70.0818 44.4048 70.6181 45.9274C71.1545 47.45 71.2347 48.4812 69.7655 48.9648C69.3941 49.078 69.0026 49.109 68.6181 49.0559C68.2336 49.0027 67.8652 48.8666 67.5385 48.6569C67.2118 48.4472 66.9346 48.169 66.7261 47.8415C66.5176 47.5141 66.3828 47.1452 66.331 46.7605L65.9882 51.1842L67.1128 52.6397C68.3447 52.8605 69.5283 53.296 70.6094 53.9265C72.5018 55.0017 74.1977 55.0658 74.0353 56.7054C73.873 58.3449 73.2705 60.1949 68.0279 59.2049C62.7853 58.2149 57.2517 51.3966 57.2517 51.3966L49.1736 25.4423L57.3015 19.4775Z" fill="#FFC6B9"/>
<path opacity="0.4" d="M66.3598 33.528C64.4292 37.619 68.1364 41.1778 68.1364 41.1778C68.1364 41.1778 66.5157 42.5443 66.9659 45.1399C67.1543 46.2185 67.7165 47.6677 68.3093 48.9954C67.7937 48.8641 67.3295 48.5807 66.977 48.182C66.6245 47.7834 66.4001 47.2879 66.333 46.7601L65.9879 51.1842L67.112 52.6374C68.0288 52.7982 68.9191 53.0845 69.7577 53.4884C69.3589 55.2823 69.5359 57.3699 70.0092 59.4658C69.3438 59.4208 68.6819 59.3337 68.0276 59.2049C62.7845 58.2127 57.2514 51.3966 57.2514 51.3966L49.1728 25.4401L57.3012 19.4775C57.3012 19.4775 60.1653 17.3153 62.214 16.2829C62.4397 18.3422 63.2425 20.3623 63.7557 21.4745C63.4386 21.8168 63.1025 22.1411 62.7491 22.4458C58.4279 26.1973 60.891 31.1438 60.891 31.1438L64.3693 30.4678C64.3693 30.4678 66.5076 30.8916 67.5617 31.7784C67.0566 32.2825 66.6491 32.8757 66.3598 33.528Z" fill="#CEDBE9"/>
<path d="M55.5311 58.7049C55.5311 58.7049 51.6302 72.2867 40.8153 77.2977C40.8153 77.2977 40.8565 79.8267 39.1384 81.2498C38.2201 82.0083 35.2827 89.0228 32.7469 95.3981L10.1977 86.9541C11.1997 85.4862 12.3382 83.7984 13.4876 82.0449C16.858 76.9432 20.4094 71.2688 21.3198 68.6257C22.1361 66.2744 22.9752 62.306 23.6572 58.5968C24.5319 53.8528 25.1538 49.5305 25.1538 49.5305L30.4188 40.7598L38.6952 26.9691L39.4414 28.3826L55.5311 58.7049Z" fill="#FFC6B9"/>
<path opacity="0.4" d="M38.7056 26.9675L55.5325 58.705C55.5325 58.705 51.6316 72.2868 40.8167 77.2979C40.8167 77.2979 40.8578 79.8268 39.1398 81.2499C38.3149 81.9313 35.8644 87.6534 33.538 93.4199C33.9482 88.9548 36.2038 81.5258 36.2038 81.5258C33.3892 79.26 33.5022 76.2744 34.5758 76.9098C35.6495 77.5452 38.3951 79.3835 38.5683 79.4984C37.326 78.5044 36.7295 76.6846 36.7295 76.6846C36.7295 76.6846 39.9313 78.0193 39.5736 74.953C39.2158 71.8868 35.8521 64.8778 35.8521 64.8778L27.0148 46.4461L38.7056 26.9675Z" fill="#CEDBE9"/>
<path d="M49.1736 25.4423L57.3015 19.4775C57.3015 19.4775 62.5444 15.5185 63.9138 15.7593C65.2833 16.0001 67.0774 18.6929 62.7494 22.4458C58.4214 26.1986 60.8913 31.1438 60.8913 31.1438L64.3674 30.4683C64.3674 30.4683 66.6181 30.9127 67.6416 31.8478C68.665 32.783 69.9684 36.3964 70.6774 37.5695C71.3863 38.7426 71.396 40.054 70.2059 40.7121C70.2059 40.7121 70.0818 44.4048 70.6181 45.9274C71.1545 47.45 71.2347 48.4812 69.7655 48.9648C69.3941 49.078 69.0026 49.109 68.6181 49.0559C68.2336 49.0027 67.8652 48.8666 67.5385 48.6569C67.2118 48.4472 66.9346 48.169 66.7261 47.8415C66.5176 47.5141 66.3828 47.1452 66.331 46.7605L65.9882 51.1842L67.1128 52.6397C68.3447 52.8605 69.5283 53.296 70.6094 53.9265C72.5018 55.0017 74.1977 55.0658 74.0353 56.7054C73.873 58.3449 73.2705 60.1949 68.0279 59.2049C62.7853 58.2149 57.2517 51.3966 57.2517 51.3966" stroke="#263238" stroke-width="0.1875" stroke-linecap="round" stroke-linejoin="round"/>
<path d="M70.206 40.7118C68.5594 41.5199 66.4653 41.5661 65.1132 38.6365C63.7611 35.7069 64.6313 32.1285 65.5563 31.6352" stroke="#263238" stroke-width="0.1875" stroke-linecap="round" stroke-linejoin="round"/>
<path d="M66.3318 46.7604C66.3318 46.7604 65.4473 42.8275 66.7069 41.5689" stroke="#263238" stroke-width="0.1875" stroke-linecap="round" stroke-linejoin="round"/>
<path opacity="0.4" d="M27.8844 74.619C27.8844 74.619 23.5353 74.9149 22.2188 73.1996C21.1295 71.7798 18.0254 78.4942 13.4974 82.0431C16.8677 76.9415 20.4192 71.2671 21.3296 68.624C22.1459 66.2727 22.985 62.3042 23.667 58.595C24.1543 61.4663 23.4824 66.1379 24.3592 68.3323C23.9181 68.5456 23.5788 68.9241 23.4148 69.3858C23.2508 69.8475 23.2753 70.3552 23.4829 70.799C24.1596 72.5466 27.8844 74.619 27.8844 74.619Z" fill="#CEDBE9"/>
<path d="M55.5316 58.705C55.5316 58.705 51.6307 72.2867 40.8136 77.2983C40.8136 77.2983 40.8569 79.8267 39.1389 81.2499C38.2206 82.0083 35.2855 89.0224 32.7451 95.3986" stroke="#263238" stroke-width="0.1875" stroke-linecap="round" stroke-linejoin="round"/>
<path d="M10.1977 86.9541C14.1185 81.215 20.0995 72.1613 21.3289 68.624C23.1887 63.2712 25.1624 49.5265 25.1624 49.5265L38.6974 26.9687" stroke="#263238" stroke-width="0.1875" stroke-linecap="round" stroke-linejoin="round"/>
<path d="M31.6943 43.5487C31.6943 43.5487 34.8098 45.4095 35.9852 47.4303" stroke="#263238" stroke-width="0.1875" stroke-linecap="round" stroke-linejoin="round"/>
<path d="M56.2913 2.84891L27.7399 8.39732C26.8955 8.56143 26.344 9.37902 26.5081 10.2235L38.3197 71.0044C38.4838 71.8488 39.3014 72.4004 40.1458 72.2362L68.6972 66.6878C69.5416 66.5237 70.0931 65.7061 69.929 64.8617L58.1174 4.08079C57.9533 3.23634 57.1357 2.68481 56.2913 2.84891Z" fill="#22292F"/>
<path d="M48.6186 6.1436L48.2292 7.36747C48.1887 7.49996 48.113 7.61901 48.0103 7.71202C47.9076 7.80503 47.7817 7.86853 47.6458 7.89581L37.6493 9.83844C37.5134 9.86411 37.3731 9.85294 37.2429 9.8061C37.1128 9.75926 36.9975 9.67845 36.9091 9.57205L36.092 8.58261C36.0041 8.47563 35.8889 8.39439 35.7586 8.3475C35.6283 8.30061 35.4877 8.2898 35.3518 8.31622L28.3656 9.67385C28.2661 9.69349 28.1715 9.73257 28.0872 9.78886C28.0028 9.84514 27.9304 9.91751 27.874 10.0018C27.8177 10.0862 27.7786 10.1808 27.7589 10.2802C27.7392 10.3797 27.7393 10.4821 27.7592 10.5815L39.3709 70.3333C39.4098 70.5335 39.5265 70.7102 39.6955 70.8245C39.8644 70.9389 40.0718 70.9815 40.2722 70.9432L68.0942 65.5365C68.1941 65.5178 68.2892 65.4794 68.3742 65.4237C68.4592 65.368 68.5323 65.2961 68.5894 65.212C68.6464 65.128 68.6863 65.0335 68.7067 64.9339C68.7271 64.8344 68.7277 64.7318 68.7083 64.6321L57.0967 4.88035C57.0577 4.6797 56.9406 4.50276 56.7711 4.38845C56.6017 4.27414 56.3937 4.23183 56.1931 4.27082L49.2092 5.62801C49.0735 5.65302 48.9471 5.71409 48.8432 5.80481C48.7392 5.89554 48.6617 6.01256 48.6186 6.1436Z" fill="#CEDBE9" stroke="#263238" stroke-width="0.1875" stroke-linecap="round" stroke-linejoin="round"/>
<path d="M40.2893 8.31892C40.5139 8.27527 40.6606 8.05781 40.617 7.83321C40.5733 7.60861 40.3559 7.46192 40.1313 7.50556C39.9067 7.54921 39.76 7.76667 39.8036 7.99127C39.8473 8.21587 40.0647 8.36256 40.2893 8.31892Z" stroke="#FFC6B9" stroke-width="0.1875" stroke-miterlimit="10"/>
<path d="M44.9513 6.99079C44.9605 7.04066 44.9547 7.09214 44.9348 7.13875C44.9148 7.18536 44.8815 7.22501 44.839 7.25271C44.7965 7.28042 44.7468 7.29493 44.6961 7.29442C44.6454 7.29391 44.5959 7.2784 44.554 7.24986C44.5121 7.22131 44.4796 7.18099 44.4606 7.13399C44.4415 7.08699 44.4368 7.03541 44.447 6.98574C44.4572 6.93607 44.4819 6.89053 44.518 6.85487C44.5541 6.81921 44.5999 6.79502 44.6496 6.78534C44.6829 6.77887 44.7172 6.77906 44.7504 6.7859C44.7837 6.79274 44.8152 6.8061 44.8433 6.8252C44.8713 6.8443 44.8953 6.86877 44.9138 6.89719C44.9324 6.92561 44.9451 6.95743 44.9513 6.99079Z" stroke="#FFC6B9" stroke-width="0.1875" stroke-miterlimit="10"/>
<path d="M43.7898 7.05155L41.3179 7.53191C41.2971 7.53595 41.2774 7.54407 41.2598 7.55582C41.2421 7.56756 41.227 7.58269 41.2153 7.60032C41.2036 7.61796 41.1955 7.63774 41.1915 7.65853C41.1875 7.67932 41.1877 7.70069 41.1921 7.72141C41.2001 7.76299 41.2244 7.79965 41.2595 7.82334C41.2946 7.84702 41.3377 7.85579 41.3793 7.84771L43.8511 7.36735C43.8927 7.35927 43.9294 7.33501 43.9531 7.29989C43.9768 7.26478 43.9855 7.2217 43.9774 7.18012C43.9737 7.15929 43.9659 7.1394 43.9544 7.12163C43.9429 7.10385 43.928 7.08853 43.9105 7.07657C43.893 7.0646 43.8734 7.05623 43.8527 7.05194C43.8319 7.04764 43.8106 7.04751 43.7898 7.05155Z" fill="#FFC6B9"/>
<path d="M33.0781 10.3309L30.4131 10.8488L30.633 11.9802L33.2979 11.4623L33.0781 10.3309Z" stroke="#263238" stroke-width="0.1875" stroke-linecap="round" stroke-linejoin="round"/>
<path d="M33.5277 10.4415L33.1143 10.5219L33.2604 11.2739L33.6739 11.1935L33.5277 10.4415Z" stroke="#263238" stroke-width="0.1875" stroke-linecap="round" stroke-linejoin="round"/>
<path d="M52.1034 7.38314L51.6309 7.47498L51.7108 7.88619L52.1833 7.79436L52.1034 7.38314Z" stroke="#263238" stroke-width="0.1875" stroke-linecap="round" stroke-linejoin="round"/>
<path d="M52.9452 6.79037L52.4727 6.8822L52.6329 7.70691L53.1055 7.61508L52.9452 6.79037Z" stroke="#263238" stroke-width="0.1875" stroke-linecap="round" stroke-linejoin="round"/>
<path d="M53.787 6.19759L53.3145 6.28943L53.5546 7.52536L54.0272 7.43352L53.787 6.19759Z" stroke="#263238" stroke-width="0.1875" stroke-linecap="round" stroke-linejoin="round"/>
<path d="M54.6269 5.60531L54.1543 5.69714L54.4748 7.34656L54.9474 7.25473L54.6269 5.60531Z" stroke="#263238" stroke-width="0.1875" stroke-linecap="round" stroke-linejoin="round"/>
<path d="M37.5055 17.0222L37.5987 17.5016C37.7139 18.0946 37.4913 18.4655 36.9097 18.5786L36.6348 18.632L36.9045 20.0201L36.3229 20.1332L35.6055 16.4413L36.462 16.2748C37.0436 16.1618 37.3903 16.4292 37.5055 17.0222ZM36.2945 16.8567L36.5378 18.1086L36.8127 18.0551C36.9967 18.0194 37.0803 17.9159 37.0291 17.6524L36.9209 17.0957C36.8697 16.8322 36.7534 16.7676 36.5694 16.8033L36.2945 16.8567Z" fill="#263238"/>
<path d="M40.1304 19.4006L39.5442 19.5146L39.3118 18.8642L38.6006 19.0024L38.6287 19.6925L38.0947 19.7962L37.969 15.9823L38.8187 15.8172L40.1304 19.4006ZM38.5758 18.4862L39.1369 18.3771L38.4987 16.5607L38.4873 16.5629L38.5758 18.4862Z" fill="#263238"/>
<path d="M40.4461 18.0682L39.2314 15.7367L39.8494 15.6166L40.6155 17.2172L40.6268 17.215L40.7377 15.444L41.2921 15.3362L41.0391 17.953L41.277 19.1776L40.6954 19.2906L40.4461 18.0682Z" fill="#263238"/>
<path d="M43.2486 17.6814L43.26 17.6792L43.1404 14.9769L43.9492 14.8197L44.6679 18.5184L44.1181 18.6252L43.6029 15.9739L43.7274 18.7012L43.1775 18.808L42.2468 16.2751L42.755 18.8901L42.2256 18.993L41.5068 15.2943L42.3156 15.1371L43.2486 17.6814Z" fill="#263238"/>
<path d="M45.2575 16.1832L46.0595 16.0273L46.1624 16.5567L45.3649 16.7117L45.5755 17.7954L46.5797 17.6002L46.6822 18.1273L45.0918 18.4364L44.373 14.7377L45.9634 14.4286L46.0663 14.958L45.0621 15.1531L45.2575 16.1832Z" fill="#263238"/>
<path d="M47.0456 15.2768L47.0343 15.279L47.5548 17.9576L47.0322 18.0592L46.3135 14.3605L47.0428 14.2188L48.0594 16.32L47.6289 14.1048L48.1469 14.0042L48.8657 17.7029L48.2704 17.8186L47.0456 15.2768Z" fill="#263238"/>
<path d="M48.4053 13.9537L50.2024 13.6045L50.3052 14.1339L49.6964 14.2522L50.3123 17.4215L49.7306 17.5346L49.1147 14.3652L48.5081 14.4831L48.4053 13.9537Z" fill="#263238"/>
<path d="M51.2308 13.3626C51.7943 13.2531 52.1509 13.5351 52.2656 14.1258L52.2882 14.2416L51.7383 14.3485L51.7088 14.1963C51.6571 13.9305 51.5332 13.8508 51.3469 13.887C51.1606 13.9232 51.0778 14.043 51.1294 14.3089C51.1811 14.5747 51.3367 14.7566 51.7806 15.0146C52.3502 15.3495 52.5639 15.6239 52.646 16.0465C52.7612 16.6395 52.5294 17.0358 51.9591 17.1467C51.3889 17.2575 51.0277 16.9763 50.9125 16.3834L50.8683 16.1562L51.4181 16.0493L51.4698 16.3152C51.521 16.5787 51.6554 16.6516 51.8395 16.6158C52.0235 16.5801 52.1231 16.4617 52.0719 16.1982C52.0206 15.9346 51.8646 15.7504 51.418 15.4906C50.8488 15.1579 50.637 14.8808 50.5549 14.4582C50.4401 13.8675 50.6651 13.4725 51.2308 13.3626Z" fill="#263238"/>
<path d="M57.6491 21.1567L33.335 25.8817L34.0409 29.5145L58.3551 24.7895L57.6491 21.1567Z" fill="#FFC6B9" stroke="#263238" stroke-width="0.1875" stroke-linecap="round" stroke-linejoin="round"/>
<path d="M58.9734 27.9707L34.6592 32.6957L35.3651 36.3285L59.6793 31.6035L58.9734 27.9707Z" fill="#FFC6B9" stroke="#263238" stroke-width="0.1875" stroke-linecap="round" stroke-linejoin="round"/>
<path d="M60.1775 34.166L35.8633 38.891L36.5693 42.5238L60.8834 37.7988L60.1775 34.166Z" fill="#FFC6B9" stroke="#263238" stroke-width="0.1875" stroke-linecap="round" stroke-linejoin="round"/>
<path d="M48.338 41.6112L36.8262 43.8483L37.6527 48.1013L49.1645 45.8642L48.338 41.6112Z" fill="#FFC6B9" stroke="#263238" stroke-width="0.1875" stroke-linecap="round" stroke-linejoin="round"/>
<path d="M61.1437 39.1226L49.6318 41.3597L50.4583 45.6128L61.9702 43.3757L61.1437 39.1226Z" fill="#FFC6B9" stroke="#263238" stroke-width="0.1875" stroke-linecap="round" stroke-linejoin="round"/>
<path d="M34.7273 24.9534L34.7463 25.0511L33.9852 25.199L33.7764 24.1244L34.5147 23.9809L34.5337 24.0786L33.9112 24.1996L33.9858 24.5835L34.5402 24.4758L34.5587 24.5712L34.0044 24.6789L34.0821 25.0788L34.7273 24.9534Z" fill="#263238"/>
<path d="M36.2327 24.2768L36.3237 24.7448L36.2055 24.7678L36.1172 24.3134C36.0841 24.143 35.9806 24.0712 35.8397 24.0985C35.8015 24.1043 35.765 24.1183 35.7327 24.1396C35.7005 24.1609 35.6732 24.189 35.6529 24.2219C35.6326 24.2548 35.6197 24.2917 35.6151 24.3301C35.6105 24.3685 35.6143 24.4074 35.6263 24.4442L35.7084 24.8667L35.5994 24.8879L35.5111 24.4335C35.478 24.2632 35.3744 24.1913 35.2336 24.2187C35.1953 24.2245 35.1588 24.2385 35.1266 24.2598C35.0943 24.2811 35.0671 24.3092 35.0468 24.342C35.0264 24.3749 35.0135 24.4119 35.0089 24.4502C35.0044 24.4886 35.0082 24.5276 35.0201 24.5643L35.1023 24.9869L34.9932 25.0081L34.8365 24.2016L34.941 24.1812L34.9697 24.3289C34.991 24.2727 35.0271 24.2232 35.0742 24.1859C35.1213 24.1485 35.1777 24.1245 35.2373 24.1166C35.2958 24.1 35.3581 24.1021 35.4154 24.1227C35.4727 24.1433 35.5221 24.1813 35.5567 24.2314C35.5791 24.1703 35.6177 24.1164 35.6683 24.0755C35.7188 24.0345 35.7795 24.008 35.8439 23.9987C35.888 23.987 35.9342 23.9852 35.9791 23.9934C36.0241 24.0016 36.0666 24.0197 36.1038 24.0462C36.1409 24.0728 36.1717 24.1072 36.194 24.1471C36.2163 24.187 36.2295 24.2312 36.2327 24.2768Z" fill="#263238"/>
<path d="M37.1324 24.0686L37.2296 24.5684L37.1251 24.5887L37.1008 24.4638C37.0789 24.5147 37.0439 24.559 36.9994 24.592C36.9549 24.6251 36.9025 24.6458 36.8474 24.6521C36.6656 24.6875 36.5358 24.6137 36.5101 24.4819C36.4845 24.3501 36.5455 24.2392 36.7773 24.1942L37.0272 24.1456L37.0175 24.0957C36.9905 23.9571 36.8964 23.8976 36.7488 23.9263C36.6505 23.9438 36.5619 23.9962 36.4992 24.0738L36.4333 24.0017C36.5134 23.9106 36.6221 23.8495 36.7416 23.8286C36.783 23.8133 36.8274 23.8076 36.8713 23.8119C36.9153 23.8162 36.9577 23.8305 36.9953 23.8536C37.033 23.8767 37.0649 23.9081 37.0886 23.9453C37.1124 23.9826 37.1274 24.0247 37.1324 24.0686ZM37.0737 24.3488L37.0477 24.2148L36.7932 24.2642C36.6364 24.2947 36.5984 24.3657 36.6147 24.4498C36.6311 24.5338 36.7193 24.5874 36.8488 24.5623C36.9025 24.5534 36.9521 24.5284 36.9911 24.4904C37.0301 24.4525 37.0566 24.4035 37.0669 24.3501L37.0737 24.3488Z" fill="#263238"/>
<path d="M37.2933 23.4551C37.2899 23.4342 37.2947 23.4129 37.3068 23.3956C37.3188 23.3783 37.3371 23.3664 37.3578 23.3624C37.3783 23.3584 37.3996 23.3627 37.4169 23.3744C37.4342 23.386 37.4461 23.4041 37.4501 23.4246C37.4541 23.4451 37.4498 23.4663 37.4381 23.4836C37.4264 23.5009 37.4083 23.5129 37.3879 23.5168C37.3672 23.5209 37.3457 23.5167 37.3281 23.5051C37.3104 23.4936 37.2979 23.4756 37.2933 23.4551ZM37.3678 23.7047L37.4768 23.6835L37.6336 24.49L37.5245 24.5112L37.3678 23.7047Z" fill="#263238"/>
<path d="M37.7168 23.2924L37.8258 23.2712L38.0466 24.4071L37.9376 24.4283L37.7168 23.2924Z" fill="#263238"/>
<path d="M36.0232 27.6021L36.0422 27.6998L35.2811 27.8477L35.0723 26.7731L35.8106 26.6296L35.8296 26.7273L35.1958 26.8505L35.2699 27.2321L35.8266 27.124L35.8455 27.2217L35.2889 27.3298L35.3666 27.7297L36.0232 27.6021Z" fill="#263238"/>
<path d="M37.5267 26.921L37.6176 27.389L37.5086 27.4102L37.4203 26.9558C37.3871 26.7854 37.2836 26.7136 37.1427 26.7409C37.1045 26.7463 37.068 26.76 37.0357 26.7811C37.0034 26.8021 36.9761 26.83 36.9557 26.8627C36.9353 26.8954 36.9223 26.9322 36.9177 26.9705C36.9131 27.0088 36.9169 27.0476 36.9289 27.0843L37.0114 27.5091L36.9024 27.5303L36.8141 27.0759C36.781 26.9055 36.6774 26.8337 36.5366 26.8611C36.4984 26.8665 36.4618 26.8802 36.4295 26.9012C36.3972 26.9222 36.3699 26.9501 36.3495 26.9829C36.3291 27.0156 36.3162 27.0524 36.3115 27.0907C36.3069 27.129 36.3107 27.1678 36.3227 27.2044L36.4053 27.6293L36.294 27.6509L36.1368 26.8421L36.2413 26.8218L36.27 26.9695C36.2919 26.9137 36.3282 26.8649 36.3754 26.8279C36.4225 26.791 36.4787 26.7673 36.538 26.7594C36.5966 26.7435 36.6587 26.746 36.7158 26.7665C36.7729 26.7871 36.8223 26.8246 36.8574 26.8742C36.8797 26.813 36.9181 26.759 36.9687 26.718C37.0193 26.677 37.0801 26.6506 37.1446 26.6415C37.1884 26.631 37.234 26.6301 37.2782 26.6389C37.3223 26.6478 37.364 26.6661 37.4004 26.6927C37.4368 26.7193 37.4669 26.7535 37.4887 26.7929C37.5105 26.8323 37.5234 26.876 37.5267 26.921Z" fill="#263238"/>
<path d="M38.4251 26.713L38.5223 27.2128L38.4178 27.2331L38.3935 27.1082C38.372 27.1588 38.3373 27.2027 38.293 27.2353C38.2488 27.268 38.1966 27.2882 38.1419 27.2938C37.9602 27.3291 37.828 27.2558 37.8024 27.124C37.7768 26.9922 37.8401 26.8809 38.0718 26.8359L38.3285 26.786L38.3192 26.7383C38.2923 26.5997 38.1982 26.5402 38.0505 26.5689C37.9517 26.5868 37.8625 26.6392 37.7987 26.7168L37.7351 26.6443C37.8142 26.552 37.9234 26.4907 38.0434 26.4713C38.0844 26.4576 38.128 26.4532 38.1709 26.4584C38.2138 26.4637 38.2551 26.4784 38.2916 26.5015C38.3282 26.5247 38.3591 26.5556 38.3822 26.5922C38.4053 26.6288 38.42 26.6701 38.4251 26.713ZM38.3683 26.9905L38.3426 26.8587L38.0882 26.9082C37.9314 26.9386 37.8934 27.0097 37.9097 27.0937C37.926 27.1778 38.0143 27.2314 38.1438 27.2062C38.1992 27.1987 38.2509 27.1738 38.2912 27.135C38.3316 27.0962 38.3586 27.0456 38.3683 26.9905Z" fill="#263238"/>
<path d="M38.5853 26.0969C38.5819 26.0761 38.5867 26.0548 38.5988 26.0375C38.6108 26.0202 38.6291 26.0082 38.6498 26.0042C38.6601 26.0019 38.6707 26.0017 38.6811 26.0036C38.6915 26.0054 38.7014 26.0094 38.7102 26.0151C38.719 26.0209 38.7266 26.0284 38.7324 26.0371C38.7383 26.0459 38.7424 26.0557 38.7444 26.066C38.7485 26.0871 38.744 26.109 38.732 26.1268C38.72 26.1446 38.7014 26.1569 38.6803 26.161C38.6592 26.1651 38.6374 26.1606 38.6195 26.1486C38.6017 26.1366 38.5894 26.118 38.5853 26.0969ZM38.6598 26.3465L38.7688 26.3253L38.926 27.1341L38.8169 27.1553L38.6598 26.3465Z" fill="#263238"/>
<path d="M39.0117 25.934L39.1185 25.9132L39.3393 27.0492L39.2325 27.0699L39.0117 25.934Z" fill="#263238"/>
<path d="M40.2912 26.3832L40.3822 26.8512L40.2731 26.8724L40.1848 26.418C40.1831 26.3835 40.1737 26.3498 40.1573 26.3194C40.1409 26.289 40.1179 26.2626 40.09 26.2423C40.0621 26.2219 40.0299 26.2081 39.996 26.2018C39.962 26.1954 39.927 26.1968 39.8937 26.2058C39.8543 26.2101 39.8164 26.223 39.7827 26.2436C39.7489 26.2643 39.7201 26.2921 39.6984 26.3252C39.6767 26.3582 39.6625 26.3957 39.6569 26.4349C39.6514 26.474 39.6545 26.514 39.6662 26.5518L39.7488 26.9766L39.6397 26.9978L39.4825 26.189L39.587 26.1687L39.6162 26.3186C39.6392 26.2617 39.677 26.2118 39.7256 26.1742C39.7742 26.1366 39.8319 26.1125 39.8929 26.1045C39.9376 26.0921 39.9846 26.0896 40.0304 26.0975C40.0762 26.1053 40.1197 26.1232 40.1578 26.1498C40.1959 26.1764 40.2276 26.2112 40.2507 26.2515C40.2738 26.2919 40.2876 26.3368 40.2912 26.3832Z" fill="#263238"/>
<path d="M41.1938 26.1747L41.2909 26.6746L41.1864 26.6949L41.1621 26.5699C41.1406 26.6205 41.1059 26.6644 41.0616 26.6971C41.0174 26.7297 40.9652 26.7499 40.9105 26.7556C40.7265 26.7913 40.5966 26.7175 40.571 26.5858C40.5454 26.454 40.6064 26.3431 40.8381 26.2981L41.0949 26.2482L41.0856 26.2005C41.0587 26.0619 40.9668 26.0019 40.8169 26.0311C40.7187 26.0486 40.63 26.101 40.5673 26.1786L40.5015 26.1065C40.5808 26.0145 40.6899 25.9532 40.8097 25.9334C40.8508 25.9193 40.8946 25.9146 40.9378 25.9196C40.981 25.9247 41.0225 25.9393 41.0593 25.9624C41.0962 25.9855 41.1273 26.0166 41.1506 26.0533C41.1739 26.0901 41.1886 26.1316 41.1938 26.1747ZM41.1346 26.4527L41.109 26.3209L40.8568 26.3699C40.7 26.4004 40.6597 26.4719 40.676 26.5559C40.6924 26.64 40.7806 26.6936 40.9101 26.6684C40.966 26.6613 41.0182 26.6365 41.059 26.5976C41.0999 26.5587 41.1271 26.5078 41.1369 26.4522L41.1346 26.4527Z" fill="#263238"/>
<path d="M42.832 25.8898L42.923 26.3578L42.8139 26.379L42.7256 25.9246C42.6925 25.7542 42.589 25.6824 42.4481 25.7098C42.4099 25.7152 42.3734 25.7289 42.3411 25.7499C42.3087 25.7709 42.2814 25.7988 42.261 25.8315C42.2407 25.8643 42.2277 25.9011 42.2231 25.9393C42.2184 25.9776 42.2222 26.0165 42.2342 26.0531L42.3168 26.478L42.2009 26.5005L42.1126 26.0461C42.0795 25.8757 41.976 25.8039 41.8351 25.8312C41.7969 25.8366 41.7604 25.8503 41.7281 25.8714C41.6958 25.8924 41.6684 25.9203 41.6481 25.953C41.6277 25.9857 41.6147 26.0225 41.6101 26.0608C41.6055 26.0991 41.6093 26.1379 41.6213 26.1746L41.7038 26.5994L41.5948 26.6206L41.4376 25.8118L41.5421 25.7915L41.5708 25.9392C41.5927 25.8835 41.6291 25.8346 41.6762 25.7976C41.7233 25.7607 41.7795 25.7371 41.8389 25.7291C41.8974 25.7126 41.9597 25.7147 42.017 25.7353C42.0742 25.7559 42.1236 25.7938 42.1582 25.8439C42.1807 25.7828 42.2193 25.729 42.2698 25.688C42.3204 25.6471 42.3811 25.6206 42.4455 25.6113C42.4895 25.5999 42.5355 25.5984 42.5801 25.6069C42.6248 25.6153 42.6671 25.6334 42.704 25.66C42.7408 25.6866 42.7714 25.7209 42.7936 25.7606C42.8157 25.8004 42.8288 25.8444 42.832 25.8898Z" fill="#263238"/>
<path d="M43.8525 25.7925L43.1709 25.925C43.1921 26.003 43.2434 26.0695 43.3135 26.1098C43.3837 26.1501 43.467 26.1609 43.5451 26.1399C43.5919 26.1321 43.6364 26.1142 43.6756 26.0875C43.7148 26.0607 43.7477 26.0257 43.772 25.985L43.847 26.0435C43.8008 26.1156 43.7344 26.1725 43.6561 26.2071C43.5777 26.2416 43.4909 26.2523 43.4065 26.2377C43.3221 26.2232 43.2439 26.184 43.1817 26.1252C43.1194 26.0664 43.0759 25.9905 43.0566 25.9071C43.0434 25.8543 43.0412 25.7995 43.0502 25.7458C43.0592 25.6922 43.0791 25.641 43.1088 25.5954C43.1384 25.5499 43.1771 25.5109 43.2225 25.4809C43.2678 25.451 43.3189 25.4307 43.3724 25.4213C43.4254 25.4099 43.4801 25.4097 43.5332 25.4205C43.5863 25.4314 43.6365 25.4532 43.6807 25.4845C43.7249 25.5158 43.7622 25.556 43.79 25.6024C43.8179 25.6489 43.8358 25.7006 43.8427 25.7543C43.8427 25.7543 43.8502 25.7811 43.8525 25.7925ZM43.155 25.8432L43.7275 25.7319C43.7128 25.656 43.6684 25.589 43.6043 25.5458C43.5402 25.5025 43.4615 25.4865 43.3856 25.5013C43.3097 25.516 43.2427 25.5603 43.1995 25.6245C43.1562 25.6886 43.1402 25.7672 43.155 25.8432Z" fill="#263238"/>
<path d="M45.427 25.4494C45.4778 25.7107 45.4097 25.8819 45.2506 25.9128C45.2284 25.9184 45.2053 25.9194 45.1828 25.9156C45.1602 25.9119 45.1386 25.9036 45.1194 25.8912C45.1002 25.8788 45.0837 25.8626 45.071 25.8435C45.0584 25.8245 45.0497 25.803 45.0457 25.7805C45.0243 25.8392 44.9875 25.891 44.9393 25.9307C44.891 25.9703 44.833 25.9963 44.7712 26.0059C44.6664 26.0263 44.5578 26.0042 44.4692 25.9445C44.3807 25.8847 44.3195 25.7923 44.2991 25.6874C44.2787 25.5826 44.3008 25.4739 44.3606 25.3854C44.4203 25.2969 44.5128 25.2357 44.6176 25.2153C44.6776 25.201 44.7403 25.2029 44.7993 25.2208C44.8584 25.2388 44.9115 25.2721 44.9534 25.3174L44.9238 25.1652L45.0238 25.1458L45.1368 25.7274C45.1536 25.8137 45.2029 25.8372 45.2552 25.827C45.3483 25.8089 45.3867 25.6788 45.3465 25.4721C45.333 25.3895 45.3023 25.3108 45.2564 25.2408C45.2106 25.1709 45.1505 25.1114 45.0801 25.0661C45.0098 25.0209 44.9307 24.991 44.848 24.9783C44.7653 24.9655 44.6809 24.9703 44.6002 24.9923C44.5191 25.0081 44.4418 25.0397 44.3729 25.0853C44.3039 25.131 44.2446 25.1897 44.1984 25.2582C44.1522 25.3268 44.1199 25.4038 44.1034 25.4848C44.0869 25.5658 44.0866 25.6492 44.1023 25.7304C44.1181 25.8115 44.1497 25.8888 44.1953 25.9577C44.241 26.0267 44.2997 26.0859 44.3682 26.1322C44.4368 26.1784 44.5137 26.2107 44.5948 26.2272C44.6758 26.2437 44.7592 26.244 44.8404 26.2283C44.9427 26.2081 45.0391 26.1652 45.1225 26.1027L45.1621 26.1728C45.071 26.2394 44.9662 26.2848 44.8554 26.3055C44.671 26.3413 44.48 26.3025 44.3242 26.1974C44.1685 26.0924 44.0609 25.9298 44.0251 25.7454C43.9893 25.561 44.0281 25.37 44.1332 25.2142C44.2382 25.0585 44.4008 24.9509 44.5852 24.9151C44.6757 24.8906 44.7704 24.8852 44.8631 24.8993C44.9558 24.9134 45.0446 24.9466 45.1237 24.9969C45.2029 25.0471 45.2708 25.1133 45.323 25.1912C45.3752 25.2691 45.4106 25.357 45.427 25.4494ZM44.9984 25.5492C44.9941 25.508 44.9813 25.4681 44.9608 25.4321C44.9402 25.3962 44.9124 25.3649 44.8792 25.3402C44.8459 25.3156 44.8078 25.2981 44.7674 25.2889C44.727 25.2798 44.6852 25.2791 44.6445 25.287C44.6039 25.295 44.5653 25.3112 44.5312 25.3348C44.4972 25.3585 44.4685 25.3889 44.4468 25.4242C44.4252 25.4595 44.4112 25.499 44.4056 25.54C44.4 25.5811 44.4031 25.6228 44.4145 25.6626C44.4188 25.7038 44.4316 25.7437 44.4522 25.7797C44.4727 25.8156 44.5005 25.847 44.5338 25.8716C44.5671 25.8963 44.6051 25.9137 44.6455 25.9229C44.6859 25.932 44.7278 25.9327 44.7684 25.9248C44.8091 25.9169 44.8477 25.9006 44.8817 25.877C44.9157 25.8534 44.9445 25.8229 44.9661 25.7876C44.9877 25.7523 45.0018 25.7128 45.0073 25.6718C45.0129 25.6307 45.0099 25.589 44.9984 25.5492Z" fill="#263238"/>
<path d="M46.3656 25.3044L45.684 25.4368C45.694 25.4758 45.7115 25.5124 45.7357 25.5445C45.7598 25.5767 45.7901 25.6038 45.8247 25.6242C45.8594 25.6446 45.8977 25.658 45.9375 25.6636C45.9773 25.6692 46.0179 25.6668 46.0568 25.6567C46.1036 25.649 46.1482 25.6311 46.1873 25.6043C46.2265 25.5776 46.2594 25.5426 46.2837 25.5018L46.3587 25.5603C46.3126 25.6325 46.2461 25.6894 46.1678 25.7239C46.0894 25.7585 46.0026 25.7692 45.9182 25.7546C45.8338 25.74 45.7556 25.7009 45.6934 25.6421C45.6311 25.5832 45.5876 25.5074 45.5683 25.4239C45.5551 25.3712 45.553 25.3163 45.5619 25.2627C45.5709 25.2091 45.5908 25.1579 45.6205 25.1123C45.6501 25.0667 45.6888 25.0277 45.7342 24.9978C45.7795 24.9678 45.8306 24.9475 45.8842 24.9382C45.9371 24.9268 45.9919 24.9265 46.0449 24.9374C46.098 24.9483 46.1482 24.97 46.1924 25.0014C46.2366 25.0327 46.2739 25.0728 46.3018 25.1193C46.3296 25.1657 46.3476 25.2174 46.3544 25.2712C46.3544 25.2712 46.3634 25.293 46.3656 25.3044ZM45.6681 25.355L46.2406 25.2438C46.2259 25.1678 46.1816 25.1009 46.1174 25.0576C46.0533 25.0144 45.9746 24.9984 45.8987 25.0131C45.8228 25.0279 45.7559 25.0722 45.7126 25.1363C45.6693 25.2004 45.6533 25.2791 45.6681 25.355Z" fill="#263238"/>
<path d="M47.9043 24.904L47.9952 25.372L47.8793 25.3945L47.791 24.9402C47.7579 24.7698 47.6544 24.6979 47.5135 24.7253C47.4753 24.7307 47.4388 24.7444 47.4065 24.7654C47.3742 24.7865 47.3468 24.8143 47.3265 24.8471C47.3061 24.8798 47.2931 24.9166 47.2885 24.9549C47.2838 24.9932 47.2877 25.032 47.2997 25.0687L47.3822 25.4935L47.2732 25.5147L47.1849 25.0603C47.1518 24.8899 47.0482 24.8181 46.9073 24.8455C46.8692 24.8509 46.8326 24.8646 46.8003 24.8856C46.768 24.9066 46.7407 24.9345 46.7203 24.9672C46.6999 25 46.6869 25.0368 46.6823 25.075C46.6777 25.1133 46.6815 25.1522 46.6935 25.1888L46.7761 25.6137L46.667 25.6349L46.5098 24.826L46.6143 24.8057L46.643 24.9534C46.6646 24.8979 46.7006 24.8492 46.7473 24.8124C46.7941 24.7755 46.8498 24.7518 46.9088 24.7438C46.9677 24.7277 47.0301 24.73 47.0876 24.7505C47.1451 24.7709 47.195 24.8085 47.2305 24.8581C47.2522 24.797 47.2902 24.7431 47.3404 24.7021C47.3907 24.6612 47.4512 24.6348 47.5154 24.6259C47.5596 24.6142 47.6057 24.6124 47.6507 24.6206C47.6956 24.6288 47.7381 24.6469 47.7753 24.6734C47.8124 24.7 47.8433 24.7344 47.8656 24.7743C47.8878 24.8142 47.9011 24.8585 47.9043 24.904Z" fill="#263238"/>
<path d="M48.8022 24.6962L48.8993 25.196L48.788 25.2177L48.7637 25.0927C48.742 25.1432 48.7072 25.1869 48.663 25.2195C48.6188 25.2522 48.5668 25.2725 48.5122 25.2783C48.3281 25.3141 48.1983 25.2403 48.1727 25.1085C48.147 24.9768 48.208 24.8659 48.4398 24.8209L48.701 24.7701L48.6918 24.7224C48.6648 24.5838 48.573 24.5238 48.4231 24.553C48.3248 24.5705 48.2362 24.6229 48.1735 24.7005L48.1076 24.6284C48.1869 24.5364 48.296 24.4751 48.4159 24.4553C48.4571 24.4408 48.5011 24.4358 48.5445 24.4406C48.588 24.4454 48.6298 24.4599 48.6669 24.483C48.704 24.5061 48.7354 24.5373 48.7588 24.5742C48.7822 24.6111 48.7971 24.6528 48.8022 24.6962ZM48.743 24.9741L48.7174 24.8424L48.4652 24.8914C48.3085 24.9218 48.2681 24.9933 48.2845 25.0774C48.3008 25.1614 48.389 25.215 48.5185 25.1899C48.5735 25.1819 48.6246 25.1569 48.6645 25.1182C48.7044 25.0796 48.7311 25.0293 48.7408 24.9746L48.743 24.9741Z" fill="#263238"/>
<path d="M48.9656 24.0796C48.9626 24.0639 48.9643 24.0476 48.9705 24.0329C48.9767 24.0181 48.9871 24.0055 49.0005 23.9966C49.0138 23.9878 49.0295 23.9831 49.0455 23.9832C49.0615 23.9833 49.0772 23.9881 49.0905 23.997C49.1037 24.006 49.1141 24.0187 49.1201 24.0335C49.1262 24.0483 49.1277 24.0646 49.1245 24.0803C49.1214 24.096 49.1136 24.1104 49.1022 24.1217C49.0908 24.133 49.0763 24.1406 49.0606 24.1437C49.0395 24.1478 49.0177 24.1434 48.9999 24.1313C48.9821 24.1193 48.9697 24.1007 48.9656 24.0796ZM49.0378 24.3297L49.1469 24.3085L49.304 25.1173L49.195 25.1385L49.0378 24.3297Z" fill="#263238"/>
<path d="M49.3867 23.9176L49.4958 23.8964L49.7165 25.0324L49.6075 25.0536L49.3867 23.9176Z" fill="#263238"/>
<path d="M49.9368 24.9145C49.9344 24.9037 49.9342 24.8925 49.9363 24.8817C49.9383 24.8709 49.9425 24.8606 49.9487 24.8514C49.9549 24.8423 49.9629 24.8345 49.9721 24.8285C49.9814 24.8226 49.9918 24.8186 50.0027 24.8168C50.0244 24.8126 50.0469 24.8171 50.0652 24.8295C50.0835 24.8418 50.0962 24.861 50.1004 24.8827C50.1047 24.9046 50.1002 24.9273 50.088 24.9459C50.0758 24.9646 50.0567 24.9778 50.035 24.9826C50.024 24.9848 50.0128 24.9847 50.0019 24.9824C49.991 24.9801 49.9806 24.9756 49.9715 24.9693C49.9623 24.9629 49.9546 24.9548 49.9486 24.9454C49.9427 24.936 49.9387 24.9254 49.9368 24.9145Z" fill="#263238"/>
<path d="M50.1639 24.5306C50.1516 24.4762 50.1507 24.4199 50.1612 24.3651C50.1718 24.3103 50.1935 24.2583 50.2251 24.2123C50.2567 24.1664 50.2974 24.1274 50.3447 24.0979C50.392 24.0684 50.445 24.049 50.5001 24.0409C50.5617 24.0247 50.6265 24.0251 50.6878 24.0422C50.7491 24.0593 50.8048 24.0924 50.8491 24.1381L50.7779 24.2085C50.7453 24.177 50.7055 24.1538 50.6619 24.1409C50.6184 24.128 50.5723 24.1258 50.5278 24.1345C50.4502 24.1566 50.3838 24.2069 50.3416 24.2756C50.2994 24.3442 50.2845 24.4262 50.2999 24.5054C50.3153 24.5845 50.3598 24.655 50.4246 24.7028C50.4895 24.7507 50.5699 24.7725 50.6501 24.7639C50.6948 24.7556 50.7368 24.7365 50.7724 24.7082C50.808 24.6799 50.8362 24.6433 50.8543 24.6016L50.9467 24.6402C50.9223 24.6989 50.883 24.7502 50.8326 24.789C50.7822 24.8277 50.7225 24.8526 50.6595 24.8611C50.6051 24.8743 50.5486 24.8761 50.4935 24.8663C50.4383 24.8566 50.3858 24.8355 50.3393 24.8045C50.2927 24.7734 50.2531 24.7331 50.2229 24.6859C50.1927 24.6388 50.1726 24.5859 50.1639 24.5306Z" fill="#263238"/>
<path d="M51.0157 24.3652C50.9999 24.2838 51.0086 24.1996 51.0406 24.1232C51.0727 24.0468 51.1266 23.9816 51.1957 23.9359C51.2648 23.8902 51.3459 23.866 51.4288 23.8663C51.5116 23.8667 51.5925 23.8916 51.6612 23.938C51.7299 23.9843 51.7833 24.05 51.8147 24.1266C51.846 24.2033 51.8539 24.2876 51.8374 24.3688C51.8209 24.45 51.7807 24.5244 51.7218 24.5828C51.663 24.6411 51.5882 24.6807 51.5068 24.6965C51.4527 24.709 51.3966 24.7102 51.3419 24.7C51.2873 24.6899 51.2353 24.6687 51.1892 24.6376C51.1432 24.6065 51.104 24.5663 51.0741 24.5194C51.0443 24.4725 51.0244 24.42 51.0157 24.3652ZM51.7268 24.227C51.7134 24.1675 51.6825 24.1134 51.6383 24.0715C51.594 24.0295 51.5383 24.0017 51.4782 23.9915C51.4181 23.9813 51.3563 23.9891 51.3007 24.0141C51.2451 24.039 51.1981 24.0799 51.1657 24.1316C51.1334 24.1832 51.1171 24.2433 51.1189 24.3043C51.1208 24.3652 51.1407 24.4242 51.1761 24.4738C51.2115 24.5235 51.2609 24.5614 51.3179 24.583C51.375 24.6045 51.4371 24.6086 51.4965 24.5947C51.5362 24.5864 51.5738 24.5702 51.607 24.5471C51.6403 24.5239 51.6685 24.4942 51.69 24.4599C51.7115 24.4256 51.7258 24.3872 51.7322 24.3472C51.7385 24.3072 51.7367 24.2663 51.7268 24.227Z" fill="#263238"/>
<path d="M53.3799 23.8399L53.4708 24.3079L53.3618 24.3291L53.2735 23.8747C53.2403 23.7043 53.1368 23.6325 52.9959 23.6599C52.9577 23.6653 52.9212 23.679 52.8889 23.7C52.8566 23.721 52.8293 23.7489 52.8089 23.7816C52.7885 23.8144 52.7755 23.8512 52.7709 23.8895C52.7663 23.9277 52.7701 23.9666 52.7821 24.0032L52.8646 24.4281L52.7556 24.4493L52.6673 23.9949C52.6342 23.8245 52.5306 23.7527 52.3898 23.78C52.3516 23.7854 52.315 23.7991 52.2827 23.8202C52.2504 23.8412 52.2231 23.8691 52.2027 23.9018C52.1823 23.9345 52.1694 23.9713 52.1647 24.0096C52.1601 24.0479 52.1639 24.0867 52.1759 24.1234L52.2585 24.5482L52.1494 24.5694L51.9923 23.7606L52.0968 23.7403L52.1255 23.888C52.147 23.8325 52.183 23.7838 52.2298 23.7469C52.2765 23.7101 52.3322 23.6864 52.3912 23.6784C52.4501 23.6623 52.5125 23.6646 52.57 23.685C52.6275 23.7055 52.6774 23.743 52.7129 23.7927C52.7348 23.7318 52.7729 23.6779 52.8231 23.637C52.8733 23.5961 52.9337 23.5697 52.9978 23.5605C53.0416 23.5499 53.0872 23.549 53.1314 23.5579C53.1755 23.5667 53.2172 23.5851 53.2536 23.6117C53.29 23.6383 53.3201 23.6724 53.3419 23.7119C53.3637 23.7513 53.3766 23.795 53.3799 23.8399Z" fill="#263238"/>
<path d="M36.7151 34.2008L36.9271 34.2727L36.9054 34.343L36.6907 34.2692L36.7348 34.4964L36.6644 34.5101L36.6203 34.2829L36.4488 34.4317L36.4001 34.3752L36.572 34.2286L36.3581 34.1593L36.3817 34.0864L36.5969 34.1625L36.5527 33.9353L36.6231 33.9216L36.6673 34.1488L36.8383 33.9976L36.8852 34.0569L36.7151 34.2008Z" fill="#263238"/>
<path d="M37.3404 34.0792L37.5525 34.1512L37.5285 34.2219L37.316 34.1476L37.3602 34.3748L37.2875 34.389L37.2433 34.1618L37.0741 34.3102L37.0231 34.2541L37.195 34.1075L36.9812 34.0382L37.007 33.9649L37.2199 34.0414L37.1758 33.8142L37.253 33.7992L37.2972 34.0264L37.4659 33.8757L37.5151 33.9345L37.3404 34.0792Z" fill="#263238"/>
<path d="M37.9628 33.9588L38.1749 34.0308L38.1509 34.1014L37.9384 34.0272L37.9826 34.2544L37.9121 34.2681L37.868 34.0409L37.6988 34.1893L37.6501 34.1327L37.8197 33.9866L37.6081 33.9169L37.6317 33.844L37.8446 33.9205L37.8004 33.6933L37.8709 33.6796L37.915 33.9068L38.0838 33.7561L38.1329 33.8149L37.9628 33.9588Z" fill="#263238"/>
<path d="M38.5852 33.8375L38.7973 33.9095L38.7756 33.9797L38.5608 33.9059L38.605 34.1331L38.5345 34.1468L38.4904 33.9196L38.3189 34.0684L38.2702 34.0119L38.4421 33.8653L38.2282 33.7961L38.2518 33.7231L38.467 33.7992L38.4228 33.572L38.4933 33.5583L38.5374 33.7855L38.7084 33.6344L38.7553 33.6936L38.5852 33.8375Z" fill="#263238"/>
<path d="M39.2106 33.716L39.4226 33.7879L39.3986 33.8586L39.1861 33.7844L39.2303 34.0116L39.1576 34.0257L39.1134 33.7985L38.9442 33.9469L38.8932 33.8908L39.0651 33.7442L38.8513 33.675L38.8771 33.6016L39.09 33.6781L39.0459 33.4509L39.1186 33.4368L39.1627 33.664L39.3315 33.5133L39.3806 33.5721L39.2106 33.716Z" fill="#263238"/>
<path d="M39.832 33.595L40.044 33.667L40.02 33.7377L39.8076 33.6634L39.8517 33.8906L39.7813 33.9043L39.7371 33.6771L39.5679 33.8255L39.5192 33.769L39.6889 33.6228L39.4773 33.5531L39.5008 33.4802L39.7137 33.5567L39.6696 33.3295L39.7514 33.3136L39.7955 33.5408L39.9643 33.3901L40.0134 33.4489L39.832 33.595Z" fill="#263238"/>
<path d="M40.4544 33.474L40.6664 33.5459L40.6447 33.6162L40.4299 33.5424L40.4741 33.7696L40.4037 33.7833L40.3595 33.5561L40.188 33.7049L40.1393 33.6484L40.3112 33.5018L40.0974 33.4325L40.1209 33.3596L40.3361 33.4357L40.292 33.2085L40.3624 33.1948L40.4065 33.422L40.5776 33.2708L40.6245 33.3301L40.4544 33.474Z" fill="#263238"/>
<path d="M41.0807 33.3529L41.2927 33.4249L41.2687 33.4956L41.054 33.4218L41.0981 33.649L41.0277 33.6627L40.9835 33.4355L40.8143 33.5839L40.7633 33.5278L40.9353 33.3812L40.7214 33.3119L40.7472 33.2385L40.9601 33.315L40.916 33.0879L40.9864 33.0742L41.0306 33.3014L41.2016 33.1502L41.2508 33.2091L41.0807 33.3529Z" fill="#263238"/>
<path d="M41.7021 33.2315L41.9141 33.3035L41.8902 33.3741L41.6777 33.2999L41.7218 33.5271L41.6514 33.5408L41.6072 33.3136L41.438 33.462L41.3893 33.4054L41.559 33.2593L41.3474 33.1896L41.3709 33.1167L41.5838 33.1932L41.5397 32.966L41.6101 32.9523L41.6543 33.1795L41.823 33.0288L41.8722 33.0876L41.7021 33.2315Z" fill="#263238"/>
<path d="M42.3255 33.1107L42.5375 33.1827L42.5158 33.2529L42.301 33.1791L42.3452 33.4063L42.2748 33.42L42.2306 33.1928L42.0591 33.3416L42.0104 33.2851L42.1801 33.1389L41.9685 33.0693L41.992 32.9963L42.2072 33.0724L42.1631 32.8452L42.2335 32.8315L42.2776 33.0587L42.4487 32.9076L42.4956 32.9668L42.3255 33.1107Z" fill="#263238"/>
<path d="M42.9498 32.9892L43.1596 33.0616L43.1379 33.1318L42.9231 33.058L42.9673 33.2852L42.8968 33.2989L42.8527 33.0717L42.6835 33.2201L42.6325 33.164L42.8044 33.0174L42.5905 32.9482L42.6164 32.8748L42.8293 32.9513L42.7851 32.7241L42.8556 32.7104L42.8997 32.9376L43.0707 32.7865L43.1176 32.8457L42.9498 32.9892Z" fill="#263238"/>
<path d="M36.0151 31.1403C36.0592 31.3675 35.9208 31.5405 35.6481 31.5935L35.3596 31.6496L35.4254 31.9881L35.3095 32.0106L35.1016 30.9406L35.5037 30.8624C35.7786 30.809 35.9709 30.9131 36.0151 31.1403ZM35.9015 31.1623C35.8679 30.9897 35.7354 30.9141 35.5195 30.956L35.2355 31.0112L35.3402 31.5496L35.6264 31.494C35.8409 31.457 35.9355 31.3373 35.9015 31.1623Z" fill="#263238"/>
<path d="M36.8803 31.1908L36.9774 31.6907L36.8729 31.711L36.8486 31.586C36.8266 31.6367 36.7914 31.6807 36.7468 31.7134C36.7022 31.7461 36.6498 31.7663 36.5948 31.7721C36.413 31.8074 36.2836 31.7359 36.2576 31.6019C36.2315 31.4678 36.2929 31.3592 36.5247 31.3142L36.7814 31.2643L36.7721 31.2166C36.7452 31.078 36.6511 31.0185 36.5034 31.0472C36.4052 31.0647 36.3166 31.1171 36.2539 31.1947L36.188 31.1226C36.2673 31.0306 36.3764 30.9693 36.4962 30.9495C36.5374 30.9355 36.5811 30.9307 36.6243 30.9358C36.6675 30.9408 36.709 30.9554 36.7459 30.9785C36.7827 31.0016 36.8139 31.0327 36.8371 31.0695C36.8604 31.1062 36.8751 31.1477 36.8803 31.1908ZM36.8211 31.4688L36.7955 31.337L36.5479 31.3851C36.3911 31.4156 36.353 31.4866 36.3694 31.5707C36.3857 31.6548 36.4739 31.7084 36.6034 31.6832C36.6575 31.6744 36.7075 31.6491 36.7465 31.6107C36.7855 31.5723 36.8116 31.5227 36.8211 31.4688Z" fill="#263238"/>
<path d="M37.1439 31.5641L37.1748 31.4685C37.2708 31.5115 37.3778 31.5236 37.481 31.5033C37.6332 31.4737 37.6867 31.4091 37.6708 31.3273C37.6302 31.1183 37.1399 31.3857 37.0776 31.0654C37.052 30.9336 37.147 30.8161 37.3515 30.7764C37.4517 30.7556 37.5557 30.7622 37.6524 30.7957L37.6214 30.8913C37.5416 30.859 37.4538 30.8514 37.3696 30.8695C37.2242 30.8978 37.1716 30.9669 37.1867 31.0442C37.2308 31.2714 37.7198 30.9972 37.7798 31.3061C37.8072 31.447 37.7013 31.5572 37.49 31.5982C37.374 31.6247 37.2525 31.6127 37.1439 31.5641Z" fill="#263238"/>
<path d="M37.8939 31.4184L37.9271 31.3223C38.0222 31.3657 38.1285 31.3781 38.231 31.3576C38.3855 31.3276 38.448 31.2612 38.4322 31.1794C38.3915 30.9704 37.9012 31.2378 37.839 30.9174C37.8134 30.7857 37.9084 30.6682 38.1152 30.628C38.2146 30.607 38.3179 30.6139 38.4137 30.6478L38.3828 30.7434C38.3066 30.7125 38.2231 30.7041 38.1423 30.7194C37.9947 30.7481 37.9421 30.8172 37.9571 30.8945C38.0013 31.1217 38.4902 30.8475 38.5503 31.1564C38.5777 31.2973 38.4718 31.4075 38.2627 31.4481C38.14 31.481 38.0097 31.4705 37.8939 31.4184Z" fill="#263238"/>
<path d="M39.7874 30.3077L39.6374 31.1738L39.5352 31.1937L39.1523 30.582L39.0263 31.2926L38.9218 31.3129L38.4629 30.5651L38.5674 30.5448L38.952 31.1773L39.0786 30.4454L39.174 30.4269L39.5632 31.0586L39.6875 30.3271L39.7874 30.3077Z" fill="#263238"/>
<path d="M39.9249 30.6982C39.9091 30.6168 39.9177 30.5326 39.9498 30.4562C39.9818 30.3798 40.0358 30.3146 40.1049 30.2689C40.174 30.2232 40.2551 30.199 40.3379 30.1993C40.4208 30.1997 40.5017 30.2246 40.5704 30.271C40.6391 30.3173 40.6925 30.383 40.7238 30.4596C40.7552 30.5363 40.7631 30.6206 40.7466 30.7018C40.7301 30.783 40.6899 30.8574 40.631 30.9158C40.5722 30.9741 40.4973 31.0137 40.416 31.0295C40.3619 31.042 40.3057 31.0432 40.2511 31.0331C40.1965 31.0229 40.1445 31.0017 40.0984 30.9706C40.0524 30.9395 40.0132 30.8993 39.9833 30.8524C39.9535 30.8056 39.9336 30.753 39.9249 30.6982ZM40.636 30.56C40.6205 30.4804 40.5741 30.4103 40.5069 30.365C40.4398 30.3197 40.3574 30.3029 40.2778 30.3184C40.1983 30.3338 40.1281 30.3802 40.0828 30.4474C40.0375 30.5146 40.0208 30.597 40.0362 30.6765C40.0517 30.7561 40.0981 30.8262 40.1653 30.8715C40.2324 30.9168 40.3148 30.9336 40.3944 30.9181C40.4739 30.9027 40.5441 30.8563 40.5894 30.7891C40.6347 30.7219 40.6515 30.6395 40.636 30.56Z" fill="#263238"/>
<path d="M41.2975 30.0074L41.3173 30.1097L41.2901 30.115C41.2514 30.1207 41.2144 30.1349 41.1819 30.1565C41.1493 30.1782 41.1219 30.2067 41.1016 30.2401C41.0813 30.2736 41.0686 30.3111 41.0645 30.3499C41.0603 30.3888 41.0648 30.4282 41.0776 30.4651L41.1575 30.8763L41.0484 30.8975L40.8917 30.091L41.0075 30.0685L41.038 30.2252C41.0552 30.1675 41.089 30.1161 41.1351 30.0774C41.1812 30.0387 41.2377 30.0144 41.2975 30.0074Z" fill="#263238"/>
<path d="M42.1592 29.5024L42.3799 30.6384L42.2754 30.6587L42.2445 30.4996C42.2224 30.5588 42.1849 30.611 42.1358 30.6508C42.0868 30.6906 42.028 30.7166 41.9655 30.726C41.8605 30.7384 41.7547 30.7106 41.6693 30.6483C41.584 30.586 41.5253 30.4937 41.5051 30.3899C41.485 30.2861 41.5048 30.1785 41.5606 30.0888C41.6164 29.999 41.7041 29.9336 41.8061 29.9058C41.8662 29.8918 41.9289 29.8935 41.9881 29.911C42.0472 29.9284 42.1009 29.9609 42.1437 30.0052L42.0497 29.5213L42.1592 29.5024ZM42.195 30.257C42.1805 30.1991 42.1494 30.1466 42.1054 30.1062C42.0615 30.0658 42.0066 30.0391 41.9477 30.0296C41.8888 30.02 41.8283 30.0279 41.7738 30.0523C41.7193 30.0767 41.6731 30.1165 41.641 30.1668C41.6089 30.2172 41.5923 30.2758 41.5932 30.3356C41.594 30.3953 41.6124 30.4534 41.6459 30.5028C41.6795 30.5522 41.7268 30.5907 41.782 30.6135C41.8372 30.6363 41.8979 30.6424 41.9565 30.6311C41.9976 30.6238 42.0367 30.6081 42.0714 30.585C42.1061 30.5618 42.1356 30.5317 42.158 30.4965C42.1805 30.4613 42.1953 30.4219 42.2017 30.3806C42.2081 30.3394 42.2058 30.2973 42.195 30.257Z" fill="#263238"/>
<path d="M45.5797 38.4765L45.7889 39.5534L45.6844 39.5737L45.4946 38.5968L45.2401 38.6462L45.2207 38.5463L45.5797 38.4765Z" fill="#263238"/>
<path d="M46.7591 39.2563L46.7785 39.3562L46.0242 39.5028L46.0088 39.4233L46.378 38.8965C46.4754 38.755 46.4863 38.6774 46.4722 38.6047C46.4479 38.4798 46.3443 38.4197 46.1807 38.4515C46.1252 38.4587 46.0721 38.4783 46.0254 38.5091C45.9786 38.5398 45.9395 38.5808 45.911 38.6289L45.8182 38.5762C45.8566 38.5147 45.9079 38.4623 45.9687 38.4228C46.0294 38.3833 46.0981 38.3576 46.1699 38.3475C46.3971 38.3034 46.5482 38.3895 46.5831 38.569C46.5923 38.6352 46.5871 38.7026 46.5678 38.7666C46.5485 38.8306 46.5155 38.8896 46.4712 38.9397L46.1752 39.3697L46.7591 39.2563Z" fill="#263238"/>
<path d="M47.5669 38.882C47.6018 39.0615 47.497 39.2257 47.238 39.276C47.0972 39.308 46.9495 39.2853 46.8248 39.2125L46.8599 39.1137C46.9669 39.1795 47.0954 39.2011 47.2181 39.1738C47.3976 39.1389 47.4794 39.0381 47.4534 38.9041C47.4273 38.7701 47.321 38.7082 47.121 38.7471L47.0438 38.7621L47.0279 38.6803L47.2531 38.2498L46.7033 38.3567L46.6848 38.2613L47.3663 38.1288L47.3818 38.2083L47.1525 38.6419C47.3941 38.6115 47.5334 38.7094 47.5669 38.882Z" fill="#263238"/>
<path d="M48.6403 38.6997L48.4244 38.7416L48.4796 39.0256L48.3706 39.0468L48.3154 38.7628L47.7088 38.8807L47.6933 38.8012L48.1249 37.977L48.2476 37.9531L47.8312 38.7461L48.2969 38.6556L48.2483 38.4057L48.3551 38.3849L48.4037 38.6348L48.6195 38.5929L48.6403 38.6997Z" fill="#263238"/>
<path d="M49.8681 38.4257C49.9038 38.6097 49.8044 38.7776 49.5409 38.8288C49.4001 38.8605 49.2525 38.8378 49.1277 38.7653L49.165 38.6661C49.217 38.6993 49.275 38.7218 49.3357 38.7322C49.3965 38.7427 49.4587 38.7409 49.5187 38.727C49.7028 38.6912 49.781 38.5841 49.754 38.4455C49.7271 38.3069 49.6236 38.2351 49.3509 38.2881L49.1237 38.3322L49.0754 37.7805L49.6639 37.6661L49.6833 37.7661L49.1903 37.8619L49.2202 38.2097L49.3588 38.1828C49.6836 38.1315 49.8314 38.2371 49.8681 38.4257Z" fill="#263238"/>
<path d="M50.8137 38.2375C50.8223 38.2842 50.8211 38.3321 50.8103 38.3783C50.7994 38.4245 50.779 38.468 50.7505 38.5059C50.722 38.5438 50.6858 38.5753 50.6445 38.5986C50.6031 38.6218 50.5573 38.6362 50.5101 38.6408C50.2238 38.6964 50.0305 38.5265 49.9647 38.188C49.8989 37.8495 50.0564 37.5925 50.3473 37.536C50.4359 37.5152 50.5285 37.5184 50.6155 37.5452L50.5872 37.6426C50.5167 37.6186 50.4408 37.6153 50.3685 37.6332C50.1413 37.6774 50.0155 37.8551 50.0725 38.1482C50.0773 38.1731 50.0831 38.2027 50.0893 38.2345C50.1091 38.1693 50.1474 38.1112 50.1995 38.0672C50.2516 38.0232 50.3153 37.9951 50.3829 37.9864C50.4277 37.9717 50.4751 37.9667 50.5219 37.9717C50.5688 37.9766 50.614 37.9914 50.6547 38.0152C50.6955 38.0389 50.7307 38.071 50.7581 38.1093C50.7854 38.1476 50.8044 38.1913 50.8137 38.2375ZM50.7046 38.2587C50.6768 38.1156 50.556 38.0518 50.3901 38.0841C50.3561 38.0864 50.3228 38.0957 50.2925 38.1113C50.2621 38.1269 50.2352 38.1484 50.2134 38.1747C50.1916 38.201 50.1754 38.2314 50.1657 38.2642C50.1561 38.2969 50.1531 38.3312 50.1571 38.3651C50.18 38.4833 50.2989 38.5733 50.4852 38.5371C50.5186 38.5361 50.5513 38.5278 50.5812 38.513C50.6111 38.4981 50.6374 38.4769 50.6583 38.4509C50.6793 38.4248 50.6943 38.3946 50.7025 38.3622C50.7106 38.3299 50.7116 38.2961 50.7055 38.2633L50.7046 38.2587Z" fill="#263238"/>
<path d="M51.541 37.318L51.5564 37.3975L51.2958 38.4832L51.1754 38.5066L51.4286 37.4435L50.8765 37.5508L50.9154 37.7507L50.8063 37.7719L50.748 37.472L51.541 37.318Z" fill="#263238"/>
<path d="M52.6339 37.9073C52.671 38.0981 52.5326 38.2476 52.2759 38.2975C52.0192 38.3474 51.8395 38.2597 51.8024 38.0689C51.7898 38.0078 51.7983 37.9444 51.8265 37.8888C51.8546 37.8332 51.9008 37.7888 51.9575 37.7629C51.9053 37.7592 51.8559 37.738 51.8174 37.7026C51.7789 37.6673 51.7534 37.62 51.7452 37.5684C51.7112 37.3934 51.8377 37.2557 52.0649 37.2115C52.2921 37.1674 52.4655 37.2468 52.4995 37.4218C52.5086 37.4733 52.5011 37.5263 52.478 37.5732C52.4549 37.6201 52.4174 37.6584 52.371 37.6825C52.4338 37.6847 52.4939 37.7081 52.5417 37.749C52.5895 37.7898 52.622 37.8456 52.6339 37.9073ZM52.5203 37.9293C52.4947 37.7976 52.3648 37.7356 52.1739 37.7727C51.9831 37.8098 51.8881 37.9155 51.9137 38.0472C51.9393 38.179 52.0692 38.2528 52.26 38.2157C52.4509 38.1786 52.5468 38.0657 52.5199 37.9271L52.5203 37.9293ZM52.1544 37.6845C52.3226 37.6518 52.408 37.5574 52.385 37.4393C52.362 37.3212 52.2407 37.2669 52.0794 37.2983C51.9181 37.3296 51.8277 37.4226 51.8511 37.5431C51.8745 37.6635 51.9886 37.7167 52.1544 37.6845Z" fill="#263238"/>
<path d="M53.917 37.4006C53.9881 37.7664 53.8252 37.9961 53.5322 38.0531C53.4442 38.0734 53.3525 38.0701 53.2662 38.0434L53.2944 37.946C53.365 37.97 53.4409 37.9733 53.5132 37.9554C53.7404 37.9112 53.8634 37.7317 53.8069 37.4409C53.8034 37.4117 53.7978 37.3829 53.7902 37.3545C53.7712 37.4198 53.7334 37.4781 53.6816 37.5221C53.6298 37.5661 53.5662 37.5939 53.4988 37.6022C53.4542 37.6161 53.4072 37.6205 53.3609 37.6152C53.3145 37.6098 53.2698 37.5947 53.2296 37.571C53.1894 37.5472 53.1547 37.5153 53.1276 37.4773C53.1006 37.4392 53.0818 37.3959 53.0726 37.3502C53.0639 37.3035 53.0651 37.2556 53.076 37.2094C53.0868 37.1632 53.1072 37.1198 53.1357 37.0818C53.1643 37.0439 53.2004 37.0124 53.2418 36.9891C53.2832 36.9659 53.3289 36.9516 53.3762 36.947C53.6511 36.8935 53.8512 37.0621 53.917 37.4006ZM53.7233 37.2166C53.7003 37.0985 53.5814 37.0084 53.3951 37.0446C53.3614 37.0457 53.3283 37.0541 53.2981 37.0693C53.2679 37.0846 53.2415 37.1062 53.2206 37.1327C53.1997 37.1593 53.1848 37.19 53.1771 37.2229C53.1693 37.2558 53.1689 37.29 53.1757 37.3231C53.2036 37.4662 53.3244 37.5299 53.4903 37.4977C53.5568 37.49 53.6177 37.4564 53.6596 37.4041C53.7015 37.3518 53.7211 37.2851 53.7142 37.2184L53.7233 37.2166Z" fill="#263238"/>
<path d="M54.2691 36.7877L54.4784 37.8646L54.367 37.8862L54.1772 36.9093L53.9227 36.9587L53.9033 36.8588L54.2691 36.7877Z" fill="#263238"/>
<path d="M54.6269 37.272C54.5602 36.929 54.7023 36.6892 54.9499 36.641C55.1975 36.5929 55.419 36.7621 55.4857 37.1051C55.5524 37.4482 55.4126 37.6875 55.1627 37.7361C54.9128 37.7847 54.6936 37.6151 54.6269 37.272ZM55.3721 37.1272C55.3165 36.8409 55.1566 36.6975 54.968 36.7342C54.7794 36.7708 54.6831 36.9546 54.7405 37.2499C54.7979 37.5453 54.9583 37.6792 55.1446 37.643C55.3309 37.6068 55.4277 37.4135 55.3721 37.1272Z" fill="#263238"/>
<path d="M55.8375 36.4835L56.0467 37.5604L55.9354 37.582L55.7456 36.6051L55.4911 36.6545L55.4717 36.5546L55.8375 36.4835Z" fill="#263238"/>
<path d="M56.7935 36.2972L57.0028 37.3741L56.8915 37.3957L56.7016 36.4188L56.4472 36.4683L56.4277 36.3683L56.7935 36.2972Z" fill="#263238"/>
<path d="M57.3459 36.1897L57.5552 37.2666L57.4462 37.2878L57.2563 36.3109L57.0018 36.3603L56.9824 36.2604L57.3459 36.1897Z" fill="#263238"/>
<path d="M58.5247 36.9698L58.5441 37.0698L57.7899 37.2163L57.7744 37.1368L58.1436 36.61C58.241 36.4685 58.2519 36.3909 58.2378 36.3182C58.2135 36.1933 58.1099 36.1333 57.9463 36.165C57.8908 36.1722 57.8377 36.1918 57.791 36.2226C57.7442 36.2533 57.7051 36.2943 57.6766 36.3424L57.5838 36.2897C57.6224 36.2284 57.6738 36.1762 57.7345 36.1367C57.7953 36.0972 57.8638 36.0714 57.9355 36.061C58.1627 36.0169 58.3138 36.1031 58.3487 36.2825C58.3579 36.3487 58.3527 36.4161 58.3334 36.4801C58.3141 36.5441 58.2811 36.6032 58.2368 36.6532L57.9317 37.085L58.5247 36.9698Z" fill="#263238"/>
<path d="M58.772 35.9126L58.9813 36.9895L58.8609 37.0129L58.671 36.0359L58.4188 36.085L58.3994 35.985L58.772 35.9126Z" fill="#263238"/>
<path d="M40.6081 39.1833L40.5763 39.0198C40.5615 38.9438 40.5172 38.8769 40.4531 38.8336C40.389 38.7904 40.3103 38.7744 40.2344 38.7891L37.3331 39.3529C37.2572 39.3677 37.1903 39.412 37.147 39.4761C37.1038 39.5402 37.0878 39.6189 37.1025 39.6948L37.1343 39.8584L40.6081 39.1833Z" fill="#263238"/>
<path d="M37.1768 40.0831L37.4108 41.2873C37.4255 41.3632 37.4698 41.4301 37.5339 41.4734C37.5981 41.5166 37.6767 41.5326 37.7526 41.5179L40.6539 40.9541C40.7298 40.9393 40.7968 40.895 40.84 40.8309C40.8833 40.7668 40.8993 40.6881 40.8845 40.6122L40.6505 39.4081L37.1768 40.0831Z" fill="#263238"/>
<path d="M40.3415 46.2961C40.3786 46.487 40.2402 46.6364 39.9835 46.6863C39.7268 46.7362 39.5471 46.6485 39.51 46.4577C39.4971 46.3969 39.5056 46.3336 39.5339 46.2783C39.5622 46.223 39.6087 46.1791 39.6655 46.154C39.6143 46.1477 39.5662 46.1256 39.5282 46.0907C39.4901 46.0559 39.4639 46.01 39.4532 45.9595C39.4192 45.7845 39.5457 45.6468 39.7729 45.6026C40.0001 45.5585 40.1735 45.6379 40.2075 45.8129C40.216 45.864 40.2085 45.9165 40.1859 45.9632C40.1632 46.0098 40.1267 46.0482 40.0813 46.0732C40.1436 46.0751 40.2033 46.0982 40.2507 46.1388C40.298 46.1793 40.3301 46.2348 40.3415 46.2961ZM40.2279 46.3182C40.2023 46.1864 40.0728 46.1267 39.882 46.1638C39.6911 46.2009 39.5957 46.3043 39.6213 46.4361C39.6469 46.5678 39.779 46.6412 39.9676 46.6045C40.1562 46.5679 40.2535 46.45 40.2275 46.3159L40.2279 46.3182ZM39.8734 46.0711C40.0415 46.0385 40.1269 45.9441 40.1044 45.8282C40.0819 45.7123 39.9596 45.6536 39.7983 45.6849C39.637 45.7163 39.5466 45.8093 39.57 45.9297C39.5934 46.0501 39.6984 46.1051 39.8734 46.0711Z" fill="#263238"/>
<path d="M42.5234 44.1746L42.1144 44.2541C42.1274 44.3025 42.1591 44.3437 42.2024 44.3689C42.2457 44.394 42.2972 44.401 42.3456 44.3884C42.3749 44.3839 42.4028 44.373 42.4273 44.3564C42.4518 44.3398 42.4723 44.318 42.4873 44.2925L42.5348 44.3304C42.5152 44.3621 42.489 44.3892 42.4581 44.4098C42.4271 44.4305 42.392 44.4443 42.3553 44.4502C42.3212 44.4588 42.2857 44.4602 42.2511 44.4543C42.2165 44.4484 42.1835 44.4353 42.1542 44.416C42.1249 44.3966 42.1 44.3713 42.081 44.3417C42.0621 44.3121 42.0495 44.2789 42.0441 44.2442C42.0358 44.2116 42.0343 44.1777 42.0397 44.1445C42.0451 44.1113 42.0573 44.0796 42.0754 44.0513C42.0936 44.023 42.1174 43.9988 42.1453 43.9801C42.1732 43.9613 42.2047 43.9486 42.2378 43.9425C42.2708 43.9334 42.3055 43.9317 42.3393 43.9376C42.3731 43.9435 42.4052 43.9569 42.4332 43.9767C42.4612 43.9966 42.4844 44.0224 42.5012 44.0523C42.518 44.0822 42.528 44.1155 42.5303 44.1497L42.5234 44.1746ZM42.0929 44.2041L42.4496 44.1348C42.4361 44.0919 42.4073 44.0555 42.3687 44.0325C42.3301 44.0095 42.2844 44.0015 42.2403 44.0101C42.1962 44.0187 42.1568 44.0432 42.1296 44.079C42.1024 44.1147 42.0893 44.1593 42.0929 44.2041Z" fill="#263238"/>
<path d="M51.0373 43.4136L51.2462 44.4882L51.1371 44.5094L50.9473 43.5325L50.6928 43.5819L50.6738 43.4843L51.0373 43.4136Z" fill="#263238"/>
<path d="M52.2177 44.1958L52.2371 44.2957L51.4828 44.4423L51.4674 44.3628L51.837 43.8383C51.934 43.6945 51.9449 43.6169 51.9307 43.5442C51.9064 43.4193 51.8028 43.3592 51.6392 43.391C51.5838 43.3981 51.5306 43.4178 51.4839 43.4486C51.4372 43.4793 51.3981 43.5203 51.3696 43.5684L51.2768 43.5157C51.3154 43.4545 51.3669 43.4026 51.4278 43.3635C51.4886 43.3243 51.5572 43.299 51.6289 43.2893C51.8561 43.2451 52.0068 43.329 52.0417 43.5085C52.0509 43.5747 52.0457 43.6421 52.0264 43.7061C52.007 43.7701 51.9741 43.8291 51.9298 43.8792L51.6338 44.3092L52.2177 44.1958Z" fill="#263238"/>
<path d="M53.0274 43.8216C53.0622 44.001 52.9574 44.1652 52.6984 44.2156C52.5576 44.2475 52.4099 44.2248 52.2852 44.152L52.3225 44.0528C52.3748 44.0863 52.4332 44.1088 52.4944 44.1192C52.5555 44.1296 52.6182 44.1276 52.6785 44.1133C52.858 44.0784 52.9398 43.9777 52.9138 43.8436C52.8877 43.7096 52.7814 43.6477 52.5814 43.6866L52.5042 43.7016L52.4883 43.6198L52.7135 43.1894L52.1637 43.2962L52.1447 43.1985L52.8263 43.0661L52.8413 43.1433L52.6111 43.5842C52.8545 43.551 52.9938 43.6489 53.0274 43.8216Z" fill="#263238"/>
<path d="M50.5224 42.5116C50.5128 42.466 50.5127 42.419 50.5219 42.3733C50.5312 42.3277 50.5497 42.2844 50.5762 42.2462C50.6028 42.2079 50.6368 42.1755 50.6764 42.1508C50.7159 42.1262 50.76 42.1098 50.806 42.1028C50.8508 42.0926 50.8973 42.0918 50.9424 42.1004C50.9875 42.1091 51.0303 42.1271 51.0681 42.1533L51.0338 42.2071C51.0029 42.1862 50.9681 42.1717 50.9314 42.1647C50.8948 42.1576 50.8571 42.158 50.8207 42.166C50.7816 42.17 50.7438 42.182 50.7097 42.2014C50.6756 42.2208 50.6459 42.2471 50.6225 42.2786C50.5991 42.3101 50.5826 42.3461 50.5739 42.3843C50.5652 42.4226 50.5646 42.4622 50.5721 42.5008C50.5795 42.5393 50.595 42.5758 50.6174 42.608C50.6397 42.6402 50.6686 42.6674 50.7021 42.6879C50.7356 42.7083 50.7729 42.7216 50.8118 42.7268C50.8507 42.732 50.8903 42.729 50.9279 42.7181C50.9649 42.7123 51.0002 42.6988 51.0316 42.6785C51.063 42.6582 51.0898 42.6315 51.1101 42.6001L51.1621 42.6372C51.137 42.6762 51.1038 42.7094 51.0648 42.7345C51.0257 42.7596 50.9817 42.776 50.9358 42.7826C50.8907 42.7932 50.844 42.7946 50.7985 42.7866C50.7529 42.7786 50.7094 42.7614 50.6707 42.7361C50.632 42.7107 50.5989 42.6777 50.5734 42.6391C50.5479 42.6005 50.5305 42.5571 50.5224 42.5116Z" fill="#263238"/>
<path d="M52.1113 41.8568L52.0139 42.5689L51.9389 42.5835L51.6327 42.0512L51.5482 42.6594L51.4732 42.674L51.1162 42.0502L51.1889 42.036L51.4937 42.5733L51.582 41.9597L51.6478 41.9469L51.9554 42.486L52.0386 41.8709L52.1113 41.8568Z" fill="#263238"/>
<path d="M46.4094 51.4194L45.8096 51.5359L45.7362 51.8496L45.618 51.8726L45.8999 50.7026L46.0135 50.6805L46.7131 51.6598L46.5927 51.6832L46.4094 51.4194ZM46.3485 51.3369L45.9819 50.8093L45.8351 51.4367L46.3485 51.3369Z" fill="#263238"/>
<path d="M46.6994 51.2425C46.6868 51.1879 46.6856 51.1314 46.696 51.0764C46.7063 51.0214 46.7279 50.9691 46.7595 50.9229C46.7911 50.8766 46.8319 50.8374 46.8793 50.8078C46.9268 50.7781 46.9799 50.7586 47.0353 50.7505C47.0968 50.7347 47.1614 50.7356 47.2224 50.7532C47.2835 50.7708 47.3387 50.8043 47.3824 50.8504L47.3135 50.9204C47.2809 50.8885 47.2411 50.865 47.1975 50.8517C47.1539 50.8384 47.1077 50.8358 47.0629 50.8441C46.9791 50.8604 46.9053 50.9093 46.8576 50.98C46.8099 51.0507 46.7922 51.1375 46.8085 51.2213C46.8247 51.305 46.8736 51.3789 46.9444 51.4266C47.0151 51.4743 47.1019 51.492 47.1856 51.4757C47.2301 51.4667 47.2718 51.4473 47.3073 51.4191C47.3428 51.3909 47.3711 51.3547 47.3899 51.3134L47.48 51.3525C47.456 51.4109 47.417 51.4621 47.367 51.5008C47.317 51.5394 47.2577 51.5643 47.1951 51.5729C47.1407 51.5861 47.0842 51.5879 47.029 51.5782C46.9739 51.5684 46.9214 51.5474 46.8748 51.5163C46.8283 51.4853 46.7886 51.4449 46.7584 51.3978C46.7282 51.3506 46.7081 51.2978 46.6994 51.2425Z" fill="#263238"/>
<path d="M48.1484 51.3289C48.1081 51.3774 48.0514 51.4094 47.989 51.4188C47.9591 51.4267 47.9278 51.4281 47.8972 51.4229C47.8667 51.4178 47.8376 51.4061 47.8119 51.3888C47.7862 51.3715 47.7645 51.3488 47.7482 51.3224C47.732 51.2961 47.7216 51.2665 47.7177 51.2357L47.6214 50.7405L47.4783 50.7683L47.4602 50.6751L47.6011 50.6478L47.5666 50.4706L47.6757 50.4494L47.7101 50.6266L47.9578 50.5784L47.9759 50.6716L47.7282 50.7197L47.8218 51.2014C47.8228 51.2214 47.8282 51.2409 47.8378 51.2585C47.8474 51.2761 47.8609 51.2913 47.8773 51.3029C47.8936 51.3145 47.9124 51.3222 47.9322 51.3254C47.9519 51.3287 47.9722 51.3274 47.9914 51.3217C48.0352 51.3139 48.0749 51.2912 48.1039 51.2574L48.1484 51.3289Z" fill="#263238"/>
<path d="M48.1258 50.2815C48.1217 50.2605 48.1262 50.2386 48.1382 50.2208C48.1502 50.203 48.1688 50.1907 48.1899 50.1866C48.211 50.1825 48.2328 50.1869 48.2506 50.1989C48.2684 50.211 48.2807 50.2296 48.2848 50.2506C48.2889 50.2717 48.2845 50.2936 48.2725 50.3114C48.2605 50.3292 48.2419 50.3415 48.2208 50.3456C48.1997 50.3497 48.1778 50.3453 48.16 50.3332C48.1422 50.3212 48.1299 50.3026 48.1258 50.2815ZM48.2002 50.5311L48.3093 50.51L48.4665 51.3188L48.3574 51.3399L48.2002 50.5311Z" fill="#263238"/>
<path d="M48.6074 50.8718C48.5916 50.7905 48.6003 50.7064 48.6322 50.6301C48.6642 50.5538 48.718 50.4886 48.787 50.4428C48.8559 50.3971 48.9369 50.3727 49.0196 50.3729C49.1024 50.3731 49.1832 50.3978 49.252 50.4439C49.3207 50.49 49.3742 50.5554 49.4058 50.6319C49.4374 50.7084 49.4457 50.7925 49.4295 50.8737C49.4133 50.9548 49.3735 51.0294 49.315 51.0879C49.2565 51.1465 49.182 51.1864 49.1008 51.2026C49.0466 51.2151 48.9903 51.2164 48.9356 51.2063C48.8808 51.1962 48.8287 51.175 48.7825 51.144C48.7363 51.113 48.6969 51.0728 48.6668 51.026C48.6366 50.9792 48.6165 50.9267 48.6074 50.8718ZM49.3185 50.7336C49.304 50.6755 49.2728 50.623 49.2287 50.5826C49.1847 50.5422 49.1297 50.5155 49.0707 50.506C49.0116 50.4965 48.9511 50.5046 48.8965 50.5292C48.842 50.5538 48.7959 50.5938 48.7639 50.6444C48.732 50.695 48.7156 50.7538 48.7167 50.8136C48.7179 50.8734 48.7366 50.9315 48.7705 50.9808C48.8043 51.0301 48.852 51.0683 48.9074 51.0908C48.9628 51.1133 49.0236 51.119 49.0823 51.1072C49.1231 51.0997 49.162 51.0838 49.1964 51.0606C49.2308 51.0373 49.26 51.0072 49.2822 50.9721C49.3044 50.937 49.3191 50.8977 49.3253 50.8566C49.3316 50.8156 49.3293 50.7737 49.3185 50.7336Z" fill="#263238"/>
<path d="M50.3914 50.4589L50.4824 50.9269L50.3733 50.9481L50.285 50.4937C50.283 50.4592 50.2733 50.4256 50.2566 50.3954C50.2399 50.3651 50.2167 50.339 50.1886 50.3189C50.1605 50.2988 50.1283 50.2853 50.0942 50.2793C50.0602 50.2733 50.0253 50.2749 49.992 50.2842C49.9529 50.2888 49.9154 50.3019 49.8819 50.3227C49.8485 50.3434 49.82 50.3713 49.7985 50.4042C49.777 50.4372 49.763 50.4745 49.7576 50.5135C49.7521 50.5524 49.7553 50.5921 49.7668 50.6297L49.8494 51.0546L49.7403 51.0758L49.5832 50.267L49.6877 50.2467L49.7181 50.4034C49.741 50.3462 49.7786 50.2961 49.8271 50.2581C49.8756 50.2201 49.9333 50.1956 49.9944 50.1871C50.0385 50.1753 50.0847 50.1732 50.1297 50.1809C50.1748 50.1886 50.2176 50.2059 50.2553 50.2317C50.293 50.2576 50.3247 50.2912 50.3482 50.3304C50.3717 50.3696 50.3864 50.4134 50.3914 50.4589Z" fill="#263238"/>
<path d="M51.1213 49.7894L51.2034 50.212L51.7578 50.1043L51.7768 50.202L51.2224 50.3097L51.3107 50.7641L51.1971 50.7862L50.9883 49.7115L51.7244 49.5685L51.7434 49.6662L51.1213 49.7894Z" fill="#263238"/>
<path d="M51.8992 49.5484C51.8951 49.5273 51.8996 49.5054 51.9116 49.4876C51.9236 49.4698 51.9422 49.4575 51.9633 49.4534C51.9844 49.4493 52.0062 49.4538 52.0241 49.4658C52.0419 49.4778 52.0542 49.4964 52.0583 49.5175C52.0624 49.5386 52.0579 49.5604 52.0459 49.5782C52.0339 49.596 52.0153 49.6084 51.9942 49.6124C51.9731 49.6165 51.9513 49.6121 51.9335 49.6001C51.9156 49.5881 51.9033 49.5695 51.8992 49.5484ZM51.9714 49.7984L52.0805 49.7772L52.2376 50.586L52.1286 50.6072L51.9714 49.7984Z" fill="#263238"/>
<path d="M53.1331 49.5729L53.2713 50.284C53.2904 50.3371 53.2968 50.394 53.2898 50.45C53.2829 50.5061 53.2628 50.5596 53.2312 50.6064C53.1997 50.6532 53.1575 50.6919 53.1081 50.7194C53.0588 50.7468 53.0037 50.7622 52.9473 50.7643C52.812 50.7968 52.6696 50.7792 52.5463 50.7149L52.5845 50.6203C52.6882 50.6767 52.8087 50.6943 52.9242 50.6698C53.1287 50.63 53.2033 50.5165 53.1649 50.3189L53.1437 50.2098C53.1192 50.2674 53.0803 50.3177 53.0307 50.3558C52.9811 50.394 52.9225 50.4187 52.8606 50.4275C52.8074 50.4421 52.7518 50.4456 52.6972 50.4377C52.6427 50.4298 52.5903 50.4107 52.5434 50.3816C52.4966 50.3525 52.4562 50.3141 52.4249 50.2687C52.3936 50.2233 52.3721 50.1719 52.3615 50.1178C52.351 50.0636 52.3518 50.0079 52.3638 49.9541C52.3758 49.9003 52.3988 49.8495 52.4314 49.805C52.4639 49.7605 52.5053 49.7232 52.553 49.6954C52.6006 49.6677 52.6535 49.6501 52.7083 49.6437C52.7702 49.6291 52.8348 49.6305 52.8959 49.648C52.9571 49.6654 53.0128 49.6982 53.0577 49.7432L53.0277 49.5887L53.1331 49.5729ZM53.1032 49.9772C53.0931 49.9158 53.065 49.8588 53.0224 49.8136C52.9798 49.7683 52.9246 49.7367 52.864 49.723C52.8033 49.7092 52.7399 49.7139 52.682 49.7363C52.624 49.7588 52.574 49.7981 52.5385 49.8491C52.5029 49.9001 52.4834 49.9606 52.4824 50.0227C52.4814 50.0849 52.499 50.146 52.533 50.1981C52.5669 50.2502 52.6156 50.291 52.6728 50.3153C52.7301 50.3396 52.7933 50.3463 52.8543 50.3344C52.8946 50.3292 52.9333 50.3157 52.9681 50.2948C53.0029 50.2738 53.033 50.2459 53.0564 50.2128C53.0799 50.1797 53.0963 50.142 53.1044 50.1023C53.1126 50.0625 53.1125 50.0214 53.1041 49.9817L53.1032 49.9772Z" fill="#263238"/>
<path d="M54.1667 49.372L54.3239 50.1808L54.2194 50.2011L54.1907 50.0534C54.1702 50.1088 54.1351 50.1576 54.0893 50.1947C54.0434 50.2318 53.9883 50.2559 53.9299 50.2644C53.8843 50.2778 53.8363 50.2808 53.7894 50.2733C53.7425 50.2658 53.6979 50.2479 53.6588 50.2209C53.6196 50.194 53.587 50.1586 53.5633 50.1175C53.5396 50.0763 53.5253 50.0304 53.5216 49.983L53.4306 49.515L53.5397 49.4938L53.628 49.9482C53.6297 49.9829 53.6391 50.0168 53.6557 50.0474C53.6723 50.078 53.6955 50.1044 53.7237 50.1247C53.7519 50.1451 53.7843 50.1588 53.8185 50.1649C53.8528 50.171 53.8879 50.1693 53.9214 50.16C53.96 50.1544 53.9968 50.1406 54.0295 50.1194C54.0622 50.0982 54.0898 50.0701 54.1106 50.0372C54.1313 50.0042 54.1446 49.9671 54.1496 49.9285C54.1546 49.8899 54.1511 49.8506 54.1394 49.8135L54.0568 49.3886L54.1667 49.372Z" fill="#263238"/>
<path d="M54.8701 49.2283L54.8909 49.335L54.8636 49.3403C54.8246 49.3461 54.7874 49.3604 54.7546 49.3823C54.7218 49.4041 54.6941 49.4328 54.6737 49.4665C54.6532 49.5002 54.6404 49.538 54.6362 49.5771C54.632 49.6163 54.6364 49.6559 54.6492 49.6932L54.7292 50.1044L54.6201 50.1256L54.4629 49.3168L54.5674 49.2965L54.5984 49.4555C54.6159 49.3949 54.6511 49.3409 54.6995 49.3004C54.7479 49.2599 54.8073 49.2348 54.8701 49.2283Z" fill="#263238"/>
<path d="M55.865 49.4968L55.1834 49.6293C55.1934 49.6682 55.211 49.7048 55.2351 49.737C55.2593 49.7691 55.2896 49.7962 55.3242 49.8166C55.3588 49.8371 55.3972 49.8505 55.437 49.8561C55.4768 49.8616 55.5173 49.8593 55.5563 49.8492C55.6031 49.8414 55.6476 49.8235 55.6868 49.7968C55.726 49.77 55.7589 49.735 55.7832 49.6943L55.8582 49.7528C55.812 49.8249 55.7456 49.8818 55.6672 49.9164C55.5889 49.9509 55.5021 49.9616 55.4177 49.9471C55.3333 49.9325 55.2551 49.8933 55.1928 49.8345C55.1306 49.7757 55.0871 49.6998 55.0678 49.6164C55.0546 49.5635 55.0524 49.5085 55.0613 49.4548C55.0703 49.4011 55.0901 49.3498 55.1197 49.304C55.1493 49.2583 55.1879 49.2191 55.2332 49.1889C55.2785 49.1586 55.3296 49.138 55.3832 49.1284C55.4363 49.1169 55.4913 49.1167 55.5446 49.1276C55.5978 49.1386 55.6482 49.1606 55.6925 49.1921C55.7368 49.2237 55.774 49.2641 55.8018 49.3109C55.8296 49.3576 55.8473 49.4096 55.8539 49.4636C55.8539 49.4636 55.8624 49.4832 55.865 49.4968ZM55.1676 49.5475L55.7401 49.4362C55.7253 49.3603 55.681 49.2934 55.6169 49.2501C55.5528 49.2069 55.4741 49.1908 55.3982 49.2056C55.3223 49.2204 55.2553 49.2647 55.2121 49.3288C55.1688 49.3929 55.1528 49.4716 55.1676 49.5475Z" fill="#263238"/>
<path d="M47.7842 55.9242L47.876 56.3967L47.4557 56.4784L47.3674 56.024C46.9896 56.0853 46.6022 56.0389 46.2497 55.8899L46.3771 55.3323C46.6527 55.4547 46.9555 55.5031 47.2555 55.4728L47.1187 54.7685C46.6259 54.7441 46.0733 54.6911 45.9559 54.0868C45.8676 53.6324 46.1192 53.1921 46.7721 52.9851L46.6811 52.517L47.1015 52.4354L47.1898 52.8898C47.4951 52.8482 47.8059 52.8799 48.0966 52.9823L47.986 53.5414C47.7652 53.4623 47.5309 53.4277 47.2966 53.4396L47.4361 54.1575C47.9253 54.1756 48.4715 54.2321 48.5872 54.8274C48.6787 55.2741 48.4321 55.7157 47.7842 55.9242ZM47.0018 54.1429L46.8861 53.5476C46.6687 53.6418 46.6062 53.7812 46.6331 53.9198C46.66 54.0584 46.804 54.12 47.0018 54.1429ZM47.9239 55.0176C47.8952 54.8699 47.7571 54.8142 47.563 54.7859L47.676 55.3675C47.8784 55.281 47.9504 55.1539 47.9239 55.0176Z" fill="#263238"/>
<path d="M51.1402 54.6588L51.2488 55.2177L49.0177 55.6512L48.9316 55.2082L49.8583 53.9106C50.0733 53.6094 50.0896 53.4507 50.0613 53.3053C50.0172 53.0781 49.829 52.9708 49.5177 53.0313C49.3985 53.0497 49.2857 53.0971 49.1892 53.1693C49.0926 53.2415 49.0153 53.3363 48.9639 53.4454L48.4041 53.2218C48.5033 53.014 48.6527 52.8341 48.8387 52.6984C49.0246 52.5626 49.2415 52.4753 49.4696 52.4441C50.1285 52.3161 50.6327 52.5694 50.7369 53.1056C50.7926 53.3918 50.7615 53.669 50.4227 54.1333L49.8656 54.9065L51.1402 54.6588Z" fill="#263238"/>
<path d="M51.2376 53.6876C51.0482 52.7129 51.4812 52.0535 52.2059 51.9126C52.9306 51.7718 53.5791 52.2211 53.7685 53.1957C53.9579 54.1704 53.529 54.8267 52.7997 54.9684C52.0704 55.1101 51.427 54.6622 51.2376 53.6876ZM53.0824 53.3291C52.9499 52.6475 52.6706 52.4236 52.3185 52.492C51.9663 52.5604 51.7998 52.8804 51.9305 53.5529C52.0612 54.2254 52.3418 54.4562 52.6871 54.3891C53.0325 54.3219 53.2035 54.0011 53.0733 53.3308L53.0824 53.3291Z" fill="#263238"/>
<path d="M54.1018 53.1309C53.9124 52.1563 54.3454 51.4968 55.0702 51.356C55.7949 51.2152 56.4433 51.6644 56.6328 52.6391C56.8222 53.6138 56.3933 54.27 55.664 54.4117C54.9347 54.5535 54.2912 54.1056 54.1018 53.1309ZM55.9444 52.7729C55.8119 52.0913 55.5326 51.8674 55.1827 51.9353C54.8329 52.0033 54.6618 52.3242 54.7925 52.9967C54.9232 53.6692 55.2038 53.9 55.5514 53.8324C55.899 53.7649 56.0746 53.4431 55.9444 52.7729Z" fill="#263238"/>
<path d="M49.6026 60.8007C49.6565 61.0779 49.4888 61.2826 49.1594 61.3466L48.8095 61.4146L48.889 61.8236L48.7526 61.8501L48.501 60.5551L48.9872 60.4606C49.3184 60.4056 49.5505 60.5326 49.6026 60.8007ZM49.464 60.8277C49.4239 60.6209 49.2646 60.5293 49.0056 60.5796L48.6603 60.6467L48.7861 61.2942L49.1314 61.2271C49.3922 61.1859 49.5055 61.0412 49.464 60.8277Z" fill="#FFC6B9"/>
<path d="M50.6455 60.8642L50.7629 61.4685L50.638 61.4928L50.6084 61.3406C50.5823 61.4021 50.5404 61.4555 50.4868 61.4954C50.4332 61.5352 50.3699 61.56 50.3035 61.5672C50.0763 61.6114 49.927 61.5225 49.8939 61.3521C49.8607 61.1817 49.9359 61.0587 50.2153 61.0044L50.5243 60.9443L50.5128 60.8852C50.4806 60.7194 50.3698 60.6466 50.188 60.6819C50.0693 60.7031 49.962 60.7658 49.8852 60.8587L49.8072 60.7724C49.9029 60.6614 50.0345 60.5875 50.1791 60.5634C50.2296 60.5458 50.2835 60.5399 50.3367 60.5462C50.3898 60.5526 50.4408 60.5709 50.4857 60.5999C50.5307 60.6289 50.5685 60.6678 50.5962 60.7136C50.6238 60.7594 50.6407 60.8109 50.6455 60.8642ZM50.5742 61.201L50.5433 61.042L50.2388 61.1012C50.0503 61.1378 50.0035 61.2247 50.0229 61.3247C50.0423 61.4246 50.1496 61.491 50.3041 61.461C50.371 61.4524 50.4334 61.4224 50.482 61.3756C50.5307 61.3288 50.563 61.2676 50.5742 61.201Z" fill="#FFC6B9"/>
<path d="M51.7279 60.2693L51.4537 61.4543C51.409 61.661 51.3187 61.7422 51.1801 61.7691C51.0937 61.7858 51.0042 61.7685 50.9302 61.721L50.9726 61.6114C51.0001 61.6309 51.0313 61.6445 51.0643 61.6515C51.0973 61.6584 51.1313 61.6586 51.1644 61.6519C51.253 61.6347 51.3041 61.5823 51.3348 61.4491L51.3594 61.3453L50.7342 60.4576L50.8728 60.4307L51.3998 61.1889L51.5962 60.2949L51.7279 60.2693Z" fill="#FFC6B9"/>
<path d="M53.0301 61.0369L53.0716 61.2505L52.9785 61.2686L52.9374 61.0573C52.7742 61.0877 52.6054 61.0586 52.4617 60.9753L52.4955 60.8579C52.6215 60.9328 52.7696 60.9615 52.9145 60.9392L52.82 60.453C52.6058 60.4427 52.3867 60.4193 52.339 60.1739C52.3046 59.9967 52.4018 59.8175 52.6818 59.7418L52.6403 59.5283L52.7334 59.5102L52.7727 59.7124C52.9063 59.6888 53.0437 59.7029 53.1697 59.7531L53.1454 59.871C53.034 59.8282 52.9137 59.8135 52.7953 59.8283L52.8906 60.319C53.1093 60.3284 53.3412 60.3446 53.3893 60.5922C53.426 60.7808 53.3201 60.9641 53.0301 61.0369ZM52.7948 60.3235L52.7065 59.8691C52.5188 59.9221 52.4514 60.0365 52.4735 60.1501C52.4956 60.2637 52.6347 60.3121 52.7948 60.3235ZM53.2565 60.6369C53.2278 60.4892 53.0841 60.4653 52.9193 60.4667L53.0076 60.9211C53.2067 60.8659 53.2795 60.7551 53.2565 60.6369Z" fill="#FFC6B9"/>
<path d="M54.5049 60.6189L54.5279 60.737L53.6191 60.9136L53.601 60.8205L54.0366 60.1865C54.1542 60.0151 54.1651 59.9257 54.147 59.8326C54.1178 59.6826 53.9957 59.6121 53.798 59.6505C53.7314 59.66 53.6677 59.6839 53.6113 59.7205C53.5549 59.7571 53.5072 59.8055 53.4714 59.8625L53.3601 59.7992C53.4062 59.7264 53.4675 59.6644 53.5397 59.6174C53.6119 59.5704 53.6935 59.5395 53.7787 59.5269C54.04 59.4761 54.2342 59.5775 54.2761 59.7933C54.2882 59.873 54.2824 59.9544 54.259 60.0316C54.2357 60.1087 54.1954 60.1796 54.1411 60.2392L53.7847 60.7588L54.5049 60.6189Z" fill="#FFC6B9"/>
<path d="M54.5597 60.0586C54.4793 59.6451 54.6475 59.3578 54.9474 59.2996C55.2473 59.2413 55.513 59.4443 55.5934 59.8578C55.6738 60.2712 55.4942 60.5608 55.2034 60.6173C54.9126 60.6738 54.64 60.4721 54.5597 60.0586ZM55.4571 59.8842C55.39 59.5389 55.1984 59.3781 54.9712 59.4222C54.744 59.4664 54.6266 59.6873 54.6937 60.0326C54.7608 60.3779 54.9547 60.5383 55.1796 60.4946C55.4045 60.4509 55.5242 60.2296 55.4571 59.8842Z" fill="#FFC6B9"/>
<path d="M55.7843 59.8204C55.7039 59.4069 55.8834 59.1173 56.1742 59.0608C56.4651 59.0043 56.7399 59.2055 56.8203 59.619C56.9006 60.0325 56.7211 60.322 56.4303 60.3786C56.1395 60.4351 55.8646 60.2338 55.7843 59.8204ZM56.6931 59.6438C56.6259 59.2984 56.4344 59.1376 56.2095 59.1813C55.9845 59.225 55.8649 59.4463 55.932 59.7917C55.9991 60.137 56.1907 60.2978 56.4178 60.2537C56.645 60.2095 56.7488 59.9913 56.6817 59.646L56.6931 59.6438Z" fill="#FFC6B9"/>
<path d="M37.4996 58.4932C38.858 63.6638 37.565 69.9674 37.565 69.9674L23.7412 68.8248L21.3303 68.6237C22.9889 65.0265 22.8624 58.6004 21.2919 53.6855C21.1728 53.315 21.0762 52.9636 20.9895 52.6267C19.9561 48.5224 21.4448 46.974 22.5448 44.8576C23.7492 42.5629 25.8319 34.3776 25.4871 32.6033C25.1423 30.8289 28.7398 25.6218 26.7934 20.8838C26.7934 20.8838 27.9741 19.789 29.4565 20.2106C30.13 20.4004 30.8616 20.9019 31.5781 21.9557C33.2594 24.4323 33.1189 32.3839 32.1014 34.5244L31.5814 46.0557C31.5814 46.0557 32.7794 47.4285 34.2066 50.0653C35.6346 52.7341 36.74 55.5633 37.4996 58.4932Z" fill="#FFC6B9"/>
<path opacity="0.4" d="M20.9876 52.6269C22.1256 54.5159 23.1811 55.7372 23.6666 58.5995C24.1521 61.4617 23.482 66.1424 24.3588 68.3368C24.1251 68.4581 23.917 68.6234 23.7461 68.8236L21.3351 68.6226C22.9938 65.0254 22.8673 58.5992 21.2968 53.6844C21.1708 53.3151 21.0743 52.9637 20.9876 52.6269Z" fill="#CEDBE9"/>
<path opacity="0.4" d="M32.1004 34.5247L31.5804 46.056C31.5804 46.056 32.7785 47.4288 34.2057 50.0656C31.8398 47.5122 30.1399 46.9419 30.1399 46.9419C31.06 45.2707 29.9405 34.5719 29.9405 34.5719C29.9405 34.5719 32.8418 29.4223 31.5912 24.8674C31.1508 23.2046 30.4284 21.6296 29.4556 20.2109C30.129 20.4007 30.8607 20.9022 31.5771 21.956C33.2585 24.4326 33.118 32.3842 32.1004 34.5247Z" fill="#CEDBE9"/>
<path d="M21.33 68.6241C22.9887 65.0269 22.8622 58.6007 21.294 53.6855C19.7258 48.7702 21.3533 47.1477 22.5464 44.8552C23.7395 42.5627 25.8317 34.378 25.4865 32.6013C25.1412 30.8247 28.7377 25.6249 26.7932 20.8841C26.7932 20.8841 29.285 18.5774 31.5778 21.956C33.2596 24.4349 33.1187 32.3843 32.1016 34.527L31.5834 46.0556C31.5834 46.0556 35.3725 50.4002 37.4994 58.4936C38.8578 63.6641 37.5652 69.97 37.5652 69.97" stroke="#263238" stroke-width="0.1875" stroke-linecap="round" stroke-linejoin="round"/>
<path d="M31.7471 75.4479C31.7471 75.4479 35.0868 76.7039 37.3914 79.2692" stroke="#263238" stroke-width="0.1875" stroke-linecap="round" stroke-linejoin="round"/>
<path d="M40.8017 77.2936C40.8017 77.2936 38.3032 78.1588 35.4414 75.8314C33.6076 74.3417 28.9324 74.4156 26.9922 69.964" stroke="#263238" stroke-width="0.1875" stroke-linecap="round" stroke-linejoin="round"/>
<path d="M48.5238 6.17876L48.1345 7.40263C48.0939 7.53512 48.0183 7.65417 47.9156 7.74717C47.8129 7.84018 47.6869 7.90369 47.5511 7.93097L37.5546 9.8736C37.4187 9.89926 37.2784 9.8881 37.1482 9.84126C37.018 9.79441 36.9028 9.7136 36.8144 9.6072L35.9973 8.61777C35.9094 8.51078 35.7942 8.42955 35.6639 8.38266C35.5336 8.33576 35.393 8.32496 35.2571 8.35138L28.2709 9.70901C28.1714 9.72865 28.0768 9.76773 27.9924 9.82401C27.9081 9.8803 27.8357 9.95267 27.7793 10.037C27.723 10.1213 27.6839 10.2159 27.6642 10.3154C27.6445 10.4149 27.6446 10.5173 27.6645 10.6167L39.2761 70.3684C39.3151 70.5687 39.4318 70.7453 39.6007 70.8597C39.7697 70.974 39.9771 71.0167 40.1774 70.9784L67.9995 65.5717C68.0993 65.5529 68.1945 65.5146 68.2795 65.4589C68.3644 65.4032 68.4376 65.3312 68.4946 65.2472C68.5517 65.1631 68.5916 65.0686 68.612 64.9691C68.6324 64.8696 68.6329 64.767 68.6136 64.6672L57.0019 4.91551C56.9629 4.71486 56.8458 4.53792 56.6764 4.42361C56.5069 4.3093 56.299 4.26699 56.0984 4.30598L49.1145 5.66317C48.9788 5.68818 48.8524 5.74925 48.7484 5.83997C48.6445 5.93069 48.5669 6.04772 48.5238 6.17876Z" fill="url(#paint0_linear_3_3960)" stroke="#263238" stroke-width="0.1875" stroke-linecap="round" stroke-linejoin="round"/>
<path d="M56.8147 41.508C57.1679 41.6284 57.5212 41.3236 57.4504 40.9596L54.4248 25.3899C54.374 25.1288 54.1195 24.9587 53.8562 25.0098L38.1376 28.0644C37.7744 28.135 37.6196 28.5665 37.857 28.8473L41.0913 32.6752C41.7441 33.4476 42.7687 33.8064 43.7677 33.6123L48.7376 32.6465C49.0009 32.5953 49.2556 32.7654 49.3064 33.0265L50.2334 37.7968C50.4225 38.77 51.1205 39.5674 52.0645 39.8892L56.8147 41.508Z" fill="#EA6F54"/>
<path d="M50.0735 42.8094C50.2766 42.8786 50.4798 42.7033 50.4392 42.4941L48.6991 33.5398C48.6699 33.3895 48.5235 33.2917 48.372 33.3211L39.3322 35.0779C39.1232 35.1185 39.0343 35.3665 39.1708 35.528L41.0323 37.731C41.4075 38.1752 41.9969 38.3816 42.5713 38.27L45.4326 37.7139C45.5839 37.6845 45.7304 37.7823 45.7596 37.9326L46.2929 40.6765C46.4016 41.2361 46.8029 41.6949 47.3459 41.8798L50.0735 42.8094Z" fill="#03549E"/>
<path d="M43.2451 53.0788C43.179 52.5666 42.8158 52.2857 42.3297 52.3802C41.7953 52.4841 41.4741 52.9765 41.5887 53.5661C41.6909 54.092 42.1048 54.4415 42.7115 54.3236C43.045 54.2588 43.2492 54.0868 43.3338 53.8141L43.2628 53.7493C43.1861 53.8262 43.0693 53.8903 42.9206 53.9192C42.5711 53.9871 42.2794 53.8164 42.1335 53.4519C42.4831 53.384 42.8406 53.3145 43.1774 53.245L43.2451 53.0788ZM42.0677 53.2208C41.9957 52.8503 42.0933 52.5584 42.2982 52.5186C42.5071 52.478 42.6785 52.759 42.7275 53.2042C42.5193 53.2488 42.3112 53.2934 42.0942 53.3356C42.0832 53.3005 42.0755 53.2606 42.0677 53.2208Z" fill="#16394A"/>
<path d="M44.6387 53.9373L44.6123 53.8011L44.5079 53.8007C44.4318 53.7949 44.3911 53.7573 44.374 53.6696C44.2013 52.8019 44.0393 51.9899 43.8629 51.0609L43.7665 51.0797C43.5355 51.1783 43.2957 51.2745 43.0591 51.3659L43.0793 51.4695C43.1418 51.4698 43.2077 51.4652 43.2655 51.4623C43.3537 51.4658 43.3871 51.5089 43.4018 51.5846C43.5384 52.2444 43.6996 53.0524 43.8316 53.775C43.8487 53.8627 43.8251 53.9128 43.7526 53.9475L43.66 53.9862L43.6865 54.1223L44.6387 53.9373Z" fill="#16394A"/>
<path d="M46.3369 52.4781C46.2707 51.9659 45.9076 51.685 45.4215 51.7795C44.8871 51.8834 44.5659 52.3758 44.6805 52.9654C44.7827 53.4913 45.1966 53.8408 45.8033 53.7229C46.1368 53.6581 46.341 53.4861 46.4256 53.2133L46.3546 53.1486C46.2779 53.2255 46.1611 53.2896 46.0124 53.3184C45.6628 53.3864 45.3712 53.2157 45.2253 52.8512C45.5749 52.7833 45.9324 52.7138 46.2692 52.6442L46.3369 52.4781ZM45.1595 52.6201C45.0875 52.2496 45.1851 51.9577 45.39 51.9179C45.5989 51.8773 45.7703 52.1583 45.8193 52.6035C45.6111 52.6481 45.403 52.6927 45.186 52.7349C45.175 52.6998 45.1673 52.6599 45.1595 52.6201Z" fill="#16394A"/>
<path d="M47.6411 51.5049C47.7105 51.5617 47.7973 51.6647 47.8769 51.7526C47.9247 51.8054 47.9524 51.862 47.9325 51.9527C47.8922 52.1962 47.8389 52.4794 47.7798 52.7762C47.5662 52.4497 47.3511 52.1153 47.1449 51.7833C47.0972 51.7098 47.1153 51.6526 47.1837 51.6186L47.3036 51.5705L47.2835 51.4669L46.2871 51.6605L46.3072 51.7641L46.4011 51.7748C46.4564 51.7806 46.4939 51.8023 46.5337 51.8566C46.8841 52.3507 47.2494 52.8792 47.567 53.355L47.792 53.3113L48.0714 51.9381C48.097 51.8339 48.1225 51.7504 48.1697 51.6502C48.2194 51.5414 48.2675 51.4452 48.3081 51.3753L48.288 51.2717L47.621 51.4013L47.6411 51.5049Z" fill="#16394A"/>
<path d="M50.5004 52.5699C50.421 52.5688 50.3698 52.5415 50.3512 52.4459C50.2946 52.1758 50.2187 51.7854 50.1591 51.4786C50.078 51.0396 49.7311 50.9499 49.3535 51.0233C49.0562 51.081 48.7796 51.2671 48.5355 51.513L48.804 51.9073L48.9084 51.887C48.9376 51.7367 48.9527 51.6428 48.993 51.5068C49.0499 51.2848 49.1291 51.1991 49.2497 51.1757C49.4184 51.1429 49.5691 51.2749 49.6388 51.6334L49.6636 51.7609C49.4663 51.8613 49.19 52.0059 49.0966 52.0613C48.7928 52.2361 48.6445 52.4386 48.6964 52.7055C48.7475 52.9685 48.9744 53.1063 49.2637 53.05C49.4927 53.0055 49.6687 52.8597 49.8707 52.6551L50.0046 52.8937L50.0737 52.8844C50.2628 52.8063 50.4455 52.7377 50.6241 52.6699L50.604 52.5663L50.5004 52.5699ZM49.2258 52.5117C49.1917 52.3364 49.2445 52.1359 49.4557 51.9998C49.5338 51.9515 49.612 51.9033 49.6885 51.8677L49.8224 52.5569C49.7213 52.68 49.6276 52.756 49.5272 52.7756C49.3625 52.8076 49.2614 52.6949 49.2258 52.5117Z" fill="#16394A"/>
<path d="M51.9581 52.2206C51.8935 52.2745 51.8218 52.3132 51.7334 52.3304C51.5767 52.3609 51.465 52.2792 51.4224 52.0601C51.3479 51.6984 51.2705 51.2999 51.1869 50.8697L51.5154 50.8224L51.684 50.7028L51.6669 50.6151L51.1567 50.7143C51.1251 50.5303 51.0879 50.339 51.0492 50.1398L50.9367 50.1617C50.8486 50.3731 50.7539 50.5941 50.6504 50.8127L50.3732 50.8665L50.3957 50.9821L50.6431 50.9464C50.7276 51.36 50.8081 51.7743 50.8846 52.1894C50.9574 52.5639 51.1998 52.6739 51.5091 52.6138C51.7462 52.5677 51.93 52.4411 52.024 52.3236L51.9581 52.2206Z" fill="#16394A"/>
<path d="M53.7071 51.0458C53.6409 50.5336 53.2778 50.2528 52.7916 50.3473C52.2573 50.4511 51.936 50.9435 52.0506 51.5331C52.1528 52.059 52.5668 52.4085 53.1735 52.2906C53.5069 52.2258 53.7112 52.0539 53.7957 51.7811L53.7248 51.7163C53.648 51.7933 53.5312 51.8573 53.3826 51.8862C53.033 51.9541 52.7413 51.7834 52.5954 51.419C52.945 51.3511 53.3026 51.2816 53.6393 51.212L53.7071 51.0458ZM52.5297 51.1878C52.4577 50.8173 52.5552 50.5255 52.7602 50.4857C52.9691 50.4451 53.1404 50.726 53.1894 51.1713C52.9813 51.2158 52.7731 51.2604 52.5562 51.3026C52.5452 51.2675 52.5374 51.2277 52.5297 51.1878Z" fill="#16394A"/>
<path d="M55.071 49.2748C55.0095 49.2669 54.9743 49.2406 54.9607 49.1705C54.8993 48.8716 54.8474 48.5873 54.7916 48.3004C54.7441 48.0384 54.5479 47.9046 54.2972 47.9533C54.1204 47.9876 53.9919 48.0986 53.8724 48.2045L53.7871 48.2806L53.7161 48.0696L53.6518 48.082C53.4722 48.1533 53.3112 48.2177 53.1432 48.2801L53.1593 48.3629L53.2614 48.3563C53.325 48.3572 53.3639 48.386 53.3769 48.453C53.449 48.7896 53.5128 49.1178 53.5689 49.441C53.5826 49.5111 53.5663 49.5474 53.5089 49.5783L53.4141 49.6133L53.4302 49.6962L54.232 49.5404L54.2159 49.4575L54.1196 49.4597C54.0555 49.4556 54.0197 49.4262 54.0061 49.356C53.9415 49.0412 53.881 48.7122 53.8223 48.3929C53.8999 48.3117 54.0006 48.2292 54.097 48.2105C54.2449 48.1818 54.3303 48.2611 54.3675 48.4523C54.4215 48.7131 54.4755 48.9738 54.5236 49.2555C54.5372 49.3256 54.5183 49.3657 54.4603 49.3935L54.3702 49.4275L54.3863 49.5104L55.1674 49.3586L55.1513 49.2757L55.071 49.2748Z" fill="#16394A"/>
<path d="M56.1194 49.2099C56.6401 49.1087 56.8132 48.6947 56.7314 48.274C56.6472 47.8405 56.3359 47.5604 55.8248 47.6597C55.2977 47.7621 55.1291 48.1818 55.2084 48.5898C55.2901 49.0105 55.5923 49.3123 56.1194 49.2099ZM56.1233 49.1099C55.9144 49.1505 55.7237 48.8899 55.6395 48.4564C55.5602 48.0485 55.6248 47.7977 55.8145 47.7609C56.0266 47.7197 56.2148 47.9841 56.2984 48.4144C56.3777 48.8223 56.313 49.0731 56.1233 49.1099Z" fill="#16394A"/>
<path d="M58.6786 47.2027C58.738 47.2507 58.8126 47.3256 58.8718 47.3901C58.912 47.4253 58.9315 47.4744 58.9188 47.5464C58.89 47.724 58.8551 47.9391 58.7998 48.2211C58.6372 47.9682 58.4614 47.6815 58.3021 47.4281C58.2685 47.3751 58.2855 47.3254 58.3371 47.2989L58.4311 47.2508L58.415 47.168L57.6243 47.3216L57.6404 47.4045L57.7219 47.4118C57.7732 47.4184 57.7975 47.4401 57.8292 47.4836C57.861 47.527 57.8896 47.5711 57.9214 47.6145C57.922 47.6177 57.9258 47.6203 57.9258 47.6203C57.9544 47.6643 57.9721 47.7039 57.9588 47.7726C57.9182 47.9756 57.8822 48.1679 57.8323 48.4091C57.6621 48.1511 57.4823 47.8784 57.3186 47.6192C57.2843 47.563 57.2923 47.5184 57.3342 47.4938L57.4347 47.4445L57.4186 47.3616L56.6279 47.5153L56.644 47.5981L56.7255 47.6055C56.7768 47.612 56.8139 47.6313 56.8425 47.6753C57.1171 48.0586 57.424 48.505 57.6609 48.8658L57.8473 48.8296L58.0599 47.8125C58.2601 48.1044 58.4601 48.4128 58.6348 48.6765L58.818 48.6409C58.8847 48.2807 58.9653 47.8714 59.0338 47.5372C59.0505 47.4513 59.0695 47.3947 59.1041 47.3152C59.1393 47.2389 59.1835 47.1576 59.2218 47.0972L59.2057 47.0143L58.6625 47.1199L58.6786 47.2027Z" fill="#16394A"/>
<defs>
<linearGradient id="paint0_linear_3_3960" x1="42.1853" y1="7.005" x2="54.0919" y2="68.2744" gradientUnits="userSpaceOnUse">
<stop stop-color="white"/>
<stop offset="1" stop-color="#DDF4FF"/>
</linearGradient>
</defs>
</svg>
