<svg xmlns="http://www.w3.org/2000/svg" width="273" height="51" fill="none"><path fill="#16394A" d="M62.928 36.738c.409-6.479-3.366-10.814-9.538-10.814-6.785 0-11.886 5.305-11.886 12.855 0 6.733 4.234 12.038 11.936 12.038 4.234 0 7.142-1.632 8.825-4.795l-.714-.97c-1.122.766-2.703 1.276-4.59 1.276-4.439 0-7.602-2.805-8.52-7.651 4.438 0 8.978 0 13.263-.052l1.224-1.887Zm-14.742-1.071c0-4.744 1.888-8.11 4.49-8.11 2.652 0 4.08 3.876 3.62 9.487-2.652.051-5.304.102-8.059.102-.05-.459-.05-.969-.05-1.48Zm29.747 15.006v-1.744l-1.276-.254c-.918-.255-1.326-.817-1.326-1.939-.051-11.12-.102-21.527-.051-33.412h-1.224c-3.06.663-6.224 1.275-9.335 1.837v1.326c.765.153 1.581.255 2.295.357 1.071.255 1.378.867 1.378 1.836.102 8.468.152 18.823.05 28.056 0 1.122-.407 1.684-1.377 1.939l-1.224.254v1.744h12.09Zm24.251-13.935c.408-6.479-3.367-10.814-9.539-10.814-6.784 0-11.885 5.305-11.885 12.855 0 6.733 4.233 12.038 11.936 12.038 4.234 0 7.142-1.632 8.825-4.795l-.714-.97c-1.123.766-2.704 1.276-4.591 1.276-4.438 0-7.6-2.805-8.52-7.651 4.439 0 8.98 0 13.264-.052l1.224-1.887Zm-14.742-1.071c0-4.744 1.888-8.11 4.489-8.11 2.653 0 4.08 3.876 3.622 9.487-2.653.051-5.305.102-8.06.102-.05-.459-.05-.969-.05-1.48Zm33.011-7.804c.714.868 1.531 2.347 2.296 3.622.459.765.663 1.53.204 2.602-1.071 2.907-2.398 6.274-3.826 9.794a642.078 642.078 0 0 1-5.407-13.773c-.408-1.02-.051-1.683.867-1.939l1.581-.306v-1.326h-12.65v1.326l1.122.358c.663.204 1.071.56 1.428 1.326a844.59 844.59 0 0 1 9.08 20.965h2.857l6.682-16.272c.561-1.224 1.071-2.194 1.887-3.316.868-1.224 1.684-2.295 2.347-3.06v-1.327h-8.468v1.326Zm32.452 19.996c-.969-.204-1.53-.663-1.53-1.888-.051-3.468-.051-8.467-.051-12.395.051-5.611-3.979-7.55-8.774-7.55-3.774 0-7.6 1.633-11.171 4.081l2.347 5.51h1.326c.714-1.786 1.122-2.908 1.938-4.49 1.224-2.601 2.398-3.468 3.928-3.468 2.142 0 3.673 1.99 3.673 6.58v1.632c-2.653.765-6.377 1.888-7.652 2.347-4.132 1.428-6.427 3.57-6.427 6.988 0 3.367 2.448 5.611 6.121 5.611 2.908 0 5.407-1.377 8.366-3.417l1.071 3.265.867.05c2.5-.51 4.897-.917 7.244-1.326v-1.326l-1.276-.204Zm-15.456-3.775c0-2.244 1.123-4.59 4.03-5.764 1.071-.408 2.143-.816 3.163-1.071v8.824c-1.531 1.276-2.857 1.99-4.132 1.99-2.092 0-3.061-1.632-3.061-3.979Zm34.12 2.959c-.918.51-1.888.816-3.01.816-1.989 0-3.162-1.275-3.162-4.08-.051-4.643-.051-9.744-.051-15.253l4.132.204 2.346-1.071v-1.123h-6.478c.051-2.346.051-4.795.051-7.345h-1.429c-1.581 2.397-3.264 4.897-5.05 7.345h-3.52v1.48l3.112.153c.051 5.305.051 10.61 0 15.915 0 4.795 2.704 6.734 6.631 6.734 3.01 0 5.561-1.122 6.989-2.347l-.561-1.428Zm24.182-10.305c.408-6.479-3.367-10.814-9.539-10.814-6.785 0-11.886 5.305-11.886 12.855 0 6.733 4.234 12.038 11.937 12.038 4.234 0 7.142-1.632 8.825-4.795l-.714-.97c-1.123.766-2.704 1.276-4.591 1.276-4.438 0-7.601-2.805-8.519-7.651 4.438 0 8.978 0 13.262-.052l1.225-1.887Zm-14.742-1.071c0-4.744 1.887-8.11 4.489-8.11 2.652 0 4.081 3.876 3.622 9.487a414.29 414.29 0 0 1-8.06.102c-.051-.459-.051-.969-.051-1.48Zm35.643-17.507c-.734-.245-1.102-.653-1.102-1.55-.041-3.837 0-7.469 0-11.141.041-3.347-2.04-5.469-5.223-5.469-2.245 0-4.081 1.061-5.795 2.081l-1.224.735L202.94.04h-.816c-2.367.449-4.489.857-6.692 1.224v1.061l1.265.163c.775.164 1.183.613 1.183 1.47a325.25 325.25 0 0 1 0 12.65c0 .898-.286 1.306-1.061 1.551l-1.243.204v1.061h10.18v-1.061l-1.183-.204c-.776-.204-1.143-.653-1.143-1.55-.041-4.04 0-8.244.041-12.325 1.142-.816 2.571-1.592 3.795-1.592 1.877 0 2.734 1.184 2.734 3.633.041 3.346.082 6.692 0 10.283 0 .898-.326 1.347-1.102 1.551l-1.183.204v1.061h9.916v-1.061l-.979-.204Zm12.984 1.715c6.611 0 9.713-4.694 9.713-10.08 0-5.55-3.142-9.753-9.631-9.753-6.693 0-9.753 4.774-9.753 9.998 0 5.386 2.979 9.835 9.671 9.835Zm.286-1.225c-2.652 0-4.366-3.673-4.366-9.223 0-5.223 1.387-8.162 3.795-8.162 2.693 0 4.366 3.714 4.366 9.223 0 5.224-1.387 8.162-3.795 8.162Zm35.794-17.407c.613.735 1.347 1.837 1.919 2.775.408.53.53 1.184.204 2.04-.776 2.123-1.714 4.694-3.061 8.04-1.388-3.51-2.857-7.468-4.203-10.977-.286-.735.041-1.307.734-1.51l1.265-.368V.183h-10.038v1.06l.979.286c.612.204.857.53 1.142 1.142.286.613.531 1.225.817 1.837 0 .04.04.082.04.082.245.612.368 1.142.041 1.958-.979 2.408-1.877 4.693-3.061 7.55-1.469-3.591-3.019-7.386-4.407-10.977-.285-.776-.081-1.307.49-1.51l1.347-.368V.183h-10.039v1.06l.979.286c.612.204 1.02.53 1.265 1.142a475.878 475.878 0 0 1 7.182 16.65h2.367l5.02-12.038c1.755 4.08 3.468 8.366 4.979 12.039h2.326a793.67 793.67 0 0 1 5.264-13.1c.408-1.02.775-1.673 1.387-2.57a24.939 24.939 0 0 1 1.959-2.409V.183h-6.897v1.06Z"/><path fill="#EA6F54" d="M30.715 50.865a.918.918 0 0 0 1.377-.794V19.848a.917.917 0 0 0-.918-.917H.92c-.7 0-1.142.75-.803 1.362l4.62 8.336a5.29 5.29 0 0 0 4.626 2.725h9.566c.507 0 .918.41.918.918v9.26a5.289 5.289 0 0 0 2.642 4.579l8.227 4.754Z"/><path fill="#03549E" d="M17.742 50.85a.528.528 0 0 0 .792-.457V33.012a.528.528 0 0 0-.527-.528H.607a.528.528 0 0 0-.462.783l2.659 4.797a3.042 3.042 0 0 0 2.66 1.568h5.507c.291 0 .528.236.528.528v5.326c0 1.086.579 2.09 1.52 2.634l4.723 2.73Z"/></svg>