<svg xmlns="http://www.w3.org/2000/svg" width="62" height="57" fill="none"><mask id="a" width="62" height="57" x="0" y="0" maskUnits="userSpaceOnUse" style="mask-type:luminance"><path fill="#fff" d="M61.179 0H.81v56.172h60.368V0Z"/></mask><g fill="#E9F3FE" mask="url(#a)"><path d="M20.435 45.654h10.347c.107.83.277 1.639.506 2.426H20.435c-.037 0-.066-.028-.066-.06v-2.302c0-.035.03-.064.066-.064ZM7.487 3.472h10.886C21.33 1.242 25.203.12 29.056.12c3.854 0 7.727 1.117 10.683 3.35h10.827c1.8 0 3.436.71 4.622 1.848 1.187 1.139 1.922 2.71 1.922 4.44v19.554a17.044 17.044 0 0 0-1.995-1.007V9.76c0-1.202-.514-2.294-1.338-3.085a4.634 4.634 0 0 0-3.211-1.284H39.392a1.036 1.036 0 0 1-.636-.227C36.14 3.082 32.603 2.04 29.052 2.04c-3.55 0-7.024 1.025-9.633 3.071a.999.999 0 0 1-.702.28H7.487c-1.249 0-2.39.493-3.214 1.284A4.276 4.276 0 0 0 2.939 9.76v37.583c0 1.203.513 2.295 1.334 3.086a4.656 4.656 0 0 0 3.214 1.28h25.364c.388.67.828 1.312 1.305 1.918H7.487c-1.8 0-3.44-.709-4.626-1.847-1.186-1.139-1.922-2.71-1.922-4.44V9.759c0-1.73.736-3.301 1.922-4.44a6.67 6.67 0 0 1 4.626-1.847ZM29.19 5.798c3.134 0 5.972 1.22 8.026 3.192 2.055 1.971 3.326 4.695 3.326 7.702 0 3.007-1.271 5.73-3.326 7.703-2.054 1.971-4.892 3.191-8.026 3.191-3.133 0-5.975-1.22-8.026-3.191-2.054-1.972-3.326-4.696-3.326-7.703 0-3.007 1.272-5.73 3.326-7.702 2.051-1.972 4.893-3.192 8.026-3.192Zm6.478 5.444a.719.719 0 0 1-.983 0 .651.651 0 0 1 0-.944l.946-.904a10.16 10.16 0 0 0-5.827-2.248v1.581a.68.68 0 0 1-.695.667.68.68 0 0 1-.695-.667V7.16a10.142 10.142 0 0 0-5.772 2.326l1.08 1.036c.269.259.269.68 0 .943a.707.707 0 0 1-.98 0l-1.079-1.035a9.334 9.334 0 0 0-2.41 5.56h1.693a.68.68 0 0 1 .695.667.68.68 0 0 1-.695.666h-1.7c.145 2.139 1.02 4.086 2.391 5.614L22.7 21.92a.719.719 0 0 1 .983 0 .65.65 0 0 1 0 .944l-1.068 1.024a10.148 10.148 0 0 0 5.88 2.355v-1.294c0-.365.31-.667.694-.667a.68.68 0 0 1 .695.667v1.294a10.157 10.157 0 0 0 5.901-2.369l-1.02-.978a.651.651 0 0 1 0-.944.715.715 0 0 1 .983 0l1.013.972a9.34 9.34 0 0 0 2.383-5.678h-1.567a.68.68 0 0 1-.694-.666.68.68 0 0 1 .694-.667h1.549c-.181-2.138-1.094-4.075-2.495-5.582l-.957.919-.007-.007Zm-5.79 6.468a.897.897 0 0 1-1.227.081.812.812 0 0 1-.082-1.177l3.618-3.972a.896.896 0 0 1 1.227-.078c.362.302.399.83.085 1.178l-3.621 3.968Zm19.787-8.504c1.046 0 1.896.812 1.896 1.816 0 1.003-.85 1.812-1.896 1.812-1.046 0-1.892-.812-1.892-1.812s.846-1.816 1.892-1.816Zm-41.268 0c1.046 0 1.892.812 1.892 1.816 0 1.003-.846 1.812-1.892 1.812-1.045 0-1.892-.812-1.892-1.812s.847-1.816 1.892-1.816Zm44.457 32.91h-2.176v-3.27c0-.366-.314-.67-.699-.67H46.12a.686.686 0 0 0-.694.67v3.266h-2.177c-.839 0-1.26.957-.702 1.539l4.811 5.39a.986.986 0 0 0 1.46.018l4.76-5.426c.539-.596.08-1.518-.725-1.518Zm8.207 1.45c0 3.447-1.46 6.57-3.81 8.826-2.35 2.256-5.605 3.656-9.193 3.656-3.588 0-6.844-1.397-9.194-3.656-2.35-2.255-3.81-5.38-3.81-8.826 0-3.447 1.456-6.565 3.81-8.823 2.35-2.26 5.606-3.657 9.194-3.657 3.588 0 6.843 1.398 9.193 3.657 2.35 2.255 3.81 5.38 3.81 8.823ZM8.4 45.048c1.046 0 1.892.812 1.892 1.812s-.846 1.82-1.892 1.82c-1.046 0-1.892-.813-1.892-1.82 0-1.007.846-1.812 1.892-1.812Z"/><path stroke="#EEF6FE" stroke-miterlimit="10" stroke-width=".1" d="M20.435 45.654h10.347c.107.83.277 1.639.506 2.426H20.435c-.037 0-.066-.028-.066-.06v-2.302c0-.035.03-.06.066-.06v-.004ZM7.487 3.472h10.886C21.33 1.242 25.203.12 29.056.12c3.854 0 7.727 1.117 10.683 3.35h10.827c1.8 0 3.436.71 4.622 1.848 1.187 1.139 1.922 2.71 1.922 4.44v19.554a17.06 17.06 0 0 0-1.995-1.007V9.76c0-1.202-.514-2.294-1.338-3.085a4.634 4.634 0 0 0-3.211-1.284H39.392a1.036 1.036 0 0 1-.636-.227C36.14 3.082 32.603 2.04 29.052 2.04c-3.55 0-7.024 1.025-9.633 3.071a.999.999 0 0 1-.702.28H7.487c-1.249 0-2.39.493-3.214 1.284A4.276 4.276 0 0 0 2.939 9.76v37.583c0 1.203.513 2.295 1.334 3.086a4.656 4.656 0 0 0 3.214 1.28h25.364c.388.67.828 1.312 1.305 1.918H7.487c-1.8 0-3.44-.709-4.626-1.847-1.186-1.139-1.922-2.71-1.922-4.44V9.759c0-1.73.736-3.301 1.922-4.44a6.67 6.67 0 0 1 4.626-1.847ZM29.19 5.798c3.134 0 5.972 1.22 8.026 3.192 2.055 1.971 3.326 4.695 3.326 7.702 0 3.007-1.271 5.73-3.326 7.703-2.054 1.971-4.892 3.191-8.026 3.191-3.133 0-5.975-1.22-8.026-3.191-2.054-1.972-3.326-4.696-3.326-7.703 0-3.007 1.272-5.73 3.326-7.702 2.051-1.972 4.893-3.192 8.026-3.192Zm6.478 5.444a.719.719 0 0 1-.983 0 .651.651 0 0 1 0-.944l.946-.904a10.16 10.16 0 0 0-5.827-2.248v1.581a.68.68 0 0 1-.695.667.68.68 0 0 1-.695-.667V7.16a10.142 10.142 0 0 0-5.772 2.326l1.08 1.036c.269.259.269.68 0 .943a.707.707 0 0 1-.98 0l-1.079-1.035a9.334 9.334 0 0 0-2.41 5.56h1.693a.68.68 0 0 1 .695.667.68.68 0 0 1-.695.666h-1.7c.145 2.139 1.02 4.086 2.391 5.614L22.7 21.92a.719.719 0 0 1 .983 0 .65.65 0 0 1 0 .944l-1.068 1.024a10.148 10.148 0 0 0 5.88 2.355v-1.294c0-.365.31-.667.694-.667a.68.68 0 0 1 .695.667v1.294a10.157 10.157 0 0 0 5.901-2.369l-1.02-.978a.65.65 0 0 1 0-.944.715.715 0 0 1 .983 0l1.013.972a9.34 9.34 0 0 0 2.383-5.678h-1.567a.68.68 0 0 1-.694-.666.68.68 0 0 1 .694-.667h1.549c-.181-2.138-1.094-4.075-2.495-5.582l-.957.919-.007-.007Zm-5.79 6.468a.897.897 0 0 1-1.227.081.812.812 0 0 1-.082-1.177l3.618-3.972a.896.896 0 0 1 1.227-.078c.362.302.399.83.085 1.178L29.88 17.71h-.003Zm19.787-8.504c1.046 0 1.896.812 1.896 1.816 0 1.003-.85 1.812-1.896 1.812-1.046 0-1.892-.812-1.892-1.812s.846-1.816 1.892-1.816Zm-41.268 0c1.046 0 1.892.812 1.892 1.816 0 1.003-.846 1.812-1.892 1.812-1.045 0-1.892-.812-1.892-1.812s.847-1.816 1.892-1.816Zm44.457 32.91h-2.176v-3.27c0-.366-.314-.67-.699-.67H46.12a.686.686 0 0 0-.694.67v3.266h-2.177c-.839 0-1.26.957-.702 1.539l4.811 5.39a.986.986 0 0 0 1.46.018l4.76-5.426c.539-.596.084-1.518-.721-1.518h-.004Zm8.203 1.45c0 3.447-1.46 6.57-3.81 8.826-2.35 2.256-5.605 3.656-9.193 3.656-3.588 0-6.843-1.397-9.194-3.656-2.35-2.255-3.81-5.38-3.81-8.826 0-3.447 1.457-6.565 3.81-8.823 2.35-2.26 5.606-3.657 9.194-3.657 3.588 0 6.844 1.398 9.194 3.657 2.35 2.255 3.81 5.38 3.81 8.823Zm-52.66 1.482c1.046 0 1.892.812 1.892 1.812s-.846 1.82-1.892 1.82c-1.045 0-1.892-.813-1.892-1.82 0-1.007.847-1.812 1.892-1.812Z"/></g></svg>