<svg width="25" height="27" viewBox="0 0 25 27" fill="none" xmlns="http://www.w3.org/2000/svg">
<path fill-rule="evenodd" clip-rule="evenodd" d="M13.3947 0.830855C12.6824 0.403712 11.7927 0.403712 11.0804 0.830855L9.11211 2.01118C8.82011 2.18628 8.49218 2.29283 8.15303 2.3228L5.86687 2.52483C5.03954 2.59795 4.31977 3.12089 3.99458 3.88514L3.09597 5.99697C2.96266 6.31026 2.75999 6.58921 2.50323 6.81281L0.772442 8.32003C0.146092 8.86547 -0.128835 9.71161 0.0572885 10.521L0.571603 12.7577C0.647901 13.0896 0.647901 13.4344 0.571603 13.7662L0.0572885 16.0029C-0.128835 16.8123 0.146092 17.6584 0.772442 18.2039L2.50323 19.7111C2.75999 19.9347 2.96266 20.2137 3.09597 20.5269L3.99458 22.6388C4.31977 23.403 5.03954 23.926 5.86687 23.9991L8.15303 24.2011C8.49218 24.2311 8.82011 24.3376 9.11211 24.5127L11.0804 25.6931C11.7927 26.1202 12.6824 26.1202 13.3947 25.6931L15.363 24.5127C15.655 24.3376 15.9829 24.2311 16.3221 24.2011L18.6082 23.9991C19.4355 23.926 20.1553 23.403 20.4805 22.6388L21.3791 20.5269C21.5124 20.2137 21.7151 19.9347 21.9719 19.7111L23.7026 18.2039C24.329 17.6584 24.6039 16.8123 24.4178 16.0029L23.9035 13.7662C23.8272 13.4344 23.8272 13.0896 23.9035 12.7577L24.4178 10.521C24.6039 9.71161 24.329 8.86547 23.7026 8.32003L21.9719 6.81281C21.7151 6.58921 21.5124 6.31026 21.3791 5.99697L20.4805 3.88513C20.1553 3.12089 19.4355 2.59795 18.6082 2.52483L16.3221 2.3228C15.9829 2.29283 15.655 2.18628 15.363 2.01118L13.3947 0.830855ZM11.1905 9.90696C10.8625 9.43496 10.3745 9.19896 9.72654 9.19896C9.06254 9.19896 8.57854 9.43496 8.27454 9.90696C7.97054 10.371 7.81854 11.027 7.81854 11.875C7.81854 12.435 7.89054 12.919 8.03454 13.327C8.17854 13.727 8.39454 14.035 8.68254 14.251C8.97054 14.467 9.31854 14.575 9.72654 14.575C10.4065 14.575 10.9025 14.339 11.2145 13.867C11.5345 13.387 11.6945 12.723 11.6945 11.875C11.6945 11.027 11.5265 10.371 11.1905 9.90696ZM9.22254 10.651C9.33454 10.379 9.50654 10.243 9.73854 10.243C9.97854 10.243 10.1545 10.379 10.2665 10.651C10.3785 10.923 10.4345 11.335 10.4345 11.887C10.4345 12.431 10.3785 12.843 10.2665 13.123C10.1545 13.395 9.97854 13.531 9.73854 13.531C9.50654 13.531 9.33454 13.395 9.22254 13.123C9.11854 12.843 9.06654 12.427 9.06654 11.875C9.06654 11.331 9.11854 10.923 9.22254 10.651ZM10.8425 17.887L15.5945 9.31896H14.3705L9.61854 17.887H10.8425ZM16.5185 12.943C16.2305 12.727 15.8745 12.619 15.4505 12.619C14.7865 12.619 14.2985 12.855 13.9865 13.327C13.6825 13.791 13.5305 14.447 13.5305 15.295C13.5305 15.855 13.6025 16.339 13.7465 16.747C13.8905 17.147 14.1065 17.455 14.3945 17.671C14.6825 17.887 15.0305 17.995 15.4385 17.995C16.1185 17.995 16.6145 17.759 16.9265 17.287C17.2465 16.807 17.4065 16.143 17.4065 15.295C17.4065 14.727 17.3305 14.247 17.1785 13.855C17.0265 13.455 16.8065 13.151 16.5185 12.943ZM14.9345 14.083C15.0465 13.811 15.2185 13.675 15.4505 13.675C15.6905 13.675 15.8665 13.811 15.9785 14.083C16.0985 14.347 16.1585 14.755 16.1585 15.307C16.1585 15.867 16.0985 16.283 15.9785 16.555C15.8665 16.827 15.6905 16.963 15.4505 16.963C15.2185 16.963 15.0465 16.827 14.9345 16.555C14.8305 16.275 14.7785 15.859 14.7785 15.307C14.7785 14.755 14.8305 14.347 14.9345 14.083Z" fill="#54A552"/>
</svg>
