<svg width="14" height="16" viewBox="0 0 14 16" fill="none" xmlns="http://www.w3.org/2000/svg">
<path d="M9.55712 16C8.8242 15.973 8.09341 15.7306 7.38862 15.3597C5.53589 14.3855 3.95754 12.979 2.63711 11.1653C1.78319 9.99252 1.06354 8.71886 0.550337 7.29109C0.323722 6.66021 0.128418 6.01617 0.0435035 5.33518C-0.0212439 4.81707 -0.0292046 4.29958 0.128418 3.79651C0.201126 3.56408 0.310454 3.35859 0.458524 3.18317C0.813573 2.7628 1.16703 2.33991 1.52792 1.9258C1.96629 1.42336 2.47047 1.37762 2.90406 1.85376C3.51439 2.52348 4.10879 3.21575 4.66816 3.94624C5.01366 4.39732 5.00252 4.97996 4.6533 5.42414C4.32957 5.83637 3.98513 6.22605 3.64866 6.6245C3.47511 6.83061 3.47352 6.8657 3.57224 7.12632C3.91349 8.02722 4.43783 8.77462 4.99721 9.49008C5.55552 10.2037 6.17381 10.8377 6.86904 11.362C7.10627 11.5412 7.36102 11.6815 7.61099 11.8332C7.72881 11.9046 7.81053 11.84 7.89014 11.7455C8.20114 11.3758 8.51214 11.0062 8.82526 10.6391C8.95688 10.4849 9.09858 10.3477 9.2769 10.2694C9.6086 10.1241 9.9058 10.2043 10.1791 10.4492C10.2524 10.515 10.3208 10.5902 10.3861 10.6673C10.8866 11.2555 11.3854 11.8451 11.8854 12.4333C12.0499 12.6269 12.1868 12.8418 12.2383 13.115C12.3015 13.4514 12.2208 13.7509 12.052 14.0221C12.0053 14.0973 11.9517 14.1681 11.8965 14.2345C11.5898 14.6016 11.2761 14.9612 10.9747 15.334C10.5984 15.7995 10.1356 16 9.55659 15.9981L9.55712 16Z" fill="#EA6F54"/>
<path d="M6.85985 1.15709C6.90656 0.776811 6.95167 0.422843 6.99253 0.0676213C6.99943 0.0055985 7.0127 -0.00693136 7.0663 0.00309252C8.61706 0.295665 9.981 1.04683 11.1443 2.30107C12.1267 3.36047 12.8278 4.63538 13.2651 6.1139C13.3908 6.53929 13.4789 6.97846 13.5527 7.42139C13.5686 7.51537 13.5272 7.51474 13.4795 7.52477C13.1934 7.58115 12.9058 7.63127 12.6213 7.6958C12.5396 7.71397 12.5173 7.70081 12.5019 7.60245C12.4085 7.00979 12.261 6.43655 12.0556 5.88398C11.7175 4.97431 11.251 4.16614 10.6545 3.46822C9.78728 2.45331 8.76247 1.75665 7.57526 1.39954C7.36616 1.3369 7.1544 1.29367 6.94265 1.24919C6.87259 1.23478 6.84977 1.20846 6.86038 1.15647L6.85985 1.15709Z" fill="#EA6F54"/>
<path d="M6.924 3.2025C7.96102 3.40486 8.83405 3.93362 9.55423 4.8057C10.2033 5.59195 10.6157 6.52605 10.7982 7.60362C10.8136 7.69383 10.7982 7.72578 10.7276 7.73957C10.4411 7.79407 10.1539 7.84544 9.86894 7.90935C9.78509 7.92814 9.76492 7.89807 9.74953 7.81161C9.54574 6.63819 9.01237 5.72727 8.16906 5.06883C7.77261 4.75934 7.33796 4.55385 6.86721 4.46551C6.74833 4.44359 6.70747 4.39848 6.72922 4.25188C6.77434 3.9449 6.80299 3.63478 6.84386 3.32718C6.85129 3.27205 6.83218 3.15677 6.92347 3.20313L6.924 3.2025Z" fill="#EA6F54"/>
</svg>
