<svg width="29" height="28" fill="none" xmlns="http://www.w3.org/2000/svg"><ellipse cx="14.382" cy="13.8" rx="14.38" ry="13.8" fill="#fff"/><mask id="a" style="mask-type:alpha" maskUnits="userSpaceOnUse" x="3" y="3" width="23" height="22"><path transform="matrix(.97742 -.2113 .2285 .97354 3.172 6.998)" fill="#D9D9D9" d="M0 0h18.72v18.037H0z"/></mask><g mask="url(#a)"><path d="m10.932 23.002-.171-.732c-.398-1.695-.352-3.15.137-4.363.49-1.215 1.256-2.498 2.3-3.852-1.548-.793-2.814-1.637-3.798-2.532-.985-.896-1.676-2.191-2.074-3.886l-.172-.732 1.525-.33.172.732a7.098 7.098 0 0 0 .21.724l7.547-1.632a7.526 7.526 0 0 0-.133-.74l-.172-.731 1.525-.33.172.732c.398 1.695.352 3.15-.138 4.363-.49 1.214-1.256 2.498-2.3 3.851 1.548.793 2.814 1.638 3.799 2.533.984.896 1.675 2.19 2.073 3.886l.172.732-1.525.33-.171-.732a7.176 7.176 0 0 0-.21-.724l-7.548 1.632a7.398 7.398 0 0 0 .134.74l.171.731-1.525.33Zm-.117-12.275 5.413-1.17c.11-.268.2-.53.266-.788s.117-.538.153-.84l-6.938 1.5c.165.245.335.474.512.686.176.212.374.416.594.612Zm3.342 2.122c.205-.263.405-.523.597-.783.193-.26.373-.516.54-.77l-2.859.618c.265.16.542.318.833.473.29.156.586.31.889.462Zm-.691 3.455 2.859-.618c-.265-.16-.542-.319-.832-.474-.29-.155-.587-.309-.89-.46a38.2 38.2 0 0 0-.597.782c-.193.26-.373.516-.54.77Zm-1.353 3.368 6.938-1.5a8.1 8.1 0 0 0-.511-.687 5.805 5.805 0 0 0-.595-.612l-5.413 1.17c-.11.268-.199.53-.265.788a6.397 6.397 0 0 0-.154.84Z" fill="#163949"/></g></svg>