<svg xmlns="http://www.w3.org/2000/svg" width="67" height="72" fill="none"><ellipse cx="33.691" cy="36" fill="#D2EAFF" rx="33.103" ry="36"/><path fill="#3881C5" d="M54.38 57.464c-.23.466-.587.602-1.065.602-12.628-.01-25.257-.008-37.885-.009-.803 0-1.052-.266-1.048-1.138.003-1.115-.042-2.23.234-3.33.709-2.839 3.205-5.246 5.883-5.636a1.58 1.58 0 0 0 .417-.109c-1.304-.294-2.36-.994-3.118-2.176-.77-1.198-1.002-2.531-.746-3.959.446-2.494 2.619-4.237 5.02-4.04 2.204.18 4.123 2.283 4.254 4.662.15 2.73-1.466 4.978-3.902 5.466.77.266 1.601.464 2.358.84.759.378 1.441.935 2.204 1.444 1.631-2.238 3.842-3.568 6.56-3.932-1.766-.347-3.193-1.256-4.237-2.828-1.044-1.573-1.386-3.334-1.075-5.232.551-3.379 3.416-5.739 6.661-5.52 2.939.2 5.507 2.99 5.725 6.206.245 3.598-2.025 6.774-5.412 7.374 2.71.359 4.928 1.676 6.637 4.034 1.284-1.341 2.822-2.06 4.552-2.33-2.819-.642-4.203-3.226-3.944-5.66.288-2.709 2.333-4.583 4.872-4.53 2.254.045 4.262 2.115 4.467 4.602.222 2.692-1.385 4.95-3.958 5.604l.592.116c3.04.613 5.503 3.325 5.886 6.53.006.05.045.095.069.143v2.806h-.002Zm-27.793-1.133h15.589c.037-4.612-3.521-8.465-7.797-8.471-4.255-.006-7.863 3.902-7.792 8.47Zm7.786-22.072c-2.556.006-4.67 2.302-4.681 5.084-.012 2.79 2.128 5.12 4.693 5.114 2.556-.006 4.669-2.302 4.68-5.085.013-2.789-2.127-5.12-4.692-5.113ZM24.999 56.34c.024-1.596.352-3.093.968-4.517.037-.087-.052-.283-.133-.376-1.715-1.957-4.682-2.44-6.904-1.132-2.073 1.22-3.283 3.683-2.946 6.025H25Zm27.864.005c-.056-.68-.042-1.328-.171-1.938-.498-2.356-1.869-3.901-3.97-4.568-2.195-.697-4.153-.083-5.824 1.62-.172.175-.131.312-.07.516.275.908.559 1.814.777 2.738.124.524.129 1.081.188 1.632h9.07Zm-31.229-10.19c1.67.016 3.126-1.506 3.122-3.364-.003-1.89-1.274-3.364-3.1-3.422-1.669-.053-3.126 1.498-3.122 3.356.004 1.89 1.275 3.337 3.1 3.43Zm28.601-3.408c-.015-1.836-1.425-3.37-3.112-3.386-1.682-.015-3.146 1.578-3.131 3.408.015 1.835 1.425 3.37 3.112 3.385 1.682.016 3.146-1.577 3.131-3.407ZM38.514 29.418c-.011.71-.605 1.086-1.2.76a85.593 85.593 0 0 1-2.622-1.498c-.244-.145-.43-.15-.676-.003-.83.498-1.678.962-2.514 1.449-.332.193-.663.28-.988.017-.318-.257-.36-.61-.288-1.024.176-.999.314-2.005.484-3.005.055-.321-.006-.544-.235-.775-.686-.694-1.34-1.424-2.018-2.129-.277-.288-.433-.612-.307-1.022.126-.414.439-.548.816-.601.914-.129 1.825-.292 2.739-.42.313-.045.498-.183.634-.508.387-.925.815-1.83 1.22-2.747.163-.368.38-.648.788-.651.41-.003.63.277.792.641.414.928.851 1.845 1.238 2.785.134.325.325.43.613.473.926.138 1.85.295 2.777.43.379.055.668.21.795.63.126.414-.054.712-.307.98-.68.723-1.352 1.454-2.048 2.157-.222.224-.267.442-.215.747.18 1.041.34 2.086.508 3.13.011.07.01.14.014.184Zm-7.83-6.372c.475.55.932 1.087 1.401 1.613.256.285.364.588.287.996-.134.717-.226 1.441-.346 2.228.58-.332 1.122-.608 1.631-.94.478-.312.907-.315 1.385 0 .503.33 1.041.599 1.635.935-.082-.54-.106-.997-.226-1.423-.27-.96-.111-1.724.664-2.343.354-.283.624-.69.948-1.06-.63-.096-1.233-.203-1.839-.278-.481-.06-.814-.278-1.014-.787-.249-.633-.553-1.242-.86-1.92-.312.689-.615 1.309-.874 1.95-.189.472-.5.69-.952.75-.62.08-1.235.185-1.841.277v.002Zm-4.91 5.809c-.12.222-.206.478-.365.66a32.28 32.28 0 0 1-1.336 1.429c-.165.168-.241.314-.186.582.129.634.21 1.279.31 1.92.062.394.053.768-.272 1.04-.34.283-.676.193-1.02-.011a31.41 31.41 0 0 0-1.624-.919.586.586 0 0 0-.483.005c-.574.297-1.134.628-1.695.955-.312.181-.62.229-.916-.01-.289-.234-.373-.552-.306-.939.111-.638.192-1.283.306-1.92.055-.304.024-.529-.207-.75-.44-.42-.843-.883-1.266-1.325-.272-.285-.435-.606-.296-1.023.131-.395.422-.536.785-.587a27.665 27.665 0 0 0 1.847-.312.656.656 0 0 0 .393-.32c.285-.57.54-1.158.797-1.744.167-.38.382-.678.812-.675.431.004.637.315.803.69.247.561.516 1.11.748 1.678.108.264.265.376.519.41a64.64 64.64 0 0 1 1.851.287c.455.075.728.393.802.879Zm-3.445 3.284c.004-.042.804-2.647.886-2.775-1.179.16-1.854-.439-2.174-1.66-.301 1.235-1.007 1.794-2.186 1.74 1.01.703 1.238 1.622.789 2.767.51-.231.935-.575 1.363-.578.442-.004.885.324 1.322.506Zm30.007-3.283c-.12.222-.208.478-.366.66-.428.495-.881.964-1.336 1.429-.165.169-.24.315-.186.583.13.633.21 1.278.311 1.919.062.394.052.768-.273 1.04-.34.284-.676.191-1.02-.012-.524-.31-1.063-.593-1.581-.915-.21-.13-.366-.118-.568.004-.544.33-1.103.631-1.653.952-.312.183-.62.23-.916-.01-.289-.233-.372-.552-.305-.939.113-.652.202-1.309.314-1.962.046-.27.02-.476-.187-.678-.446-.433-.862-.904-1.294-1.354-.273-.285-.435-.606-.295-1.023.131-.394.422-.536.786-.587a27.101 27.101 0 0 0 1.847-.312c.147-.031.319-.177.392-.322.281-.556.534-1.13.782-1.706.17-.393.379-.715.828-.712.451.002.65.344.82.729.247.56.511 1.112.75 1.676.09.21.197.326.423.356.645.084 1.286.196 1.927.304.454.077.728.394.801.88h-.001Zm-3.438 3.414c-.032-.626-.186-1.185-.047-1.638.14-.451.573-.796.856-1.16-.453-.127-.992-.137-1.348-.419-.35-.277-.515-.83-.777-1.292-.123.265-.258.507-.35.767-.18.51-.523.744-1.008.787-.248.022-.494.075-.74.114.326.437.754.792.887 1.249.13.45-.038 1.002-.082 1.613.87-.853 1.736-.857 2.61-.02h-.001Z"/><path fill="#3881C5" d="M40.089 53.718c-.003.488-.184.758-.526.887-.367.138-.661.004-.886-.329-.351-.521-.683-1.06-1.059-1.56-.185-.245-.456-.414-.682-.626-.392-.366-.454-.845-.17-1.235.267-.366.72-.422 1.118-.121a6.783 6.783 0 0 1 2.101 2.624c.063.136.085.292.104.36Zm-5.729-2.463c-.434-.011-.778-.414-.758-.887.02-.454.376-.814.795-.804.434.01.778.414.758.887-.02.454-.376.814-.795.804Z"/></svg>