<svg width="254" height="269" fill="none" xmlns="http://www.w3.org/2000/svg"><rect x=".168" y=".8" width="253.831" height="267.6" rx="6" fill="#fff"/><mask id="a" style="mask-type:luminance" maskUnits="userSpaceOnUse" x="158" y="50" width="77" height="59"><path d="M234.324 50h-75.771v58.173h75.771V50Z" fill="#fff"/></mask><g mask="url(#a)"><path d="M198.39 71.662v6.596c0 4.683-3.937 8.477-8.795 8.477-4.858 0-8.795-3.794-8.795-8.477V64.296c-4.384.735-8.041 3.803-9.286 8.032l-2.017 6.785-8.944 8.613c-2.675 2.58-2.675 6.75 0 9.323l9.54 9.194c2.675 2.58 6.998 2.58 9.672 0l4.604-4.435c.114 0 .219.009.333.009h19.546c3.235 0 5.866-2.53 5.866-5.648 0-.658-.123-1.3-.333-1.889h.333c3.236 0 5.866-2.53 5.866-5.648 0-1.513-.614-2.871-1.613-3.888 3.139-.59 5.507-3.247 5.524-6.451v-.052c-.009-3.623-3.069-6.57-6.84-6.57H198.39v-.01Zm25.412 6.596v.385l8.514-8.203c2.675-2.58 2.675-6.742 0-9.322l-9.54-9.178c-2.674-2.58-6.997-2.58-9.672 0l-4.902 4.717a9.985 9.985 0 0 0-1.017-.06h-13.679c-4.534 0-8.26 3.299-8.743 7.537h-.052v14.124c0 2.598 2.183 4.709 4.884 4.709 2.701 0 4.884-2.11 4.884-4.709V67.903h19.546c5.401 0 9.777 4.213 9.777 9.416v.94Z" fill="#EEF6FE"/></g></svg>