<svg width="29" height="27" fill="none" xmlns="http://www.w3.org/2000/svg"><ellipse cx="14.502" cy="13.35" rx="13.911" ry="13.35" fill="#fff"/><mask id="a" style="mask-type:luminance" maskUnits="userSpaceOnUse" x="6" y="6" width="17" height="14"><path d="M22.816 6.965H6.184v12.77h16.632V6.965Z" fill="#fff"/></mask><g mask="url(#a)"><path d="M14.928 11.72v1.448c0 1.028-.865 1.86-1.931 1.86s-1.93-.832-1.93-1.86v-3.065c-.963.162-1.766.835-2.039 1.763l-.443 1.49-1.963 1.89a1.409 1.409 0 0 0 0 2.047l2.094 2.018a1.539 1.539 0 0 0 2.123 0l1.01-.974.074.002h4.29c.71 0 1.288-.555 1.288-1.24 0-.144-.027-.285-.073-.414h.073c.71 0 1.288-.555 1.288-1.24 0-.332-.135-.63-.354-.853.689-.13 1.208-.713 1.212-1.416v-.012c-.002-.795-.673-1.442-1.501-1.442h-3.219v-.002Zm5.578 1.448v.085l1.869-1.801a1.41 1.41 0 0 0 0-2.046L20.28 7.39a1.539 1.539 0 0 0-2.123 0l-1.076 1.035a2.192 2.192 0 0 0-.223-.013h-3.003c-.995 0-1.813.724-1.919 1.655h-.011v3.1c0 .57.48 1.034 1.072 1.034.593 0 1.072-.464 1.072-1.034v-2.273h4.29c1.186 0 2.147.925 2.147 2.067v.206Z" fill="#163949"/></g></svg>