<svg width="254" height="269" fill="none" xmlns="http://www.w3.org/2000/svg"><rect y=".8" width="253.831" height="267.6" rx="6" fill="#fff"/><mask id="a" style="mask-type:alpha" maskUnits="userSpaceOnUse" x="128" y="35" width="126" height="121"><path transform="matrix(.96275 -.2704 .29168 .95652 128.789 62.67)" fill="#D9D9D9" d="M0 0h100.111v96.702H0z"/></mask><g mask="url(#a)"><path d="m175.899 145.672-1.176-3.854c-2.722-8.928-2.99-16.716-.802-23.362 2.188-6.647 5.833-13.755 10.937-21.325-8.551-3.735-15.615-7.836-21.191-12.302-5.577-4.466-9.726-11.163-12.449-20.091l-1.175-3.855 8.032-2.255 1.175 3.854a38.22 38.22 0 0 0 1.376 3.797l39.758-11.166a36.947 36.947 0 0 0-.975-3.91l-1.175-3.854 8.032-2.256 1.175 3.854c2.723 8.929 2.99 16.716.802 23.363-2.187 6.646-5.833 13.754-10.936 21.325 8.551 3.735 15.614 7.835 21.191 12.301 5.576 4.466 9.726 11.163 12.448 20.092l1.176 3.854-8.032 2.256-1.176-3.854a37.863 37.863 0 0 0-1.376-3.798l-39.757 11.166c.129.661.27 1.302.422 1.921.153.62.337 1.283.552 1.99l1.176 3.854-8.032 2.255Zm-4.95-65.555 28.513-8.008a31.513 31.513 0 0 0 1.143-4.296c.264-1.4.438-2.913.523-4.54l-36.545 10.263a43.58 43.58 0 0 0 2.976 3.505 31.345 31.345 0 0 0 3.39 3.076Zm18.605 10.255a203.403 203.403 0 0 0 2.917-4.375c.939-1.45 1.81-2.88 2.615-4.291l-15.059 4.23a94.319 94.319 0 0 0 4.613 2.26c1.605.735 3.243 1.46 4.914 2.177Zm-2.476 18.688 15.06-4.23a95.87 95.87 0 0 0-4.613-2.261 216.433 216.433 0 0 0-4.915-2.176 200.153 200.153 0 0 0-2.916 4.376 88.472 88.472 0 0 0-2.616 4.291Zm-6.041 18.433 36.544-10.264a43.526 43.526 0 0 0-2.976-3.505 31.334 31.334 0 0 0-3.39-3.075l-28.513 8.008a31.367 31.367 0 0 0-1.142 4.296 34.12 34.12 0 0 0-.523 4.54Z" fill="#EEF6FE"/></g></svg>