<svg width="255" height="269" fill="none" xmlns="http://www.w3.org/2000/svg"><rect x=".541" y=".8" width="253.831" height="267.6" rx="6" fill="#fff"/><mask id="a" style="mask-type:luminance" maskUnits="userSpaceOnUse" x="169" y="135" width="75" height="69"><path d="M243.72 135h-74.374v68.733h74.374V135Z" fill="#fff"/></mask><g mask="url(#a)"><path d="M169.346 184.984h50.709v6.251h-50.709v-6.251Zm50.811-6.246c0-24.995-50.811-24.995-50.811 0h50.811Zm-50.811 21.872v-3.129h50.811v3.129c0 1.684-1.522 3.123-3.481 3.123H172.73c-1.862 0-3.384-1.439-3.384-3.123Zm57.671 3.123h5.611c2.84 0 5.174-2.028 5.509-4.595l5.577-51.483h-16.901V135h-6.662v12.655h-16.799l1.011 7.309c5.782 1.466 11.188 4.121 14.437 7.058 4.867 4.437 8.217 9.026 8.217 16.525v25.186Z" fill="#EEF6FE"/></g></svg>