<svg xmlns="http://www.w3.org/2000/svg" width="67" height="73" fill="none"><ellipse cx="33.691" cy="36.5" fill="#D2EAFF" rx="33.103" ry="36"/><path fill="#3881C5" d="M34.855 59.315v6.022c0 .424-.203.722-.546.816-.439.12-.869-.221-.899-.716-.004-.07 0-.138 0-.207l.001-11.961a.602.602 0 0 0-.125-.394c-2.553-3.335-5.697-5.702-9.524-6.946-1.36-.442-2.756-.656-4.17-.74-.125-.008-.176.044-.208.173a19.908 19.908 0 0 0-.54 3.912c-.133 3.244.404 6.377 1.307 9.448a39.298 39.298 0 0 0 2.477 6.301c.21.428.1.909-.251 1.123-.377.23-.808.082-1.028-.367-1.726-3.51-2.988-7.2-3.625-11.132a28.537 28.537 0 0 1-.368-4.396c-.018-2.982.584-5.813 1.713-8.522.666-1.598 1.33-3.2 1.924-4.831.854-2.344 1.486-4.764 1.832-7.266.231-1.674.32-3.356.173-5.047-.158-1.81-.587-3.533-1.395-5.134-.218-.434-.114-.913.244-1.14.361-.228.794-.081 1.019.355.678 1.32 1.122 2.735 1.378 4.22.346 2.003.341 4.017.131 6.037-.235 2.255-.73 4.446-1.381 6.6-.039.127-.022.191.086.264 2.34 1.577 4.84 2.708 7.544 3.278 3.261.687 6.462.39 9.611-.72a21.446 21.446 0 0 0 4.943-2.519c.112-.076.136-.14.093-.281-.622-2.046-1.104-4.129-1.35-6.269-.289-2.503-.283-4.996.316-7.456.271-1.114.65-2.182 1.174-3.185.173-.331.452-.469.784-.408a.704.704 0 0 1 .558.625c.02.18-.005.398-.083.555-.968 1.929-1.398 4.007-1.465 6.19-.076 2.44.267 4.825.833 7.177.685 2.847 1.679 5.565 2.837 8.218.66 1.513 1.218 3.07 1.567 4.709a20.94 20.94 0 0 1 .45 3.841c.082 3.224-.45 6.346-1.325 9.408a41.14 41.14 0 0 1-2.545 6.607c-.041.086-.082.172-.126.255-.212.408-.628.55-.993.344-.353-.2-.482-.679-.29-1.095.128-.278.264-.551.394-.828a38.68 38.68 0 0 0 2.642-7.562c.431-1.842.704-3.708.773-5.61.07-1.922-.088-3.814-.542-5.675-.031-.127-.064-.207-.21-.199-1.414.086-2.808.309-4.17.74-2.252.713-4.296 1.875-6.159 3.422a19.794 19.794 0 0 0-3.355 3.536.721.721 0 0 0-.124.39c-.009 2.013-.006 4.028-.006 6.042v-.002ZM45.788 37.31c-7.772 4.967-15.55 4.948-23.304-.038l-2.56 6.338c5.78.433 10.415 3.252 14.212 7.852 3.804-4.614 8.435-7.422 14.203-7.852l-2.551-6.299Z"/><path fill="#3881C5" d="M50.187 26.366h7.02c.42 0 .704.226.79.625.101.462-.206.922-.64.956-.088.006-.177.003-.266.003h-6.705c-.066 0-.133.007-.257.013.23.252.439.45.614.681.112.148.213.333.249.518a.749.749 0 0 1-.382.804c-.283.153-.603.103-.84-.152-.538-.576-1.07-1.16-1.605-1.74-.107-.117-.216-.233-.323-.352-.276-.308-.299-.781-.026-1.086.648-.721 1.304-1.433 1.966-2.138a.677.677 0 0 1 1.025.02.852.852 0 0 1-.02 1.122c-.202.228-.415.444-.623.665l.024.061h-.002ZM18.07 27.95h-7.058c-.388 0-.657-.218-.747-.597-.114-.482.207-.948.68-.985.056-.004.114-.002.17-.002h6.962l.03-.06c-.203-.214-.42-.412-.604-.645a1.212 1.212 0 0 1-.234-.502.756.756 0 0 1 .373-.793c.297-.163.62-.107.872.163.46.494.917.993 1.375 1.49.175.19.352.38.524.574a.833.833 0 0 1-.01 1.147 903.72 903.72 0 0 1-1.87 2.036c-.324.35-.773.367-1.07.046-.29-.316-.274-.823.042-1.17.196-.216.398-.423.596-.635l-.028-.067h-.002Zm15.339 3.921c0-.242-.003-.484 0-.726.005-.433.322-.777.715-.782.39-.004.719.341.724.771.006.498.005.997 0 1.495-.004.433-.326.78-.715.785-.395.005-.72-.35-.725-.796-.003-.248 0-.498 0-.748v.001Z"/></svg>