<svg width="255" height="269" fill="none" xmlns="http://www.w3.org/2000/svg"><rect x=".627" y=".8" width="253.831" height="267.6" rx="6" fill="#fff"/><mask id="a" style="mask-type:luminance" maskUnits="userSpaceOnUse" x="178" y="128" width="62" height="57"><path d="M239.179 128h-60.368v56.172h60.368V128Z" fill="#fff"/></mask><g mask="url(#a)" fill="#E9F3FE"><path d="M198.435 173.654h10.347c.107.83.277 1.639.506 2.426h-10.853c-.037 0-.066-.028-.066-.06v-2.302c0-.035.029-.064.066-.064Zm-12.948-42.182h10.886c2.956-2.231 6.829-3.351 10.683-3.351s7.727 1.117 10.683 3.351h10.827c1.799 0 3.436.709 4.622 1.847 1.187 1.139 1.922 2.71 1.922 4.44v19.554a17.007 17.007 0 0 0-1.995-1.007v-18.547c0-1.202-.514-2.294-1.338-3.085a4.633 4.633 0 0 0-3.211-1.284h-11.174a1.033 1.033 0 0 1-.636-.227c-2.616-2.081-6.152-3.124-9.704-3.124-3.551 0-7.024 1.025-9.633 3.071a.998.998 0 0 1-.702.28h-11.23a4.64 4.64 0 0 0-3.214 1.284 4.272 4.272 0 0 0-1.334 3.085v37.583a4.28 4.28 0 0 0 1.334 3.086 4.655 4.655 0 0 0 3.214 1.28h25.364c.388.67.828 1.312 1.304 1.918h-26.668a6.678 6.678 0 0 1-4.626-1.847c-1.186-1.139-1.922-2.71-1.922-4.44v-37.58c0-1.73.736-3.301 1.922-4.44a6.67 6.67 0 0 1 4.626-1.847Zm21.702 2.326c3.134 0 5.972 1.22 8.026 3.192 2.055 1.971 3.326 4.695 3.326 7.702 0 3.007-1.271 5.731-3.326 7.703-2.054 1.971-4.892 3.191-8.026 3.191-3.133 0-5.975-1.22-8.026-3.191-2.054-1.972-3.325-4.696-3.325-7.703 0-3.007 1.271-5.731 3.325-7.702 2.051-1.972 4.893-3.192 8.026-3.192Zm6.478 5.444a.719.719 0 0 1-.983 0 .651.651 0 0 1 0-.944l.946-.904a10.16 10.16 0 0 0-5.827-2.248v1.581a.68.68 0 0 1-.695.667.68.68 0 0 1-.695-.667v-1.567a10.15 10.15 0 0 0-5.772 2.326l1.079 1.036a.65.65 0 0 1 0 .943.708.708 0 0 1-.979 0l-1.079-1.035a9.327 9.327 0 0 0-2.409 5.56h1.692a.68.68 0 0 1 .695.667c0 .369-.311.666-.695.666h-1.7a9.332 9.332 0 0 0 2.391 5.614l1.064-1.018a.719.719 0 0 1 .983 0c.27.259.27.681 0 .944l-1.068 1.025a10.153 10.153 0 0 0 5.879 2.354v-1.294c0-.365.311-.667.695-.667a.68.68 0 0 1 .695.667v1.294a10.157 10.157 0 0 0 5.901-2.369l-1.02-.978a.651.651 0 0 1 0-.944.716.716 0 0 1 .983 0l1.013.972a9.34 9.34 0 0 0 2.383-5.678h-1.567a.68.68 0 0 1-.694-.666.68.68 0 0 1 .694-.667h1.549a9.35 9.35 0 0 0-2.495-5.582l-.957.919-.007-.007Zm-5.791 6.468a.896.896 0 0 1-1.226.082.813.813 0 0 1-.082-1.178l3.618-3.972a.898.898 0 0 1 1.227-.078c.362.302.399.83.085 1.178l-3.622 3.968Zm19.788-8.504c1.046 0 1.896.812 1.896 1.816 0 1.003-.85 1.812-1.896 1.812-1.046 0-1.892-.812-1.892-1.812s.846-1.816 1.892-1.816Zm-41.268 0c1.046 0 1.892.812 1.892 1.816 0 1.003-.846 1.812-1.892 1.812-1.045 0-1.892-.812-1.892-1.812s.847-1.816 1.892-1.816Zm44.457 32.909h-2.176v-3.269c0-.366-.314-.671-.699-.671h-3.857a.686.686 0 0 0-.695.671v3.266h-2.177c-.838 0-1.26.957-.702 1.539l4.811 5.39a.986.986 0 0 0 1.46.018l4.759-5.426c.54-.596.082-1.518-.724-1.518Zm8.207 1.451c0 3.447-1.459 6.571-3.81 8.826-2.35 2.256-5.605 3.656-9.193 3.656-3.588 0-6.844-1.397-9.194-3.656-2.35-2.255-3.81-5.379-3.81-8.826 0-3.447 1.456-6.564 3.81-8.823 2.35-2.259 5.606-3.657 9.194-3.657 3.588 0 6.843 1.398 9.193 3.657 2.351 2.255 3.81 5.379 3.81 8.823Zm-52.66 1.482c1.046 0 1.892.812 1.892 1.812s-.846 1.819-1.892 1.819c-1.046 0-1.892-.812-1.892-1.819s.846-1.812 1.892-1.812Z"/><path d="M198.435 173.654h10.347c.107.83.277 1.639.506 2.426h-10.853c-.037 0-.066-.028-.066-.06v-2.302c0-.035.029-.06.066-.06v-.004Zm-12.948-42.182h10.886c2.956-2.231 6.829-3.351 10.683-3.351s7.727 1.117 10.683 3.351h10.827c1.799 0 3.436.709 4.622 1.847 1.187 1.139 1.922 2.71 1.922 4.44v19.554a17.007 17.007 0 0 0-1.995-1.007v-18.547c0-1.202-.514-2.294-1.338-3.085a4.633 4.633 0 0 0-3.211-1.284h-11.174a1.033 1.033 0 0 1-.636-.227c-2.616-2.081-6.152-3.124-9.704-3.124-3.551 0-7.024 1.025-9.633 3.071a.998.998 0 0 1-.702.28h-11.23a4.64 4.64 0 0 0-3.214 1.284 4.272 4.272 0 0 0-1.334 3.085v37.583a4.28 4.28 0 0 0 1.334 3.086 4.655 4.655 0 0 0 3.214 1.28h25.364c.388.67.828 1.312 1.304 1.918h-26.668a6.678 6.678 0 0 1-4.626-1.847c-1.186-1.139-1.922-2.71-1.922-4.44v-37.58c0-1.73.736-3.301 1.922-4.44a6.67 6.67 0 0 1 4.626-1.847Zm21.702 2.326c3.134 0 5.972 1.22 8.026 3.192 2.055 1.971 3.326 4.695 3.326 7.702 0 3.007-1.271 5.731-3.326 7.703-2.054 1.971-4.892 3.191-8.026 3.191-3.133 0-5.975-1.22-8.026-3.191-2.054-1.972-3.325-4.696-3.325-7.703 0-3.007 1.271-5.731 3.325-7.702 2.051-1.972 4.893-3.192 8.026-3.192Zm6.478 5.444a.719.719 0 0 1-.983 0 .651.651 0 0 1 0-.944l.946-.904a10.16 10.16 0 0 0-5.827-2.248v1.581a.68.68 0 0 1-.695.667.68.68 0 0 1-.695-.667v-1.567a10.15 10.15 0 0 0-5.772 2.326l1.079 1.036a.65.65 0 0 1 0 .943.708.708 0 0 1-.979 0l-1.079-1.035a9.327 9.327 0 0 0-2.409 5.56h1.692a.68.68 0 0 1 .695.667c0 .369-.311.666-.695.666h-1.7a9.332 9.332 0 0 0 2.391 5.614l1.064-1.018a.719.719 0 0 1 .983 0c.27.259.27.681 0 .944l-1.068 1.025a10.153 10.153 0 0 0 5.879 2.354v-1.294c0-.365.311-.667.695-.667a.68.68 0 0 1 .695.667v1.294a10.157 10.157 0 0 0 5.901-2.369l-1.02-.978a.651.651 0 0 1 0-.944.716.716 0 0 1 .983 0l1.013.972a9.34 9.34 0 0 0 2.383-5.678h-1.567a.68.68 0 0 1-.694-.666.68.68 0 0 1 .694-.667h1.549a9.35 9.35 0 0 0-2.495-5.582l-.957.919-.007-.007Zm-5.791 6.468a.896.896 0 0 1-1.226.082.813.813 0 0 1-.082-1.178l3.618-3.972a.898.898 0 0 1 1.227-.078c.362.302.399.83.085 1.178l-3.618 3.968h-.004Zm19.788-8.504c1.046 0 1.896.812 1.896 1.816 0 1.003-.85 1.812-1.896 1.812-1.046 0-1.892-.812-1.892-1.812s.846-1.816 1.892-1.816Zm-41.268 0c1.046 0 1.892.812 1.892 1.816 0 1.003-.846 1.812-1.892 1.812-1.045 0-1.892-.812-1.892-1.812s.847-1.816 1.892-1.816Zm44.457 32.909h-2.176v-3.269c0-.366-.314-.671-.699-.671h-3.857a.686.686 0 0 0-.695.671v3.266h-2.177c-.838 0-1.26.957-.702 1.539l4.811 5.39a.986.986 0 0 0 1.46.018l4.759-5.426c.54-.596.085-1.518-.72-1.518h-.004Zm8.203 1.451c0 3.447-1.459 6.571-3.809 8.826-2.35 2.256-5.606 3.656-9.194 3.656-3.588 0-6.843-1.397-9.194-3.656-2.35-2.255-3.809-5.379-3.809-8.826 0-3.447 1.456-6.564 3.809-8.823 2.351-2.259 5.606-3.657 9.194-3.657 3.588 0 6.844 1.398 9.194 3.657 2.35 2.255 3.809 5.379 3.809 8.823Zm-52.66 1.482c1.046 0 1.892.812 1.892 1.812s-.846 1.819-1.892 1.819c-1.045 0-1.892-.812-1.892-1.819s.847-1.812 1.892-1.812Z" stroke="#EEF6FE" stroke-width=".1" stroke-miterlimit="10"/></g></svg>