<svg width="30" height="28" fill="none" xmlns="http://www.w3.org/2000/svg"><ellipse cx="14.893" cy="13.85" rx="14.432" ry="13.85" fill="#fff"/><mask id="a" style="mask-type:luminance" maskUnits="userSpaceOnUse" x="7" y="7" width="16" height="16"><path d="M22.318 7.226H7.34V22.08h14.978V7.226Z" fill="#fff"/></mask><g mask="url(#a)"><path d="M16.7 11.542c0 .493-.197.966-.548 1.315a1.878 1.878 0 0 1-2.647 0 1.854 1.854 0 0 1 0-2.63 1.878 1.878 0 0 1 2.647 0c.351.349.548.822.548 1.315Zm-4.815.757a19.84 19.84 0 0 1-.379-2.82 26.299 26.299 0 0 1 6.646.006c-.016.55-.087 1.733-.3 2.831-.124.645-.286 1.2-.48 1.571-.133.253-.224.325-.254.341h-4.52a1.355 1.355 0 0 1-.21-.328c-.193-.385-.363-.952-.503-1.6M9.04 7.605a.413.413 0 0 0-.45-.377l-.83.07a.408.408 0 0 0-.378.446l.137 1.6a.4.4 0 0 0-.14.164.405.405 0 0 0 .036.41.42.42 0 0 0 .164.139l.146 1.703a.423.423 0 0 0 .146.281.42.42 0 0 0 .142.078.403.403 0 0 0 .161.018l.829-.07a.412.412 0 0 0 .379-.446l-.154-1.796c.212-.038.42-.073.626-.108.044.682.171 1.838.404 2.928.15.694.355 1.42.64 1.99.141.284.324.575.568.805.215.203.507.383.866.43v1.79l-.135-.048-.093-.033c-.418-.148-.843-.3-1.167-.381a1.93 1.93 0 0 0-.63-.07c-.2.015-.39.09-.547.213a.925.925 0 0 0-.34.717c0 .34.116 1.215.216 1.913.06.431.125.863.192 1.294l.014.086.004.023v.008a.834.834 0 0 0 1.652-.067l.155-2.14c.462.165 1.001.354 1.535.503.53.148 1.111.273 1.643.273.531 0 1.111-.125 1.64-.273a23.349 23.349 0 0 0 1.524-.499l.165 2.14a.822.822 0 0 0 .254.532.837.837 0 0 0 1.104.043.83.83 0 0 0 .294-.511v-.01l.005-.022.014-.087.048-.311c.038-.26.091-.612.144-.982.1-.699.216-1.574.216-1.913a.913.913 0 0 0-.34-.717 1 1 0 0 0-.547-.213 1.962 1.962 0 0 0-.63.07c-.324.082-.748.233-1.166.38l-.093.034-.136.048v-1.788c.787-.088 1.264-.72 1.526-1.225.305-.584.504-1.32.638-2.019.212-1.09.295-2.235.321-2.906.203.033.409.068.618.105l-.153 1.793a.411.411 0 0 0 .38.446l.829.07a.422.422 0 0 0 .303-.096.415.415 0 0 0 .146-.281l.146-1.703a.416.416 0 0 0 .238-.34.423.423 0 0 0-.177-.374l.136-1.599a.416.416 0 0 0-.38-.446l-.828-.07a.417.417 0 0 0-.45.377L20.5 9c-.266-.046-.525-.09-.78-.13a.834.834 0 0 0-1.316-.187c-2.528-.317-4.669-.316-7.153-.004a.843.843 0 0 0-.7-.227.834.834 0 0 0-.608.415c-.257.04-.517.084-.784.131L9.04 7.604v.001Z" fill="#163949"/></g></svg>