<svg width="254" height="269" fill="none" xmlns="http://www.w3.org/2000/svg"><rect x=".082" y=".8" width="253.831" height="267.6" rx="6" fill="#fff"/><mask id="a" style="mask-type:luminance" maskUnits="userSpaceOnUse" x="186" y="198" width="62" height="60"><path d="M247.038 198h-60.436v59.448h60.436V198Z" fill="#fff"/></mask><g mask="url(#a)"><path d="M224.372 215.273a7.392 7.392 0 0 1-2.212 5.264 7.61 7.61 0 0 1-5.341 2.181 7.602 7.602 0 0 1-5.34-2.181 7.392 7.392 0 0 1-2.212-5.264 7.39 7.39 0 0 1 2.212-5.264 7.61 7.61 0 0 1 5.34-2.182 7.61 7.61 0 0 1 5.341 2.182 7.39 7.39 0 0 1 2.212 5.264Zm-19.428 3.03a79.213 79.213 0 0 1-1.531-11.288c9.285-1.113 17.368-1.113 26.817.024-.064 2.201-.349 6.937-1.207 11.332-.505 2.582-1.157 4.8-1.943 6.289-.534 1.013-.9 1.301-1.022 1.365H207.82c-.193-.2-.496-.605-.849-1.313-.778-1.541-1.463-3.811-2.027-6.405m-11.484-18.79a1.65 1.65 0 0 0-.589-1.125 1.7 1.7 0 0 0-1.228-.384l-3.347.28c-.219.02-.433.08-.626.176-.198.1-.371.236-.514.405a1.69 1.69 0 0 0-.315.564 1.584 1.584 0 0 0-.071.641l.55 6.4a1.61 1.61 0 0 0-.559.657 1.61 1.61 0 0 0-.151.84 1.648 1.648 0 0 0 .954 1.357l.589 6.818c.021.216.08.428.181.62a1.669 1.669 0 0 0 .98.817c.21.068.433.092.652.072l3.343-.281a1.668 1.668 0 0 0 1.139-.58c.286-.336.429-.769.391-1.205l-.622-7.189c.858-.152 1.699-.292 2.527-.433.177 2.73.69 7.358 1.632 11.721.601 2.778 1.43 5.68 2.578 7.962.571 1.137 1.311 2.302 2.295 3.223.867.812 2.044 1.533 3.495 1.721v7.165l-.547-.192-.374-.132c-1.686-.592-3.402-1.201-4.71-1.525-.635-.16-1.593-.364-2.54-.28a4.1 4.1 0 0 0-2.207.852 3.725 3.725 0 0 0-1.018 1.281 3.58 3.58 0 0 0-.357 1.589c0 1.361.471 4.864.874 7.658.244 1.725.505 3.451.774 5.176l.055.344.017.092v.024l.004.008c.13.801.551 1.53 1.19 2.042.635.516 1.442.78 2.266.748a3.385 3.385 0 0 0 2.195-.924 3.299 3.299 0 0 0 1.014-2.134l.622-8.562c1.863.66 4.041 1.417 6.194 2.013 2.137.593 4.483 1.093 6.628 1.093 2.144 0 4.487-.5 6.623-1.093 2.132-.588 4.289-1.345 6.143-1.997l.669 8.562a3.28 3.28 0 0 0 1.022 2.13 3.393 3.393 0 0 0 4.457.172 3.313 3.313 0 0 0 1.186-2.046v-.036l.021-.092.055-.348.193-1.245c.156-1.037.37-2.446.581-3.927.403-2.798.874-6.301.874-7.658 0-.976-.387-2.081-1.375-2.87a4.057 4.057 0 0 0-2.208-.852c-.941-.084-1.904.124-2.539.28-1.308.328-3.02.933-4.706 1.525l-.374.132-.547.192v-7.157c3.175-.352 5.097-2.882 6.156-4.9 1.228-2.338 2.031-5.288 2.574-8.082.854-4.363 1.19-8.947 1.295-11.633.82.133 1.649.273 2.494.421l-.618 7.177c-.038.436.105.873.391 1.205.286.336.698.544 1.143.58l3.344.281a1.67 1.67 0 0 0 1.812-1.509l.589-6.818c.265-.124.496-.312.664-.552a1.634 1.634 0 0 0 .139-1.645 1.7 1.7 0 0 0-.559-.657l.55-6.4a1.66 1.66 0 0 0-.391-1.205 1.753 1.753 0 0 0-.513-.405c-.193-.1-.408-.16-.626-.176l-3.343-.28c-.446-.036-.883.1-1.224.384-.341.28-.551.689-.589 1.125l-.483 5.584c-1.073-.184-2.12-.36-3.15-.52a3.366 3.366 0 0 0-2.468-1.677 3.39 3.39 0 0 0-2.839.928c-10.201-1.269-18.839-1.265-28.864-.016a3.41 3.41 0 0 0-1.303-.78 3.439 3.439 0 0 0-1.523-.128c-.508.072-.996.26-1.421.548a3.335 3.335 0 0 0-1.03 1.113c-1.035.16-2.086.336-3.162.524l-.48-5.576-.004.004Z" fill="#EEF6FE"/></g></svg>