<svg width="30" height="28" fill="none" xmlns="http://www.w3.org/2000/svg"><ellipse cx="15.3" cy="13.8" rx="14.38" ry="13.8" fill="#fff"/><mask id="a" style="mask-type:luminance" maskUnits="userSpaceOnUse" x="7" y="6" width="18" height="16"><path d="M24.052 6H7.172v15.6h16.88V6Z" fill="#fff"/></mask><g mask="url(#a)"><path d="M7.172 17.345h11.51v1.419H7.171v-1.42Zm11.532-1.418c0-5.673-11.532-5.673-11.532 0h11.532ZM7.172 20.891v-.71h11.532v.71c0 .382-.345.709-.79.709H7.94c-.423 0-.768-.327-.768-.709Zm13.09.709h1.273c.644 0 1.174-.46 1.25-1.043l1.266-11.685h-3.836V6h-1.512v2.872H14.89l.23 1.66c1.312.332 2.539.934 3.276 1.601 1.105 1.007 1.865 2.049 1.865 3.75V21.6Z" fill="#163949"/></g></svg>