<svg width="28" height="27" fill="none" xmlns="http://www.w3.org/2000/svg"><ellipse cx="13.958" cy="13.35" rx="13.911" ry="13.35" fill="#fff"/><mask id="a" style="mask-type:luminance" maskUnits="userSpaceOnUse" x="6" y="6" width="16" height="15"><path d="M21.817 6.264H6.092v14.632h15.725V6.264Z" fill="#fff"/></mask><g mask="url(#a)" fill="#163949"><path d="M11.203 18.156H13.9c.028.216.072.427.131.632h-2.827c-.01 0-.017-.007-.017-.016v-.6c0-.009.008-.016.017-.016ZM7.831 7.168h2.835c.77-.58 1.78-.873 2.783-.873 1.004 0 2.013.291 2.783.873h2.82c.469 0 .895.185 1.204.481.31.297.5.706.5 1.157V13.9a4.452 4.452 0 0 0-.52-.263V8.806c0-.313-.133-.598-.348-.804a1.207 1.207 0 0 0-.836-.334h-2.91a.27.27 0 0 1-.166-.06c-.682-.542-1.603-.813-2.528-.813s-1.83.267-2.51.8a.26.26 0 0 1-.182.073H7.83a1.21 1.21 0 0 0-.838.334c-.213.205-.347.49-.347.804v9.79c0 .313.134.598.347.803.215.206.512.334.838.334h6.607c.1.174.215.342.34.5H7.83c-.47 0-.897-.185-1.205-.482a1.6 1.6 0 0 1-.501-1.156v-9.79c0-.45.192-.86.5-1.156a1.738 1.738 0 0 1 1.206-.48Zm5.653.606a3.01 3.01 0 0 1 2.09.831c.536.514.867 1.224.867 2.007 0 .783-.331 1.493-.867 2.006a3.01 3.01 0 0 1-2.09.832 3.01 3.01 0 0 1-2.091-.832 2.773 2.773 0 0 1-.866-2.006c0-.783.33-1.493.866-2.007a3.01 3.01 0 0 1 2.09-.83Zm1.687 1.418a.187.187 0 0 1-.256 0 .17.17 0 0 1 0-.246l.246-.235a2.646 2.646 0 0 0-1.518-.586v.412c0 .096-.08.174-.18.174a.177.177 0 0 1-.181-.174V8.13a2.642 2.642 0 0 0-1.504.606l.281.27a.17.17 0 0 1 0 .245.184.184 0 0 1-.255 0l-.281-.27a2.43 2.43 0 0 0-.628 1.449h.441c.1 0 .181.078.181.174 0 .096-.08.173-.18.173h-.444a2.43 2.43 0 0 0 .623 1.463l.277-.266a.187.187 0 0 1 .257 0 .17.17 0 0 1 0 .246l-.279.267c.414.35.946.575 1.532.614v-.338c0-.095.08-.173.18-.173.1 0 .182.077.182.173v.338a2.645 2.645 0 0 0 1.537-.618l-.266-.255a.17.17 0 0 1 0-.245.186.186 0 0 1 .256 0l.264.253a2.43 2.43 0 0 0 .62-1.479h-.407a.177.177 0 0 1-.181-.174c0-.096.08-.173.18-.173h.404a2.434 2.434 0 0 0-.65-1.454l-.249.239-.002-.002Zm-1.508 1.685a.234.234 0 0 1-.32.021.212.212 0 0 1-.021-.306l.942-1.035a.234.234 0 0 1 .32-.02.212.212 0 0 1 .022.306l-.943 1.034Zm5.154-2.215c.273 0 .494.211.494.473a.483.483 0 0 1-.494.472.483.483 0 0 1-.493-.472c0-.26.22-.473.493-.473Zm-10.75 0c.273 0 .493.211.493.473 0 .261-.22.472-.493.472a.483.483 0 0 1-.492-.472c0-.26.22-.473.492-.473Zm11.58 8.572h-.566v-.852a.18.18 0 0 0-.182-.174h-1.005c-.1 0-.18.078-.18.175v.85h-.568c-.218 0-.328.25-.183.401l1.253 1.404c.1.115.279.115.38.005l1.24-1.413c.141-.156.022-.396-.188-.396Zm2.139.378a3.18 3.18 0 0 1-.993 2.3 3.452 3.452 0 0 1-2.395.952 3.448 3.448 0 0 1-2.394-.953 3.18 3.18 0 0 1-.993-2.299c0-.898.38-1.71.993-2.298a3.448 3.448 0 0 1 2.394-.953c.935 0 1.783.364 2.395.953.613.587.993 1.401.993 2.298Zm-13.718.386c.273 0 .493.212.493.472s-.22.474-.493.474a.483.483 0 0 1-.492-.474c0-.262.22-.472.492-.472Z"/><path d="M11.203 18.156H13.9c.028.216.072.427.131.632h-2.827c-.01 0-.017-.007-.017-.016v-.6c0-.009.008-.016.017-.016ZM7.831 7.168h2.835c.77-.58 1.78-.873 2.783-.873 1.004 0 2.013.291 2.783.873h2.82c.469 0 .895.185 1.204.481.31.297.5.706.5 1.157V13.9a4.452 4.452 0 0 0-.52-.263V8.806c0-.313-.133-.598-.348-.804a1.207 1.207 0 0 0-.836-.334h-2.91a.27.27 0 0 1-.166-.06c-.682-.542-1.603-.813-2.528-.813s-1.83.267-2.51.8a.26.26 0 0 1-.182.073H7.83a1.21 1.21 0 0 0-.838.334c-.213.205-.347.49-.347.804v9.79c0 .313.134.598.347.803.215.206.512.334.838.334h6.607c.1.174.215.342.34.5H7.83c-.47 0-.897-.185-1.205-.482a1.6 1.6 0 0 1-.501-1.156v-9.79c0-.45.192-.86.5-1.156a1.738 1.738 0 0 1 1.206-.48Zm5.653.606a3.01 3.01 0 0 1 2.09.831c.536.514.867 1.224.867 2.007 0 .783-.331 1.493-.867 2.006a3.01 3.01 0 0 1-2.09.832 3.01 3.01 0 0 1-2.091-.832 2.773 2.773 0 0 1-.866-2.006c0-.783.33-1.493.866-2.007a3.01 3.01 0 0 1 2.09-.83Zm1.687 1.418a.187.187 0 0 1-.256 0 .17.17 0 0 1 0-.246l.246-.235a2.646 2.646 0 0 0-1.518-.586v.412c0 .096-.08.174-.18.174a.177.177 0 0 1-.181-.174V8.13a2.642 2.642 0 0 0-1.504.606l.281.27a.17.17 0 0 1 0 .245.184.184 0 0 1-.255 0l-.281-.27a2.43 2.43 0 0 0-.628 1.449h.441c.1 0 .181.078.181.174 0 .096-.08.173-.18.173h-.444a2.43 2.43 0 0 0 .623 1.463l.277-.266a.187.187 0 0 1 .257 0 .17.17 0 0 1 0 .246l-.279.267c.414.35.946.575 1.532.614v-.338c0-.095.08-.173.18-.173.1 0 .182.077.182.173v.338a2.645 2.645 0 0 0 1.537-.618l-.266-.255a.17.17 0 0 1 0-.245.186.186 0 0 1 .256 0l.264.253a2.43 2.43 0 0 0 .62-1.479h-.407a.177.177 0 0 1-.181-.174c0-.096.08-.173.18-.173h.404a2.434 2.434 0 0 0-.65-1.454l-.249.239-.002-.002Zm-1.508 1.685a.234.234 0 0 1-.32.021.212.212 0 0 1-.021-.306l.942-1.035a.234.234 0 0 1 .32-.02.212.212 0 0 1 .022.306l-.943 1.034Zm5.154-2.215c.273 0 .494.211.494.473a.483.483 0 0 1-.494.472.483.483 0 0 1-.493-.472c0-.26.22-.473.493-.473Zm-10.75 0c.273 0 .493.211.493.473 0 .261-.22.472-.493.472a.483.483 0 0 1-.492-.472c0-.26.22-.473.492-.473Zm11.58 8.572h-.566v-.852a.18.18 0 0 0-.182-.174h-1.005c-.1 0-.18.078-.18.175v.85h-.568c-.218 0-.328.25-.183.401l1.253 1.404c.1.115.279.115.38.005l1.24-1.413c.141-.156.022-.396-.188-.396Zm2.138.378a3.18 3.18 0 0 1-.993 2.3 3.452 3.452 0 0 1-2.395.952 3.448 3.448 0 0 1-2.394-.953 3.18 3.18 0 0 1-.993-2.299c0-.898.38-1.71.993-2.298a3.448 3.448 0 0 1 2.395-.953c.934 0 1.782.364 2.394.953.612.587.993 1.401.993 2.298Zm-13.718.386c.273 0 .493.212.493.472s-.22.474-.493.474a.483.483 0 0 1-.492-.474c0-.262.22-.472.492-.472Z" stroke="#163949" stroke-width=".5" stroke-miterlimit="10"/></g></svg>