<svg width="77" height="59" fill="none" xmlns="http://www.w3.org/2000/svg"><mask id="a" style="mask-type:luminance" maskUnits="userSpaceOnUse" x="0" y="0" width="77" height="59"><path d="M76.324 0H.553v58.173h75.77V0Z" fill="#fff"/></mask><g mask="url(#a)"><path d="M40.39 21.662v6.597c0 4.682-3.937 8.476-8.795 8.476-4.858 0-8.795-3.794-8.795-8.476V14.296c-4.385.735-8.041 3.803-9.286 8.032l-2.017 6.785-8.944 8.613c-2.675 2.58-2.675 6.75 0 9.323l9.54 9.194c2.675 2.58 6.998 2.58 9.672 0l4.604-4.435c.114 0 .219.009.333.009h19.546c3.235 0 5.866-2.53 5.866-5.648 0-.658-.123-1.3-.333-1.889h.333c3.236 0 5.866-2.53 5.866-5.648 0-1.512-.614-2.871-1.613-3.888 3.139-.59 5.507-3.247 5.524-6.451v-.052c-.009-3.623-3.07-6.57-6.84-6.57H40.39v-.01Zm25.412 6.597v.384l8.514-8.203c2.675-2.58 2.675-6.742 0-9.323l-9.54-9.177c-2.675-2.58-6.998-2.58-9.672 0l-4.902 4.717a9.998 9.998 0 0 0-1.017-.06h-13.68c-4.533 0-8.26 3.299-8.742 7.537h-.052v14.125c0 2.597 2.183 4.708 4.884 4.708 2.7 0 4.884-2.11 4.884-4.708V17.902h19.546c5.401 0 9.777 4.213 9.777 9.416v.94Z" fill="#EEF6FE"/></g></svg>