<svg width="88" height="83" viewBox="0 0 88 83" fill="none" xmlns="http://www.w3.org/2000/svg">
<path d="M62.6363 19.9821L42.8118 16.9514C42.0311 16.8321 41.2342 16.8779 40.4723 17.0858C39.7105 17.2936 39.0007 17.659 38.3888 18.1581L4.37904 45.9155C3.80107 46.387 3.3223 46.9684 2.97041 47.6261C2.61852 48.2838 2.40048 49.0047 2.3289 49.7472C2.25732 50.4897 2.33363 51.239 2.55341 51.9517C2.77318 52.6645 3.13207 53.3267 3.60932 53.9L23.4946 77.7913C23.9693 78.3619 24.5518 78.8332 25.2089 79.1784C25.8659 79.5235 26.5846 79.7357 27.3237 79.8028C28.0629 79.8698 28.808 79.7904 29.5165 79.5691C30.2249 79.3478 30.8827 78.9889 31.4523 78.5131L65.0248 50.466C65.6458 49.9491 66.1485 49.3049 66.4989 48.5769C66.8493 47.8489 67.0393 47.0541 67.056 46.2463L67.4353 25.6757C67.4619 24.3061 66.9898 22.9735 66.1069 21.9261C65.2241 20.8786 63.9906 20.1878 62.6363 19.9821ZM60.3666 28.874C60.6438 29.7522 60.6544 30.6928 60.397 31.577C60.1396 32.4612 59.6258 33.2492 58.9205 33.8414C58.2152 34.4336 57.3502 34.8033 56.4348 34.9038C55.5194 35.0044 54.5948 34.8312 53.7778 34.4062C52.9608 33.9812 52.2882 33.3235 51.8451 32.5162C51.4019 31.7089 51.2081 30.7884 51.2882 29.871C51.3682 28.9535 51.7185 28.0805 52.2948 27.3621C52.871 26.6438 53.6474 26.1125 54.5256 25.8354C55.7016 25.4652 56.9765 25.5765 58.0705 26.145C59.1645 26.7135 59.9884 27.6927 60.3615 28.8678L60.3666 28.874Z" fill="#FF725E"/>
<g opacity="0.4">
<path d="M62.6363 19.9821L42.8118 16.9514C42.0311 16.8321 41.2342 16.8779 40.4723 17.0858C39.7105 17.2936 39.0007 17.659 38.3888 18.1581L4.37904 45.9155C3.80107 46.387 3.3223 46.9684 2.97041 47.6261C2.61852 48.2838 2.40048 49.0047 2.3289 49.7472C2.25732 50.4897 2.33363 51.239 2.55341 51.9517C2.77318 52.6645 3.13207 53.3267 3.60932 53.9L23.4946 77.7913C23.9693 78.3619 24.5518 78.8332 25.2089 79.1784C25.8659 79.5235 26.5846 79.7357 27.3237 79.8028C28.0629 79.8698 28.808 79.7904 29.5165 79.5691C30.2249 79.3478 30.8827 78.9889 31.4523 78.5131L65.0248 50.466C65.6458 49.9491 66.1485 49.3049 66.4989 48.5769C66.8493 47.8489 67.0393 47.0541 67.056 46.2463L67.4353 25.6757C67.4619 24.3061 66.9898 22.9735 66.1069 21.9261C65.2241 20.8786 63.9906 20.1878 62.6363 19.9821ZM60.3666 28.874C60.6438 29.7522 60.6544 30.6928 60.397 31.577C60.1396 32.4612 59.6258 33.2492 58.9205 33.8414C58.2152 34.4336 57.3502 34.8033 56.4348 34.9038C55.5194 35.0044 54.5948 34.8312 53.7778 34.4062C52.9608 33.9812 52.2882 33.3235 51.8451 32.5162C51.4019 31.7089 51.2081 30.7884 51.2882 29.871C51.3682 28.9535 51.7185 28.0805 52.2948 27.3621C52.871 26.6438 53.6474 26.1125 54.5256 25.8354C55.7016 25.4652 56.9765 25.5765 58.0705 26.145C59.1645 26.7135 59.9884 27.6927 60.3615 28.8678L60.3666 28.874Z" fill="black"/>
</g>
<path d="M64.4153 18.5086L44.5862 15.4816C43.8056 15.3627 43.0087 15.4086 42.2469 15.6164C41.4851 15.8243 40.7753 16.1895 40.1633 16.6884L6.15347 44.4458C5.57527 44.9172 5.0963 45.4985 4.74425 46.1562C4.3922 46.8139 4.17407 47.5349 4.10249 48.2774C4.0309 49.0199 4.10728 49.7693 4.32721 50.4821C4.54714 51.195 4.90624 51.8571 5.38374 52.4302L25.2675 76.3229C25.7434 76.8945 26.3275 77.3665 26.9864 77.7117C27.6452 78.057 28.3658 78.2686 29.1067 78.3345C29.8476 78.4003 30.5942 78.3192 31.3036 78.0956C32.013 77.8721 32.6713 77.5106 33.2406 77.0319L66.8115 48.9861C67.4323 48.469 67.9349 47.8247 68.2853 47.0968C68.6357 46.3688 68.8258 45.5741 68.8428 44.7664L69.2205 24.197C69.2461 22.8273 68.7727 21.4949 67.8886 20.4484C67.0045 19.4018 65.7701 18.7124 64.4153 18.5086ZM62.1472 27.3992C62.4244 28.2773 62.435 29.218 62.1776 30.1022C61.9202 30.9864 61.4063 31.7744 60.7011 32.3666C59.9958 32.9588 59.1308 33.3285 58.2154 33.429C57.3 33.5295 56.3754 33.3563 55.5584 32.9314C54.7414 32.5064 54.0688 31.8486 53.6257 31.0414C53.1825 30.2341 52.9887 29.3136 53.0688 28.3961C53.1488 27.4787 53.4991 26.6056 54.0754 25.8873C54.6516 25.169 55.4279 24.6377 56.3062 24.3606C57.4822 23.9904 58.757 24.1017 59.8511 24.6702C60.9451 25.2387 61.769 26.2179 62.1421 27.393L62.1472 27.3992Z" fill="#FF725E"/>
<path d="M23.3248 51.1905C20.9474 48.267 21.2213 44.9576 23.7492 42.9052C26.2772 40.8529 29.5263 41.2546 31.9229 44.2012C34.3194 47.1478 34.048 50.4163 31.5228 52.469C28.9977 54.5216 25.7007 54.1153 23.3248 51.1905ZM29.4452 46.2171C27.9312 44.3548 26.4912 44.0491 25.4007 44.9367C24.3352 45.8011 24.3358 47.3225 25.8268 49.1571C27.3179 50.9917 28.8058 51.3019 29.8713 50.4375C30.9618 49.5498 30.9554 48.0748 29.4452 46.2171ZM34.2461 34.7093L37.1955 32.313L39.4429 59.278L36.4935 61.6743L34.2461 34.7093ZM41.7715 49.7894C39.3957 46.8646 39.668 43.5564 42.1715 41.5217C44.6995 39.4694 47.9934 39.8781 50.3696 42.8001C52.7457 45.7221 52.4667 49.0254 49.936 51.0775C47.4442 53.1076 44.1425 52.7052 41.7715 49.7894ZM47.866 44.8348C46.3762 43.0018 44.9133 42.6684 43.8228 43.556C42.7573 44.4204 42.739 45.9158 44.2504 47.7751C45.7619 49.6343 47.2278 49.9212 48.2934 49.0568C49.3787 48.163 49.3507 46.6618 47.8581 44.8284L47.866 44.8348Z" fill="white"/>
<path d="M69.1892 26.5605C69.3659 26.5242 69.5467 26.5116 69.7268 26.5229C70.0769 26.516 70.5941 26.5135 71.2607 26.5249C71.9272 26.5364 72.7435 26.5562 73.6885 26.6123C74.6335 26.6684 75.7121 26.754 76.9 26.9309C78.1971 27.1147 79.4763 27.4078 80.7239 27.8071L81.2323 27.9756L81.741 28.1697C82.0918 28.2997 82.4354 28.4486 82.7701 28.6157C83.4921 28.96 84.1414 29.4395 84.6829 30.0283C84.9651 30.3488 85.1888 30.7165 85.3437 31.1145C85.5028 31.5268 85.576 31.9672 85.5588 32.4088C85.5183 33.3085 85.1935 34.1722 84.6311 34.8756C84.055 35.5824 83.3307 36.154 82.5094 36.5499C81.6876 36.9515 80.8219 37.2563 79.9298 37.4582C78.1734 37.8513 76.3633 37.9459 74.5754 37.7381C73.73 37.6473 72.891 37.5044 72.0631 37.3104C71.2577 37.1239 70.4729 36.9248 69.7087 36.7128C66.664 35.8587 63.9911 34.8265 61.887 33.6658C61.3616 33.3764 60.8734 33.0848 60.418 32.7921C60.1918 32.6444 59.9725 32.4988 59.7653 32.3458C59.5585 32.2032 59.3635 32.0443 59.1821 31.8706C58.8265 31.5506 58.6105 31.104 58.5802 30.6266C58.5685 30.2329 58.6763 29.8449 58.8892 29.5136C58.9759 29.3753 59.0751 29.2453 59.1856 29.1252C59.2855 29.0229 59.3936 28.9291 59.5089 28.8445C59.688 28.7101 59.8883 28.6065 60.1016 28.538C60.2326 28.4981 60.3691 28.4788 60.5061 28.4808C60.598 28.4852 60.6428 28.4922 60.6433 28.5022C60.6438 28.5122 60.5974 28.522 60.5095 28.5351C60.3817 28.5537 60.2568 28.5882 60.1376 28.638C59.9441 28.7194 59.7642 28.8299 59.604 28.9657C59.5017 29.0521 59.4056 29.1456 59.3164 29.2455C59.2207 29.362 59.1353 29.4865 59.0613 29.6178C58.8862 29.9189 58.8042 30.2651 58.8258 30.6127C58.8667 31.0208 59.066 31.3965 59.3809 31.6592C59.5564 31.8192 59.7446 31.9647 59.9437 32.0941C60.1477 32.2369 60.3665 32.3725 60.5919 32.513C61.0479 32.7897 61.537 33.0667 62.0593 33.3439C64.1476 34.4449 66.8086 35.4377 69.8327 36.2543C70.5901 36.458 71.3695 36.6496 72.1708 36.829C72.981 37.014 73.8017 37.1495 74.6284 37.2345C76.36 37.4307 78.1121 37.338 79.8132 36.9601C80.6684 36.7658 81.4984 36.4739 82.2869 36.0901C83.0418 35.729 83.7088 35.2075 84.2415 34.5621C84.7391 33.944 85.03 33.1853 85.073 32.393C85.0975 31.6399 84.8318 30.9061 84.3309 30.3432C83.8289 29.7967 83.2271 29.3511 82.5579 29.0304C82.2374 28.8661 81.9084 28.7191 81.5723 28.5899L81.085 28.3936L80.5872 28.219C79.3658 27.8104 78.113 27.5027 76.8413 27.299C75.6752 27.1014 74.6077 26.9884 73.662 26.9095C72.7163 26.8306 71.9103 26.7763 71.2465 26.7366L69.7277 26.6338C69.5459 26.6317 69.365 26.6071 69.1892 26.5605Z" fill="#263238"/>
<path d="M42.1491 23.8294L42.6731 22.4241L42.3548 20.9581L43.7617 21.4809L45.2289 21.1641L44.7049 22.5694L45.0216 24.0367L43.6163 23.5126L42.1491 23.8294Z" fill="white"/>
<path d="M35.4195 26.723L35.6035 26.2303L35.4926 25.7171L35.984 25.8996L36.4972 25.7887L36.3132 26.2814L36.4241 26.7946L35.9327 26.6121L35.4195 26.723Z" fill="white"/>
<path d="M44.736 30.9344L45.091 29.9834L44.876 28.9902L45.8271 29.3451L46.8202 29.1302L46.4653 30.0812L46.6803 31.0744L45.7292 30.7195L44.736 30.9344Z" fill="white"/>
<path d="M29.194 66.1993L29.718 64.794L29.3997 63.328L30.8066 63.8507L32.2738 63.534L31.7498 64.9393L32.0666 66.4065L30.6612 65.8825L29.194 66.1993Z" fill="white"/>
<path d="M22.4644 69.0929L22.6484 68.6002L22.5376 68.087L23.0289 68.2695L23.5422 68.1586L23.3581 68.6512L23.469 69.1645L22.9776 68.982L22.4644 69.0929Z" fill="white"/>
<path d="M31.781 73.3043L32.1359 72.3533L31.9209 71.3601L32.872 71.715L33.8652 71.5001L33.5102 72.4511L33.7252 73.4443L32.7742 73.0893L31.781 73.3043Z" fill="white"/>
</svg>
