<svg width="41" height="28" viewBox="0 0 41 28" fill="none" xmlns="http://www.w3.org/2000/svg">
<path d="M35.9791 21.6566H38.3893C38.3957 21.5111 38.4086 21.3735 38.4086 21.236C38.4086 19.3165 38.415 17.397 38.4006 15.476C38.4006 15.272 38.3204 15.0348 38.1985 14.8704C37.727 14.2332 37.2139 13.6261 36.7376 12.992C36.5836 12.7865 36.4153 12.728 36.1667 12.728C33.0316 12.7359 29.8949 12.7327 26.7598 12.7327C25.6709 12.7327 25.1915 12.2663 25.1899 11.2022C25.1883 8.49376 25.1899 5.78531 25.1899 3.07527C25.1899 2.92032 25.1899 2.76379 25.1899 2.55034C24.9878 2.55034 24.821 2.55034 24.6542 2.55034C18.1964 2.55034 11.737 2.55034 5.27919 2.54718C5.04185 2.54718 4.79489 2.53611 4.56718 2.47603C3.97865 2.31792 3.62264 1.76769 3.67235 1.14631C3.71886 0.564459 4.17429 0.094867 4.77405 0.0221356C4.94724 0.00316223 5.12043 0 5.29362 0C12.2325 0 19.1714 0 26.1103 0C27.3307 0 27.7749 0.437969 27.7749 1.63804C27.7749 1.92422 27.7749 2.21198 27.7749 2.55034C27.9497 2.55034 28.0924 2.55034 28.2335 2.55034C29.8356 2.55034 31.436 2.56615 33.038 2.54402C33.7693 2.53453 34.2391 2.83494 34.5583 3.47213C35.4787 5.30939 36.4505 7.12135 37.347 8.96968C37.9788 10.2709 38.7662 11.4552 39.669 12.5873C41.2646 14.589 40.9712 13.8284 40.9888 16.3567C41.0033 18.4864 40.9936 20.6178 40.9904 22.7475C40.9904 23.7341 40.4917 24.2338 39.4958 24.2385C38.4278 24.2448 37.3614 24.248 36.2934 24.2354C36.04 24.2322 35.931 24.3081 35.8412 24.5516C35.0698 26.664 33.1872 27.9905 30.9758 28.0032C28.7595 28.0158 26.8512 26.6782 26.0751 24.55C25.9869 24.3081 25.8746 24.2354 25.6212 24.2369C23.2863 24.2464 20.9515 24.2448 18.615 24.2369C18.3808 24.2369 18.2734 24.3018 18.1884 24.531C17.3994 26.6766 15.5248 28.0016 13.3021 28.0032C11.0843 28.0063 9.20327 26.6782 8.41108 24.5342C8.32929 24.3113 8.22506 24.2338 7.98612 24.2369C7.01271 24.2496 6.03771 24.2512 5.0643 24.2369C4.27692 24.2259 3.73169 23.7658 3.67235 23.0954C3.60019 22.2922 4.15023 21.7056 5.02582 21.6819C5.71858 21.6629 6.41777 21.6265 7.10572 21.6898C7.89952 21.7625 8.3309 21.5822 8.67087 20.7553C9.44221 18.8849 11.482 17.7227 13.432 17.8287C15.6691 17.9488 17.4604 19.2248 18.1628 21.2376C18.283 21.5838 18.4322 21.6898 18.801 21.6866C21.0557 21.6676 23.3104 21.6755 25.5667 21.6787C25.7928 21.6787 25.942 21.6692 26.035 21.3925C26.7742 19.2106 28.7467 17.7986 30.9758 17.8208C33.2481 17.8445 35.142 19.2343 35.8941 21.4289C35.9197 21.5016 35.947 21.5743 35.9775 21.6597L35.9791 21.6566ZM27.8054 5.0912V10.1603H35.0233C35.0121 10.097 35.0137 10.0575 34.9977 10.0259C34.1926 8.44316 33.3892 6.85889 32.5746 5.28093C32.5281 5.19081 32.3789 5.0991 32.2763 5.0991C30.7977 5.08803 29.3192 5.0912 27.807 5.0912H27.8054ZM15.8728 22.9705C15.9113 21.5775 14.7903 20.417 13.3711 20.3822C11.9487 20.3474 10.7732 21.4384 10.7283 22.8361C10.6834 24.2243 11.8028 25.3991 13.2139 25.4465C14.6492 25.4939 15.8327 24.3919 15.8728 22.9705ZM30.9357 25.4497C32.3453 25.4607 33.5111 24.3381 33.5384 22.9452C33.564 21.5506 32.3902 20.3838 30.9597 20.3822C29.5421 20.3806 28.3939 21.5016 28.3811 22.9025C28.3682 24.2844 29.5261 25.4402 30.9357 25.4497Z" fill="#EA6F54"/>
<path d="M8.96403 5.22407C10.7521 5.22407 12.5401 5.21932 14.3282 5.22723C15.0755 5.23039 15.6063 5.66046 15.6913 6.30081C15.7987 7.09611 15.2342 7.74753 14.3987 7.76334C13.5456 7.77915 12.6909 7.76808 11.8361 7.76808C9.06025 7.76808 6.28597 7.77125 3.51008 7.7665C2.54791 7.76492 1.9273 7.01705 2.15662 6.15851C2.31378 5.57349 2.80128 5.22881 3.5181 5.22723C5.15862 5.22091 6.80073 5.22565 8.44125 5.22565C8.61444 5.22565 8.78763 5.22565 8.96243 5.22565L8.96403 5.22407Z" fill="#EA6F54"/>
<path d="M6.80384 12.7706C5.05749 12.7706 3.31274 12.7721 1.56639 12.7674C1.34188 12.7674 1.10775 12.7595 0.894469 12.6994C0.370082 12.554 0.00766199 12.0559 -0.000356162 11.5199C-0.00837431 10.9633 0.349235 10.4526 0.889658 10.2993C1.10294 10.2392 1.33547 10.2234 1.55998 10.2234C5.05108 10.2186 8.54378 10.2202 12.0349 10.2202C12.1279 10.2202 12.2209 10.2186 12.3139 10.2234C13.0628 10.2645 13.6096 10.8147 13.6016 11.5152C13.5936 12.1998 13.0612 12.7453 12.3187 12.7595C11.1336 12.7832 9.94696 12.769 8.76027 12.7706C8.1076 12.7706 7.45492 12.7706 6.80064 12.7706H6.80384Z" fill="#EA6F54"/>
<path d="M6.34211 17.7845C5.37031 17.7845 4.3969 17.7956 3.4251 17.7797C2.72592 17.7687 2.22719 17.326 2.12616 16.6745C2.03476 16.0864 2.38755 15.5061 2.97288 15.3179C3.14607 15.2626 3.33851 15.2405 3.52132 15.2405C5.42643 15.2357 7.33154 15.2278 9.23666 15.2405C10.2405 15.2468 10.8579 16.0516 10.558 16.9212C10.3768 17.4493 9.89735 17.7766 9.25911 17.7829C8.28731 17.7908 7.3139 17.7845 6.34211 17.7845Z" fill="#EA6F54"/>
</svg>
