<svg xmlns="http://www.w3.org/2000/svg" width="67" height="73" fill="none"><ellipse cx="33.691" cy="36.5" fill="#D2EAFF" rx="33.103" ry="36"/><path fill="#3881C5" d="M33.151 28.504v-2.522c0-.907-.004-1.813.002-2.72.004-.67.2-.895.824-.899 1.572-.01 3.144-.007 4.715-.002.72.003.83.148.927 1.151.057-.004.123.01.172-.016 2.16-1.098 3.708-2.84 4.528-5.283.188-.56.194-1.209.204-1.819.023-1.376.472-2.153 1.47-2.412 1.01-.263 2.122.336 2.604 1.441.614 1.405.567 2.862.15 4.3-.239.825-.605 1.606-.916 2.406-.084.216-.179.426-.304.724.238.013.4.03.562.03 1.556.002 3.115.073 4.667-.017 1.825-.107 3.02 1.813 2.109 3.592 1.156 1.537 1.185 2.382.133 3.783.672 1.45.525 2.297-.61 3.415.274.604.382 1.244.181 1.914-.28.94-1.07 1.593-1.98 1.608-.817.011-1.633.002-2.527.002v.616c-.004 4.62.022 9.24-.025 13.86-.026 2.52-2.01 4.605-4.33 4.616-4.652.024-9.305.016-13.957 0-.405-.001-.603.145-.797.516-1.46 2.793-2.942 5.57-4.417 8.352-.475.896-1.002.896-1.477 0-1.468-2.766-2.944-5.528-4.394-8.305-.211-.404-.43-.578-.871-.565-.973.03-1.963.1-2.918-.05-2.3-.36-3.838-2.334-3.851-4.925-.03-5.92-.032-11.84 0-17.762.016-2.994 1.973-5.019 4.768-5.025 4.904-.011 9.808-.004 14.712-.004h.646Zm0 1.502c-.172-.016-.294-.039-.415-.039-5.028-.002-10.056-.01-15.085.004-1.973.005-3.265 1.432-3.285 3.572-.011 1.197-.002 2.395-.002 3.592 0 4.687.031 9.374-.014 14.06-.022 2.224 1.619 3.76 3.377 3.666.893-.048 1.792.019 2.687-.018.526-.022.832.203 1.087.692 1.326 2.54 2.677 5.063 4.02 7.591.08.151.166.3.276.497.132-.24.221-.4.307-.56 1.318-2.484 2.647-4.961 3.944-7.46.28-.54.608-.767 1.192-.765 4.698.023 9.397.014 14.095.013 2.068 0 3.398-1.434 3.4-3.67.003-4.482 0-8.963 0-13.445v-.557c-1.116 0-2.155.048-3.188-.011-1.82-.105-3.642-.246-5.221-1.432-.185-.137-.448-.15-.714-.234-.014.221-.025.338-.027.456-.017.929-.177 1.104-1.023 1.105-1.492 0-2.985.003-4.478 0-.724 0-.933-.222-.934-.994-.003-1.659 0-3.318 0-4.977v-1.087l.001.001Zm6.45 3.89c.672.321 1.244.606 1.826.866.534.237 1.062.548 1.62.648 1.018.183 2.055.302 3.087.327 2.01.05 4.021.014 6.033.014.126 0 .252.008.377-.004a.877.877 0 0 0 .804-.896c-.005-.49-.329-.831-.822-.853-.314-.014-.628-.012-.942-.014-.519-.004-1.039.021-1.555-.016-.385-.028-.65-.267-.642-.728.007-.458.254-.675.659-.699.14-.008.283-.005.423-.005.88 0 1.758.008 2.637-.004.575-.008.921-.328.95-.84.028-.527-.266-.877-.862-.907-.863-.043-1.727-.024-2.59-.038-.568-.01-.843-.252-.84-.724.005-.457.304-.718.85-.722.959-.008 1.918.002 2.876-.02.207-.004.444-.06.614-.18.314-.221.367-.597.262-.961-.115-.4-.409-.6-.79-.605-.943-.008-1.886 0-2.829-.006-.501-.003-.797-.28-.792-.725.005-.445.292-.7.808-.702.723-.005 1.446.008 2.169-.005.594-.01.944-.407.898-.985-.04-.505-.355-.776-.93-.777-1.964-.003-3.928.002-5.892-.003-.67-.002-.958-.309-.85-1.012.091-.597.262-1.187.454-1.758.285-.845.68-1.651.92-2.51.272-.979.296-1.991-.12-2.955-.22-.512-.694-.818-1.08-.726-.579.139-.463.637-.461 1.069.009 1.62-.384 3.106-1.272 4.417-1.3 1.92-2.827 3.529-5 4.237v8.802h.001Zm-1.363 1.696V23.843h-3.73v11.749h3.73Z"/><path fill="#3881C5" d="M22.145 45.837c-1.742-.042-3.143-1.606-3.11-3.473.035-1.9 1.515-3.46 3.235-3.411 1.737.05 3.121 1.612 3.094 3.493-.027 1.927-1.457 3.434-3.219 3.391Zm.075-1.447c1.024-.005 1.812-.87 1.811-1.988 0-1.11-.801-1.994-1.813-2.004-1.015-.01-1.864.925-1.846 2.032.018 1.109.823 1.964 1.848 1.96Zm18.67 1.449c-1.755.004-3.194-1.558-3.179-3.452.015-1.871 1.45-3.43 3.165-3.435 1.745-.005 3.174 1.563 3.163 3.47-.01 1.903-1.402 3.412-3.15 3.417h.001Zm1.818-3.414c.007-1.132-.818-2.04-1.839-2.028-1.002.012-1.823.919-1.821 2.01.002 1.104.808 1.979 1.827 1.982 1.029.003 1.827-.85 1.833-1.966v.002Zm-11.219 3.413c-1.742-.038-3.146-1.602-3.116-3.469.031-1.897 1.507-3.46 3.229-3.418 1.731.04 3.122 1.605 3.1 3.488-.023 1.924-1.455 3.438-3.213 3.399Zm1.881-3.447c-.004-1.105-.816-1.991-1.823-1.992-1 0-1.829.897-1.838 1.991-.01 1.12.816 2.008 1.86 2 1.02-.008 1.805-.879 1.801-1.999Z"/></svg>