<svg width="67" height="73" viewBox="0 0 67 73" fill="none" xmlns="http://www.w3.org/2000/svg">
<ellipse cx="33.6913" cy="36.5" rx="33.1034" ry="36" fill="#D2EAFF"/>
<path d="M27.5424 45.4272C28.3526 45.8026 29.0416 46.1374 29.7426 46.4415C30.3847 46.7203 31.0209 47.0843 31.693 47.2013C32.9185 47.4164 34.1668 47.5564 35.4091 47.5857C37.8289 47.643 40.2511 47.6022 42.6733 47.6022C42.8245 47.6022 42.9769 47.6111 43.127 47.5971C43.6923 47.5462 44.1016 47.0983 44.0956 46.5459C44.0896 45.9719 43.6995 45.571 43.1054 45.5456C42.7273 45.529 42.3492 45.5316 41.9711 45.529C41.3469 45.5252 40.7204 45.5545 40.0986 45.5112C39.6353 45.4781 39.3173 45.1981 39.3257 44.6572C39.3341 44.1201 39.6317 43.8656 40.1191 43.8376C40.2883 43.8274 40.4599 43.8312 40.6292 43.8312C41.6878 43.8312 42.7453 43.8402 43.8039 43.8262C44.4965 43.8172 44.913 43.4418 44.9466 42.8411C44.9814 42.2238 44.6273 41.8127 43.9096 41.7784C42.8713 41.7275 41.8307 41.7491 40.7912 41.7326C40.1071 41.7211 39.7758 41.4373 39.7806 40.8837C39.7854 40.3479 40.1467 40.0424 40.8044 40.0373C41.9579 40.0284 43.1126 40.0399 44.266 40.0144C44.5157 40.0093 44.8002 39.9432 45.0054 39.8032C45.3835 39.5435 45.4471 39.1032 45.3211 38.6756C45.1819 38.2072 44.829 37.9717 44.3693 37.9667C43.2338 37.9565 42.0995 37.9667 40.9641 37.959C40.3603 37.9552 40.0038 37.6307 40.0098 37.1089C40.0158 36.5871 40.3615 36.288 40.9833 36.2854C41.8535 36.2803 42.7237 36.2956 43.5939 36.2803C44.3093 36.2689 44.7306 35.8031 44.6753 35.1247C44.6273 34.5329 44.248 34.2147 43.5555 34.2135C41.1909 34.2097 38.8263 34.216 36.4618 34.2097C35.654 34.2071 35.3083 33.8482 35.4379 33.0235C35.5484 32.3235 35.7536 31.6312 35.9853 30.9617C36.3285 29.9703 36.8039 29.0247 37.0919 28.0167C37.4196 26.87 37.4484 25.6826 36.9491 24.5524C36.6838 23.9517 36.1125 23.5928 35.6468 23.701C34.9506 23.8639 35.0899 24.4481 35.0923 24.9546C35.1031 26.8547 34.6301 28.5971 33.5619 30.1345C31.9967 32.3859 30.1579 34.2733 27.5412 35.1031V45.4259L27.5424 45.4272ZM25.9029 47.4152V33.6369H21.4126V47.4152H25.9029Z" fill="#3881C5"/>
</svg>
