<svg width="67" height="73" viewBox="0 0 67 73" fill="none" xmlns="http://www.w3.org/2000/svg">
<ellipse cx="33.6913" cy="36.5" rx="33.1034" ry="36" fill="#D2EAFF"/>
<path d="M35.8581 43.8486C37.1307 42.2233 38.198 40.7751 39.3456 39.4408C39.7048 39.023 40.2932 38.6883 40.7533 38.7298C41.1741 38.767 41.7522 39.257 41.9181 39.7383C42.0823 40.2151 41.9916 41.1448 41.718 41.5145C39.7099 44.2161 37.6438 46.8499 35.5554 49.4486C34.9208 50.2383 34.1015 50.1596 33.4516 49.3415C31.4385 46.8061 29.4407 44.2489 27.4583 41.6742C26.8512 40.8867 26.8631 39.933 27.4002 39.2067C27.9595 38.4498 28.7463 38.4083 29.3997 39.1936C30.3404 40.3267 31.2366 41.5189 32.1568 42.6805C32.3826 42.967 32.622 43.2361 32.9778 43.6561C33.0018 43.0567 33.0291 42.6542 33.0308 42.2517C33.0343 37.3692 33.0308 32.4867 33.0377 27.6041C33.0377 27.1491 33.0514 26.6722 33.1523 26.2413C33.3575 25.3554 33.8689 24.9375 34.589 25.0075C35.2817 25.0732 35.67 25.6354 35.8256 26.4469C35.8958 26.8122 35.8598 27.2104 35.8598 27.5954C35.8598 32.9001 35.8598 38.2026 35.8598 43.8464L35.8581 43.8486Z" fill="#3881C5"/>
</svg>
