<svg width="67" height="50" viewBox="0 0 67 50" fill="none" xmlns="http://www.w3.org/2000/svg">
<circle cx="30.5" cy="26.5" r="22.5" fill="white" stroke="#3881C5" stroke-width="2"/>
<path d="M19 33.1523V20.4059C19.2416 20.4096 19.4837 20.4247 19.7253 20.4153C20.1276 20.3998 20.4012 20.1093 20.4087 19.7022C20.4129 19.4682 20.4082 19.2341 20.4073 19H24.6291C24.6371 19.2176 24.6475 19.4348 24.6531 19.6524C24.6649 20.1173 24.9398 20.4172 25.3568 20.4172C25.7741 20.4172 26.0477 20.1182 26.0599 19.6524C26.0656 19.4348 26.0754 19.2176 26.0839 19C31.2599 19 36.436 19 41.6115 19C41.6106 19.2031 41.6092 19.4056 41.6092 19.6087C41.6101 20.145 41.8757 20.4148 42.4106 20.4209C42.6094 20.4233 42.8082 20.4209 43 20.4209V33.1372C42.7805 33.1372 42.5784 33.134 42.3763 33.1377C41.8855 33.1471 41.612 33.4244 41.6092 33.9128C41.6082 34.1196 41.6092 34.3264 41.6092 34.5337H26.0595C26.0595 34.31 26.0632 34.1008 26.0585 33.8917C26.0482 33.4395 25.7732 33.1443 25.3652 33.1405C24.9455 33.1368 24.6639 33.4348 24.6545 33.8978C24.6503 34.1065 24.6536 34.3152 24.6536 34.529H20.4092C20.4092 34.2832 20.4148 34.0571 20.4078 33.8315C20.396 33.4503 20.1243 33.1612 19.7483 33.1438C19.4996 33.1326 19.2496 33.1481 19 33.1518V33.1523ZM33.8343 33.126C35.9137 33.126 37.9932 33.1246 40.0726 33.1288C40.2376 33.1288 40.3321 33.0973 40.4087 32.9271C40.6174 32.4623 40.969 32.1215 41.4376 31.9166C41.5753 31.8564 41.6157 31.7845 41.6153 31.6388C41.611 28.3979 41.611 25.157 41.6153 21.9161C41.6153 21.7685 41.5702 21.698 41.4353 21.6388C40.9591 21.4291 40.6089 21.0808 40.3965 20.6071C40.3354 20.4707 40.262 20.4289 40.1168 20.4289C35.9264 20.4327 31.7365 20.4322 27.5462 20.4294C27.4122 20.4294 27.3431 20.4684 27.2816 20.5953C26.8947 21.3901 26.2475 21.8296 25.3671 21.8334C24.4759 21.8376 23.824 21.3953 23.4282 20.5948C23.3732 20.4834 23.321 20.4261 23.1875 20.4284C22.7499 20.4369 22.3119 20.436 21.8743 20.4284C21.7464 20.4266 21.6816 20.4693 21.6294 20.5878C21.4197 21.0635 21.0757 21.4183 20.6005 21.6294C20.4458 21.698 20.4016 21.7803 20.4021 21.9415C20.4082 23.3864 20.4054 24.8308 20.4054 26.2757C20.4054 28.0562 20.4059 29.8367 20.4045 31.6172C20.4045 31.7464 20.4059 31.8395 20.5619 31.9062C21.0545 32.1173 21.4155 32.4773 21.6308 32.9704C21.6834 33.0902 21.7511 33.1293 21.8776 33.1269C22.2917 33.1203 22.7067 33.1147 23.1203 33.1288C23.2961 33.1349 23.3751 33.0719 23.4531 32.9177C23.8428 32.1455 24.4863 31.7257 25.3464 31.722C26.2169 31.7187 26.8679 32.1389 27.2599 32.9215C27.3389 33.0794 27.424 33.1283 27.5955 33.1279C29.675 33.1217 31.7544 33.1241 33.8338 33.1241L33.8343 33.126Z" fill="#3881C5"/>
<path d="M37.5813 22.103C37.884 22.4057 38.2078 22.7296 38.5162 23.0375C35.7119 25.8389 32.8913 28.6563 30.0819 31.4628C29.7792 31.1606 29.4544 30.8363 29.1465 30.5289C31.9559 27.7223 34.7752 24.9063 37.5813 22.103Z" fill="#3881C5"/>
<path d="M36.6375 31.7187C35.4544 31.6942 34.5068 30.7194 34.5378 29.5598C34.5698 28.3763 35.5475 27.4578 36.7461 27.4865C37.868 27.5128 38.81 28.5041 38.787 29.6336C38.763 30.7988 37.79 31.7431 36.6375 31.7192V31.7187ZM36.6629 30.3006C37.0516 30.3006 37.3595 29.9946 37.3614 29.6068C37.3637 29.2219 37.0563 28.9036 36.6727 28.8947C36.2868 28.8858 35.9592 29.2148 35.9621 29.6082C35.9649 29.9955 36.2737 30.3006 36.6624 30.3001L36.6629 30.3006Z" fill="#3881C5"/>
<path d="M31.0036 21.8394C32.1711 21.8347 33.1187 22.7752 33.123 23.9447C33.1277 25.115 32.1885 26.0678 31.0257 26.0735C29.8459 26.0791 28.8945 25.1339 28.8945 23.9555C28.8945 22.7851 29.8318 21.8441 31.0031 21.8394H31.0036ZM31.02 23.2579C30.6294 23.2537 30.3136 23.5541 30.3037 23.939C30.2938 24.3226 30.6266 24.6643 31.0097 24.6633C31.3843 24.6629 31.7115 24.3371 31.7143 23.9611C31.7176 23.5766 31.4069 23.2622 31.02 23.2579Z" fill="#3881C5"/>
<path d="M24.6582 23.2656H26.0551V24.6532H24.6582V23.2656Z" fill="#3881C5"/>
<path d="M26.0537 27.4689H24.6582V26.0889H26.0537V27.4689Z" fill="#3881C5"/>
<path d="M24.6543 30.2892V28.9087H26.0512V30.2892H24.6543Z" fill="#3881C5"/>
<path d="M62 27L63.1226 30.4549H66.7553L63.8164 32.5902L64.9389 36.0451L62 33.9098L59.0611 36.0451L60.1836 32.5902L57.2447 30.4549H60.8774L62 27Z" fill="white"/>
<path d="M50 0L50.6735 2.07295H52.8532L51.0898 3.3541L51.7634 5.42705L50 4.1459L48.2366 5.42705L48.9102 3.3541L47.1468 2.07295H49.3265L50 0Z" fill="white"/>
<path d="M3.5 6L4.2858 8.41844H6.8287L4.77145 9.91312L5.55725 12.3316L3.5 10.8369L1.44275 12.3316L2.22855 9.91312L0.171302 8.41844H2.7142L3.5 6Z" fill="white"/>
</svg>
