<svg width="127" height="126" fill="none" xmlns="http://www.w3.org/2000/svg"><g filter="url(#a)"><path d="M63.016 109.034c29.854 0 54.053-24.194 54.053-54.036 0-29.842-24.202-54.037-54.053-54.037-29.852 0-54.053 24.195-54.053 54.037s24.201 54.036 54.053 54.036Z" fill="#F1F1F2"/><path d="M63.014 109.995C32.677 109.995 8 85.322 8 54.998 8 24.673 32.678 0 63.014 0c30.337 0 55.014 24.673 55.014 54.998 0 30.324-24.68 54.997-55.014 54.997Zm0-108.076C33.738 1.919 9.92 25.731 9.92 54.998s23.818 53.075 53.094 53.075 53.092-23.808 53.092-53.075c0-29.267-23.816-53.079-53.092-53.079Z" fill="url(#b)"/><path d="M39.213 55.254c.056 5.322 1.839 10.339 5.15 14.513a23.71 23.71 0 0 0 16.803 8.957c.255.019.516.04.78.053.06 0 .122.003.184.006h.121l.165.006c.392.013.815.013 1.207 0h.031c.04.013.081.019.122.019a.33.33 0 0 0 .143-.031c.246-.01.491-.022.725-.037 6.116-.414 11.775-3.142 15.932-7.683.323-.354.65-.737.999-1.166 3.375-4.196 5.189-9.256 5.248-14.637v-.105l.003-.15c0-.41-.012-.84-.034-1.278-.274-5.141-2.166-9.956-5.473-13.924-.301-.361-.634-.737-1.023-1.148-4.132-4.36-9.691-6.985-15.655-7.39-.237-.015-.48-.028-.725-.037a.354.354 0 0 0-.265-.01h-.03a15.673 15.673 0 0 0-1.208 0l-.165.007h-.121c-.06 0-.122 0-.18.006-.265.012-.53.031-.782.053a23.725 23.725 0 0 0-15.537 7.486 23.586 23.586 0 0 0-6.387 14.957c-.025.448-.034.865-.034 1.278v.255h.006Zm2.39-1.956a21.254 21.254 0 0 1 4.75-11.837 31.53 31.53 0 0 0 4.508 2.326 31.076 31.076 0 0 0-2.031 9.514h-7.227v-.003Zm7.186 2.323c.069 3.478.703 6.88 1.895 10.124a31.3 31.3 0 0 0-4.617 2.432 21.215 21.215 0 0 1-4.523-12.556h7.245Zm-.846-15.908a21.49 21.49 0 0 1 8.434-5.141 31.4 31.4 0 0 0-4.601 7.078c-1.325-.55-2.61-1.2-3.833-1.934v-.003Zm3.622 28.181a31.398 31.398 0 0 0 4.812 7.533 21.467 21.467 0 0 1-8.767-5.477 29.266 29.266 0 0 1 3.955-2.056Zm-.411-14.596c.174-2.986.806-5.91 1.882-8.702a31.119 31.119 0 0 0 8.817 1.564v7.135h-10.7v.003Zm10.699 2.323v7.676c-3.08.1-6.104.647-9 1.624a28.819 28.819 0 0 1-1.743-9.3h10.743Zm0 10v10.82c-.464-.025-.93-.065-1.397-.121a28.914 28.914 0 0 1-6.714-9.247 28.893 28.893 0 0 1 8.111-1.452Zm-7.89-23.165a29.022 29.022 0 0 1 6.496-8.777c.467-.056.933-.096 1.397-.121V43.84a28.865 28.865 0 0 1-7.893-1.384ZM72.02 67.073a28.957 28.957 0 0 1-6.754 9.284c-.352.037-.716.065-1.089.084V65.63c2.682.118 5.314.603 7.843 1.443Zm1.966-25.423a31.413 31.413 0 0 0-4.7-7.19 21.465 21.465 0 0 1 8.698 5.153 28.936 28.936 0 0 1-3.998 2.037Zm4.331 28.403a21.465 21.465 0 0 1-9.031 5.486 31.278 31.278 0 0 0 4.912-7.645 29.022 29.022 0 0 1 4.12 2.159ZM74.65 55.62a28.819 28.819 0 0 1-1.742 9.3 31.11 31.11 0 0 0-8.73-1.614V55.62h10.472Zm-10.472-2.323v-7.147a31.117 31.117 0 0 0 8.55-1.555 28.721 28.721 0 0 1 1.882 8.702H64.177Zm12.756 0a31.08 31.08 0 0 0-2.032-9.514 31.283 31.283 0 0 0 4.685-2.435 21.255 21.255 0 0 1 4.844 11.95h-7.497Zm7.553 2.323a21.195 21.195 0 0 1-4.61 12.671 31.596 31.596 0 0 0-4.798-2.544 31.141 31.141 0 0 0 1.895-10.124h7.514v-.003ZM64.178 43.828V33.555c.373.018.737.046 1.089.084a28.938 28.938 0 0 1 6.533 8.814 28.893 28.893 0 0 1-7.622 1.371v.004Z" fill="#16375F"/><path d="M63.773 79.123a.7.7 0 0 1-.162-.019c-.414.013-.825.013-1.21 0l-.47-.012a21.106 21.106 0 0 1-.79-.053c-6.17-.476-11.86-3.278-16.026-7.884-.317-.352-.644-.74-1.002-1.192-3.356-4.23-5.16-9.315-5.22-14.708l-.006-.258a23.894 23.894 0 0 1 6.505-16.456c4.141-4.426 9.732-7.122 15.746-7.586.255-.018.522-.04.79-.052l.47-.013c.395-.012.812-.015 1.21 0a.669.669 0 0 1 .367.012c.23.01.46.022.681.038 6.042.41 11.676 3.07 15.864 7.49.392.413.731.792 1.039 1.16 3.35 4.024 5.267 8.904 5.544 14.113.025.445.037.884.037 1.297l-.006.258c-.059 5.453-1.898 10.581-5.32 14.833-.348.435-.681.821-1.011 1.182-4.212 4.6-9.95 7.365-16.147 7.785-.22.015-.448.028-.681.037a.646.646 0 0 1-.205.031l.003-.003Zm-.103-.663.09.022.14-.028c.243-.01.486-.021.716-.037 6.035-.407 11.617-3.1 15.72-7.58.32-.351.644-.727.984-1.15 3.332-4.14 5.12-9.132 5.176-14.438l.007-.252c0-.404-.013-.827-.035-1.263a23.261 23.261 0 0 0-6.409-14.87c-4.075-4.3-9.56-6.892-15.443-7.29a25.24 25.24 0 0 0-.716-.037l-.118-.028-.056.022h-.087a14.54 14.54 0 0 0-1.22 0l-.463.012c-.262.013-.52.031-.769.05-5.852.45-11.296 3.076-15.325 7.384a23.271 23.271 0 0 0-6.3 14.755 22.19 22.19 0 0 0-.034 1.262l.006.252c.056 5.25 1.814 10.198 5.08 14.316.349.439.67.818.977 1.16 4.054 4.485 9.595 7.213 15.6 7.676.251.019.51.04.768.05l.463.013c.386.012.8.012 1.186 0h.062Zm-1.496-1.685-.336-.019c-.47-.025-.946-.065-1.42-.124l-.102-.013-.078-.071a29.275 29.275 0 0 1-6.788-9.35l-.15-.323.34-.112a29.278 29.278 0 0 1 8.2-1.471l.334-.013v11.496Zm-1.575-.765c.311.034.626.065.934.087V65.95a28.509 28.509 0 0 0-7.349 1.313 28.688 28.688 0 0 0 6.412 8.749l.003-.003Zm3.258.765V65.292l.333.016a29.29 29.29 0 0 1 7.93 1.458l.339.112-.15.324a29.3 29.3 0 0 1-6.828 9.386l-.078.072-.106.012c-.358.037-.728.065-1.104.084l-.336.019Zm.64-10.811V76.1c.215-.016.424-.031.632-.053a28.696 28.696 0 0 0 6.45-8.783 28.56 28.56 0 0 0-7.081-1.3Zm3.815 10.204.734-.843a31.134 31.134 0 0 0 4.863-7.567l.13-.286.29.121a29.174 29.174 0 0 1 4.163 2.184l.335.211-.28.283a21.84 21.84 0 0 1-9.165 5.568l-1.07.326v.003Zm6.048-7.86a31.73 31.73 0 0 1-4.097 6.563 21.297 21.297 0 0 0 7.544-4.761 28.35 28.35 0 0 0-3.447-1.798v-.003Zm-16.993 7.776-1.089-.354a21.896 21.896 0 0 1-8.898-5.558l-.277-.286.34-.209A29.193 29.193 0 0 1 51.44 67.6l.29-.122.13.287a31.065 31.065 0 0 0 4.763 7.455l.75.867h-.006v-.003Zm-9.243-6.074a21.357 21.357 0 0 0 7.261 4.721 31.631 31.631 0 0 1-3.982-6.42 28.72 28.72 0 0 0-3.28 1.7Zm31.824-1.294-.246-.158a30.961 30.961 0 0 0-4.748-2.52l-.28-.118.106-.286a30.76 30.76 0 0 0 1.873-10.021l.006-.314h8.157l-.009.33a21.57 21.57 0 0 1-4.68 12.86l-.18.227Zm-4.465-3.147a32.087 32.087 0 0 1 4.321 2.292 20.9 20.9 0 0 0 4.35-11.925h-6.87a31.46 31.46 0 0 1-1.801 9.63v.003ZM45.993 68.6l-.18-.23a21.584 21.584 0 0 1-4.593-12.746l-.01-.33h7.89l.007.315c.068 3.44.697 6.811 1.873 10.02l.106.287-.28.118a30.939 30.939 0 0 0-4.568 2.407l-.245.156v.003ZM41.876 55.94a20.92 20.92 0 0 0 4.266 11.809 31.823 31.823 0 0 1 4.138-2.18 31.46 31.46 0 0 1-1.802-9.63h-6.602Zm31.227 9.383-.296-.1a30.915 30.915 0 0 0-8.642-1.598l-.308-.013V55.3h11.119l-.006.326a29.117 29.117 0 0 1-1.761 9.403l-.106.295Zm-8.605-2.326c2.806.143 5.565.653 8.213 1.517a28.499 28.499 0 0 0 1.608-8.578h-9.821v7.06ZM52.66 65.323l-.106-.292a29.132 29.132 0 0 1-1.761-9.403l-.006-.326h11.387v8.304l-.312.01c-3.049.099-6.044.64-8.907 1.608l-.295.099Zm-1.217-9.383c.097 2.939.635 5.822 1.609 8.578a31.45 31.45 0 0 1 8.484-1.53V55.94H51.443Zm33.333-2.324h-8.145l-.016-.301a30.709 30.709 0 0 0-2.012-9.415l-.112-.29.286-.12a31.057 31.057 0 0 0 4.635-2.411l.24-.15.18.218a21.609 21.609 0 0 1 4.916 12.127l.028.345v-.003Zm-7.541-.64h6.844a20.946 20.946 0 0 0-4.564-11.206 31.756 31.756 0 0 1-4.206 2.19 31.42 31.42 0 0 1 1.926 9.019v-.004Zm-2.287.64H63.857v-7.772l.308-.013a30.837 30.837 0 0 0 8.459-1.54l.29-.096.108.287a29.073 29.073 0 0 1 1.904 8.798l.019.34h.003v-.004Zm-10.45-.64h9.768a28.538 28.538 0 0 0-1.732-7.981 31.436 31.436 0 0 1-8.036 1.462v6.518Zm-2.324.64h-11.36l.02-.339a29.073 29.073 0 0 1 1.903-8.799l.11-.286.289.097c2.81.93 5.743 1.452 8.726 1.549l.312.009v7.769Zm-10.678-.64h10.04v-6.507a31.547 31.547 0 0 1-8.307-1.474 28.565 28.565 0 0 0-1.733 7.98Zm-2.364.64h-7.878l.028-.345a21.593 21.593 0 0 1 4.823-12.015l.177-.217.24.149a30.906 30.906 0 0 0 4.464 2.301l.286.122-.112.289a30.823 30.823 0 0 0-2.013 9.415l-.015.301Zm-7.18-.64h6.576c.196-3.089.843-6.121 1.926-9.02a32.03 32.03 0 0 1-4.029-2.078 20.96 20.96 0 0 0-4.474 11.097Zm20.222-8.809-.333-.012a29.354 29.354 0 0 1-7.98-1.397l-.349-.111.159-.33a29.244 29.244 0 0 1 6.567-8.873l.078-.072.103-.013a24.48 24.48 0 0 1 1.419-.124l.336-.018v10.95Zm-7.76-1.906a28.545 28.545 0 0 0 7.122 1.24v-9.606c-.311.021-.622.05-.937.087a28.66 28.66 0 0 0-6.185 8.279Zm9.443 1.9V33.217l.336.018c.38.019.75.05 1.104.084l.106.012.078.072a29.313 29.313 0 0 1 6.605 8.914l.158.33-.348.111a29.146 29.146 0 0 1-7.706 1.388l-.333.015Zm.64-10.267v9.595a28.674 28.674 0 0 0 6.851-1.228 28.696 28.696 0 0 0-6.222-8.314 19.5 19.5 0 0 0-.628-.053Zm9.33 8.165-.13-.277a31.091 31.091 0 0 0-4.654-7.12l-.734-.842 1.07.326a21.896 21.896 0 0 1 8.83 5.232l.295.286-.352.215a29.409 29.409 0 0 1-4.041 2.062l-.283.118Zm-3.564-6.94a31.688 31.688 0 0 1 3.882 6.112 28.841 28.841 0 0 0 3.317-1.682 21.244 21.244 0 0 0-7.2-4.43Zm-18.328 6.94-.283-.118a29.73 29.73 0 0 1-3.874-1.957l-.354-.211.292-.29a21.959 21.959 0 0 1 8.559-5.218l1.089-.355-.75.868a31.115 31.115 0 0 0-4.555 7.007l-.13.277h.006v-.003Zm-3.47-2.407c1.015.59 2.07 1.12 3.152 1.582a31.592 31.592 0 0 1 3.768-5.968 21.32 21.32 0 0 0-6.916 4.386h-.003Z" fill="#F1F1F2"/><path d="M23.087 58.191a.26.26 0 0 0 .389-.224v-8.503a.257.257 0 0 0-.259-.258h-8.515a.26.26 0 0 0-.227.383l1.3 2.345c.262.472.76.768 1.304.768h2.691c.143 0 .258.115.258.258v2.606c0 .532.284 1.024.744 1.288l2.315 1.337Z" fill="#E86F53"/><path d="M19.438 58.186a.15.15 0 0 0 .224-.128v-4.89c0-.08-.069-.148-.15-.148h-4.897a.15.15 0 0 0-.13.22l.746 1.35a.857.857 0 0 0 .75.442h1.55c.08 0 .149.068.149.15v1.498c0 .305.162.588.426.74l1.328.769.003-.003Z" fill="#F7D276"/><path d="M112.514 58.191a.26.26 0 0 0 .389-.224v-8.503a.257.257 0 0 0-.258-.258h-8.515a.259.259 0 0 0-.227.383l1.3 2.345c.262.472.759.768 1.301.768h2.691c.143 0 .258.115.258.258v2.606c0 .532.283 1.024.744 1.288l2.314 1.337h.003Z" fill="#E86F53"/><path d="M108.863 58.186a.15.15 0 0 0 .224-.128v-4.89c0-.08-.068-.148-.149-.148h-4.897a.15.15 0 0 0-.131.22l.747 1.35a.857.857 0 0 0 .75.442h1.549c.081 0 .149.068.149.15v1.498c0 .305.162.588.427.74l1.328.769h.003v-.003Z" fill="#F7D276"/><path d="M18.882 69.184a2.864 2.864 0 0 1-.08-1.107c.043-.364.164-.703.354-1.02.193-.317.454-.594.793-.834.336-.24.747-.423 1.23-.55.634-.168 1.206-.193 1.716-.078.51.118.943.349 1.292.697.348.348.59.777.728 1.29.19.713.174 1.322-.047 1.83-.22.503-.61.91-1.17 1.215l-.42-.948c.314-.202.542-.454.681-.759.14-.305.156-.65.053-1.036-.096-.388-.267-.69-.51-.902a1.657 1.657 0 0 0-.89-.385c-.351-.047-.737-.013-1.163.1-.423.111-.775.273-1.055.484-.277.212-.47.47-.575.775-.106.305-.11.653-.01 1.045.075.292.196.535.364.724.168.193.38.327.638.408.258.08.56.1.905.059l-.27-1.02.759-.202.544 2.05c-.04.015-.102.037-.186.062-.081.024-.131.04-.147.043-.547.143-1.06.165-1.546.062a2.5 2.5 0 0 1-1.247-.662c-.349-.336-.598-.787-.747-1.347l.006.006ZM20.285 73.206l5.718-2.187.358.936-5.718 2.187-.358-.936ZM22.047 77.62c-.199-.405-.283-.8-.248-1.192.034-.392.168-.746.407-1.07.24-.323.566-.588.98-.793.423-.208.837-.308 1.238-.295a2.1 2.1 0 0 1 1.095.336c.33.211.591.516.788.91.202.408.283.806.252 1.195a2.087 2.087 0 0 1-.405 1.073c-.236.327-.563.591-.98.796-.42.206-.828.305-1.232.296a2.08 2.08 0 0 1-1.098-.333c-.33-.212-.594-.52-.794-.924h-.003Zm.847-.42c.177.357.429.566.753.621.323.056.675-.009 1.054-.195.392-.193.66-.436.806-.728.146-.293.13-.613-.044-.968-.118-.242-.27-.413-.457-.516a1.052 1.052 0 0 0-.622-.121c-.23.022-.473.093-.725.218-.392.192-.66.435-.803.727-.143.293-.13.613.04.958l-.002.003ZM23.928 80.885l4.996-3.313.56.843-2.367 1.568-.069-.106-2.629 1.745-.491-.74v.003Zm1.098 1.875c-.243-.367-.358-.73-.349-1.092a1.9 1.9 0 0 1 .34-1.03c.217-.323.51-.609.883-.854a3.112 3.112 0 0 1 1.139-.486 1.91 1.91 0 0 1 1.07.081c.333.128.616.37.853.725.233.355.351.718.351 1.092 0 .373-.1.73-.302 1.073a2.785 2.785 0 0 1-.87.89 2.78 2.78 0 0 1-1.152.456c-.392.056-.759.016-1.101-.127a1.88 1.88 0 0 1-.859-.731l-.003.003Zm.663-.625c.143.218.317.36.52.43.201.067.42.074.65.02.233-.055.463-.158.69-.31.227-.15.41-.324.55-.513.14-.19.218-.398.231-.616a1.08 1.08 0 0 0-.202-.666c-.14-.211-.308-.351-.501-.416a1.066 1.066 0 0 0-.625-.013c-.228.06-.46.168-.707.33a2.443 2.443 0 0 0-.578.52c-.143.186-.221.382-.23.587-.013.205.055.42.205.644h-.003v.003ZM27.922 86.636c-.212-.246-.342-.494-.395-.746a1.267 1.267 0 0 1 .043-.71c.081-.22.218-.413.405-.572.165-.14.336-.24.513-.298.18-.06.364-.072.557-.04.193.03.398.111.616.242.162.1.34.227.532.38.193.152.398.326.613.516.215.19.442.388.681.594l-.388-.14c.24-.2.367-.402.385-.604.019-.202-.08-.432-.298-.687a1.303 1.303 0 0 0-.489-.355.784.784 0 0 0-.625.016l-.377-.883c.361-.162.732-.2 1.108-.112.376.087.74.332 1.083.734.258.304.438.612.538.93.1.317.084.625-.047.93a1.374 1.374 0 0 1-.274.426 5.747 5.747 0 0 1-.392.37l-2.1 1.791-.569-.669.74-.63-.024.214c-.38.056-.713.03-1.005-.075-.29-.109-.57-.314-.831-.622Zm.74-.367c.147.171.305.295.47.364.165.072.324.103.476.103.15-.004.277-.025.377-.069.13-.043.261-.115.392-.218.13-.102.233-.186.31-.251l.131.292c-.233-.2-.432-.37-.6-.51-.168-.14-.314-.261-.439-.358a4.105 4.105 0 0 0-.348-.246 1.28 1.28 0 0 0-.302-.13.61.61 0 0 0-.267-.016.508.508 0 0 0-.237.115.512.512 0 0 0-.168.255.643.643 0 0 0 0 .318c.031.115.1.23.202.351h.004ZM30.795 89.597l4.28-4.373.72.703-4.281 4.373-.72-.703ZM35.995 94.221a3.003 3.003 0 0 1-.819-.886 2.197 2.197 0 0 1-.308-1.042 2.118 2.118 0 0 1 .255-1.07l.93.488c-.14.34-.155.669-.046.99.106.32.305.587.597.802.172.127.355.22.545.276.193.06.37.072.541.038a.669.669 0 0 0 .423-.274.605.605 0 0 0 .103-.211.546.546 0 0 0 .012-.224.825.825 0 0 0-.077-.246 1.612 1.612 0 0 0-.165-.27l-.974-1.288a4.236 4.236 0 0 1-.255-.38 1.696 1.696 0 0 1-.193-.476 1.285 1.285 0 0 1-.01-.556c.035-.196.131-.398.29-.613.23-.311.498-.513.812-.606.314-.094.64-.097.986-.007.345.094.678.258 1.005.501.33.246.582.52.76.821.177.302.276.622.295.958a2.28 2.28 0 0 1-.193 1.033l-.98-.489c.09-.195.127-.391.115-.587a1.229 1.229 0 0 0-.171-.548 1.568 1.568 0 0 0-.893-.703.992.992 0 0 0-.492-.028.583.583 0 0 0-.367.237.506.506 0 0 0-.105.37.924.924 0 0 0 .136.373c.075.121.156.236.243.345l.688.88c.096.119.196.259.304.42.11.162.193.342.259.538.065.196.084.405.056.629-.028.224-.128.454-.308.693a1.679 1.679 0 0 1-.641.544 1.76 1.76 0 0 1-.769.162 2.394 2.394 0 0 1-.812-.165 3.371 3.371 0 0 1-.78-.429h.003ZM40.958 97.398c-.392-.218-.688-.494-.884-.836a2.078 2.078 0 0 1-.276-1.11c.009-.402.127-.806.351-1.21.227-.414.51-.728.846-.95.336-.22.7-.335 1.092-.348.392-.012.781.087 1.167.302.395.218.694.498.89.837.196.339.29.709.277 1.113-.01.401-.125.806-.352 1.21a2.635 2.635 0 0 1-.843.945c-.336.225-.7.34-1.092.352a2.266 2.266 0 0 1-1.18-.305h.004Zm.454-.824c.349.193.675.22.974.08.299-.14.55-.391.756-.761.212-.383.292-.734.246-1.055-.047-.323-.243-.578-.588-.768-.237-.13-.458-.183-.67-.161a1.054 1.054 0 0 0-.58.255 2.075 2.075 0 0 0-.474.594c-.211.382-.292.734-.242 1.057.046.324.24.579.578.765v-.006ZM44.363 98.963l2.449-5.607.92.4-2.448 5.608-.918-.4h-.003ZM48.466 100.71c-.318-.103-.56-.243-.731-.414a1.452 1.452 0 0 1-.358-.563 1.91 1.91 0 0 1-.1-.61c0-.202.022-.391.06-.562.037-.171.071-.308.105-.41l.781-2.386.965.317-.675 2.056a3.986 3.986 0 0 0-.119.454 1.695 1.695 0 0 0-.028.516.985.985 0 0 0 .178.473c.1.14.264.249.491.323.122.04.249.06.38.06a.85.85 0 0 0 .389-.1 1.05 1.05 0 0 0 .36-.324c.112-.149.212-.354.3-.612l.485.426a2.382 2.382 0 0 1-.536.92c-.24.249-.522.417-.855.501-.333.084-.697.062-1.098-.068h.006v.003Zm1.437.336.436-1.325-.115-.038.967-2.945.958.314-1.4 4.271-.843-.277h-.003ZM52.7 97.995l.161-.772 3.068.644-.162.771-3.068-.643Zm2.305 4.273a4.149 4.149 0 0 1-.868-.109 2.02 2.02 0 0 1-.716-.311 1.04 1.04 0 0 1-.404-.563 1.39 1.39 0 0 1-.038-.616c.034-.199.081-.423.134-.674l.803-3.826.977.205-.79 3.77c-.038.177-.07.333-.09.466a.682.682 0 0 0 .015.342c.065.184.199.308.41.371.212.062.458.105.74.121l-.17.824h-.003ZM56.465 102.483l.591-4.457.995.13-.59 4.457-.996-.13Zm.681-5.135.121-.912.996.131-.121.911-.996-.133v.003ZM61.178 103.036c-.448-.019-.836-.134-1.166-.352a2.042 2.042 0 0 1-.747-.867 2.624 2.624 0 0 1-.227-1.238c.019-.473.128-.88.333-1.229a2.09 2.09 0 0 1 .818-.802c.345-.187.734-.27 1.176-.255.451.018.843.134 1.17.351.327.218.579.504.75.868.17.364.248.778.23 1.241-.019.467-.128.874-.33 1.222a2.098 2.098 0 0 1-.818.806c-.345.186-.74.274-1.189.255Zm.035-.943c.398.016.7-.105.905-.363.205-.259.314-.598.333-1.021.015-.435-.069-.786-.255-1.054-.187-.267-.476-.407-.871-.423-.268-.01-.492.04-.672.156a1.066 1.066 0 0 0-.405.488 2.06 2.06 0 0 0-.155.743c-.016.436.068.787.255 1.055.19.267.476.407.861.423l.004-.004ZM64.956 102.948l-.386-4.478.893-.078.118 1.39.122-.01.267 3.089-1.01.087h-.004Zm3.105-.267-.187-2.156a4.323 4.323 0 0 0-.068-.466 1.681 1.681 0 0 0-.177-.485.955.955 0 0 0-.349-.364c-.15-.09-.342-.125-.579-.106a1.226 1.226 0 0 0-.373.096.885.885 0 0 0-.32.243 1.072 1.072 0 0 0-.209.435c-.047.181-.056.408-.034.682l-.613-.203c-.034-.382.01-.734.13-1.054.122-.323.318-.588.589-.796.27-.209.619-.333 1.039-.367.333-.028.61.003.837.096.224.093.407.218.55.38.144.161.252.335.33.522.078.19.13.367.165.541.034.171.053.311.066.42l.214 2.501-1.011.087v-.006ZM72.757 101.966l-1.583-5.782.98-.267 3.799 3.34-1.117-4.075.98-.267 1.583 5.782-.98.267-3.798-3.34 1.116 4.074-.98.268ZM80.99 99.4c-.414.178-.815.24-1.204.184a2.092 2.092 0 0 1-1.049-.464 2.635 2.635 0 0 1-.74-1.02c-.187-.435-.261-.852-.227-1.25.034-.401.165-.759.395-1.076.23-.317.547-.56.952-.734.417-.178.818-.24 1.207-.187.389.053.737.209 1.052.464.31.255.56.594.74 1.02.184.429.261.843.227 1.244a2.104 2.104 0 0 1-.392 1.08c-.23.316-.55.562-.964.74h.003Zm-.37-.864c.367-.159.588-.395.662-.719.075-.32.028-.675-.137-1.063-.17-.402-.398-.682-.684-.843-.283-.162-.607-.165-.968-.01-.245.106-.426.25-.538.43a1.08 1.08 0 0 0-.155.612c.006.23.068.476.18.737.171.402.398.681.684.84.284.162.604.165.959.013l-.003.003ZM85.276 97.19l-3.528-3.119.84-.507 2.259 2-.75-2.923.722-.442 2.265 1.993-.756-2.92.837-.513 1.182 4.55-.666.41-2.489-2.102.753 3.17-.666.407h-.003v-.003ZM92.134 92.434l-3.886-4.565.765-.65 3.886 4.566-.765.65ZM94.218 90.648l-3.22-3.138.625-.64 1 .973.083-.088 2.221 2.165-.709.728Zm2.175-2.233-1.55-1.512c-.102-.1-.22-.202-.357-.308a1.73 1.73 0 0 0-.452-.251.92.92 0 0 0-.5-.047c-.172.028-.343.127-.508.298-.09.09-.161.196-.217.314a.861.861 0 0 0-.084.392c0 .144.043.299.127.467.084.165.224.345.42.538l-.597.249a2.425 2.425 0 0 1-.591-.887 1.788 1.788 0 0 1-.075-.989c.069-.335.252-.653.548-.954.233-.24.463-.395.694-.473.23-.078.45-.103.665-.075.212.028.408.09.591.18.184.09.343.193.48.3.136.108.242.198.323.276l1.798 1.751-.709.728h-.006v.003ZM99.383 84.838l-4.822-3.561.597-.809 4.822 3.561-.594.81h-.003ZM101.012 82.616l-3.852-2.32.464-.766 1.194.719.063-.103 2.657 1.602-.523.868h-.003Zm1.608-2.672-1.854-1.117a3.696 3.696 0 0 0-.42-.217 1.707 1.707 0 0 0-.495-.14.957.957 0 0 0-.5.068c-.162.069-.302.202-.427.408a1.164 1.164 0 0 0-.143.357.878.878 0 0 0 .01.401c.034.14.111.28.23.424.121.143.298.286.532.429l-.526.38a2.4 2.4 0 0 1-.778-.729 1.77 1.77 0 0 1-.299-.945c-.009-.342.097-.694.315-1.055.17-.286.36-.49.569-.618.208-.128.417-.203.628-.224.215-.022.42-.007.616.04.2.047.377.109.536.184.158.074.283.14.376.195l2.15 1.294-.523.871v-.006h.003ZM105.166 74.744l-2.888-1.272-.049.115-2.598-1.144.407-.924 5.488 2.417-.357.811-.003-.003Zm-.405 1.223a1.86 1.86 0 0 1-.722.864 2.07 2.07 0 0 1-1.064.314 2.85 2.85 0 0 1-1.213-.255 2.801 2.801 0 0 1-1.011-.724 2.057 2.057 0 0 1-.482-1.005c-.063-.37-.01-.75.161-1.138.172-.392.414-.678.719-.859.308-.183.653-.27 1.042-.26.389.005.791.102 1.201.282.408.18.747.41 1.018.694.267.28.438.6.51.958.071.354.018.734-.159 1.135v-.006Zm-.759-.504c.109-.246.14-.47.093-.672a1.048 1.048 0 0 0-.329-.541 2.386 2.386 0 0 0-.66-.417 2.345 2.345 0 0 0-.753-.205 1.058 1.058 0 0 0-.616.118c-.177.1-.317.261-.423.498-.109.245-.137.475-.087.69.05.212.162.401.333.57.171.164.379.304.628.413.252.112.495.174.734.19.237.015.452-.028.638-.131.187-.103.333-.274.439-.51h.003v-.003ZM101.177 70.625l-.874-.29.317-.951.874.289-.317.952Zm4.916 1.633-4.269-1.419.317-.951 4.269 1.418-.317.952ZM107.35 68.463c-.075.314-.199.57-.371.759-.171.19-.37.317-.597.382-.227.066-.46.069-.7.013a1.527 1.527 0 0 1-.544-.24 1.194 1.194 0 0 1-.361-.426 1.824 1.824 0 0 1-.168-.637 5.483 5.483 0 0 1-.01-.653c.01-.246.028-.514.053-.8.025-.286.053-.585.078-.899l.115.395c-.302-.074-.541-.059-.715.047-.175.103-.302.32-.38.647a1.27 1.27 0 0 0 .003.603c.047.206.178.37.383.495l-.492.824a1.671 1.671 0 0 1-.743-.827c-.153-.358-.168-.793-.047-1.31.09-.388.237-.715.433-.983.196-.267.457-.435.78-.51a1.41 1.41 0 0 1 .508-.03c.164.021.342.052.532.099l2.688.631-.203.856-.949-.224.187-.106c.271.27.448.557.532.855.084.299.081.644-.012 1.039Zm-.735-.376c.053-.221.06-.42.016-.594a1.15 1.15 0 0 0-.473-.706 1.337 1.337 0 0 0-.407-.19c-.159-.047-.29-.078-.389-.103l.158-.28-.056.787c-.015.218-.025.408-.028.566-.003.159 0 .302.01.426.012.125.037.23.074.32.035.09.084.165.143.225.063.059.137.1.234.12a.533.533 0 0 0 .305-.011.57.57 0 0 0 .252-.19.946.946 0 0 0 .165-.37h-.004ZM21.34 40.067c-.146.36-.349.672-.604.933a2.566 2.566 0 0 1-.899.6c-.345.137-.722.2-1.135.187a3.75 3.75 0 0 1-1.313-.302c-.607-.245-1.08-.572-1.419-.973a2.6 2.6 0 0 1-.613-1.331 2.766 2.766 0 0 1 .196-1.472c.277-.684.66-1.16 1.139-1.43s1.036-.361 1.667-.268l-.236 1.011a1.773 1.773 0 0 0-.999.196c-.295.159-.516.423-.665.793-.156.37-.203.712-.134 1.03.068.317.227.594.479.842.252.25.582.454.99.62.404.164.783.248 1.135.245.348 0 .66-.093.927-.274.267-.18.482-.457.638-.827.115-.28.165-.544.146-.8a1.37 1.37 0 0 0-.265-.708 2.153 2.153 0 0 0-.687-.595l-.398.98-.728-.295.8-1.966c.043.013.105.031.186.062.08.031.127.05.143.053.523.215.949.507 1.272.88.324.374.523.8.598 1.279.074.479 0 .989-.218 1.527h-.003v.003ZM22.77 36.621l-5.43-2.827.464-.89 5.43 2.825-.464.89v.002ZM24.997 32.956c-.24.38-.535.66-.887.833a2.085 2.085 0 0 1-1.126.212 2.618 2.618 0 0 1-1.188-.423c-.399-.252-.7-.554-.9-.902a2.065 2.065 0 0 1-.283-1.107c.013-.392.134-.775.37-1.145.243-.382.539-.662.89-.836A2.087 2.087 0 0 1 23 29.373c.4.031.796.174 1.188.42.395.249.694.547.896.896.202.348.299.718.286 1.11-.009.389-.134.778-.373 1.157Zm-.796-.504c.214-.336.258-.66.136-.964-.12-.305-.36-.572-.718-.796-.367-.234-.716-.336-1.04-.308-.323.028-.59.208-.802.541-.143.227-.212.448-.202.66.009.21.084.407.22.593.137.187.327.355.567.504.367.233.715.333 1.042.305.327-.028.591-.205.797-.535ZM26.64 30.247l-4.675-3.751.631-.79 2.215 1.776-.077.096 2.46 1.975-.556.69.003.004Zm1.454-1.614c-.274.342-.585.563-.934.665-.348.103-.709.1-1.082-.01a3.126 3.126 0 0 1-1.083-.58 3.104 3.104 0 0 1-.809-.937 1.935 1.935 0 0 1-.249-1.045c.019-.354.165-.7.433-1.036.264-.33.575-.553.933-.668a2.109 2.109 0 0 1 1.114-.038c.386.09.756.277 1.11.56.352.28.613.6.788.955.174.355.245.719.214 1.089-.028.37-.174.718-.432 1.038v.007h-.003Zm-.797-.442a1.05 1.05 0 0 0 .252-.625c0-.215-.056-.423-.177-.625a2.14 2.14 0 0 0-.507-.563 2.082 2.082 0 0 0-.66-.367 1.159 1.159 0 0 0-.656-.031c-.212.052-.401.186-.57.395-.158.199-.242.4-.245.603-.003.202.056.404.18.6.125.2.302.39.532.573.227.183.451.31.672.392.221.08.433.093.632.04s.382-.184.554-.392h-.007ZM30.894 25.481c-.23.23-.467.38-.713.454a1.283 1.283 0 0 1-1.31-.345 1.59 1.59 0 0 1-.339-.488 1.145 1.145 0 0 1-.08-.554c.015-.196.08-.404.192-.631.087-.168.2-.355.336-.56.137-.206.293-.423.467-.653l.538-.725-.109.398c-.218-.22-.43-.336-.631-.339-.206 0-.427.115-.663.351a1.293 1.293 0 0 0-.314.517c-.069.199-.044.407.065.622l-.85.445a1.672 1.672 0 0 1-.198-1.095c.059-.383.273-.762.647-1.139.283-.283.579-.485.883-.61.308-.12.616-.13.93-.024.169.056.318.134.445.24.131.105.262.223.399.363l1.953 1.95-.619.622-.69-.687.214.01c.088.373.088.708 0 1.007-.087.299-.267.591-.556.877v-.006h.003Zm-.427-.706c.162-.162.271-.327.327-.498.056-.17.078-.332.062-.482a1.052 1.052 0 0 0-.096-.37 1.282 1.282 0 0 0-.25-.373c-.111-.121-.204-.218-.276-.293l.283-.152a39.13 39.13 0 0 0-.784 1.104 3.762 3.762 0 0 0-.215.367 1.314 1.314 0 0 0-.105.311.7.7 0 0 0 0 .268c.021.08.065.155.134.224a.537.537 0 0 0 .267.149c.1.022.205.01.314-.028a.963.963 0 0 0 .333-.227h.006ZM33.473 22.866l-3.976-4.65.762-.65 3.976 4.65-.762.653v-.003ZM38.56 19.167c-.367.24-.737.395-1.117.46-.38.066-.737.04-1.083-.071a2.128 2.128 0 0 1-.917-.61l.78-.703c.271.25.573.377.912.39.336.009.657-.085.958-.28.178-.119.33-.256.448-.418.122-.158.196-.323.224-.494a.672.672 0 0 0-.112-.491.61.61 0 0 0-.161-.171.548.548 0 0 0-.209-.09.867.867 0 0 0-.258-.013c-.097.006-.2.028-.311.062l-1.547.47c-.133.04-.28.078-.444.106a1.881 1.881 0 0 1-.514.015 1.35 1.35 0 0 1-.526-.184 1.491 1.491 0 0 1-.472-.482c-.212-.323-.308-.646-.29-.973.019-.327.13-.634.34-.927.205-.292.475-.547.818-.768a2.814 2.814 0 0 1 1.032-.43 2.107 2.107 0 0 1 1.005.057c.327.1.626.28.903.538l-.8.75a1.205 1.205 0 0 0-1.083-.343 1.582 1.582 0 0 0-.97.594.977.977 0 0 0-.196.451.6.6 0 0 0 .093.426.49.49 0 0 0 .308.227.954.954 0 0 0 .398 0c.14-.028.277-.062.41-.108l1.062-.34c.143-.05.31-.096.5-.14.19-.043.39-.065.595-.056.208.007.41.063.607.162.196.1.38.28.544.529.171.258.268.522.286.79.022.267-.015.526-.115.774-.1.25-.242.486-.435.706-.193.221-.417.414-.675.585h.012ZM43.077 16.564c-.401.202-.8.286-1.189.258a2.087 2.087 0 0 1-1.073-.398 2.646 2.646 0 0 1-.8-.977c-.211-.423-.314-.833-.304-1.235.009-.401.118-.768.33-1.098.21-.33.513-.594.908-.79.404-.202.802-.289 1.195-.258.392.031.75.165 1.076.398.327.237.594.56.803.974.208.417.31.827.304 1.228a2.057 2.057 0 0 1-.326 1.101c-.209.33-.517.598-.918.8h-.006v-.003Zm-.423-.843c.357-.18.563-.433.616-.756.053-.324-.013-.678-.203-1.054-.196-.39-.438-.657-.73-.8-.293-.143-.617-.127-.968.05-.24.121-.41.274-.514.46a1.05 1.05 0 0 0-.118.622c.022.23.097.47.224.725.196.389.439.656.734.8.296.142.613.127.959-.047ZM46.017 15.076l-2.278-5.68.93-.373 2.278 5.68-.93.373ZM49.806 13.842c-.318.096-.598.124-.837.08a1.475 1.475 0 0 1-.62-.255 1.876 1.876 0 0 1-.432-.441 2.918 2.918 0 0 1-.274-.492 4.187 4.187 0 0 1-.149-.395l-.734-2.4.97-.296.632 2.068c.04.134.096.28.165.439.068.162.162.308.277.438a.96.96 0 0 0 .417.283c.165.056.36.05.588-.018.121-.038.236-.094.345-.171a.834.834 0 0 0 .261-.305 1.06 1.06 0 0 0 .112-.473 2.169 2.169 0 0 0-.108-.672l.644.069c.111.367.143.718.09 1.06-.05.34-.187.64-.411.902-.22.261-.535.454-.94.576h.004v.003Zm1.369-.554-.408-1.334-.115.034-.909-2.964.965-.295 1.316 4.298-.85.258v.003ZM51.969 9.236l-.156-.772 3.074-.618.156.77-3.074.62Zm3.805 3.017c-.28.112-.56.196-.84.242a1.99 1.99 0 0 1-.78-.006 1.029 1.029 0 0 1-.595-.358 1.356 1.356 0 0 1-.277-.55 18.4 18.4 0 0 1-.143-.672l-.772-3.832.98-.196.76 3.773c.034.177.068.333.099.463.031.134.08.237.15.311.13.143.304.203.525.178.218-.025.46-.084.728-.18l.165.823v.004ZM56.204 6.964l-.121-.911.996-.13.12.91-.991.131h-.004Zm.682 5.135-.591-4.457.995-.13.591 4.457-.995.13ZM61.162 11.817c-.448.022-.846-.059-1.191-.246a2.07 2.07 0 0 1-.822-.799 2.626 2.626 0 0 1-.336-1.213c-.021-.473.05-.89.221-1.253.171-.364.42-.653.744-.871.323-.218.71-.336 1.148-.358.45-.022.85.06 1.194.246.346.187.62.45.825.8.202.348.317.749.34 1.212.02.467-.05.88-.222 1.247a2.057 2.057 0 0 1-.743.874c-.327.218-.713.34-1.164.361h.006Zm-.046-.942c.398-.019.69-.168.87-.442.181-.274.262-.622.24-1.045-.021-.435-.137-.777-.345-1.026-.212-.25-.51-.364-.905-.346-.271.013-.489.084-.657.215a1.034 1.034 0 0 0-.358.523c-.071.22-.102.47-.087.752.022.436.137.778.349 1.027.211.248.51.364.896.345h-.003v-.003ZM64.308 11.596l.283-4.488.893.056-.087 1.39.12.01-.195 3.095-1.014-.063Zm3.11.196.138-2.158c.009-.14.009-.299 0-.473a1.75 1.75 0 0 0-.103-.504.998.998 0 0 0-.293-.413c-.133-.112-.317-.175-.556-.19a1.145 1.145 0 0 0-.383.037.872.872 0 0 0-.352.193 1.053 1.053 0 0 0-.267.401 2.162 2.162 0 0 0-.134.669l-.579-.29a2.4 2.4 0 0 1 .287-1.026c.168-.301.401-.535.7-.7.301-.164.66-.236 1.082-.21.333.02.604.092.812.217.209.124.37.277.489.457.115.18.199.367.249.566.05.2.077.383.084.557.006.174.006.314 0 .423l-.156 2.503-1.014-.065v.006h-.003ZM71.272 12.243 72.61 6.4l.99.227 1.77 4.737.942-4.118.99.227-1.338 5.844-.99-.227-1.766-4.74-.943 4.118-.99-.227h-.003v.003ZM78.894 14.457c-.424-.153-.76-.383-1.005-.688a2.085 2.085 0 0 1-.448-1.054c-.053-.398 0-.815.158-1.25.162-.445.39-.8.688-1.07.299-.27.638-.442 1.023-.513.383-.075.784-.034 1.198.115.427.152.76.382 1.008.687.246.305.395.656.451 1.055.053.398 0 .814-.158 1.25-.159.438-.386.793-.685 1.063a2.09 2.09 0 0 1-1.023.52c-.383.075-.787.034-1.21-.118h.003v.003Zm.32-.884c.377.137.7.112.974-.071.274-.184.482-.473.625-.87.15-.411.174-.772.078-1.083-.097-.311-.333-.535-.703-.669-.252-.093-.482-.112-.688-.056a1.073 1.073 0 0 0-.535.342 2.123 2.123 0 0 0-.373.66c-.15.41-.174.77-.075 1.082.1.311.33.532.69.665h.007ZM82.755 15.886l.853-4.632.868.46-.548 2.965 2.119-2.152.75.388-.542 2.97 2.11-2.155.87.451-3.288 3.36-.697-.362.517-3.216-2.324 2.28-.694-.36h.006v.003ZM89.332 19.703l3.466-4.889.818.582-3.469 4.889-.818-.579.003-.003ZM91.2 21.02l2.897-3.439.684.575-.899 1.067.093.078-1.997 2.37-.778-.653v.003Zm2.386 2.007 1.394-1.655c.09-.108.184-.233.28-.38a1.68 1.68 0 0 0 .218-.466.956.956 0 0 0 .013-.503c-.041-.168-.153-.33-.337-.486a1.25 1.25 0 0 0-.33-.196.853.853 0 0 0-.398-.056 1.06 1.06 0 0 0-.454.162c-.158.097-.33.249-.504.46l-.292-.578c.245-.292.525-.51.84-.653.314-.14.64-.19.98-.146.339.043.672.202.992.476.255.214.43.435.523.659.093.224.134.445.121.656-.012.215-.059.414-.137.603-.077.19-.165.355-.264.498-.1.143-.184.258-.252.342l-1.618 1.92-.778-.654.003-.003ZM96.464 25.82l4.393-4.081.684.734-4.393 4.08-.684-.734ZM98.028 27.485l3.538-2.775.553.703-1.098.862.075.096-2.44 1.913-.628-.8Zm1.926 2.454 1.705-1.338c.112-.087.23-.192.352-.314a1.78 1.78 0 0 0 .308-.413c.08-.153.118-.318.115-.492-.003-.174-.084-.355-.231-.541a1.113 1.113 0 0 0-.283-.258.853.853 0 0 0-.376-.134 1 1 0 0 0-.479.065 2.044 2.044 0 0 0-.588.346l-.168-.626a2.38 2.38 0 0 1 .955-.466c.336-.075.666-.056.989.056.324.112.616.336.874.669.206.26.333.51.38.75.047.239.04.46-.016.668a1.827 1.827 0 0 1-.258.563 2.85 2.85 0 0 1-.361.435c-.124.122-.23.215-.317.283l-1.976 1.55-.628-.8.003-.003ZM102.047 33.246a1.878 1.878 0 0 1-.302-1.085c.015-.37.134-.725.348-1.055.215-.332.514-.615.899-.852.386-.24.778-.38 1.17-.42.392-.04.759.016 1.101.175.343.158.623.416.844.78.224.364.323.725.298 1.08-.025.354-.149.69-.376 1.007-.227.317-.532.591-.918.828-.38.233-.762.379-1.148.441a1.9 1.9 0 0 1-1.076-.124c-.333-.143-.613-.401-.844-.775h.004Zm.846-.339c.14.23.308.383.498.458.192.074.401.087.631.037.23-.05.467-.153.716-.308.252-.153.451-.32.597-.5.149-.181.233-.374.252-.576a1.004 1.004 0 0 0-.168-.628 1.077 1.077 0 0 0-.516-.464 1.144 1.144 0 0 0-.657-.05c-.233.047-.467.14-.697.283a2.19 2.19 0 0 0-.572.495 1.148 1.148 0 0 0-.255.6c-.022.212.034.43.171.653Zm-.069 1.366 2.688-1.652-.065-.106 2.417-1.486.532.861-5.105 3.142-.464-.756h-.003v-.003ZM103.862 36.177l4.014-2.031.454.896-4.013 2.03-.455-.895Zm4.623-2.339.822-.414.454.896-.821.417-.455-.896v-.003ZM105.275 39.467c-.121-.301-.171-.578-.14-.833s.118-.473.264-.66c.147-.183.333-.323.564-.416.199-.081.395-.122.581-.122.187 0 .367.047.542.137.174.09.342.23.507.423.121.146.252.32.386.529.133.208.276.435.42.684.143.246.298.507.46.778l-.324-.255c.29-.115.476-.268.557-.454.084-.187.063-.436-.065-.747a1.3 1.3 0 0 0-.355-.488c-.158-.14-.357-.2-.6-.184l-.081-.955c.395-.04.756.038 1.089.24.33.202.597.547.799 1.039.15.37.224.718.218 1.05-.006.33-.118.62-.339.869-.115.133-.246.24-.392.32-.146.08-.311.152-.488.227l-2.558 1.045-.333-.815.903-.367-.091.196c-.376-.065-.687-.193-.93-.386-.242-.192-.442-.475-.594-.852v-.003Zm.815-.118c.087.212.196.376.333.495.134.118.274.199.42.245.143.044.271.062.376.056.137 0 .287-.028.442-.084a8.32 8.32 0 0 0 .377-.143l.031.32-.411-.671a22.535 22.535 0 0 0-.305-.48 4.577 4.577 0 0 0-.255-.341 1.272 1.272 0 0 0-.246-.218.626.626 0 0 0-.249-.1.476.476 0 0 0-.258.038.52.52 0 0 0-.239.186.586.586 0 0 0-.097.302.94.94 0 0 0 .081.395Z" fill="#16375F"/></g><defs><linearGradient id="b" x1="8" y1="54.998" x2="118.028" y2="54.998" gradientUnits="userSpaceOnUse"><stop stop-color="#AE7A2B"/><stop offset=".05" stop-color="#B88937"/><stop offset=".21" stop-color="#D7B75B"/><stop offset=".33" stop-color="#EAD372"/><stop offset=".4" stop-color="#F2DE7B"/><stop offset=".44" stop-color="#EDD774"/><stop offset=".68" stop-color="#D3B253"/><stop offset=".88" stop-color="#C39B3E"/><stop offset="1" stop-color="#BE9337"/></linearGradient><filter id="a" x="0" y="0" width="126.028" height="125.995" filterUnits="userSpaceOnUse" color-interpolation-filters="sRGB"><feFlood flood-opacity="0" result="BackgroundImageFix"/><feColorMatrix in="SourceAlpha" values="0 0 0 0 0 0 0 0 0 0 0 0 0 0 0 0 0 0 127 0" result="hardAlpha"/><feOffset dy="8"/><feGaussianBlur stdDeviation="4"/><feComposite in2="hardAlpha" operator="out"/><feColorMatrix values="0 0 0 0 0 0 0 0 0 0 0 0 0 0 0 0 0 0 0.25 0"/><feBlend in2="BackgroundImageFix" result="effect1_dropShadow_1085_2115"/><feBlend in="SourceGraphic" in2="effect1_dropShadow_1085_2115" result="shape"/></filter></defs></svg>