<svg width="127" height="126" fill="none" xmlns="http://www.w3.org/2000/svg"><g filter="url(#a)"><path d="M63.016 109.034c29.854 0 54.053-24.194 54.053-54.036 0-29.842-24.202-54.037-54.053-54.037-29.852 0-54.053 24.195-54.053 54.037s24.201 54.036 54.053 54.036Z" fill="#F1F1F2"/><path d="M63.014 109.995C32.677 109.995 8 85.322 8 54.998 8 24.673 32.678 0 63.014 0c30.337 0 55.014 24.673 55.014 54.998 0 30.324-24.68 54.997-55.014 54.997Zm0-108.076C33.738 1.919 9.92 25.731 9.92 54.998s23.818 53.075 53.094 53.075 53.092-23.808 53.092-53.075c0-29.267-23.816-53.079-53.092-53.079Z" fill="url(#b)"/></g><path d="M46.505 56.868c0 .368-.068.742-.204 1.122-.136.38-.342.732-.618 1.056a3.099 3.099 0 0 1-1.044.786c-.42.196-.914.294-1.482.294-.772 0-1.43-.194-1.974-.582-.54-.392-.952-.93-1.236-1.614-.284-.684-.426-1.468-.426-2.352 0-.888.142-1.672.426-2.352.284-.684.696-1.22 1.236-1.608.544-.388 1.202-.582 1.974-.582.644 0 1.192.126 1.644.378.456.252.818.576 1.086.972.272.396.452.808.54 1.236.052.232.078.452.078.66h-1.308c0-.112-.01-.234-.03-.366a2.157 2.157 0 0 0-.324-.882 1.867 1.867 0 0 0-.678-.642c-.28-.16-.616-.24-1.008-.24-.456 0-.858.128-1.206.384-.348.252-.62.632-.816 1.14-.192.508-.288 1.142-.288 1.902 0 .756.096 1.39.288 1.902.196.508.468.892.816 1.152.348.256.75.384 1.206.384.332 0 .624-.06.876-.18s.464-.282.636-.486a2.14 2.14 0 0 0 .39-.69c.092-.256.138-.52.138-.792h1.308Zm4.497 3.252c-.656 0-1.236-.142-1.74-.426a3.088 3.088 0 0 1-1.176-1.17c-.28-.5-.42-1.072-.42-1.716 0-.64.14-1.206.42-1.698a3.003 3.003 0 0 1 1.176-1.158c.504-.28 1.084-.42 1.74-.42.656 0 1.234.14 1.734.42.504.276.896.662 1.176 1.158.284.492.426 1.058.426 1.698 0 .644-.142 1.216-.426 1.716-.28.496-.672.886-1.176 1.17-.5.284-1.078.426-1.734.426Zm0-1.116c.4 0 .752-.09 1.056-.27.304-.18.542-.434.714-.762.172-.332.258-.72.258-1.164 0-.44-.086-.822-.258-1.146a1.845 1.845 0 0 0-.714-.75 2.07 2.07 0 0 0-1.056-.264 2.09 2.09 0 0 0-1.056.264 1.845 1.845 0 0 0-.714.75c-.172.324-.258.706-.258 1.146 0 .444.086.832.258 1.164.172.328.41.582.714.762.308.18.66.27 1.056.27Zm9.909-5.376L58.847 60h-1.728L55 53.628h1.344l1.74 5.826h-.204l1.686-5.826h1.344Zm1.28 3.642v-1.014h4.692l-.18.3v-.144c0-.324-.07-.622-.21-.894a1.587 1.587 0 0 0-.63-.66c-.276-.168-.622-.252-1.038-.252-.416 0-.782.09-1.098.27a1.852 1.852 0 0 0-.732.756c-.172.324-.258.714-.258 1.17 0 .464.084.864.252 1.2.168.332.41.588.726.768.316.18.694.27 1.134.27.308 0 .574-.03.798-.09.228-.064.414-.148.558-.252.148-.104.26-.216.336-.336a.866.866 0 0 0 .132-.366h1.296c-.024.26-.11.518-.258.774-.144.252-.35.482-.618.69a3.167 3.167 0 0 1-.972.492c-.38.12-.818.18-1.314.18-.664 0-1.246-.14-1.746-.42-.5-.28-.89-.668-1.17-1.164-.28-.5-.42-1.072-.42-1.716 0-.656.142-1.232.426-1.728a2.992 2.992 0 0 1 1.182-1.158c.504-.28 1.082-.42 1.734-.42.664 0 1.238.14 1.722.42.488.28.864.666 1.128 1.158.264.492.396 1.058.396 1.698a6.7 6.7 0 0 1-.006.264c-.004.1-.01.168-.018.204h-5.844Zm7.32 2.73v-6.372h1.301v2.034l-.348-.156c.028-.26.094-.508.198-.744.104-.236.242-.446.414-.63a1.87 1.87 0 0 1 .648-.444 2.27 2.27 0 0 1 .888-.162c.256 0 .462.02.618.06.16.04.258.072.294.096l-.276 1.224a1.194 1.194 0 0 0-.246-.108 1.52 1.52 0 0 0-.504-.066c-.328 0-.6.058-.816.174-.216.116-.388.27-.516.462s-.22.402-.276.63c-.052.224-.078.45-.078.678V60H69.51Zm5.407-2.73v-1.014h4.691l-.18.3v-.144c0-.324-.07-.622-.21-.894a1.587 1.587 0 0 0-.63-.66c-.275-.168-.621-.252-1.037-.252-.417 0-.783.09-1.099.27a1.852 1.852 0 0 0-.731.756c-.172.324-.258.714-.258 1.17 0 .464.084.864.252 1.2.168.332.41.588.726.768.316.18.694.27 1.134.27.308 0 .574-.03.798-.09.228-.064.413-.148.558-.252.147-.104.26-.216.335-.336a.866.866 0 0 0 .133-.366h1.295c-.023.26-.11.518-.257.774-.145.252-.35.482-.618.69a3.167 3.167 0 0 1-.972.492c-.38.12-.819.18-1.314.18-.665 0-1.247-.14-1.747-.42-.5-.28-.89-.668-1.17-1.164-.28-.5-.42-1.072-.42-1.716 0-.656.142-1.232.427-1.728a2.992 2.992 0 0 1 1.181-1.158c.504-.28 1.082-.42 1.734-.42.665 0 1.239.14 1.722.42.489.28.865.666 1.129 1.158.263.492.395 1.058.395 1.698a6.7 6.7 0 0 1-.005.264c-.005.1-.01.168-.019.204h-5.843Zm9.959 2.856a2.859 2.859 0 0 1-1.446-.378c-.44-.256-.792-.632-1.056-1.128-.264-.496-.396-1.102-.396-1.818 0-.7.134-1.294.402-1.782a2.802 2.802 0 0 1 2.496-1.494c.496 0 .956.12 1.38.36.428.24.772.574 1.032 1.002.26.424.39.914.39 1.47V56.442l-.756.024v-.078c0-.332-.084-.626-.252-.882a1.782 1.782 0 0 0-.666-.612 1.756 1.756 0 0 0-.87-.228c-.516 0-.948.174-1.296.522-.348.344-.522.882-.522 1.614 0 .728.174 1.268.522 1.62.352.348.784.522 1.296.522.32 0 .616-.076.888-.228.272-.156.49-.368.654-.636.164-.268.246-.574.246-.918l.756.03c0 .552-.126 1.05-.378 1.494a2.84 2.84 0 0 1-1.008 1.056c-.42.256-.892.384-1.416.384ZM86.923 60v-9.378h1.308V60h-1.308Zm-37.41 14.114c-.451 0-.827-.076-1.127-.228a1.97 1.97 0 0 1-.714-.606 2.425 2.425 0 0 1-.372-.822 3.748 3.748 0 0 1-.108-.876V67.628H48.5v3.624c0 .308.04.592.12.852.08.256.22.464.42.624.204.156.488.234.852.234.34 0 .636-.1.888-.3.252-.204.448-.46.588-.768.14-.312.21-.624.21-.936l.57.306c0 .368-.062.722-.186 1.062a2.94 2.94 0 0 1-.522.918 2.477 2.477 0 0 1-1.926.87ZM51.579 74v-6.372h1.302V74h-1.302Zm7.486 0v-3.714a2.17 2.17 0 0 0-.144-.822 1.118 1.118 0 0 0-.474-.558c-.22-.136-.514-.204-.882-.204-.324 0-.618.08-.882.24-.26.16-.468.378-.624.654a1.874 1.874 0 0 0-.228.93l-.558-.276c0-.516.122-.978.366-1.386.244-.412.57-.738.978-.978.412-.24.862-.36 1.35-.36.504 0 .934.098 1.29.294.36.192.634.468.822.828.192.356.288.782.288 1.278V74h-1.302Zm-4.536 0v-6.372h1.302V74h-1.302Zm10.116.126a2.859 2.859 0 0 1-1.446-.378c-.44-.256-.792-.632-1.056-1.128-.264-.496-.396-1.102-.396-1.818 0-.7.134-1.294.402-1.782a2.802 2.802 0 0 1 2.496-1.494c.496 0 .956.12 1.38.36.428.24.772.574 1.032 1.002.26.424.39.914.39 1.47V70.442l-.756.024v-.078c0-.332-.084-.626-.252-.882a1.782 1.782 0 0 0-.666-.612 1.756 1.756 0 0 0-.87-.228c-.516 0-.948.174-1.296.522-.348.344-.522.882-.522 1.614 0 .728.174 1.268.522 1.62.352.348.784.522 1.296.522.32 0 .616-.076.888-.228.272-.156.49-.368.654-.636.164-.268.246-.574.246-.918l.756.03c0 .552-.126 1.05-.378 1.494a2.84 2.84 0 0 1-1.008 1.056c-.42.256-.892.384-1.416.384ZM66.69 74v-9.378h1.308V74H66.69Zm3.44-2.73v-1.014h4.692l-.18.3v-.144c0-.324-.07-.622-.21-.894a1.587 1.587 0 0 0-.63-.66c-.276-.168-.622-.252-1.038-.252-.416 0-.782.09-1.098.27a1.852 1.852 0 0 0-.732.756c-.172.324-.258.714-.258 1.17 0 .464.084.864.252 1.2.168.332.41.588.726.768.316.18.694.27 1.134.27.308 0 .574-.03.798-.09.228-.064.414-.148.558-.252.148-.104.26-.216.336-.336a.866.866 0 0 0 .132-.366h1.296c-.024.26-.11.518-.258.774-.144.252-.35.482-.618.69a3.167 3.167 0 0 1-.972.492c-.38.12-.818.18-1.314.18-.664 0-1.246-.14-1.746-.42-.5-.28-.89-.668-1.17-1.164-.28-.5-.42-1.072-.42-1.716 0-.656.142-1.232.426-1.728a2.992 2.992 0 0 1 1.182-1.158c.504-.28 1.082-.42 1.734-.42.664 0 1.238.14 1.722.42.488.28.864.666 1.128 1.158.264.492.396 1.058.396 1.698a6.7 6.7 0 0 1-.006.264c-.004.1-.01.168-.018.204H70.13ZM77.45 74v-6.372h1.302v2.034l-.348-.156c.028-.26.094-.508.198-.744.104-.236.242-.446.414-.63a1.87 1.87 0 0 1 .648-.444 2.27 2.27 0 0 1 .888-.162c.256 0 .462.02.618.06.16.04.258.072.294.096l-.276 1.224a1.194 1.194 0 0 0-.246-.108 1.52 1.52 0 0 0-.504-.066c-.328 0-.6.058-.816.174-.216.116-.388.27-.516.462s-.22.402-.276.63c-.052.224-.078.45-.078.678V74H77.45ZM34.999 88v-6.372h1.284V88h-1.284Zm.648-7.692a.959.959 0 0 1-.582-.18.61.61 0 0 1-.24-.51c0-.212.08-.378.24-.498a.938.938 0 0 1 .582-.186c.22 0 .41.062.57.186.164.12.246.286.246.498a.604.604 0 0 1-.246.51c-.16.12-.35.18-.57.18ZM42.552 88v-3.714a2.17 2.17 0 0 0-.144-.822 1.118 1.118 0 0 0-.474-.558c-.22-.136-.514-.204-.882-.204-.324 0-.618.08-.882.24-.26.16-.468.378-.624.654a1.874 1.874 0 0 0-.228.93l-.558-.276c0-.516.122-.978.366-1.386.244-.412.57-.738.978-.978.412-.24.862-.36 1.35-.36.504 0 .934.098 1.29.294.36.192.634.468.822.828.192.356.288.782.288 1.278V88h-1.302Zm-4.536 0v-6.372h1.302V88h-1.302Zm9.985.126c-.38 0-.738-.042-1.074-.126a3.067 3.067 0 0 1-.888-.366 1.865 1.865 0 0 1-.594-.606c-.14-.24-.21-.518-.21-.834v-.162h1.296v.12c0 .292.134.514.402.666.272.148.64.222 1.104.222.272 0 .52-.028.744-.084a1.26 1.26 0 0 0 .54-.258.558.558 0 0 0 .204-.444c0-.292-.144-.5-.432-.624-.284-.124-.716-.234-1.296-.33a8.303 8.303 0 0 1-.918-.216 3.392 3.392 0 0 1-.792-.348 1.82 1.82 0 0 1-.558-.546 1.477 1.477 0 0 1-.204-.792c0-.4.12-.74.36-1.02s.564-.492.972-.636a4.033 4.033 0 0 1 1.35-.216c.476 0 .916.078 1.32.234.408.152.736.374.984.666.248.288.372.642.372 1.062v.108h-1.29v-.084a.69.69 0 0 0-.198-.51 1.207 1.207 0 0 0-.516-.294 2.13 2.13 0 0 0-.666-.102 3.06 3.06 0 0 0-.654.072 1.282 1.282 0 0 0-.54.234.525.525 0 0 0-.216.444c0 .192.07.346.21.462.14.112.338.206.594.282.256.072.554.138.894.198.312.056.616.128.912.216.296.084.562.196.798.336.24.14.43.32.57.54.144.22.216.49.216.81 0 .332-.076.618-.228.858-.152.24-.36.44-.624.6a3.02 3.02 0 0 1-.894.348c-.332.08-.682.12-1.05.12Zm6.552-.012c-.452 0-.828-.076-1.128-.228a1.97 1.97 0 0 1-.714-.606 2.425 2.425 0 0 1-.372-.822 3.748 3.748 0 0 1-.108-.876V81.628h1.308v3.624c0 .308.04.592.12.852.08.256.22.464.42.624.204.156.488.234.852.234.34 0 .636-.1.888-.3.252-.204.448-.46.588-.768.14-.312.21-.624.21-.936l.57.306c0 .368-.062.722-.186 1.062a2.94 2.94 0 0 1-.522.918 2.477 2.477 0 0 1-1.926.87ZM56.617 88v-6.372h1.302V88h-1.302Zm2.95 0v-6.372h1.302v2.034l-.348-.156c.028-.26.094-.508.198-.744.104-.236.242-.446.414-.63a1.87 1.87 0 0 1 .648-.444 2.27 2.27 0 0 1 .888-.162c.256 0 .462.02.618.06.16.04.258.072.294.096l-.276 1.224a1.194 1.194 0 0 0-.246-.108 1.52 1.52 0 0 0-.504-.066c-.328 0-.6.058-.816.174-.216.116-.388.27-.516.462s-.22.402-.276.63c-.052.224-.078.45-.078.678V88h-1.302Zm7.153.126c-.48 0-.902-.076-1.266-.228-.36-.152-.64-.37-.84-.654-.2-.284-.3-.626-.3-1.026 0-.428.112-.782.336-1.062.228-.28.54-.496.936-.648.4-.156.854-.258 1.362-.306.756-.076 1.288-.15 1.596-.222.312-.072.468-.19.468-.354v-.012a.812.812 0 0 0-.414-.738c-.276-.168-.67-.252-1.182-.252-.54 0-.958.096-1.254.288-.292.188-.438.488-.438.9h-1.278c0-.488.126-.902.378-1.242.256-.34.608-.598 1.056-.774.448-.18.962-.27 1.542-.27.532 0 1.016.082 1.452.246.44.16.79.4 1.05.72.26.32.39.718.39 1.194v3.042c0 .148.006.292.018.432.012.136.034.258.066.366.036.124.078.226.126.306.052.08.094.136.126.168h-1.296a.992.992 0 0 1-.108-.15 1.86 1.86 0 0 1-.204-.618 3.548 3.548 0 0 1-.024-.426l.24.168a1.7 1.7 0 0 1-.546.606c-.24.172-.53.306-.87.402-.336.096-.71.144-1.122.144Zm.27-1.08c.372 0 .71-.058 1.014-.174.308-.12.554-.3.738-.54.184-.244.276-.55.276-.918v-1.056l.306.402c-.256.1-.57.182-.942.246-.368.06-.748.11-1.14.15-.54.048-.946.142-1.218.282-.272.136-.408.364-.408.684 0 .308.112.54.336.696.228.152.574.228 1.038.228Zm9.441.954v-3.714a2.17 2.17 0 0 0-.144-.822 1.118 1.118 0 0 0-.474-.558c-.22-.136-.514-.204-.882-.204-.324 0-.618.08-.882.24-.26.16-.468.378-.624.654a1.874 1.874 0 0 0-.228.93l-.558-.276c0-.516.122-.978.366-1.386.244-.412.57-.738.978-.978.412-.24.862-.36 1.35-.36.504 0 .934.098 1.29.294.36.192.634.468.822.828.192.356.288.782.288 1.278V88h-1.302Zm-4.536 0v-6.372h1.302V88h-1.302Zm10.567.126c-.64 0-1.215-.134-1.722-.402a3.021 3.021 0 0 1-1.194-1.158c-.289-.5-.433-1.088-.433-1.764 0-.676.144-1.258.433-1.746.291-.492.69-.87 1.194-1.134.508-.264 1.082-.396 1.722-.396.483 0 .913.074 1.29.222.376.144.694.336.954.576.26.24.457.504.593.792.136.288.204.576.204.864V84.022h-1.29a.404.404 0 0 0-.005-.066 3.408 3.408 0 0 0-.013-.078 1.23 1.23 0 0 0-.275-.63 1.58 1.58 0 0 0-.6-.438 2.164 2.164 0 0 0-.87-.162c-.365 0-.7.08-1.008.24a1.77 1.77 0 0 0-.732.714c-.184.32-.276.72-.276 1.2s.09.884.27 1.212c.184.324.428.57.732.738.307.168.645.252 1.013.252.397 0 .72-.06.972-.18a1.36 1.36 0 0 0 .57-.492c.129-.208.203-.432.222-.672h1.29c0 .288-.066.58-.198.876a2.509 2.509 0 0 1-.582.798c-.255.24-.573.432-.954.576-.376.144-.812.216-1.308.216Zm4.942-2.856v-1.014h4.692l-.18.3v-.144c0-.324-.07-.622-.21-.894a1.587 1.587 0 0 0-.63-.66c-.276-.168-.622-.252-1.038-.252-.416 0-.782.09-1.098.27a1.852 1.852 0 0 0-.732.756c-.172.324-.258.714-.258 1.17 0 .464.084.864.252 1.2.168.332.41.588.726.768.316.18.694.27 1.134.27.308 0 .574-.03.798-.09.228-.064.414-.148.558-.252.148-.104.26-.216.336-.336a.866.866 0 0 0 .132-.366h1.296c-.024.26-.11.518-.258.774-.144.252-.35.482-.618.69a3.167 3.167 0 0 1-.972.492c-.38.12-.818.18-1.314.18-.664 0-1.246-.14-1.746-.42-.5-.28-.89-.668-1.17-1.164-.28-.5-.42-1.072-.42-1.716 0-.656.142-1.232.426-1.728a2.992 2.992 0 0 1 1.182-1.158c.504-.28 1.082-.42 1.734-.42.664 0 1.238.14 1.722.42.488.28.864.666 1.128 1.158.264.492.396 1.058.396 1.698a6.7 6.7 0 0 1-.006.264c-.004.1-.01.168-.018.204h-5.844Z" fill="#163949"/><path d="M71.336 15.402H53.96c-.993 0-1.799.806-1.799 1.8v21.38c0 .993.806 1.799 1.8 1.799h17.376c.994 0 1.8-.806 1.8-1.8v-21.38c0-.993-.806-1.799-1.8-1.799Z" fill="#fff"/><path d="M64.801 14.176c-.065-1.43-1.14-2.152-2.068-2.175-.522-.013-.994.122-1.405.444-.556.434-.82 1.019-.845 1.732h-.242c-.976 0-1.951-.003-2.927 0-.46.002-.714.258-.715.711-.003.6-.003 1.199-.001 1.798.001.454.26.715.714.715 3.554 0 7.107.001 10.66 0 .456 0 .709-.259.71-.718.003-.571.002-1.143.002-1.714 0-.565-.23-.792-.802-.793h-3.08Zm4.796 26.282c-.395-.3-.752-.576-1.117-.841a.451.451 0 0 0-.25-.069c-.941-.004-1.882-.002-2.823-.002H54.138c-.765 0-1.222-.456-1.222-1.22V17.502c0-.76.464-1.217 1.229-1.217h1.777c.074 0 .148-.006.227-.01v-.905c-.7 0-1.39-.003-2.078.001-1.19.007-2.071.891-2.071 2.083 0 6.976 0 13.952.004 20.928 0 .193.022.392.072.577.246.918 1.028 1.498 2.019 1.498H69.596Zm9.661-12.931c0-.349-.005-.697.003-1.045.003-.115-.032-.171-.14-.216-2.24-.912-4.496-1.773-6.829-2.422a.757.757 0 0 0-.384.002c-2.325.645-4.575 1.506-6.808 2.411-.132.053-.157.129-.15.253.062 1.014.09 2.033.187 3.044.18 1.88.561 3.717 1.31 5.464 1.095 2.553 2.924 4.356 5.502 5.394a.408.408 0 0 0 .275.012c1.41-.566 2.66-1.368 3.688-2.497 1.259-1.382 2.015-3.027 2.51-4.807.508-1.83.715-3.703.836-5.593ZM69.134 16.268c.034.008.047.014.06.014.67.001 1.337 0 2.006.003.695.004 1.16.474 1.165 1.172.003.334 0 .669 0 1.003 0 1.358-.001 2.715.004 4.073 0 .074.042.195.093.213.26.092.53.156.807.233.005-.054.01-.088.01-.122.001-1.838.01-3.676-.002-5.514-.006-.96-.727-1.798-1.676-1.93-.445-.062-.902-.036-1.354-.043-.367-.006-.734-.002-1.114-.002v.9Zm-3.692 4.539c-1.323 0-2.646 0-3.97-.002-.174 0-.334.026-.444.178a.407.407 0 0 0-.034.453c.1.193.275.233.475.233 2.605-.002 5.21-.001 7.814-.001.083 0 .168.005.25-.004a.432.432 0 0 0 .385-.425c0-.217-.16-.4-.381-.428-.062-.008-.125-.004-.188-.004h-3.907Zm-8.458.878c-.297-.348-.564-.669-.838-.983-.188-.214-.438-.242-.63-.082-.186.156-.201.423-.025.634.39.465.78.928 1.175 1.387.221.257.533.245.725-.031.521-.75 1.037-1.502 1.55-2.257.15-.22.113-.479-.075-.615-.197-.145-.463-.096-.623.121-.12.163-.23.332-.345.498l-.914 1.328Zm0 14.557c-.293-.345-.565-.67-.844-.988-.185-.21-.44-.235-.627-.072-.181.158-.202.415-.033.618.398.475.797.947 1.205 1.413.21.238.506.22.695-.032.117-.156.224-.319.334-.48l1.229-1.789c.103-.15.145-.327.037-.467a.677.677 0 0 0-.368-.222c-.18-.04-.304.091-.404.239-.399.586-.802 1.17-1.223 1.78Zm0-4.852-.828-.973c-.12-.142-.263-.227-.457-.18-.332.079-.44.441-.206.724.377.456.763.904 1.147 1.354.253.298.553.285.776-.035.29-.417.575-.837.863-1.256.225-.327.452-.652.674-.98a.425.425 0 0 0 .014-.491c-.1-.16-.261-.233-.43-.178a.677.677 0 0 0-.322.238c-.411.577-.809 1.165-1.23 1.777h-.001Zm0-4.852c-.283-.333-.547-.646-.815-.956-.206-.238-.458-.277-.655-.106-.194.169-.196.427.005.666.372.443.745.883 1.121 1.32.256.299.553.285.777-.035.236-.336.465-.676.697-1.015.28-.407.561-.813.838-1.221.113-.166.119-.343.002-.508-.112-.16-.284-.218-.46-.152a.647.647 0 0 0-.28.23c-.41.578-.808 1.165-1.23 1.777Zm8.81 9.677c-.111-.242-.221-.464-.316-.693-.05-.12-.116-.162-.25-.161-1.092.006-2.185.004-3.278.004-.195 0-.39-.007-.585.002-.18.008-.32.09-.389.267-.063.163-.052.335.083.441.106.082.26.143.393.144 1.4.01 2.798.006 4.197.005.04 0 .08-.005.145-.009Zm-1.65-5.696c-.064-.003-.111-.007-.158-.007-.849 0-1.697-.003-2.545 0-.31 0-.504.176-.497.439.007.26.203.42.514.42h2.814c-.046-.3-.087-.57-.128-.852Zm-.319-4.853c-.839 0-1.672-.01-2.504.005-.255.005-.409.242-.372.486.033.224.213.363.485.364.758.003 1.516.001 2.274 0 .046 0 .092-.012.137-.02v-.698c0-.04-.012-.08-.02-.137Z" fill="#fff"/><path d="M64.8 14.176h3.08c.573 0 .802.227.803.793 0 .57.001 1.142-.002 1.714-.002.459-.254.717-.71.717-3.553.001-7.107 0-10.66 0-.455 0-.713-.26-.714-.715-.002-.599-.002-1.198 0-1.797.002-.454.256-.71.716-.711.976-.003 1.95 0 2.926 0h.243c.024-.713.289-1.299.845-1.733.411-.32.884-.456 1.405-.443.93.023 2.002.745 2.068 2.175Zm-2.896-.102a.736.736 0 0 0 1.47-.02.747.747 0 0 0-.734-.73.748.748 0 0 0-.736.75Z" fill="#000"/><path d="M69.596 40.458H54.095c-.991 0-1.774-.58-2.019-1.498a2.257 2.257 0 0 1-.072-.578C52 31.406 52 24.43 52 17.454c0-1.192.88-2.077 2.07-2.084.688-.004 1.376 0 2.078 0v.905c-.08.004-.153.01-.227.01h-1.777c-.765-.001-1.23.455-1.23 1.216v20.824c0 .764.458 1.22 1.223 1.22h11.27c.94 0 1.88-.002 2.822.003.084 0 .184.02.25.068.365.265.722.542 1.117.84v.002Z" fill="#000"/><path d="M79.258 27.527c-.12 1.89-.328 3.764-.836 5.593-.495 1.78-1.251 3.425-2.51 4.807-1.029 1.129-2.279 1.931-3.688 2.497a.406.406 0 0 1-.275-.012c-2.578-1.038-4.407-2.84-5.502-5.394-.748-1.747-1.129-3.584-1.31-5.464-.097-1.011-.125-2.03-.187-3.044-.007-.124.018-.199.15-.253 2.234-.905 4.483-1.766 6.808-2.41a.754.754 0 0 1 .384-.003c2.332.649 4.59 1.51 6.829 2.422.108.045.143.101.14.216-.008.348-.003.696-.003 1.045Zm-.53.006c0-.236-.007-.473.003-.71.004-.116-.035-.17-.143-.214-2.022-.814-4.061-1.58-6.154-2.195a1.096 1.096 0 0 0-.648-.003c-2.074.607-4.093 1.367-6.097 2.167-.17.068-.233.149-.217.333.1 1.165.154 2.336.296 3.495.204 1.673.62 3.295 1.35 4.827 1.026 2.156 2.647 3.689 4.841 4.62a.36.36 0 0 0 .252.014c1.288-.543 2.428-1.299 3.365-2.345 1.144-1.278 1.846-2.79 2.312-4.42.52-1.82.728-3.686.84-5.568ZM69.133 16.269v-.9c.38 0 .746-.004 1.113.002.452.007.91-.019 1.354.044.95.132 1.67.969 1.676 1.929.012 1.838.004 3.676.003 5.515 0 .033-.006.067-.01.122-.277-.077-.547-.142-.807-.234-.051-.018-.094-.139-.094-.212-.005-1.358-.003-2.716-.003-4.074 0-.334.002-.668 0-1.002-.005-.698-.47-1.168-1.166-1.172-.668-.004-1.337-.002-2.005-.003-.014 0-.027-.007-.06-.015h-.001ZM65.442 20.807h3.906c.063 0 .126-.004.188.004.22.029.38.21.38.428a.432.432 0 0 1-.384.425c-.082.01-.167.004-.25.004l-7.814.001c-.2 0-.376-.04-.476-.233a.407.407 0 0 1 .035-.453c.11-.151.27-.177.444-.177 1.324.002 2.647 0 3.97 0v.001ZM56.984 21.686l.914-1.328c.114-.166.226-.335.345-.498.16-.216.426-.265.623-.121.188.137.225.395.076.615-.514.755-1.03 1.508-1.55 2.257-.193.277-.505.288-.726.032-.395-.46-.786-.923-1.175-1.388-.176-.211-.161-.478.026-.634.191-.16.44-.132.628.082.275.314.543.635.838.983ZM56.984 36.242c.42-.611.824-1.194 1.223-1.78.1-.147.224-.279.404-.239.135.03.285.115.368.222.108.14.066.317-.038.468-.41.595-.818 1.193-1.228 1.789-.11.16-.217.324-.334.479-.189.251-.486.27-.695.032A82.379 82.379 0 0 1 55.48 35.8c-.17-.203-.148-.46.032-.617.187-.163.443-.14.628.072.279.318.55.643.845.987ZM56.984 31.39c.421-.61.819-1.199 1.23-1.776.075-.105.2-.2.321-.239.17-.054.332.018.43.178.1.163.095.332-.013.491-.222.328-.449.654-.674.98-.287.42-.573.839-.864 1.256-.222.32-.522.334-.775.036-.384-.45-.77-.899-1.147-1.355-.233-.282-.125-.645.206-.724.194-.047.337.038.457.18l.828.973ZM56.985 26.538c.421-.611.82-1.198 1.23-1.777a.65.65 0 0 1 .28-.229c.176-.066.348-.008.46.152.116.164.11.341-.002.507-.277.409-.559.815-.838 1.222-.232.338-.462.679-.697 1.014-.224.32-.521.335-.777.036-.376-.438-.75-.878-1.121-1.32-.201-.24-.2-.498-.005-.667.197-.17.45-.132.655.107.268.31.532.623.816.956ZM65.795 36.216c-.066.004-.105.01-.145.01-1.4 0-2.798.004-4.198-.007a.693.693 0 0 1-.392-.143c-.135-.106-.147-.278-.083-.441.069-.176.21-.258.389-.267.194-.009.39-.002.584-.002 1.093 0 2.186.002 3.28-.004.133-.001.2.041.248.161.095.229.205.451.317.693ZM64.143 30.52l.128.852h-2.814c-.312 0-.507-.16-.514-.42-.006-.263.187-.438.497-.439.848-.002 1.696 0 2.545 0 .047 0 .094.004.158.008ZM63.825 25.666c.008.057.018.098.019.138.002.228 0 .457 0 .699-.044.006-.09.019-.136.02-.758 0-1.517.002-2.275 0-.272-.002-.45-.141-.484-.365-.037-.244.117-.48.371-.486.833-.015 1.666-.006 2.505-.006Z" fill="#000"/><path d="M61.906 14.075a.747.747 0 0 1 .736-.75.747.747 0 0 1 .735.73.736.736 0 0 1-1.47.02ZM78.728 27.533c-.113 1.882-.32 3.748-.84 5.567-.467 1.632-1.169 3.143-2.313 4.42-.936 1.047-2.077 1.803-3.364 2.345a.36.36 0 0 1-.253-.013c-2.194-.93-3.814-2.464-4.841-4.62-.73-1.532-1.146-3.154-1.35-4.827-.142-1.16-.195-2.33-.296-3.495-.016-.184.047-.265.217-.333 2.005-.8 4.023-1.56 6.097-2.168.224-.065.427-.06.648.004 2.094.615 4.132 1.381 6.154 2.195.108.043.148.098.143.214-.01.237-.003.474-.003.71Zm-.544.295c0-.202-.011-.405.003-.606.01-.147-.034-.22-.176-.276-1.852-.734-3.718-1.427-5.63-1.995a.949.949 0 0 0-.568.005c-1.905.563-3.764 1.257-5.61 1.986-.164.065-.202.149-.188.308.07.854.111 1.712.206 2.563.178 1.59.513 3.147 1.124 4.634.906 2.205 2.408 3.84 4.597 4.818.078.035.195.053.269.021 1.16-.514 2.186-1.222 3.027-2.181 1.094-1.249 1.746-2.722 2.181-4.305.448-1.627.646-3.292.764-4.972Z" fill="#fff"/><path d="M78.184 27.828c-.118 1.68-.315 3.345-.763 4.972-.436 1.583-1.088 3.056-2.182 4.305-.841.96-1.866 1.667-3.027 2.181-.073.033-.19.015-.269-.02-2.189-.979-3.69-2.614-4.597-4.819-.611-1.487-.946-3.043-1.124-4.634-.095-.851-.135-1.708-.206-2.562-.013-.16.024-.244.188-.309 1.847-.73 3.705-1.423 5.61-1.986a.952.952 0 0 1 .569-.004c1.911.567 3.777 1.26 5.63 1.994.141.057.186.129.175.276-.014.201-.003.404-.003.606Zm-7.339 4.723v.26c0 .606 0 1.212.002 1.819.003.398.165.562.556.563.467.003.934.003 1.4 0 .385-.001.56-.18.56-.564V32.55h2.073c.396 0 .57-.175.57-.575.002-.466.003-.934 0-1.4 0-.358-.18-.54-.54-.54-.612-.003-1.226-.002-1.839-.002h-.264v-.252c0-.613.002-1.226 0-1.84-.001-.373-.178-.551-.551-.554a90.794 90.794 0 0 0-1.4 0c-.403.003-.565.17-.566.58v1.84c0 .072-.008.145-.013.226h-.256c-.627 0-1.254-.002-1.88.002-.284.002-.484.167-.49.437a31.08 31.08 0 0 0 0 1.63c.006.273.202.441.48.447.328.006.656.002.983.002h1.176Z" fill="#000"/><path d="M70.844 32.55h-1.176c-.327 0-.655.005-.982-.001-.28-.006-.475-.174-.482-.447a31.186 31.186 0 0 1 0-1.63c.007-.27.207-.435.49-.437.627-.005 1.254-.002 1.881-.002h.256c.005-.08.013-.154.013-.227v-1.84c.001-.408.163-.576.566-.579.466-.003.933-.003 1.4 0 .373.003.55.181.551.555.002.613 0 1.226 0 1.84v.25h.264c.613 0 1.227 0 1.84.002.358.002.538.183.54.54.002.467.001.934 0 1.401-.001.4-.175.575-.57.575H73.36V34.628c0 .384-.175.563-.56.564-.466.002-.933.002-1.4 0-.391-.001-.554-.164-.555-.563-.003-.607-.002-1.212-.003-1.819v-.26Z" fill="#fff"/><defs><linearGradient id="b" x1="8" y1="54.998" x2="118.028" y2="54.998" gradientUnits="userSpaceOnUse"><stop stop-color="#AE7A2B"/><stop offset=".05" stop-color="#B88937"/><stop offset=".21" stop-color="#D7B75B"/><stop offset=".33" stop-color="#EAD372"/><stop offset=".4" stop-color="#F2DE7B"/><stop offset=".44" stop-color="#EDD774"/><stop offset=".68" stop-color="#D3B253"/><stop offset=".88" stop-color="#C39B3E"/><stop offset="1" stop-color="#BE9337"/></linearGradient><filter id="a" x="0" y="0" width="126.028" height="125.995" filterUnits="userSpaceOnUse" color-interpolation-filters="sRGB"><feFlood flood-opacity="0" result="BackgroundImageFix"/><feColorMatrix in="SourceAlpha" values="0 0 0 0 0 0 0 0 0 0 0 0 0 0 0 0 0 0 127 0" result="hardAlpha"/><feOffset dy="8"/><feGaussianBlur stdDeviation="4"/><feComposite in2="hardAlpha" operator="out"/><feColorMatrix values="0 0 0 0 0 0 0 0 0 0 0 0 0 0 0 0 0 0 0.25 0"/><feBlend in2="BackgroundImageFix" result="effect1_dropShadow_1085_2181"/><feBlend in="SourceGraphic" in2="effect1_dropShadow_1085_2181" result="shape"/></filter></defs></svg>