<svg width="20" height="20" fill="none" xmlns="http://www.w3.org/2000/svg"><path d="M14.446 0h-8.99A5.46 5.46 0 0 0 0 5.452v8.984a5.46 5.46 0 0 0 5.456 5.452h8.99a5.46 5.46 0 0 0 5.456-5.452V5.452A5.46 5.46 0 0 0 14.446 0Zm4.28 14.436a4.284 4.284 0 0 1-4.28 4.277h-8.99a4.284 4.284 0 0 1-4.28-4.277V5.452a4.284 4.284 0 0 1 4.28-4.278h8.99c2.36 0 4.28 1.92 4.28 4.278v8.984Z" fill="#fff" fill-opacity=".7"/><path d="M9.947 4.49a5.463 5.463 0 0 0-5.459 5.454A5.463 5.463 0 0 0 9.947 15.4a5.463 5.463 0 0 0 5.459-5.455 5.463 5.463 0 0 0-5.46-5.455Zm0 9.735a4.287 4.287 0 0 1-4.283-4.28c0-2.361 1.921-4.281 4.283-4.281a4.287 4.287 0 0 1 4.283 4.28c0 2.36-1.921 4.28-4.283 4.28ZM15.729 2.505a1.66 1.66 0 0 0-1.659 1.657A1.66 1.66 0 0 0 15.73 5.82a1.66 1.66 0 0 0 1.658-1.658 1.66 1.66 0 0 0-1.658-1.657Zm0 2.14a.484.484 0 1 1 0-.967.484.484 0 0 1 0 .967Z" fill="#fff" fill-opacity=".7"/></svg>