<svg width="34" height="34" fill="none" xmlns="http://www.w3.org/2000/svg"><circle cx="17" cy="17" r="16.5" fill="#fff" stroke="#EA6F54"/><path d="M22.576 12.502c-.065-.047-.1-.074-.137-.098-.543-.345-1.081-.697-1.63-1.034-.708-.435-1.48-.626-2.277-.48-1.963.357-3.92.746-5.875 1.135-.531.106-.868.556-.867 1.085.001.793.727 1.355 1.557 1.194 3.009-.582 6.016-1.17 9.025-1.754.057-.011.112-.027.204-.05v.002Z" fill="#fff"/><path d="M25.374 25.277c-.685-.52-1.298-1.105-1.789-1.808a7.234 7.234 0 0 1-1.192-2.806c-.054-.285-.127-.568-.157-.854-.031-.287-.178-.46-.426-.616a253.449 253.449 0 0 1-3.615-2.299c-.544-.353-.783-.868-.689-1.481.093-.605.47-.986 1.075-1.129.431-.102.837.004 1.22.25 1.905 1.215 3.812 2.427 5.718 3.64l.244.155.379-.596-2.512-1.6c.116-.027.177-.044.24-.055 1.061-.193 2.122-.39 3.186-.572.111-.02.262.01.36.072.986.616 1.963 1.242 2.943 1.866l-4.986 7.834Z" fill="#3881C5"/><path d="M14.963 25.85c-.103-.196-.243-.382-.302-.587-.186-.648.21-1.262.888-1.396a677.22 677.22 0 0 1 4.188-.813c.081-.015.172.008.278.014l-.224-.769c-.065.011-.146.023-.226.038-1.396.27-2.79.549-4.189.811-.894.168-1.676-.604-1.477-1.45.113-.483.436-.764.93-.86l4.144-.806c.082-.016.162-.035.253-.055l-.193-.758c-.083.035-.157.082-.238.098-1.373.27-2.746.537-4.12.802-.562.108-1.049-.083-1.351-.521a1.144 1.144 0 0 1 .038-1.395.875.875 0 0 1 .474-.303c1.163-.23 2.332-.433 3.5-.64a.295.295 0 0 1 .192.027c1.035.666 2.067 1.337 3.1 2.007.283.184.648.314.825.566.172.243.15.611.214.924.42 2.06 1.5 3.731 3.232 5.022.032.023.061.05.091.074l-.335.527c-.082.013-.165.022-.245.039-.912.187-1.777.03-2.59-.469-.4-.246-.798-.498-1.19-.758a.585.585 0 0 0-.504-.082c-1.204.304-2.41.597-3.612.908-.38.098-.755.171-1.152.058l-.398-.253ZM4.002 18.872c.45-.708.898-1.42 1.358-2.123a.47.47 0 0 1 .274-.19c3.771-.74 7.545-1.472 11.318-2.206.056-.011.113-.018.212-.034-.482.717-.548 1.454-.17 2.306-.097-.003-.177-.018-.25-.005-1.634.293-3.266.591-4.9.88a.64.64 0 0 0-.481.322c-.225.377-.463.747-.708 1.11a.421.421 0 0 1-.243.163c-.785.161-1.572.32-2.362.46-1.3.232-2.561.044-3.776-.555-.048-.023-.102-.035-.153-.052L4 18.872Zm1.324-.454a6.116 6.116 0 0 0 2.348.182c.891-.105 1.78-.223 2.67-.336.05-.006.098-.023.151-.037l-.129-.7c-.876.11-1.721.214-2.564.325A5.94 5.94 0 0 1 5.82 17.8l-.335-.07-.16.687Zm8.504-2.763.246.98.61-.11-.248-.996-.608.126Zm1.739.667.663-.105-.246-.961-.668.11.25.956ZM30.746 12.187c.072.1.154.194.216.299.427.721.045 1.55-.8 1.706-1.887.348-3.778.685-5.667 1.027-.542.098-1.083.2-1.627.291a.405.405 0 0 1-.258-.04c-.877-.55-1.748-1.107-2.65-1.68.077-.025.128-.047.182-.057 3.143-.612 6.287-1.227 9.433-1.827.244-.046.515.016.773.028l.398.253Zm-1.995.604-.664.096.239.941.662-.095-.238-.941Zm-1.524.297-.669.096.239.942.654-.095-.224-.943Zm-1.34 1.256-.242-.976-.6.1.242.976.6-.1Zm-1.718-.648-.665.087.235.937.664-.096-.235-.928Zm-1.961 1.342.648-.11-.242-.951-.653.095.247.966ZM22.576 12.501c-.092.022-.148.038-.204.049-3.008.585-6.016 1.172-9.025 1.755-.83.16-1.556-.401-1.557-1.194-.001-.53.335-.98.867-1.085 1.956-.39 3.912-.778 5.875-1.136.796-.146 1.569.045 2.278.48.548.337 1.086.689 1.629 1.035.037.023.072.05.137.097Z" fill="#3881C5"/><path d="M28 4 6 30" stroke="#EA6F54"/></svg>