<svg width="34" height="34" fill="none" xmlns="http://www.w3.org/2000/svg"><circle cx="17" cy="17" r="16.5" fill="#fff" stroke="#EA6F54"/><g fill="#3881C5"><path d="M10.454 27.45h-.068l-2.794-.001c-.034 0-.08-.014-.1-.039-.591-.72-1.045-1.512-1.29-2.415-.325-1.19-.268-2.356.247-3.487.363-.798.914-1.435 1.684-1.868.809-.455 1.67-.565 2.573-.363.56.125 1.07.364 1.553.665.39.242.804.415 1.266.457.503.046.968-.075 1.403-.323.448-.256.81-.61 1.127-1.012.504-.642.869-1.362 1.163-2.119.443-1.14.72-2.32.848-3.534.048-.453.065-.908.098-1.362.15-2 .698-3.876 1.733-5.602.09-.15.19-.295.288-.447l.258.115.25.113c-.087.151-.173.296-.254.443-.606 1.105-1.038 2.272-1.24 3.519-.216 1.323-.138 2.625.304 3.897.143.41.335.796.524 1.185.285.587.527 1.191.68 1.828.155.65.206 1.304.067 1.965-.11.519-.329.988-.636 1.419-.413.578-.935 1.044-1.502 1.465-.13.097-.269.183-.387.292a.757.757 0 0 0-.075 1.026c.252.315.696.397 1.025.162.349-.25.69-.512 1.018-.79.51-.43.954-.926 1.317-1.49a5.172 5.172 0 0 0 .837-2.678c.03-.946-.168-1.85-.484-2.734-.19-.53-.43-1.036-.676-1.54a5.751 5.751 0 0 1-.57-2.368 7.473 7.473 0 0 1 .237-2.08c.253-1 .652-1.938 1.193-2.816.012-.02.025-.038.043-.065l.776.347-.043.067c-.52.778-.907 1.615-1.095 2.535a4.43 4.43 0 0 0-.004 1.858c.155.705.49 1.316.967 1.852.248.28.527.525.823.752.75.572 1.37 1.257 1.805 2.101.32.619.515 1.276.6 1.965a6.984 6.984 0 0 1-.686 4.02c-.615 1.252-1.427 2.364-2.473 3.295-.897.798-1.923 1.361-3.097 1.641a7.395 7.395 0 0 1-2.244.176c-1.415-.099-2.736-.523-3.997-1.151a13.652 13.652 0 0 1-3.603-2.577c-.103-.104-.2-.212-.3-.319-.153-.167-.346-.22-.537-.146a.488.488 0 0 0-.31.474c-.002 1.078.363 2.026 1.014 2.873.209.273.441.523.695.754l.057.049-.008.017Zm7.952-5.581c-.019-.042-.03-.087-.057-.123-.344-.467-.69-.932-1.037-1.398a.242.242 0 0 0-.077-.067.183.183 0 0 0-.23.05c-.062.073-.06.162.003.25l.74.996c.1.136.199.272.301.406a.187.187 0 0 0 .216.069.217.217 0 0 0 .14-.183Zm1.172 1.494c-.107.002-.166.035-.201.101a.183.183 0 0 0 .015.208c.349.471.698.943 1.048 1.413a.19.19 0 0 0 .27.043.19.19 0 0 0 .038-.27c-.348-.473-.697-.944-1.049-1.412-.032-.043-.094-.066-.12-.083Zm-2.961 1.3c.04-.017.082-.029.117-.052.08-.051.156-.108.233-.162l1.065-.75c.097-.07.123-.184.063-.273-.063-.095-.182-.113-.286-.04l-1.042.734c-.089.062-.178.123-.265.188a.189.189 0 0 0-.068.216c.025.073.1.128.183.139Zm-.01-2.445c-.03.013-.078.025-.115.052-.063.047-.082.117-.062.192.02.076.07.127.148.139.2.033.401.064.602.09.095.013.188-.065.204-.16.016-.096-.045-.198-.143-.216-.204-.037-.41-.064-.635-.097Zm2.224 2.347c.001-.117-.064-.2-.159-.217-.096-.018-.196.04-.216.14a5.99 5.99 0 0 0-.073.505c-.01.098.067.179.162.192.094.014.192-.045.21-.14.031-.165.052-.332.076-.48Z"/><path d="m21.05 6.39.703.315c-.064.109-.127.21-.186.315-.57 1.007-.983 2.072-1.19 3.214-.209 1.146-.177 2.28.186 3.396.132.406.326.784.51 1.168.38.795.681 1.617.828 2.49.134.797.12 1.587-.105 2.368a5.084 5.084 0 0 1-.955 1.792c-.355.44-.765.827-1.205 1.182l-.057.044-.454-.611.057-.05c.447-.361.86-.757 1.205-1.22.544-.729.84-1.544.849-2.458.006-.637-.118-1.254-.31-1.858-.196-.616-.469-1.2-.753-1.778a6.837 6.837 0 0 1-.652-2.217c-.152-1.26.02-2.483.408-3.682.266-.823.626-1.605 1.077-2.343l.043-.067ZM18.819 22.293l.458.617c-.115.077-.22.162-.337.224a.384.384 0 0 1-.492-.142.382.382 0 0 1 .096-.503c.087-.067.18-.128.274-.196h.001Z"/></g><path d="M28 4 6 30" stroke="#EA6F54"/></svg>