<svg width="34" height="34" fill="none" xmlns="http://www.w3.org/2000/svg"><circle cx="17" cy="17" r="16.5" fill="#fff" stroke="#EA6F54"/><g fill="#3881C5"><path d="M18.248 10.204c.503.346.994.685 1.487 1.021a.77.77 0 0 0 1.22-.54c.04-.313-.084-.562-.343-.741l-1.42-.979c-.025-.017-.05-.037-.085-.063l1.259-1.891c.329.265.651.51.956.775 1.33 1.159 2.182 2.618 2.657 4.302.254.898.479 1.806.698 2.714.325 1.348.85 2.613 1.506 3.832.22.407.384.845.565 1.273.174.41.146.817-.1 1.189-.33.497-.676.984-1.016 1.473-.078.112-.165.217-.253.333l-.329-.207c-2.403-1.496-4.807-2.99-7.21-4.489a26.324 26.324 0 0 1-1.018-.666 2.941 2.941 0 0 1-.747-4.063l2.173-3.274Z"/><path d="m25.444 13.175.151.627c.237.994.476 1.988.907 2.92.289.624.617 1.23.912 1.851.163.341.309.691.437 1.046.241.667.188 1.32-.157 1.941-.122.219-.25.436-.395.64-.349.49-.706.974-1.067 1.455a.416.416 0 0 1-.51.15.425.425 0 0 1-.26-.452.602.602 0 0 1 .107-.245c.361-.504.734-1 1.09-1.507a4.35 4.35 0 0 0 .349-.618 1.3 1.3 0 0 0 .075-.921c-.14-.53-.389-1.012-.633-1.496-.475-.944-.976-1.878-1.254-2.906-.215-.792-.416-1.587-.613-2.383-.239-.965-.505-1.921-.927-2.827-.692-1.485-1.75-2.655-3.075-3.597-.06-.042-.121-.085-.168-.139a.435.435 0 0 1 .021-.575.425.425 0 0 1 .571-.053c1.708 1.193 2.997 2.72 3.73 4.687.093.248.18.498.258.75.028.092.07.117.163.116.433-.005.866-.008 1.3 0a.755.755 0 0 1 .73.685c.034.4-.214.753-.594.834-.079.017-.163.015-.245.016-.295.002-.59 0-.903 0v.001Zm.938-1.131a.356.356 0 0 0-.358.354.36.36 0 0 0 .354.374.363.363 0 1 0 .004-.729ZM11.207 21.227h.847V26.758A3.04 3.04 0 0 0 15 29.776c1.531.037 2.907-1.187 3.044-2.712.012-.14.019-.282.019-.423V22.57h.84c.002.044.006.089.006.133 0 1.36.004 2.719 0 4.078-.006 2.017-1.564 3.68-3.596 3.842-1.937.154-3.732-1.273-4.05-3.225a4.306 4.306 0 0 1-.053-.68c-.004-1.77-.003-3.54-.003-5.31v-.18ZM19.32 21.227v.788c-.001.217-.06.275-.276.276h-1.122c-.211 0-.269-.058-.27-.267v-.797c-.178 0-.346.003-.512 0-.183-.005-.298-.11-.299-.288-.002-1.002 0-2.004 0-3.024.04.02.07.032.098.05 1.024.648 2.047 1.297 3.072 1.942.089.055.124.112.12.217-.008.25-.001.5-.002.752 0 .26-.09.35-.356.351-.145.002-.29 0-.453 0ZM13.252 18.26c0 .31.004.61-.002.912-.004.181-.116.288-.295.288-.884.002-1.769.002-2.653 0-.181 0-.295-.106-.299-.287-.006-.3-.001-.6-.001-.914h3.25ZM20.697 10.601a.506.506 0 0 1-.27.441.47.47 0 0 1-.516-.028c-.534-.366-1.066-.734-1.599-1.1-.102-.07-.121-.154-.054-.256.12-.183.242-.365.365-.545.065-.096.153-.11.248-.045.541.37 1.083.74 1.621 1.115.139.097.2.243.205.418ZM12.561 19.743c0 .325.006.643-.003.96-.004.14-.121.24-.267.24-.441.005-.883.005-1.325 0-.146 0-.265-.1-.27-.239-.009-.317-.002-.635-.002-.962h1.867Z"/></g><path d="M28 4 6 30" stroke="#EA6F54"/></svg>