<svg width="273" height="51" viewBox="0 0 273 51" fill="none" xmlns="http://www.w3.org/2000/svg">
<path d="M62.9285 36.7379C63.3365 30.2595 59.5615 25.9238 53.3895 25.9238C46.6048 25.9238 41.5039 31.2291 41.5039 38.7786C41.5039 45.5121 45.7376 50.817 53.4403 50.817C57.6744 50.817 60.5818 49.1847 62.2653 46.0221L61.551 45.0529C60.4287 45.8181 58.8476 46.3281 56.9601 46.3281C52.522 46.3281 49.3594 43.5227 48.4414 38.6766C52.8792 38.6766 57.4193 38.6766 61.7042 38.6254L62.9285 36.7379ZM48.1863 35.6668C48.1863 30.9227 50.0737 27.5561 52.6752 27.5561C55.3278 27.5561 56.7561 31.4331 56.2969 37.0443C53.6443 37.0951 50.9917 37.1463 48.2371 37.1463C48.1863 36.6871 48.1863 36.1771 48.1863 35.6668Z" fill="#16394A"/>
<path d="M77.9326 50.6727V48.9294L76.6571 48.6747C75.7392 48.4195 75.3308 47.8583 75.3308 46.736C75.28 35.6159 75.2288 25.2094 75.28 13.3242H74.0557C70.9951 13.9874 67.8325 14.5993 64.7207 15.1605V16.4868C65.4859 16.6396 66.3022 16.7416 67.0162 16.844C68.0873 17.0988 68.3937 17.7111 68.3937 18.6803C68.4957 27.1481 68.5464 37.5034 68.4445 46.736C68.4445 47.8583 68.0365 48.4195 67.0673 48.6747L65.843 48.9294V50.6727H77.9326Z" fill="#16394A"/>
<path d="M102.184 36.7379C102.592 30.2595 98.8174 25.9238 92.645 25.9238C85.8606 25.9238 80.7598 31.2291 80.7598 38.7786C80.7598 45.5121 84.9935 50.817 92.6962 50.817C96.9299 50.817 99.8377 49.1847 101.521 46.0221L100.807 45.0529C99.6845 45.8181 98.1034 46.3281 96.2159 46.3281C91.7778 46.3281 88.6152 43.5227 87.6969 38.6766C92.135 38.6766 96.6751 38.6766 100.96 38.6254L102.184 36.7379ZM87.4421 35.6668C87.4421 30.9227 89.3296 27.5561 91.931 27.5561C94.5836 27.5561 96.0119 31.4331 95.5528 37.0443C92.9002 37.0951 90.2475 37.1463 87.4929 37.1463C87.4421 36.6871 87.4421 36.1771 87.4421 35.6668Z" fill="#16394A"/>
<path d="M120.453 27.8634C121.167 28.7306 121.984 30.2101 122.749 31.4852C123.208 32.2503 123.412 33.0155 122.953 34.087C121.882 36.9944 120.555 40.361 119.127 43.8807C117.291 39.341 115.454 34.699 113.72 30.1081C113.312 29.0877 113.669 28.4246 114.587 28.1694L116.168 27.8634V26.5371H103.518V27.8634L104.64 28.2206C105.303 28.4246 105.711 28.7818 106.068 29.5469C109.18 36.4844 112.393 43.8808 115.148 50.5123H118.005L124.687 34.2398C125.248 33.0155 125.758 32.0463 126.574 30.924C127.442 29.7001 128.258 28.6286 128.921 27.8634V26.5371H120.453V27.8634Z" fill="#16394A"/>
<path d="M152.905 47.8589C151.936 47.6549 151.375 47.1958 151.375 45.9714C151.324 42.5029 151.324 37.504 151.324 33.5759C151.375 27.9646 147.345 26.0264 142.55 26.0264C138.776 26.0264 134.95 27.6587 131.379 30.1073L133.726 35.6165H135.052C135.766 33.831 136.174 32.7087 136.99 31.1276C138.214 28.5258 139.388 27.6587 140.918 27.6587C143.06 27.6587 144.591 29.6481 144.591 34.239V35.8713C141.938 36.6365 138.214 37.7588 136.939 38.218C132.807 39.6463 130.512 41.7885 130.512 45.2063C130.512 48.5733 132.96 50.8175 136.633 50.8175C139.541 50.8175 142.04 49.4404 144.999 47.3998L146.07 50.6647L146.937 50.7155C149.437 50.2056 151.834 49.7976 154.181 49.3892V48.0629L152.905 47.8589ZM137.449 44.0844C137.449 41.8397 138.572 39.4931 141.479 38.32C142.55 37.912 143.622 37.5036 144.642 37.2488V46.0734C143.111 47.3489 141.785 48.0629 140.51 48.0629C138.418 48.0629 137.449 46.4306 137.449 44.0844Z" fill="#16394A"/>
<path d="M171.569 47.043C170.651 47.553 169.681 47.859 168.559 47.859C166.57 47.859 165.397 46.5839 165.397 43.7781C165.346 39.1364 165.346 34.0351 165.346 28.5259L169.478 28.7299L171.824 27.6587V26.5364H165.346C165.397 24.1902 165.397 21.7415 165.397 19.1909H163.968C162.387 21.5884 160.704 24.0882 158.918 26.5364H155.398V28.0159L158.51 28.1687C158.561 33.474 158.561 38.7792 158.51 44.0844C158.51 48.8793 161.214 50.8176 165.141 50.8176C168.151 50.8176 170.702 49.6957 172.13 48.4714L171.569 47.043Z" fill="#16394A"/>
<path d="M195.751 36.7379C196.159 30.2595 192.384 25.9238 186.212 25.9238C179.427 25.9238 174.326 31.2291 174.326 38.7786C174.326 45.5121 178.56 50.817 186.263 50.817C190.497 50.817 193.405 49.1847 195.088 46.0221L194.374 45.0529C193.251 45.8181 191.67 46.3281 189.783 46.3281C185.345 46.3281 182.182 43.5227 181.264 38.6766C185.702 38.6766 190.242 38.6766 194.526 38.6254L195.751 36.7379ZM181.009 35.6668C181.009 30.9227 182.896 27.5561 185.498 27.5561C188.15 27.5561 189.579 31.4331 189.12 37.0443C186.467 37.0951 183.814 37.1463 181.06 37.1463C181.009 36.6871 181.009 36.1771 181.009 35.6668Z" fill="#16394A"/>
<path d="M216.652 18.16C215.918 17.9153 215.55 17.5069 215.55 16.6091C215.509 12.7733 215.55 9.14146 215.55 5.46851C215.591 2.1221 213.51 0 210.327 0C208.082 0 206.246 1.06104 204.532 2.08137L203.308 2.81589L202.94 0.041103H202.124C199.757 0.489799 197.635 0.897778 195.432 1.26503V2.32609L196.697 2.48935C197.472 2.65262 197.88 3.1017 197.88 3.95876C197.962 8.2844 197.962 12.4875 197.88 16.6091C197.88 17.5069 197.594 17.9153 196.819 18.16L195.576 18.364V19.425H205.756V18.364L204.573 18.16C203.797 17.956 203.43 17.5069 203.43 16.6091C203.389 12.5693 203.43 8.36584 203.471 4.28491C204.613 3.46896 206.042 2.69334 207.266 2.69334C209.143 2.69334 210 3.87693 210 6.32557C210.041 9.67198 210.082 13.018 210 16.6091C210 17.5069 209.674 17.956 208.898 18.16L207.715 18.364V19.425H217.631V18.364L216.652 18.16Z" fill="#16394A"/>
<path d="M229.636 19.8745C236.247 19.8745 239.349 15.1812 239.349 9.79454C239.349 4.24459 236.207 0.0415039 229.718 0.0415039C223.025 0.0415039 219.965 4.81584 219.965 10.0396C219.965 15.4263 222.944 19.8745 229.636 19.8745ZM229.922 18.6502C227.27 18.6502 225.556 14.9772 225.556 9.42729C225.556 4.20387 226.943 1.26543 229.351 1.26543C232.044 1.26543 233.717 4.9791 233.717 10.4883C233.717 15.7118 232.33 18.6502 229.922 18.6502Z" fill="#16394A"/>
<path d="M265.716 1.24317C266.329 1.97769 267.063 3.07985 267.635 4.01835C268.043 4.54887 268.165 5.20156 267.839 6.05862C267.063 8.18071 266.125 10.7519 264.778 14.0979C263.39 10.5886 261.921 6.62986 260.575 3.12056C260.289 2.38605 260.616 1.81442 261.309 1.61043L262.574 1.24317V0.182129H252.536V1.24317L253.515 1.52899C254.127 1.73298 254.372 2.05951 254.657 2.67148C254.943 3.28383 255.188 3.8958 255.474 4.50815C255.474 4.54887 255.514 4.58959 255.514 4.58959C255.759 5.20155 255.882 5.73208 255.555 6.54842C254.576 8.95595 253.678 11.2413 252.494 14.0979C251.025 10.5068 249.475 6.71169 248.087 3.12056C247.802 2.34494 248.006 1.81442 248.577 1.61043L249.924 1.24317V0.182129H239.885V1.24317L240.864 1.52899C241.476 1.73298 241.884 2.05951 242.129 2.67148C244.578 8.05816 247.271 14.3019 249.311 19.3217H251.678L256.698 7.28293C258.453 11.3639 260.166 15.6488 261.677 19.3217H264.003C265.676 15.0368 267.635 10.1803 269.267 6.22188C269.675 5.20155 270.042 4.54887 270.654 3.65109C271.266 2.79403 272.001 1.89625 272.613 1.24317V0.182129H265.716V1.24317Z" fill="#16394A"/>
<path d="M30.7149 50.8653C31.3265 51.219 32.0916 50.7772 32.0916 50.0707V19.8482C32.0916 19.3414 31.6809 18.9307 31.1741 18.9307H0.919067C0.219845 18.9307 -0.222643 19.6815 0.116303 20.293L4.73551 28.6286C5.6678 30.3106 7.43893 31.3542 9.3617 31.3542H18.9278C19.4347 31.3542 19.8458 31.7648 19.8458 32.2717V41.5315C19.8458 43.4205 20.8529 45.1656 22.4879 46.1107L30.7149 50.8653Z" fill="#EA6F54"/>
<path d="M17.7424 50.8498C18.0941 51.053 18.5343 50.799 18.5343 50.393V33.0117C18.5343 32.7201 18.2981 32.4839 18.0065 32.4839H0.606593C0.204434 32.4839 -0.0499705 32.9155 0.145098 33.2673L2.80353 38.0645C3.33949 39.0317 4.35827 39.632 5.46391 39.632H10.9712C11.2625 39.632 11.499 39.8682 11.499 40.1598V45.486C11.499 46.5723 12.078 47.5763 13.0185 48.1196L17.7424 50.8498Z" fill="#03549E"/>
</svg>
