<svg width="34" height="34" viewBox="0 0 34 34" fill="none" xmlns="http://www.w3.org/2000/svg">
<circle cx="17" cy="17" r="16.5" fill="white" stroke="#EA6F54"/>
<path d="M10.4536 27.4509C10.4311 27.4509 10.4086 27.4509 10.3861 27.4509C9.45477 27.4509 8.52346 27.4509 7.59215 27.449C7.55775 27.449 7.51146 27.4346 7.49145 27.4102C6.90101 26.6909 6.44692 25.8978 6.20112 24.9953C5.87713 23.8057 5.93404 22.6386 6.4488 21.5083C6.81219 20.7103 7.3626 20.0729 8.13255 19.6401C8.9419 19.1848 9.80315 19.0753 10.7063 19.2767C11.2655 19.4018 11.7759 19.6407 12.2593 19.9422C12.6484 20.1842 13.0631 20.3569 13.5253 20.3994C14.0282 20.4451 14.4929 20.3243 14.9276 20.076C15.376 19.8202 15.7388 19.4668 16.0553 19.064C16.5594 18.4217 16.924 17.7018 17.218 16.945C17.6608 15.8054 17.9379 14.6251 18.0661 13.4105C18.1137 12.9583 18.1306 12.5029 18.1643 12.0488C18.3138 10.0492 18.8617 8.17286 19.8975 6.44721C19.9876 6.29709 20.087 6.15199 20.1846 6C20.2753 6.04066 20.3591 6.07756 20.4429 6.11509C20.5248 6.15199 20.6068 6.18889 20.6925 6.22767C20.6061 6.37903 20.5198 6.52351 20.4391 6.67112C19.8331 7.77631 19.4009 8.94343 19.1982 10.19C18.9831 11.5128 19.0606 12.815 19.5035 14.0872C19.6461 14.4963 19.8381 14.8828 20.027 15.2719C20.3122 15.8592 20.5536 16.4634 20.7062 17.1001C20.862 17.7499 20.9132 18.4042 20.7744 19.0647C20.6649 19.5838 20.4454 20.0535 20.1383 20.4838C19.7255 21.0624 19.2026 21.5277 18.6359 21.9493C18.5065 22.0456 18.367 22.1319 18.2494 22.2414C17.9579 22.5128 17.9298 22.9613 18.1737 23.2665C18.4258 23.5824 18.8699 23.6637 19.1989 23.4291C19.5479 23.1796 19.8894 22.9169 20.2171 22.6398C20.7275 22.2082 21.1709 21.7129 21.5337 21.1487C22.0585 20.3325 22.3393 19.4412 22.3706 18.4705C22.4012 17.5248 22.203 16.621 21.8871 15.7372C21.6976 15.2074 21.4574 14.7008 21.211 14.1961C20.8463 13.4499 20.6681 12.6568 20.6412 11.8287C20.6187 11.1238 20.7056 10.4314 20.8782 9.74902C21.1309 8.74891 21.53 7.81071 22.071 6.93319C22.0829 6.9138 22.096 6.89504 22.1141 6.86752C22.3706 6.9826 22.6264 7.09769 22.8897 7.21527C22.8734 7.24092 22.8603 7.26156 22.8466 7.2822C22.3262 8.06027 21.9396 8.89652 21.752 9.8172C21.6257 10.4358 21.6113 11.0556 21.7476 11.6748C21.9027 12.3797 22.238 12.9908 22.7152 13.5274C22.9635 13.8064 23.2418 14.0522 23.5383 14.2786C24.2889 14.8509 24.9081 15.5364 25.3434 16.3802C25.6624 16.9988 25.8582 17.6555 25.9438 18.3448C26.1196 19.7539 25.8807 21.0968 25.2571 22.3652C24.6416 23.6168 23.8298 24.7289 22.784 25.6595C21.8865 26.4583 20.8607 27.0212 19.6867 27.3014C18.948 27.4778 18.1994 27.5297 17.4426 27.4771C16.0284 27.3783 14.7074 26.9542 13.4465 26.3257C12.1086 25.6583 10.9002 24.8089 9.84256 23.7488C9.73998 23.6455 9.64241 23.5373 9.54359 23.4304C9.38973 23.2634 9.19708 23.2102 9.00569 23.284C8.8143 23.3578 8.69734 23.5361 8.69671 23.7581C8.69421 24.8358 9.05948 25.784 9.70996 26.6315C9.91887 26.9036 10.1515 27.1538 10.4048 27.3846C10.4236 27.4015 10.443 27.4177 10.4618 27.434C10.4593 27.4396 10.4561 27.4459 10.4536 27.4515V27.4509ZM18.4058 21.8686C18.387 21.8273 18.3751 21.7817 18.3489 21.746C18.0048 21.2788 17.659 20.8135 17.3125 20.3481C17.2924 20.3212 17.2643 20.2968 17.2349 20.2812C17.1555 20.2387 17.0616 20.2605 17.0041 20.3312C16.9434 20.4044 16.9441 20.4932 17.0079 20.5802C17.2537 20.9129 17.5007 21.2444 17.7472 21.5771C17.8479 21.7129 17.9467 21.8492 18.0493 21.9831C18.1043 22.0556 18.1862 22.0788 18.265 22.0519C18.342 22.0262 18.3945 21.9543 18.4058 21.8686ZM19.5785 23.3628C19.4709 23.3647 19.4121 23.3979 19.3765 23.4642C19.3377 23.5355 19.344 23.6074 19.3921 23.6724C19.7405 24.1434 20.0895 24.615 20.4398 25.0847C20.5079 25.1761 20.623 25.1911 20.71 25.1279C20.7957 25.0654 20.815 24.9484 20.7481 24.8571C20.4004 24.3855 20.0514 23.9139 19.6992 23.446C19.6667 23.4029 19.6054 23.3804 19.5791 23.3628H19.5785ZM16.6169 24.6632C16.6563 24.6463 16.6989 24.6344 16.7345 24.6113C16.814 24.56 16.8903 24.5031 16.9672 24.4486C17.3218 24.1985 17.6771 23.9489 18.0317 23.6981C18.1293 23.6293 18.155 23.5155 18.0949 23.426C18.0317 23.3309 17.9129 23.3134 17.8091 23.386C17.4613 23.6299 17.1142 23.8751 16.7671 24.1196C16.6782 24.1822 16.5888 24.2435 16.5019 24.3079C16.4312 24.3605 16.4074 24.4449 16.4337 24.5237C16.4587 24.5975 16.5344 24.6525 16.6169 24.6626V24.6632ZM16.6063 22.2176C16.5769 22.2308 16.5288 22.2426 16.4919 22.2702C16.4287 22.3171 16.4099 22.3865 16.4299 22.4622C16.4499 22.5379 16.5006 22.5885 16.5782 22.601C16.7783 22.6336 16.9791 22.6648 17.1805 22.6917C17.2749 22.7042 17.3675 22.626 17.3838 22.5304C17.4 22.4353 17.3394 22.3327 17.2412 22.3152C17.0366 22.2783 16.8309 22.2514 16.6063 22.2176ZM18.8305 24.565C18.8323 24.448 18.7667 24.3648 18.6722 24.3479C18.5765 24.3304 18.4758 24.388 18.4564 24.488C18.4245 24.655 18.4001 24.8245 18.3826 24.9934C18.3726 25.091 18.4496 25.1717 18.5452 25.1854C18.6391 25.1992 18.7366 25.1404 18.7548 25.0453C18.786 24.8802 18.8073 24.7132 18.8305 24.5656V24.565Z" fill="#3881C5"/>
<path d="M21.0495 6.38867C21.2853 6.49438 21.5161 6.5982 21.7526 6.70453C21.6888 6.81336 21.6262 6.91531 21.5674 7.01914C20.997 8.02613 20.5842 9.09192 20.3766 10.2334C20.1683 11.3799 20.1995 12.5138 20.5629 13.6297C20.6949 14.0356 20.8888 14.414 21.0721 14.7974C21.4523 15.5924 21.7544 16.4142 21.9008 17.2874C22.0347 18.0842 22.0209 18.8748 21.7964 19.6554C21.605 20.3202 21.2735 20.9113 20.8413 21.4473C20.486 21.8883 20.0763 22.2742 19.636 22.6294C19.6197 22.6426 19.6029 22.6545 19.5791 22.6732C19.4283 22.4706 19.2789 22.2698 19.125 22.0621C19.145 22.0446 19.1632 22.0284 19.1819 22.0134C19.6285 21.6512 20.0413 21.2559 20.3866 20.7931C20.9307 20.0638 21.2278 19.2488 21.2359 18.3344C21.2422 17.697 21.1177 17.081 20.9257 16.4768C20.7299 15.8607 20.4572 15.2771 20.1726 14.6986C19.828 13.9981 19.6141 13.2569 19.5209 12.4819C19.3689 11.2222 19.5403 9.99822 19.9287 8.7992C20.1952 7.9761 20.5554 7.19489 21.0064 6.45622C21.0195 6.43496 21.0333 6.41432 21.0489 6.38992L21.0495 6.38867Z" fill="#3881C5"/>
<path d="M18.819 22.292C18.9723 22.4984 19.1211 22.6992 19.2769 22.9093C19.1624 22.9869 19.0573 23.0719 18.9404 23.1339C18.7696 23.2239 18.5444 23.152 18.4481 22.9913C18.3474 22.8224 18.3862 22.6091 18.5438 22.4884C18.6314 22.4215 18.7233 22.3602 18.8184 22.2926L18.819 22.292Z" fill="#3881C5"/>
<path d="M28 4L6 30" stroke="#EA6F54"/>
</svg>
