<svg width="34" height="34" viewBox="0 0 34 34" fill="none" xmlns="http://www.w3.org/2000/svg">
<circle cx="17" cy="17" r="16.5" fill="white" stroke="#EA6F54"/>
<path d="M18.2481 10.2035C18.751 10.5498 19.2416 10.889 19.7346 11.2253C20.2329 11.5658 20.8778 11.2831 20.9549 10.6841C20.9956 10.3725 20.8707 10.1228 20.6116 9.94376C20.1386 9.61748 19.6657 9.29178 19.1928 8.9655C19.1668 8.94783 19.1421 8.92839 19.1068 8.90189C19.522 8.27759 19.9354 7.65742 20.366 7.01074C20.6946 7.27636 21.0173 7.52078 21.3218 7.7864C22.6517 8.94488 23.5039 10.4037 23.9792 12.0876C24.2331 12.9863 24.4575 13.8939 24.6766 14.8021C25.0017 16.1502 25.5264 17.4153 26.1825 18.6339C26.4022 19.0414 26.5671 19.479 26.7479 19.9066C26.9217 20.3177 26.894 20.7235 26.6472 21.0957C26.318 21.5934 25.9723 22.0799 25.6318 22.5693C25.5541 22.6806 25.4675 22.786 25.3792 22.902C25.2643 22.8296 25.1571 22.7625 25.05 22.6953C22.647 21.1994 20.2429 19.7046 17.8405 18.2063C17.4965 17.9919 17.1561 17.7704 16.8222 17.5402C15.5707 16.6773 15.1955 14.9617 15.9658 13.6507C16.0006 13.5918 16.0371 13.5341 16.0748 13.4769C16.7957 12.3909 17.5166 11.3048 18.2481 10.2029V10.2035Z" fill="#3881C5"/>
<path d="M25.4437 13.175C25.4973 13.397 25.5467 13.5996 25.595 13.8022C25.8324 14.7958 26.0709 15.79 26.502 16.7217C26.7906 17.346 27.1187 17.952 27.4143 18.5734C27.5769 18.9144 27.7229 19.2642 27.8513 19.6194C28.0922 20.2861 28.0392 20.9381 27.6935 21.56C27.5716 21.7785 27.4444 21.9964 27.2995 22.1996C26.9502 22.6896 26.5927 23.1738 26.2317 23.6549C26.0992 23.8316 25.9037 23.8799 25.7217 23.8045C25.5479 23.7333 25.4319 23.5472 25.4619 23.3528C25.4755 23.2674 25.5179 23.1791 25.5691 23.1078C25.9302 22.6036 26.303 22.1083 26.6593 21.6006C26.7947 21.4081 26.9055 21.1954 27.0079 20.9828C27.1499 20.6889 27.1658 20.3786 27.0827 20.0617C26.9438 19.5328 26.694 19.0504 26.4502 18.5663C25.9749 17.6216 25.4737 16.6881 25.1957 15.6598C24.9813 14.8682 24.7805 14.0726 24.5832 13.2769C24.3441 12.3116 24.0785 11.3557 23.6562 10.4499C22.9642 8.96511 21.9064 7.79484 20.5806 6.8531C20.5217 6.81128 20.4599 6.76829 20.4134 6.7141C20.2726 6.54802 20.2844 6.29712 20.434 6.13869C20.5865 5.97672 20.815 5.95317 21.0053 6.08627C22.7133 7.27891 24.0019 8.8055 24.7357 10.7732C24.8282 11.0206 24.9148 11.2709 24.9925 11.523C25.0208 11.6148 25.0632 11.6396 25.1557 11.639C25.5891 11.6343 26.022 11.6313 26.4555 11.639C26.8371 11.646 27.1534 11.9505 27.1858 12.3239C27.22 12.7244 26.972 13.0772 26.5921 13.1579C26.5132 13.175 26.429 13.1732 26.3471 13.1738C26.0521 13.1756 25.7576 13.1744 25.4437 13.1744V13.175ZM26.3819 12.0436C26.1846 12.0436 26.0273 12.1991 26.0244 12.3982C26.0214 12.6043 26.1781 12.7704 26.3784 12.7721C26.5786 12.7739 26.7435 12.6114 26.7459 12.4088C26.7482 12.2085 26.5839 12.0436 26.3825 12.0436H26.3819Z" fill="#3881C5"/>
<path d="M11.2074 21.2275H12.0537C12.0537 21.2911 12.0537 21.3489 12.0537 21.4066C12.0537 23.19 12.0537 24.9733 12.0537 26.7567C12.0537 28.3805 13.3771 29.7362 14.9997 29.7757C16.531 29.8134 17.9068 28.5889 18.044 27.0641C18.0564 26.9234 18.0629 26.782 18.0629 26.6407C18.0641 25.3455 18.0635 24.0498 18.0635 22.7547C18.0635 22.6958 18.0635 22.6375 18.0635 22.5704H18.9027C18.9051 22.6145 18.9092 22.6587 18.9092 22.7029C18.9092 24.0622 18.9128 25.4215 18.9092 26.7808C18.9033 28.798 17.345 30.4607 15.313 30.6226C13.3765 30.7775 11.5808 29.3505 11.2639 27.3981C11.2274 27.1743 11.2103 26.9446 11.2098 26.7172C11.2056 24.9474 11.2074 23.1776 11.2074 21.4078C11.2074 21.3536 11.2074 21.2988 11.2074 21.2275Z" fill="#3881C5"/>
<path d="M19.3193 21.2264C19.3193 21.5049 19.3193 21.7594 19.3193 22.0144C19.3187 22.2317 19.2604 22.2894 19.0437 22.29C18.6697 22.29 18.2963 22.2906 17.9223 22.29C17.7109 22.29 17.6531 22.2323 17.6525 22.0238C17.652 21.7647 17.6525 21.5061 17.6525 21.2264C17.4735 21.2264 17.3062 21.2293 17.1396 21.2258C16.957 21.2217 16.8421 21.1162 16.8415 20.939C16.8386 19.9366 16.8404 18.9341 16.8404 17.9141C16.8804 17.9341 16.9116 17.9465 16.9393 17.9641C17.9629 18.612 18.986 19.2616 20.0113 19.9065C20.0997 19.9619 20.135 20.0184 20.1315 20.1233C20.1232 20.3736 20.1297 20.6245 20.1291 20.8754C20.1285 21.1357 20.0384 21.2252 19.7734 21.227C19.6285 21.2281 19.4836 21.227 19.3199 21.227L19.3193 21.2264Z" fill="#3881C5"/>
<path d="M13.2515 18.2594C13.2515 18.5703 13.2557 18.8707 13.2498 19.1717C13.2462 19.3531 13.1343 19.4603 12.9547 19.4603C12.0707 19.462 11.1861 19.462 10.302 19.4603C10.1206 19.4603 10.007 19.3537 10.0034 19.1734C9.99694 18.8731 10.0017 18.5721 10.0017 18.2588H13.2515V18.2594Z" fill="#3881C5"/>
<path d="M20.6969 10.6013C20.684 10.7921 20.6027 10.9488 20.4272 11.0424C20.2517 11.1361 20.0756 11.1266 19.9107 11.0136C19.3771 10.6478 18.8452 10.2803 18.3122 9.91455C18.2103 9.84447 18.1909 9.75966 18.258 9.65777C18.3782 9.47519 18.4995 9.2932 18.6226 9.11298C18.688 9.01698 18.7763 9.00343 18.8712 9.06822C19.4124 9.43868 19.9537 9.80854 20.492 10.1831C20.631 10.2803 20.6922 10.4264 20.6969 10.6013Z" fill="#3881C5"/>
<path d="M12.5612 19.7428C12.5612 20.0679 12.5671 20.3859 12.5582 20.7028C12.5541 20.8424 12.4369 20.9425 12.2908 20.9437C11.8497 20.9478 11.408 20.9478 10.9663 20.9437C10.8202 20.9425 10.7006 20.8424 10.6965 20.704C10.6871 20.3865 10.6936 20.0691 10.6936 19.7422H12.5612V19.7428Z" fill="#3881C5"/>
<path d="M28 4L6 30" stroke="#EA6F54"/>
</svg>
