<svg width="34" height="34" viewBox="0 0 34 34" fill="none" xmlns="http://www.w3.org/2000/svg">
<circle cx="17" cy="17" r="16.5" fill="white" stroke="#EA6F54"/>
<path d="M22.5764 12.502C22.5113 12.4558 22.4761 12.4286 22.4387 12.4047C21.8961 12.0594 21.3576 11.7077 20.8097 11.3707C20.101 10.935 19.3289 10.7447 18.5324 10.8898C16.569 11.2479 14.6127 11.637 12.6571 12.0259C12.1256 12.1317 11.7892 12.5811 11.7899 13.1108C11.7914 13.9039 12.517 14.4651 13.3467 14.3047C16.3558 13.722 19.3635 13.1353 22.3719 12.5501C22.4286 12.5391 22.4839 12.5235 22.5763 12.5013L22.5764 12.502Z" fill="white"/>
<path d="M25.3736 25.2778C24.6892 24.7581 24.0763 24.1728 23.5852 23.4697C22.9834 22.6084 22.5871 21.673 22.393 20.6632C22.3386 20.3787 22.2663 20.0951 22.2356 19.8094C22.2048 19.5221 22.0582 19.3489 21.8102 19.1937C20.5994 18.4369 19.3933 17.672 18.1954 16.8948C17.6508 16.5413 17.4123 16.0266 17.5062 15.4132C17.599 14.8087 17.9761 14.428 18.5811 14.2849C19.0125 14.1827 19.4177 14.2887 19.8014 14.5339C21.7061 15.7498 23.6134 16.9615 25.5194 18.1745L25.7626 18.3293L26.142 17.7331L23.6298 16.1342C23.7456 16.1069 23.8069 16.0898 23.8702 16.0782C24.9315 15.8852 25.992 15.6892 27.0556 15.5067C27.1674 15.4874 27.3177 15.5174 27.4168 15.5789C28.4017 16.194 29.3792 16.8209 30.3589 17.4443L25.3734 25.2782L25.3736 25.2778Z" fill="#3881C5"/>
<path d="M14.9633 25.8496C14.8602 25.6548 14.7197 25.4686 14.6608 25.2633C14.4752 24.6155 14.8719 24.0018 15.5488 23.8679C16.9435 23.5914 18.3402 23.3224 19.7371 23.0546C19.8181 23.039 19.9089 23.0624 20.0147 23.0683C19.9252 22.76 19.8613 22.5405 19.7914 22.2997C19.7256 22.3107 19.6445 22.3221 19.5648 22.3375C18.1687 22.6084 16.7743 22.8862 15.3761 23.1489C14.4817 23.3169 13.6999 22.5442 13.8986 21.6985C14.0121 21.2152 14.3345 20.9345 14.8299 20.8381C16.2109 20.5698 17.592 20.3015 18.9729 20.0326C19.0546 20.0168 19.1352 19.9972 19.226 19.9777C19.1655 19.7397 19.1081 19.5143 19.0331 19.22C18.9502 19.2545 18.8763 19.3011 18.7951 19.3172C17.4224 19.5872 16.0492 19.8546 14.6749 20.1193C14.1132 20.2275 13.6265 20.0363 13.3237 19.598C13.0278 19.17 13.0259 18.6291 13.3624 18.204C13.4733 18.064 13.6594 17.9358 13.8362 17.9007C14.9986 17.671 16.1677 17.4678 17.3352 17.2599C17.3957 17.2492 17.4781 17.2551 17.528 17.2874C18.5633 17.9536 19.5954 18.6247 20.6282 19.2947C20.9111 19.4785 21.2759 19.6085 21.4535 19.8602C21.6249 20.1032 21.6025 20.4715 21.6668 20.7844C22.0866 22.8439 23.1677 24.5156 24.8993 25.8065C24.9309 25.8298 24.9602 25.8558 24.9902 25.8807L24.6546 26.408C24.5729 26.4205 24.4903 26.4299 24.4098 26.4464C23.4978 26.6333 22.6334 26.4774 21.8199 25.9777C21.4194 25.7318 21.0221 25.4789 20.6304 25.2191C20.4651 25.1097 20.3091 25.0903 20.1256 25.137C18.9225 25.4419 17.7155 25.7347 16.5139 26.0453C16.1337 26.1435 15.7595 26.2165 15.3618 26.1032L14.9645 25.8503L14.9633 25.8496Z" fill="#3881C5"/>
<path d="M4.0018 18.873C4.45289 18.1642 4.9 17.4529 5.35985 16.7496C5.41689 16.6626 5.53003 16.5806 5.63359 16.5603C9.40517 15.8199 13.1787 15.0872 16.9516 14.3535C17.0084 14.3425 17.0654 14.3354 17.1642 14.32C16.6819 15.0365 16.6157 15.7733 16.9949 16.6258C16.8972 16.6229 16.8168 16.6077 16.7436 16.6209C15.11 16.9132 13.4781 17.2118 11.8437 17.5004C11.6224 17.5395 11.4745 17.6348 11.3627 17.8229C11.1384 18.1999 10.9002 18.569 10.6549 18.9325C10.604 19.008 10.5036 19.077 10.4123 19.0956C9.62691 19.2567 8.84006 19.4148 8.04957 19.5557C6.74928 19.7876 5.48895 19.5998 4.27359 19.0005C4.22589 18.977 4.1722 18.9656 4.12082 18.9488L4.0018 18.873ZM5.32555 18.4179C6.124 18.6345 6.89767 18.6914 7.67389 18.6001C8.56546 18.4955 9.45473 18.3777 10.3445 18.2645C10.3944 18.2582 10.4422 18.241 10.4954 18.2277C10.4509 17.9856 10.4092 17.7585 10.366 17.5268C9.49002 17.6377 8.645 17.7412 7.80164 17.8527C7.1425 17.9402 6.48326 17.9355 5.82009 17.8008C5.71469 17.7792 5.6096 17.7563 5.48532 17.7301C5.4322 17.9577 5.38213 18.1735 5.32515 18.4177L5.32555 18.4179ZM13.8296 15.6559C13.9127 15.985 13.9951 16.3116 14.0764 16.6348C14.2736 16.5999 14.497 16.5601 14.6868 16.5263C14.6028 16.1898 14.521 15.8631 14.4377 15.5291C14.248 15.5688 14.0329 15.6133 13.8296 15.6559ZM15.5688 16.3225C15.7945 16.2868 16.0245 16.2506 16.2322 16.2177C16.1465 15.8832 16.064 15.5619 15.9855 15.2563C15.7768 15.2907 15.5476 15.3284 15.3183 15.3662C15.4044 15.694 15.4867 16.0094 15.5684 16.3222L15.5688 16.3225Z" fill="#3881C5"/>
<path d="M30.7457 12.1872C30.8182 12.2868 30.9002 12.3813 30.9624 12.4865C31.3888 13.2077 31.0069 14.0372 30.1622 14.1929C28.2746 14.541 26.3841 14.8777 24.4948 15.2195C23.953 15.3176 23.4118 15.4192 22.8683 15.5104C22.7871 15.5238 22.6786 15.5141 22.6099 15.4709C21.7331 14.9213 20.8616 14.3635 19.9599 13.7897C20.037 13.7652 20.0881 13.7438 20.1417 13.7334C23.2854 13.1211 26.4285 12.5062 29.5753 11.9064C29.8191 11.86 30.0901 11.9229 30.3482 11.9347C30.4808 12.0191 30.6129 12.1032 30.7455 12.1876L30.7457 12.1872ZM28.7507 12.7918C28.5138 12.8258 28.284 12.8589 28.0869 12.8875C28.1717 13.2208 28.2531 13.542 28.3256 13.8289C28.5314 13.799 28.7616 13.7661 28.9875 13.7336C28.9048 13.4048 28.8252 13.0896 28.7504 12.7922L28.7507 12.7918ZM27.2275 13.0883C26.9849 13.1233 26.7548 13.1562 26.5583 13.1846C26.6431 13.518 26.7243 13.8395 26.797 14.1261C27.0028 14.0962 27.2329 14.0632 27.4508 14.032C27.373 13.7026 27.2978 13.3865 27.2273 13.0887L27.2275 13.0883ZM25.887 14.3449C25.8037 14.0083 25.7229 13.6817 25.6451 13.3681C25.4484 13.4012 25.225 13.4384 25.0453 13.4685C25.1286 13.8052 25.2098 14.132 25.2875 14.4449C25.4826 14.4125 25.7062 14.3749 25.887 14.3449ZM24.1685 13.6968C23.9308 13.7276 23.7003 13.7576 23.5044 13.7833C23.5864 14.1122 23.667 14.4339 23.7388 14.7209C23.9463 14.691 24.176 14.6578 24.4028 14.6249C24.3195 14.2962 24.2402 13.9806 24.1681 13.6966L24.1685 13.6968ZM22.2077 15.0387C22.4177 15.003 22.6464 14.9644 22.8558 14.9289C22.7714 14.5958 22.6896 14.2744 22.6142 13.9771C22.4026 14.0081 22.1727 14.0417 21.9611 14.0727C22.0465 14.4069 22.1287 14.7286 22.2083 15.0386L22.2077 15.0387Z" fill="#3881C5"/>
<path d="M22.5761 12.5016C22.4837 12.5238 22.4285 12.5394 22.3717 12.5504C19.3637 13.1358 16.3556 13.7223 13.3465 14.305C12.5168 14.4654 11.7912 13.9041 11.7898 13.1111C11.789 12.5814 12.1254 12.1319 12.6569 12.0262C14.6128 11.6369 16.5688 11.2482 18.5322 10.8901C19.3283 10.7448 20.1008 10.9353 20.8096 11.371C21.3576 11.7076 21.8961 12.0593 22.4385 12.405C22.4759 12.4288 22.5108 12.4558 22.5763 12.5022L22.5761 12.5016Z" fill="#3881C5"/>
<path d="M28 4L6 30" stroke="#EA6F54"/>
</svg>
