<svg width="103" height="102" fill="none" xmlns="http://www.w3.org/2000/svg"><g filter="url(#a)"><circle cx="51.6" cy="51.6" r="48.6" fill="#fff"/></g><path fill-rule="evenodd" clip-rule="evenodd" d="M92.339 66H11c5.808 16.875 21.823 29 40.67 29 18.846 0 34.861-12.125 40.669-29Zm-.358-29H11.358C17.445 20.648 33.198 9 51.67 9c18.473 0 34.225 11.648 40.312 28Z" fill="#9BC2D6"/><path d="m38.429 27.224.01-.308h2.2v.308c-.186.44-.373.924-.55 1.32a1.357 1.357 0 0 0-.131.605v4.895h-1.43a494.626 494.626 0 0 0-3.663-6.281v3.861c0 .231.099.44.22.605.319.451.704 1.034 1.034 1.463V34h-2.244v-.308c.176-.407.352-.946.528-1.353.099-.22.132-.44.132-.704v-4.246a.664.664 0 0 0-.21-.066l-.494-.099v-.308h2.387a459.836 459.836 0 0 0 3.41 5.951v-3.663c0-.231-.077-.462-.21-.627-.307-.407-.66-.935-.99-1.353Zm5.402 6.897c-1.804 0-2.607-1.199-2.607-2.651 0-1.408.825-2.695 2.63-2.695 1.748 0 2.595 1.133 2.595 2.629 0 1.452-.836 2.717-2.618 2.717Zm.077-.33c.65 0 1.023-.792 1.023-2.2 0-1.485-.45-2.486-1.177-2.486-.649 0-1.023.792-1.023 2.2 0 1.496.462 2.486 1.177 2.486Zm8.494.33c-1.672 0-2.563-1.144-2.563-2.552 0-1.606 1.133-2.794 2.706-2.794.704 0 1.298.176 1.705.396l-.407 1.826h-.308c-.209-.385-.44-.99-.67-1.452-.122-.286-.342-.385-.55-.385-.65 0-1.079.748-1.079 1.782 0 1.353.726 2.277 1.903 2.277.341 0 .726-.099.957-.275l.154.22c-.385.627-.979.957-1.848.957Zm5.233 0c-1.804 0-2.607-1.199-2.607-2.651 0-1.408.825-2.695 2.629-2.695 1.749 0 2.596 1.133 2.596 2.629 0 1.452-.836 2.717-2.618 2.717Zm.077-.33c.649 0 1.023-.792 1.023-2.2 0-1.485-.451-2.486-1.177-2.486-.65 0-1.023.792-1.023 2.2 0 1.496.462 2.486 1.177 2.486Zm5.2.33c-.56 0-1.276-.11-1.737-.308.01-.418.033-1.012.033-1.496h.319c.197.308.572.858.78 1.1.154.242.407.374.792.374.518 0 .716-.286.716-.627 0-1.199-2.63-1.133-2.63-2.827 0-.891.715-1.573 2.024-1.573.583 0 1.188.121 1.573.297-.043.374-.087.891-.12 1.309h-.297a7.928 7.928 0 0 0-.517-.781c-.264-.363-.529-.495-.847-.495-.374 0-.627.209-.627.561 0 1.188 2.661 1.144 2.661 2.849 0 .979-.78 1.617-2.122 1.617Zm6.241-.814.121.308c-.308.264-.858.506-1.507.506-.847 0-1.43-.418-1.43-1.452.011-1.144.011-2.288 0-3.432l-.67-.033v-.319h.758c.385-.528.748-1.067 1.09-1.584h.307c0 .55 0 1.078-.01 1.584h1.396v.242l-.506.231-.89-.044c0 1.188 0 2.288.01 3.289 0 .605.253.88.682.88.242 0 .451-.066.65-.176Z" fill="#fff"/><path d="M38.926 55.604h.968c-.188 2.153-.344 4.243-.562 6.396H24.106v-.967l.78-.156c.687-.125.968-.5.999-1.217.093-5.273.093-10.265 0-15.538-.032-.655-.344-1.06-.999-1.185l-.78-.187v-.936h15.507c-.25 1.903-.5 3.806-.812 5.71h-.936a60.84 60.84 0 0 0-3.088-4.088c-.343-.468-.593-.655-1.061-.655h-.998c-.313 0-.625.125-.999.312-.031 2.62-.062 5.179-.062 7.769h1.372c.53 0 .905-.188 1.342-.593.562-.5 1.217-1.061 1.779-1.654h.998c.031 2.184.031 4.368 0 6.552h-.998c-.562-.873-1.217-1.747-1.872-2.59-.344-.499-.656-.717-1.248-.717h-1.373c0 2.933.03 5.866.062 8.86l2.09.25c.5.063.905-.124 1.31-.592 1.249-1.467 2.528-3.027 3.807-4.774Zm27.348 5.242.842.187V62h-9.329v-.967l.812-.187c.686-.156.967-.624.904-1.342-.374-4.836-.81-9.64-1.185-14.477L53.482 62.25h-.874c-1.934-5.772-3.931-11.544-5.865-17.316l-.968 9.39c-.093.937.125 1.623.437 2.372.78 1.84 1.404 3.12 2.09 4.337V62h-5.927v-.967c.499-1.061 1.092-2.465 1.716-4.119.374-1.03.592-1.747.717-2.901l1.061-9.423c.094-.936-.218-1.372-1.123-1.56l-1.092-.28v-.936h7.862c1.248 3.712 2.465 7.425 3.713 11.107l3.058-11.107h7.862v.936l-1.092.28c-.811.156-1.154.624-1.092 1.467.437 5.054.905 10.109 1.342 15.163.062.655.405 1.06.967 1.186ZM78.878 62h-9.392v-.936l.812-.187c.624-.125.967-.53.998-1.217.062-5.117.062-10.327 0-15.506-.031-.687-.374-1.092-.998-1.217l-.812-.187v-.936h9.392v.936l-.78.187c-.624.125-.968.53-.999 1.217a642.241 642.241 0 0 0 0 15.506c.031.686.375 1.092.999 1.217l.78.187V62Z" fill="#9BC2D6"/><path d="m36.36 77.648.177.044V78h-2.915v-.308l.319-.055c.264-.033.363-.209.286-.451-.21-.583-.418-1.144-.616-1.716-.781.011-1.53.011-2.31 0l-.242.671c-.1.275-.022.484.099.682.176.286.374.572.55.869V78h-2.024v-.308c.143-.187.275-.352.418-.55.286-.385.462-.66.605-1.034l1.826-5.027 1.023-.352c.78 2.178 1.55 4.356 2.365 6.523.099.242.209.352.44.396Zm-3.915-5.39-1.034 2.893c.704.011 1.386.011 2.09 0-.341-.935-.682-1.881-1.056-2.893Zm6.962.913v-.286h1.826v.286a9.03 9.03 0 0 0-.506.66 3.856 3.856 0 0 0-.407.715l-1.44 3.509h-.617a182.088 182.088 0 0 0-1.958-4.521c-.077-.165-.165-.242-.308-.286l-.242-.077v-.286h2.728v.286l-.34.066c-.199.055-.276.198-.188.418.374.99.77 1.991 1.166 2.97.308-.759.594-1.485.825-2.112a.557.557 0 0 0-.044-.561c-.165-.275-.34-.594-.495-.781Zm6.998 4.312.275.044v.286c-.506.088-1.023.176-1.562.286l-.187-.011-.231-.704c-.638.44-1.177.737-1.804.737-.792 0-1.32-.484-1.32-1.21 0-.737.495-1.199 1.386-1.507a40.692 40.692 0 0 1 1.65-.506v-.352c0-.99-.33-1.419-.792-1.419-.33 0-.583.187-.847.748-.176.341-.264.583-.418.968h-.286l-.506-1.188c.77-.528 1.595-.88 2.409-.88 1.034 0 1.903.418 1.892 1.628 0 .847 0 1.925.01 2.673 0 .264.122.363.33.407Zm-3.333-.814c0 .506.209.858.66.858.275 0 .56-.154.89-.429v-1.903c-.22.055-.45.143-.681.231-.627.253-.87.759-.87 1.243Zm5.279-4.62c-.616 0-.88-.462-.88-.858a.86.86 0 0 1 .89-.847c.507 0 .892.319.892.825 0 .484-.297.88-.902.88ZM47.075 78v-.286l.264-.055c.209-.055.286-.176.297-.418.01-1.089.01-2.244 0-3.388-.011-.275-.1-.374-.297-.418-.121-.022-.242-.033-.374-.055v-.275c.616-.11 1.254-.209 1.903-.341l.264.011c-.011 1.452-.022 3.08-.011 4.466 0 .242.099.352.297.418l.264.055V78h-2.607Zm5.69 0h-2.608v-.286l.264-.055c.21-.055.297-.176.297-.418.022-1.991.011-4.224-.01-6.05 0-.209-.067-.341-.298-.396-.154-.022-.33-.044-.495-.077v-.286a59.178 59.178 0 0 0 2.013-.396h.264c-.01 2.563 0 4.807.011 7.205 0 .242.088.363.286.418l.275.055V78Zm5.338-.517.275.044v.286c-.506.088-1.023.176-1.562.286l-.187-.011-.23-.704c-.639.44-1.178.737-1.805.737-.792 0-1.32-.484-1.32-1.21 0-.737.495-1.199 1.386-1.507a40.692 40.692 0 0 1 1.65-.506v-.352c0-.99-.33-1.419-.792-1.419-.33 0-.583.187-.847.748-.176.341-.264.583-.418.968h-.286l-.506-1.188c.77-.528 1.595-.88 2.41-.88 1.033 0 1.902.418 1.891 1.628 0 .847 0 1.925.011 2.673 0 .264.121.363.33.407Zm-3.333-.814c0 .506.21.858.66.858.275 0 .561-.154.891-.429v-1.903c-.22.055-.45.143-.682.231-.627.253-.869.759-.869 1.243Zm7.501-3.905c1.21 0 1.98.924 1.98 2.376 0 1.837-1.122 2.981-2.717 2.981-.726 0-1.298-.22-1.694-.55-.143.165-.253.33-.352.495h-.253c.033-1.793.033-4.752.011-6.908 0-.22-.077-.319-.286-.363-.187-.044-.341-.066-.495-.088v-.286a63.383 63.383 0 0 0 2.013-.385h.264c0 .891-.011 2.057-.011 3.212.506-.286 1.001-.484 1.54-.484Zm-.616 5.049c.649 0 1.045-.627 1.045-2.09 0-1.463-.473-2.332-1.232-2.332-.231 0-.473.088-.737.253 0 .968 0 1.892.011 2.607v.231c0 .737.374 1.331.913 1.331Zm5.848.187h-2.607v-.286l.264-.055c.209-.055.297-.176.297-.418.022-1.991.01-4.224-.011-6.05 0-.209-.066-.341-.297-.396-.154-.022-.33-.044-.495-.077v-.286a59.178 59.178 0 0 0 2.013-.396h.264c-.011 2.563 0 4.807.01 7.205 0 .242.089.363.287.418l.275.055V78Zm5.229-2.915-.264.407c-.924.011-1.903.011-2.86.011.198 1.045.88 1.65 1.837 1.65.407 0 .748-.11.99-.275l.154.209c-.363.682-.99 1.034-1.903 1.034-1.661 0-2.574-1.144-2.574-2.596 0-1.628 1.1-2.772 2.563-2.772 1.33 0 2.145.935 2.057 2.332Zm-3.18-.231c0 .11 0 .22.012.319.594 0 1.166-.011 1.738-.022.099-1.21-.21-2.046-.781-2.046-.561 0-.968.726-.968 1.749ZM44.812 19l.558 1.082 1.254.172-.906.842.216 1.191-1.122-.561-1.116.561.21-1.191-.906-.842 1.254-.172.558-1.082ZM51.243 19l.564 1.083 1.248.171-.905.842.215 1.191-1.122-.56-1.116.56.216-1.19-.906-.843 1.248-.171.558-1.083ZM57.681 19l.558 1.082 1.254.172-.906.842.21 1.191-1.116-.561-1.122.561.216-1.191-.906-.842 1.254-.172.558-1.082ZM44.812 83l.558 1.082 1.254.172-.906.842.216 1.191-1.122-.561-1.116.561.21-1.191-.906-.842 1.254-.172.558-1.082ZM51.243 83l.564 1.083 1.248.171-.905.842.215 1.191-1.122-.56-1.116.56.216-1.19-.906-.843 1.248-.171.558-1.083ZM57.681 83l.558 1.082 1.254.172-.906.842.21 1.191-1.116-.561-1.122.561.216-1.191-.906-.842 1.254-.172.558-1.082Z" fill="#fff"/><defs><filter id="a" x=".6" y="0" width="101.999" height="102" filterUnits="userSpaceOnUse" color-interpolation-filters="sRGB"><feFlood flood-opacity="0" result="BackgroundImageFix"/><feColorMatrix in="SourceAlpha" values="0 0 0 0 0 0 0 0 0 0 0 0 0 0 0 0 0 0 127 0" result="hardAlpha"/><feOffset dy="-.6"/><feGaussianBlur stdDeviation="1.2"/><feComposite in2="hardAlpha" operator="out"/><feColorMatrix values="0 0 0 0 0 0 0 0 0 0 0 0 0 0 0 0 0 0 0.1 0"/><feBlend in2="BackgroundImageFix" result="effect1_dropShadow_624_829"/><feBlend in="SourceGraphic" in2="effect1_dropShadow_624_829" result="shape"/></filter></defs></svg>