<svg width="98" height="85" viewBox="0 0 98 85" fill="none" xmlns="http://www.w3.org/2000/svg">
<path d="M96.1299 46.0129L96.1449 45.9979V45.5837C96.1449 32.6356 85.649 22.1396 72.7009 22.1396H56.4831C43.535 22.1396 33.0391 32.6356 33.0391 45.5837C33.0391 58.5318 43.535 69.0277 56.4831 69.0277H65.4716C71.5166 78.0374 80.6458 82.9649 88.869 83L91.5375 83.0113L89.5337 81.249C85.7509 77.9223 83.1573 72.6477 82.9664 66.6606C90.6396 62.9113 95.9708 55.0919 96.1299 46.0129Z" fill="white" stroke="white" stroke-width="2"/>
<path d="M64.8093 24.4336C64.8212 11.4956 54.3243 1 41.3767 1H25.1589C12.2108 1 1.71484 11.4959 1.71484 24.444C1.71484 33.7123 7.09208 41.7043 14.8831 45.5101C14.7015 51.4954 12.0986 56.7703 8.31473 60.098L6.31088 61.8603L8.9794 61.849C17.2026 61.8139 26.3318 56.8864 32.3768 47.8767H41.3653C54.3131 47.8767 64.8088 37.3813 64.8093 24.4336ZM64.8093 24.4336L63.8093 24.4327H64.8093C64.8093 24.433 64.8093 24.4333 64.8093 24.4336Z" fill="white" stroke="white" stroke-width="2"/>
<path d="M95.1429 45.5837C95.1429 33.1879 85.0947 23.1396 72.6989 23.1396H56.4811C44.0853 23.1396 34.0371 33.1879 34.0371 45.5837C34.0371 57.9795 44.0853 68.0277 56.4811 68.0277H66.0077C71.8937 77.0893 80.8985 81.9659 88.8713 82C84.7318 78.3595 81.9759 72.5528 81.9533 66.0317C89.7219 62.5046 95.1316 54.6792 95.1316 45.595L95.1429 45.5837Z" fill="#4B9ABD"/>
<path d="M58.2943 60.9737L67.2726 36.0233H70.8539L79.8323 60.9737H76.251L73.8501 54.2412H64.2664L61.8654 60.9737H58.2842H58.2943ZM65.3458 51.1764H72.7908L69.0683 40.7662L65.3458 51.1764Z" fill="white"/>
<path d="M41.3747 2H25.1569C12.7611 2 2.71289 12.0482 2.71289 24.444C2.71289 33.5396 8.1226 41.3536 15.8912 44.8807C15.8799 51.4018 13.1127 57.2085 8.97318 60.849C16.946 60.8149 25.9508 55.9383 31.8368 46.8767H41.3634C53.7592 46.8767 63.8074 36.8285 63.8074 24.4327C63.8187 12.0482 53.7705 2 41.3747 2Z" fill="#6BC6EE"/>
<path d="M41.3218 35.434L39.0833 33.5883C36.7376 35.2697 34.3239 36.0234 31.6279 36.0234C24.7273 36.0234 19.7246 31.1532 19.7246 23.5482C19.7246 15.9433 24.7273 11.073 31.6279 11.073C38.5285 11.073 43.5409 15.9433 43.5409 23.5482C43.5409 26.5245 42.7428 29.1335 40.9909 31.7426L43.064 33.424L41.3413 35.4436L41.3218 35.434ZM23.3063 23.5385C23.3063 28.8823 26.0315 33.0665 31.6279 33.0665C33.1852 33.0665 35.2875 32.8249 36.8447 31.6943L33.2922 28.8147L35.0149 26.7274L38.6356 29.9163C40.1539 27.5488 40.2901 25.4615 40.2901 23.5385C40.2901 18.1948 37.2146 14.0106 31.6279 14.0106C26.0412 14.0106 23.3063 18.1948 23.3063 23.5385Z" fill="white"/>
</svg>
