<svg width="23" height="18" fill="none" xmlns="http://www.w3.org/2000/svg"><path d="m22.352 4.658-.001-.01c-.02-.177-.205-1.758-.974-2.562-.889-.945-1.897-1.06-2.381-1.115a5.796 5.796 0 0 1-.11-.014l-.038-.004c-2.921-.212-7.332-.24-7.376-.24l-.004-.001h-.004c-.044 0-4.455.03-7.402.241l-.039.004c-.031.005-.066.009-.103.013-.48.055-1.476.17-2.367 1.15C.82 2.915.609 4.462.587 4.636l-.003.022A45.819 45.819 0 0 0 .422 8.26v1.652c0 1.767.156 3.527.162 3.601l.002.012c.018.175.204 1.726.97 2.53.835.914 1.892 1.035 2.46 1.1.09.01.168.02.22.028l.051.008c1.687.16 6.974.239 7.198.242h.014c.044 0 4.454-.029 7.375-.241l.039-.004c.037-.005.078-.01.124-.014.476-.05 1.467-.156 2.346-1.122.733-.796.945-2.342.966-2.516l.003-.023a45.76 45.76 0 0 0 .162-3.601V8.26c0-1.767-.156-3.527-.162-3.602Zm-1.133 5.254c0 1.636-.143 3.32-.156 3.475-.055.426-.278 1.404-.635 1.792-.55.605-1.115.665-1.528.708a6.44 6.44 0 0 0-.138.016c-2.825.204-7.069.235-7.264.236-.22-.003-5.43-.082-7.065-.234a5.638 5.638 0 0 0-.27-.035c-.483-.055-1.146-.131-1.655-.691l-.012-.013c-.35-.365-.567-1.28-.623-1.774a45.18 45.18 0 0 1-.156-3.48V8.26c0-1.634.142-3.317.156-3.474.065-.502.293-1.421.635-1.793.567-.623 1.165-.692 1.56-.738l.106-.013c2.866-.205 7.14-.235 7.294-.236.153 0 4.427.031 7.267.236.035.005.073.01.114.014.407.046 1.022.116 1.586.718l.005.005c.35.365.567 1.296.622 1.8.01.11.157 1.819.157 3.48v1.653Z" fill="#fff" fill-opacity=".7"/><path d="M14.372 8.278 9.49 5.61a.89.89 0 0 0-.888.015.888.888 0 0 0-.439.77v5.292c0 .318.163.606.437.769a.895.895 0 0 0 .884.02l4.881-2.623a.896.896 0 0 0 .006-1.575Zm-4.913 2.743V7.067l3.648 1.994-3.648 1.96Z" fill="#fff" fill-opacity=".7"/></svg>